M48
; DRILL file {KiCad 8.0.0} date 2024-03-18T00:06:55-0700
; FORMAT={-:-/ absolute / metric / decimal}
; #@! TF.CreationDate,2024-03-18T00:06:55-07:00
; #@! TF.GenerationSoftware,Kicad,Pcbnew,8.0.0
; #@! TF.FileFunction,Plated,1,2,PTH
FMAT,2
METRIC
; #@! TA.AperFunction,Plated,PTH,ViaDrill
T1C0.400
; #@! TA.AperFunction,Plated,PTH,ComponentDrill
T2C1.000
%
G90
G05
T1
X158.75Y-103.632
X161.29Y-103.124
X181.61Y-101.854
T2
X115.585Y-96.204
X115.585Y-98.744
X118.125Y-96.204
X118.125Y-98.744
X120.665Y-96.204
X120.665Y-98.744
X143.51Y-85.088
X143.51Y-107.95
X146.05Y-85.088
X146.05Y-107.95
X148.59Y-85.088
X148.59Y-107.95
X151.13Y-85.088
X151.13Y-107.95
X153.67Y-85.088
X153.67Y-107.95
X156.21Y-85.088
X156.21Y-107.95
X158.75Y-85.088
X158.75Y-107.95
X161.29Y-85.088
X161.29Y-107.95
X163.83Y-85.088
X163.83Y-107.95
X166.37Y-85.088
X166.37Y-107.95
X168.91Y-85.088
X168.91Y-107.95
X171.45Y-85.088
X171.45Y-107.95
X184.404Y-96.012
X184.404Y-98.552
X186.944Y-96.012
X186.944Y-98.552
X189.484Y-96.012
X189.484Y-98.552
M30
