%TF.GenerationSoftware,KiCad,Pcbnew,(7.0.0)*%
%TF.CreationDate,2024-02-23T19:09:33-08:00*%
%TF.ProjectId,Top_Board,546f705f-426f-4617-9264-2e6b69636164,0*%
%TF.SameCoordinates,Original*%
%TF.FileFunction,Copper,L2,Bot*%
%TF.FilePolarity,Positive*%
%FSLAX46Y46*%
G04 Gerber Fmt 4.6, Leading zero omitted, Abs format (unit mm)*
G04 Created by KiCad (PCBNEW (7.0.0)) date 2024-02-23 19:09:33*
%MOMM*%
%LPD*%
G01*
G04 APERTURE LIST*
%TA.AperFunction,ComponentPad*%
%ADD10C,2.000000*%
%TD*%
%TA.AperFunction,ComponentPad*%
%ADD11C,1.700000*%
%TD*%
%TA.AperFunction,ComponentPad*%
%ADD12O,1.700000X1.700000*%
%TD*%
%TA.AperFunction,ViaPad*%
%ADD13C,0.800000*%
%TD*%
%TA.AperFunction,Conductor*%
%ADD14C,0.250000*%
%TD*%
G04 APERTURE END LIST*
D10*
%TO.P,U1,1,3v*%
%TO.N,3V*%
X171450000Y-107950000D03*
%TO.P,U1,2,1*%
%TO.N,unconnected-(U1-1-Pad2)*%
X168910000Y-107950000D03*
%TO.P,U1,3,2*%
%TO.N,unconnected-(U1-2-Pad3)*%
X166370000Y-107950000D03*
%TO.P,U1,4,3*%
%TO.N,unconnected-(U1-3-Pad4)*%
X163830000Y-107950000D03*
%TO.P,U1,5,10*%
%TO.N,D10*%
X161290000Y-107950000D03*
%TO.P,U1,6,11*%
%TO.N,D11*%
X158750000Y-107950000D03*
%TO.P,U1,7,12*%
%TO.N,SDA*%
X156210000Y-107950000D03*
%TO.P,U1,8,13*%
%TO.N,SCL*%
X153670000Y-107950000D03*
%TO.P,U1,9,NC*%
%TO.N,unconnected-(U1-NC-Pad9)*%
X151130000Y-107950000D03*
%TO.P,U1,10,NC*%
%TO.N,unconnected-(U1-NC-Pad10)*%
X148590000Y-107950000D03*
%TO.P,U1,11,GND*%
%TO.N,GND*%
X146050000Y-107950000D03*
%TO.P,U1,12,5V*%
%TO.N,5V*%
X143510000Y-107950000D03*
%TO.P,U1,13,GND*%
%TO.N,GND*%
X171450000Y-85088136D03*
%TO.P,U1,14,GND*%
X168910000Y-85088136D03*
%TO.P,U1,15,43*%
%TO.N,D43*%
X166370000Y-85088136D03*
%TO.P,U1,16,44*%
%TO.N,D44*%
X163830000Y-85088136D03*
%TO.P,U1,17,18*%
%TO.N,D18*%
X161290000Y-85088136D03*
%TO.P,U1,18,17*%
%TO.N,D17*%
X158750000Y-85088136D03*
%TO.P,U1,19,21*%
%TO.N,unconnected-(U1-21-Pad19)*%
X156210000Y-85088136D03*
%TO.P,U1,20,16*%
%TO.N,unconnected-(U1-16-Pad20)*%
X153670000Y-85088136D03*
%TO.P,U1,21,NC*%
%TO.N,unconnected-(U1-NC-Pad21)*%
X151130000Y-85088136D03*
%TO.P,U1,22,GND*%
%TO.N,GND*%
X148590000Y-85088136D03*
%TO.P,U1,23,GND*%
X146050000Y-85088136D03*
%TO.P,U1,24,3v*%
%TO.N,unconnected-(U1-3v-Pad24)*%
X143510000Y-85088136D03*
%TD*%
D11*
%TO.P,J1,1,Pin_1*%
%TO.N,D17*%
X115585000Y-96204000D03*
D12*
%TO.P,J1,2,Pin_2*%
%TO.N,D44*%
X115584999Y-98743999D03*
%TO.P,J1,3,Pin_3*%
%TO.N,D18*%
X118124999Y-96203999D03*
%TO.P,J1,4,Pin_4*%
%TO.N,D43*%
X118124999Y-98743999D03*
%TO.P,J1,5,Pin_5*%
%TO.N,D10*%
X120664999Y-96203999D03*
%TO.P,J1,6,Pin_6*%
%TO.N,D11*%
X120664999Y-98743999D03*
%TD*%
D11*
%TO.P,J2,1,Pin_1*%
%TO.N,GND*%
X184404000Y-96012000D03*
D12*
%TO.P,J2,2,Pin_2*%
%TO.N,3V*%
X184403999Y-98551999D03*
%TO.P,J2,3,Pin_3*%
%TO.N,5V*%
X186943999Y-96011999D03*
%TO.P,J2,4,Pin_4*%
%TO.N,SDA*%
X186943999Y-98551999D03*
%TO.P,J2,5,Pin_5*%
%TO.N,GND*%
X189483999Y-96011999D03*
%TO.P,J2,6,Pin_6*%
%TO.N,SCL*%
X189483999Y-98551999D03*
%TD*%
D13*
%TO.N,SCL*%
X181610000Y-101854000D03*
%TO.N,D10*%
X161290000Y-103124000D03*
%TO.N,D11*%
X158750000Y-103632000D03*
%TD*%
D14*
%TO.N,5V*%
X157480000Y-93980000D02*
X143510000Y-107950000D01*
X186944000Y-96012000D02*
X184912000Y-93980000D01*
X184912000Y-93980000D02*
X157480000Y-93980000D01*
%TO.N,SCL*%
X181610000Y-101854000D02*
X156210000Y-101854000D01*
X156210000Y-101854000D02*
X153670000Y-104394000D01*
X153670000Y-104394000D02*
X153670000Y-107950000D01*
%TO.N,D10*%
X161290000Y-103124000D02*
X161290000Y-107950000D01*
%TO.N,D11*%
X158750000Y-107950000D02*
X158750000Y-103632000D01*
%TO.N,D43*%
X118125000Y-100345000D02*
X119126000Y-101346000D01*
X148336000Y-101346000D02*
X157226000Y-92456000D01*
X118125000Y-98744000D02*
X118125000Y-100345000D01*
X157226000Y-92456000D02*
X159002136Y-92456000D01*
X159002136Y-92456000D02*
X166370000Y-85088136D01*
X119126000Y-101346000D02*
X148336000Y-101346000D01*
%TO.N,D44*%
X115585000Y-98744000D02*
X114046000Y-97205000D01*
X114046000Y-97205000D02*
X114046000Y-95504000D01*
X119634000Y-89916000D02*
X159002136Y-89916000D01*
X114046000Y-95504000D02*
X119634000Y-89916000D01*
X159002136Y-89916000D02*
X163830000Y-85088136D01*
%TO.N,3V*%
X184404000Y-105918000D02*
X182372000Y-107950000D01*
X184404000Y-98552000D02*
X184404000Y-105918000D01*
X182372000Y-107950000D02*
X171450000Y-107950000D01*
%TD*%
M02*
