%TF.GenerationSoftware,KiCad,Pcbnew,(7.0.0)*%
%TF.CreationDate,2024-02-23T19:09:33-08:00*%
%TF.ProjectId,Top_Board,546f705f-426f-4617-9264-2e6b69636164,0*%
%TF.SameCoordinates,Original*%
%TF.FileFunction,Copper,L1,Top*%
%TF.FilePolarity,Positive*%
%FSLAX46Y46*%
G04 Gerber Fmt 4.6, Leading zero omitted, Abs format (unit mm)*
G04 Created by KiCad (PCBNEW (7.0.0)) date 2024-02-23 19:09:33*
%MOMM*%
%LPD*%
G01*
G04 APERTURE LIST*
%TA.AperFunction,ComponentPad*%
%ADD10C,2.000000*%
%TD*%
%TA.AperFunction,ComponentPad*%
%ADD11C,1.700000*%
%TD*%
%TA.AperFunction,ComponentPad*%
%ADD12O,1.700000X1.700000*%
%TD*%
%TA.AperFunction,ViaPad*%
%ADD13C,0.800000*%
%TD*%
%TA.AperFunction,Conductor*%
%ADD14C,0.250000*%
%TD*%
G04 APERTURE END LIST*
D10*
%TO.P,U1,1,3v*%
%TO.N,3V*%
X171450000Y-107950000D03*
%TO.P,U1,2,1*%
%TO.N,unconnected-(U1-1-Pad2)*%
X168910000Y-107950000D03*
%TO.P,U1,3,2*%
%TO.N,unconnected-(U1-2-Pad3)*%
X166370000Y-107950000D03*
%TO.P,U1,4,3*%
%TO.N,unconnected-(U1-3-Pad4)*%
X163830000Y-107950000D03*
%TO.P,U1,5,10*%
%TO.N,D10*%
X161290000Y-107950000D03*
%TO.P,U1,6,11*%
%TO.N,D11*%
X158750000Y-107950000D03*
%TO.P,U1,7,12*%
%TO.N,SDA*%
X156210000Y-107950000D03*
%TO.P,U1,8,13*%
%TO.N,SCL*%
X153670000Y-107950000D03*
%TO.P,U1,9,NC*%
%TO.N,unconnected-(U1-NC-Pad9)*%
X151130000Y-107950000D03*
%TO.P,U1,10,NC*%
%TO.N,unconnected-(U1-NC-Pad10)*%
X148590000Y-107950000D03*
%TO.P,U1,11,GND*%
%TO.N,GND*%
X146050000Y-107950000D03*
%TO.P,U1,12,5V*%
%TO.N,5V*%
X143510000Y-107950000D03*
%TO.P,U1,13,GND*%
%TO.N,GND*%
X171450000Y-85088136D03*
%TO.P,U1,14,GND*%
X168910000Y-85088136D03*
%TO.P,U1,15,43*%
%TO.N,D43*%
X166370000Y-85088136D03*
%TO.P,U1,16,44*%
%TO.N,D44*%
X163830000Y-85088136D03*
%TO.P,U1,17,18*%
%TO.N,D18*%
X161290000Y-85088136D03*
%TO.P,U1,18,17*%
%TO.N,D17*%
X158750000Y-85088136D03*
%TO.P,U1,19,21*%
%TO.N,unconnected-(U1-21-Pad19)*%
X156210000Y-85088136D03*
%TO.P,U1,20,16*%
%TO.N,unconnected-(U1-16-Pad20)*%
X153670000Y-85088136D03*
%TO.P,U1,21,NC*%
%TO.N,unconnected-(U1-NC-Pad21)*%
X151130000Y-85088136D03*
%TO.P,U1,22,GND*%
%TO.N,GND*%
X148590000Y-85088136D03*
%TO.P,U1,23,GND*%
X146050000Y-85088136D03*
%TO.P,U1,24,3v*%
%TO.N,unconnected-(U1-3v-Pad24)*%
X143510000Y-85088136D03*
%TD*%
D11*
%TO.P,J1,1,Pin_1*%
%TO.N,D17*%
X115585000Y-96204000D03*
D12*
%TO.P,J1,2,Pin_2*%
%TO.N,D44*%
X115584999Y-98743999D03*
%TO.P,J1,3,Pin_3*%
%TO.N,D18*%
X118124999Y-96203999D03*
%TO.P,J1,4,Pin_4*%
%TO.N,D43*%
X118124999Y-98743999D03*
%TO.P,J1,5,Pin_5*%
%TO.N,D10*%
X120664999Y-96203999D03*
%TO.P,J1,6,Pin_6*%
%TO.N,D11*%
X120664999Y-98743999D03*
%TD*%
D11*
%TO.P,J2,1,Pin_1*%
%TO.N,GND*%
X184404000Y-96012000D03*
D12*
%TO.P,J2,2,Pin_2*%
%TO.N,3V*%
X184403999Y-98551999D03*
%TO.P,J2,3,Pin_3*%
%TO.N,5V*%
X186943999Y-96011999D03*
%TO.P,J2,4,Pin_4*%
%TO.N,SDA*%
X186943999Y-98551999D03*
%TO.P,J2,5,Pin_5*%
%TO.N,GND*%
X189483999Y-96011999D03*
%TO.P,J2,6,Pin_6*%
%TO.N,SCL*%
X189483999Y-98551999D03*
%TD*%
D13*
%TO.N,SCL*%
X181610000Y-101854000D03*
%TO.N,D10*%
X161290000Y-103124000D03*
%TO.N,D11*%
X158750000Y-103632000D03*
%TD*%
D14*
%TO.N,GND*%
X173480136Y-85088136D02*
X171450000Y-85088136D01*
X178560136Y-85088136D02*
X171450000Y-85088136D01*
X189484000Y-96012000D02*
X178560136Y-85088136D01*
X168910000Y-85088136D02*
X171450000Y-85088136D01*
X184404000Y-96012000D02*
X173480136Y-85088136D01*
%TO.N,SDA*%
X184658000Y-100838000D02*
X180594000Y-100838000D01*
X180594000Y-100838000D02*
X176530000Y-104902000D01*
X186944000Y-98552000D02*
X184658000Y-100838000D01*
X159258000Y-104902000D02*
X156210000Y-107950000D01*
X176530000Y-104902000D02*
X159258000Y-104902000D01*
%TO.N,SCL*%
X181610000Y-101854000D02*
X186182000Y-101854000D01*
X186182000Y-101854000D02*
X189484000Y-98552000D01*
%TO.N,D10*%
X120665000Y-96204000D02*
X154370000Y-96204000D01*
X154370000Y-96204000D02*
X161290000Y-103124000D01*
%TO.N,D11*%
X153862000Y-98744000D02*
X120665000Y-98744000D01*
X158750000Y-103632000D02*
X153862000Y-98744000D01*
%TO.N,D17*%
X115585000Y-96204000D02*
X118317000Y-93472000D01*
X150366136Y-93472000D02*
X158750000Y-85088136D01*
X118317000Y-93472000D02*
X150366136Y-93472000D01*
%TO.N,D18*%
X119841000Y-94488000D02*
X151890136Y-94488000D01*
X118125000Y-96204000D02*
X119841000Y-94488000D01*
X151890136Y-94488000D02*
X161290000Y-85088136D01*
%TD*%
%TA.AperFunction,Conductor*%
%TO.N,GND*%
G36*
X191836718Y-78756666D02*
G01*
X191882105Y-78802053D01*
X191898718Y-78864053D01*
X191898718Y-109603500D01*
X191882105Y-109665500D01*
X191836718Y-109710887D01*
X191774718Y-109727500D01*
X113283718Y-109727500D01*
X113221718Y-109710887D01*
X113176331Y-109665500D01*
X113159718Y-109603500D01*
X113159718Y-107950000D01*
X142004357Y-107950000D01*
X142004781Y-107955117D01*
X142024467Y-108192701D01*
X142024468Y-108192709D01*
X142024892Y-108197821D01*
X142026149Y-108202788D01*
X142026151Y-108202795D01*
X142052902Y-108308431D01*
X142085937Y-108438881D01*
X142087997Y-108443577D01*
X142183766Y-108661910D01*
X142183769Y-108661916D01*
X142185827Y-108666607D01*
X142188627Y-108670893D01*
X142188631Y-108670900D01*
X142284042Y-108816937D01*
X142321836Y-108874785D01*
X142325306Y-108878554D01*
X142325311Y-108878560D01*
X142486784Y-109053967D01*
X142486787Y-109053970D01*
X142490256Y-109057738D01*
X142686491Y-109210474D01*
X142905190Y-109328828D01*
X143140386Y-109409571D01*
X143385665Y-109450500D01*
X143629201Y-109450500D01*
X143634335Y-109450500D01*
X143879614Y-109409571D01*
X144114810Y-109328828D01*
X144333509Y-109210474D01*
X144381337Y-109173248D01*
X145185749Y-109173248D01*
X145193855Y-109184439D01*
X145222717Y-109206903D01*
X145231279Y-109212496D01*
X145440885Y-109325929D01*
X145450239Y-109330032D01*
X145675656Y-109407417D01*
X145685568Y-109409928D01*
X145920643Y-109449155D01*
X145930839Y-109450000D01*
X146169161Y-109450000D01*
X146179356Y-109449155D01*
X146414431Y-109409928D01*
X146424343Y-109407417D01*
X146649760Y-109330032D01*
X146659114Y-109325929D01*
X146868723Y-109212495D01*
X146877281Y-109206903D01*
X146906146Y-109184437D01*
X146914250Y-109173250D01*
X146907589Y-109161142D01*
X146061542Y-108315095D01*
X146049999Y-108308431D01*
X146038457Y-108315095D01*
X145192408Y-109161143D01*
X145185749Y-109173248D01*
X144381337Y-109173248D01*
X144529744Y-109057738D01*
X144698164Y-108874785D01*
X144700973Y-108870485D01*
X144704118Y-108866445D01*
X144704998Y-108867130D01*
X144738637Y-108834333D01*
X144789699Y-108816647D01*
X144809937Y-108818798D01*
X144825517Y-108816937D01*
X144836345Y-108810100D01*
X145684904Y-107961542D01*
X145691568Y-107950000D01*
X145684904Y-107938457D01*
X144836345Y-107089898D01*
X144825517Y-107083061D01*
X144809937Y-107081200D01*
X144789706Y-107083351D01*
X144738658Y-107065678D01*
X144704993Y-107032873D01*
X144704118Y-107033555D01*
X144700971Y-107029512D01*
X144698164Y-107025215D01*
X144529744Y-106842262D01*
X144381333Y-106726749D01*
X145185748Y-106726749D01*
X145192408Y-106738855D01*
X146038457Y-107584904D01*
X146050000Y-107591568D01*
X146061542Y-107584904D01*
X146907590Y-106738855D01*
X146914250Y-106726749D01*
X146906143Y-106715559D01*
X146877286Y-106693099D01*
X146868719Y-106687503D01*
X146659114Y-106574070D01*
X146649760Y-106569967D01*
X146424343Y-106492582D01*
X146414431Y-106490071D01*
X146179356Y-106450844D01*
X146169161Y-106450000D01*
X145930839Y-106450000D01*
X145920643Y-106450844D01*
X145685568Y-106490071D01*
X145675656Y-106492582D01*
X145450239Y-106569967D01*
X145440885Y-106574070D01*
X145231276Y-106687504D01*
X145222717Y-106693096D01*
X145193854Y-106715560D01*
X145185748Y-106726749D01*
X144381333Y-106726749D01*
X144337559Y-106692678D01*
X144337557Y-106692676D01*
X144333509Y-106689526D01*
X144328997Y-106687084D01*
X144119316Y-106573610D01*
X144119310Y-106573607D01*
X144114810Y-106571172D01*
X144109969Y-106569510D01*
X144109962Y-106569507D01*
X143884465Y-106492094D01*
X143884461Y-106492093D01*
X143879614Y-106490429D01*
X143866130Y-106488179D01*
X143639398Y-106450344D01*
X143639387Y-106450343D01*
X143634335Y-106449500D01*
X143385665Y-106449500D01*
X143380613Y-106450343D01*
X143380601Y-106450344D01*
X143145443Y-106489585D01*
X143145441Y-106489585D01*
X143140386Y-106490429D01*
X143135541Y-106492092D01*
X143135534Y-106492094D01*
X142910037Y-106569507D01*
X142910026Y-106569511D01*
X142905190Y-106571172D01*
X142900693Y-106573605D01*
X142900683Y-106573610D01*
X142691002Y-106687084D01*
X142690995Y-106687088D01*
X142686491Y-106689526D01*
X142682448Y-106692672D01*
X142682440Y-106692678D01*
X142494304Y-106839111D01*
X142490256Y-106842262D01*
X142486793Y-106846023D01*
X142486784Y-106846032D01*
X142325311Y-107021439D01*
X142325307Y-107021444D01*
X142321836Y-107025215D01*
X142319031Y-107029506D01*
X142319028Y-107029512D01*
X142188631Y-107229099D01*
X142188624Y-107229111D01*
X142185827Y-107233393D01*
X142183772Y-107238077D01*
X142183766Y-107238089D01*
X142087997Y-107456422D01*
X142085937Y-107461119D01*
X142084679Y-107466084D01*
X142084678Y-107466089D01*
X142026151Y-107697204D01*
X142026149Y-107697213D01*
X142024892Y-107702179D01*
X142024468Y-107707288D01*
X142024467Y-107707298D01*
X142005313Y-107938457D01*
X142004357Y-107950000D01*
X113159718Y-107950000D01*
X113159718Y-98744000D01*
X114229341Y-98744000D01*
X114249937Y-98979408D01*
X114251336Y-98984630D01*
X114251337Y-98984634D01*
X114309694Y-99202430D01*
X114309697Y-99202438D01*
X114311097Y-99207663D01*
X114313385Y-99212570D01*
X114313386Y-99212572D01*
X114408678Y-99416927D01*
X114408681Y-99416933D01*
X114410965Y-99421830D01*
X114414064Y-99426257D01*
X114414066Y-99426259D01*
X114543399Y-99610966D01*
X114543402Y-99610970D01*
X114546505Y-99615401D01*
X114713599Y-99782495D01*
X114718031Y-99785598D01*
X114718033Y-99785600D01*
X114798031Y-99841615D01*
X114907170Y-99918035D01*
X115121337Y-100017903D01*
X115349592Y-100079063D01*
X115585000Y-100099659D01*
X115820408Y-100079063D01*
X116048663Y-100017903D01*
X116262830Y-99918035D01*
X116456401Y-99782495D01*
X116623495Y-99615401D01*
X116753424Y-99429842D01*
X116797743Y-99390976D01*
X116855000Y-99376965D01*
X116912257Y-99390976D01*
X116956575Y-99429842D01*
X117083395Y-99610961D01*
X117083401Y-99610968D01*
X117086505Y-99615401D01*
X117253599Y-99782495D01*
X117258031Y-99785598D01*
X117258033Y-99785600D01*
X117338031Y-99841615D01*
X117447170Y-99918035D01*
X117661337Y-100017903D01*
X117889592Y-100079063D01*
X118125000Y-100099659D01*
X118360408Y-100079063D01*
X118588663Y-100017903D01*
X118802830Y-99918035D01*
X118996401Y-99782495D01*
X119163495Y-99615401D01*
X119293424Y-99429842D01*
X119337743Y-99390976D01*
X119395000Y-99376965D01*
X119452257Y-99390976D01*
X119496575Y-99429842D01*
X119623395Y-99610961D01*
X119623401Y-99610968D01*
X119626505Y-99615401D01*
X119793599Y-99782495D01*
X119798031Y-99785598D01*
X119798033Y-99785600D01*
X119878031Y-99841615D01*
X119987170Y-99918035D01*
X120201337Y-100017903D01*
X120429592Y-100079063D01*
X120665000Y-100099659D01*
X120900408Y-100079063D01*
X121128663Y-100017903D01*
X121342830Y-99918035D01*
X121536401Y-99782495D01*
X121703495Y-99615401D01*
X121833425Y-99429842D01*
X121838653Y-99422376D01*
X121882971Y-99383511D01*
X121940228Y-99369500D01*
X153551548Y-99369500D01*
X153599001Y-99378939D01*
X153639229Y-99405819D01*
X157811038Y-103577629D01*
X157835278Y-103611927D01*
X157846678Y-103652348D01*
X157847085Y-103656216D01*
X157864326Y-103820256D01*
X157866331Y-103826428D01*
X157866333Y-103826435D01*
X157918341Y-103986496D01*
X157922821Y-104000284D01*
X158017467Y-104164216D01*
X158144129Y-104304888D01*
X158297270Y-104416151D01*
X158470197Y-104493144D01*
X158504173Y-104500365D01*
X158562562Y-104530598D01*
X158597285Y-104586436D01*
X158598577Y-104652177D01*
X158566073Y-104709336D01*
X156787228Y-106488179D01*
X156727497Y-106521307D01*
X156659285Y-106517780D01*
X156584458Y-106492092D01*
X156579614Y-106490429D01*
X156566130Y-106488179D01*
X156339398Y-106450344D01*
X156339387Y-106450343D01*
X156334335Y-106449500D01*
X156085665Y-106449500D01*
X156080613Y-106450343D01*
X156080601Y-106450344D01*
X155845443Y-106489585D01*
X155845441Y-106489585D01*
X155840386Y-106490429D01*
X155835541Y-106492092D01*
X155835534Y-106492094D01*
X155610037Y-106569507D01*
X155610026Y-106569511D01*
X155605190Y-106571172D01*
X155600693Y-106573605D01*
X155600683Y-106573610D01*
X155391002Y-106687084D01*
X155390995Y-106687088D01*
X155386491Y-106689526D01*
X155382448Y-106692672D01*
X155382440Y-106692678D01*
X155194304Y-106839111D01*
X155190256Y-106842262D01*
X155186793Y-106846023D01*
X155186784Y-106846032D01*
X155031230Y-107015010D01*
X154973741Y-107050348D01*
X154906259Y-107050348D01*
X154848770Y-107015010D01*
X154693215Y-106846032D01*
X154693211Y-106846029D01*
X154689744Y-106842262D01*
X154541333Y-106726749D01*
X154497559Y-106692678D01*
X154497557Y-106692676D01*
X154493509Y-106689526D01*
X154488997Y-106687084D01*
X154279316Y-106573610D01*
X154279310Y-106573607D01*
X154274810Y-106571172D01*
X154269969Y-106569510D01*
X154269962Y-106569507D01*
X154044465Y-106492094D01*
X154044461Y-106492093D01*
X154039614Y-106490429D01*
X154026130Y-106488179D01*
X153799398Y-106450344D01*
X153799387Y-106450343D01*
X153794335Y-106449500D01*
X153545665Y-106449500D01*
X153540613Y-106450343D01*
X153540601Y-106450344D01*
X153305443Y-106489585D01*
X153305441Y-106489585D01*
X153300386Y-106490429D01*
X153295541Y-106492092D01*
X153295534Y-106492094D01*
X153070037Y-106569507D01*
X153070026Y-106569511D01*
X153065190Y-106571172D01*
X153060693Y-106573605D01*
X153060683Y-106573610D01*
X152851002Y-106687084D01*
X152850995Y-106687088D01*
X152846491Y-106689526D01*
X152842448Y-106692672D01*
X152842440Y-106692678D01*
X152654304Y-106839111D01*
X152650256Y-106842262D01*
X152646793Y-106846023D01*
X152646784Y-106846032D01*
X152491230Y-107015010D01*
X152433741Y-107050348D01*
X152366259Y-107050348D01*
X152308770Y-107015010D01*
X152153215Y-106846032D01*
X152153211Y-106846029D01*
X152149744Y-106842262D01*
X152001333Y-106726749D01*
X151957559Y-106692678D01*
X151957557Y-106692676D01*
X151953509Y-106689526D01*
X151948997Y-106687084D01*
X151739316Y-106573610D01*
X151739310Y-106573607D01*
X151734810Y-106571172D01*
X151729969Y-106569510D01*
X151729962Y-106569507D01*
X151504465Y-106492094D01*
X151504461Y-106492093D01*
X151499614Y-106490429D01*
X151486130Y-106488179D01*
X151259398Y-106450344D01*
X151259387Y-106450343D01*
X151254335Y-106449500D01*
X151005665Y-106449500D01*
X151000613Y-106450343D01*
X151000601Y-106450344D01*
X150765443Y-106489585D01*
X150765441Y-106489585D01*
X150760386Y-106490429D01*
X150755541Y-106492092D01*
X150755534Y-106492094D01*
X150530037Y-106569507D01*
X150530026Y-106569511D01*
X150525190Y-106571172D01*
X150520693Y-106573605D01*
X150520683Y-106573610D01*
X150311002Y-106687084D01*
X150310995Y-106687088D01*
X150306491Y-106689526D01*
X150302448Y-106692672D01*
X150302440Y-106692678D01*
X150114304Y-106839111D01*
X150110256Y-106842262D01*
X150106793Y-106846023D01*
X150106784Y-106846032D01*
X149951230Y-107015010D01*
X149893741Y-107050348D01*
X149826259Y-107050348D01*
X149768770Y-107015010D01*
X149613215Y-106846032D01*
X149613211Y-106846029D01*
X149609744Y-106842262D01*
X149461333Y-106726749D01*
X149417559Y-106692678D01*
X149417557Y-106692676D01*
X149413509Y-106689526D01*
X149408997Y-106687084D01*
X149199316Y-106573610D01*
X149199310Y-106573607D01*
X149194810Y-106571172D01*
X149189969Y-106569510D01*
X149189962Y-106569507D01*
X148964465Y-106492094D01*
X148964461Y-106492093D01*
X148959614Y-106490429D01*
X148946130Y-106488179D01*
X148719398Y-106450344D01*
X148719387Y-106450343D01*
X148714335Y-106449500D01*
X148465665Y-106449500D01*
X148460613Y-106450343D01*
X148460601Y-106450344D01*
X148225443Y-106489585D01*
X148225441Y-106489585D01*
X148220386Y-106490429D01*
X148215541Y-106492092D01*
X148215534Y-106492094D01*
X147990037Y-106569507D01*
X147990026Y-106569511D01*
X147985190Y-106571172D01*
X147980693Y-106573605D01*
X147980683Y-106573610D01*
X147771002Y-106687084D01*
X147770995Y-106687088D01*
X147766491Y-106689526D01*
X147762448Y-106692672D01*
X147762440Y-106692678D01*
X147574304Y-106839111D01*
X147570256Y-106842262D01*
X147566793Y-106846023D01*
X147566784Y-106846032D01*
X147405306Y-107021444D01*
X147405298Y-107021454D01*
X147401836Y-107025215D01*
X147399033Y-107029503D01*
X147395883Y-107033553D01*
X147395013Y-107032876D01*
X147361317Y-107065693D01*
X147310279Y-107083353D01*
X147290051Y-107081201D01*
X147274481Y-107083061D01*
X147263653Y-107089898D01*
X146415095Y-107938457D01*
X146408431Y-107950000D01*
X146415095Y-107961542D01*
X147263653Y-108810100D01*
X147274481Y-108816937D01*
X147290056Y-108818797D01*
X147310282Y-108816646D01*
X147361336Y-108834317D01*
X147395003Y-108867124D01*
X147395879Y-108866443D01*
X147399036Y-108870499D01*
X147401836Y-108874785D01*
X147405301Y-108878549D01*
X147405305Y-108878554D01*
X147566784Y-109053967D01*
X147566787Y-109053970D01*
X147570256Y-109057738D01*
X147766491Y-109210474D01*
X147985190Y-109328828D01*
X148220386Y-109409571D01*
X148465665Y-109450500D01*
X148709201Y-109450500D01*
X148714335Y-109450500D01*
X148959614Y-109409571D01*
X149194810Y-109328828D01*
X149413509Y-109210474D01*
X149609744Y-109057738D01*
X149768771Y-108884988D01*
X149826259Y-108849651D01*
X149893741Y-108849651D01*
X149951228Y-108884988D01*
X150029696Y-108970226D01*
X150106784Y-109053967D01*
X150106787Y-109053970D01*
X150110256Y-109057738D01*
X150306491Y-109210474D01*
X150525190Y-109328828D01*
X150760386Y-109409571D01*
X151005665Y-109450500D01*
X151249201Y-109450500D01*
X151254335Y-109450500D01*
X151499614Y-109409571D01*
X151734810Y-109328828D01*
X151953509Y-109210474D01*
X152149744Y-109057738D01*
X152308771Y-108884988D01*
X152366259Y-108849651D01*
X152433741Y-108849651D01*
X152491228Y-108884988D01*
X152569696Y-108970226D01*
X152646784Y-109053967D01*
X152646787Y-109053970D01*
X152650256Y-109057738D01*
X152846491Y-109210474D01*
X153065190Y-109328828D01*
X153300386Y-109409571D01*
X153545665Y-109450500D01*
X153789201Y-109450500D01*
X153794335Y-109450500D01*
X154039614Y-109409571D01*
X154274810Y-109328828D01*
X154493509Y-109210474D01*
X154689744Y-109057738D01*
X154848771Y-108884988D01*
X154906259Y-108849651D01*
X154973741Y-108849651D01*
X155031228Y-108884988D01*
X155109696Y-108970226D01*
X155186784Y-109053967D01*
X155186787Y-109053970D01*
X155190256Y-109057738D01*
X155386491Y-109210474D01*
X155605190Y-109328828D01*
X155840386Y-109409571D01*
X156085665Y-109450500D01*
X156329201Y-109450500D01*
X156334335Y-109450500D01*
X156579614Y-109409571D01*
X156814810Y-109328828D01*
X157033509Y-109210474D01*
X157229744Y-109057738D01*
X157388771Y-108884988D01*
X157446259Y-108849651D01*
X157513741Y-108849651D01*
X157571228Y-108884988D01*
X157649696Y-108970226D01*
X157726784Y-109053967D01*
X157726787Y-109053970D01*
X157730256Y-109057738D01*
X157926491Y-109210474D01*
X158145190Y-109328828D01*
X158380386Y-109409571D01*
X158625665Y-109450500D01*
X158869201Y-109450500D01*
X158874335Y-109450500D01*
X159119614Y-109409571D01*
X159354810Y-109328828D01*
X159573509Y-109210474D01*
X159769744Y-109057738D01*
X159928771Y-108884988D01*
X159986259Y-108849651D01*
X160053741Y-108849651D01*
X160111228Y-108884988D01*
X160189696Y-108970226D01*
X160266784Y-109053967D01*
X160266787Y-109053970D01*
X160270256Y-109057738D01*
X160466491Y-109210474D01*
X160685190Y-109328828D01*
X160920386Y-109409571D01*
X161165665Y-109450500D01*
X161409201Y-109450500D01*
X161414335Y-109450500D01*
X161659614Y-109409571D01*
X161894810Y-109328828D01*
X162113509Y-109210474D01*
X162309744Y-109057738D01*
X162468771Y-108884988D01*
X162526259Y-108849651D01*
X162593741Y-108849651D01*
X162651228Y-108884988D01*
X162729696Y-108970226D01*
X162806784Y-109053967D01*
X162806787Y-109053970D01*
X162810256Y-109057738D01*
X163006491Y-109210474D01*
X163225190Y-109328828D01*
X163460386Y-109409571D01*
X163705665Y-109450500D01*
X163949201Y-109450500D01*
X163954335Y-109450500D01*
X164199614Y-109409571D01*
X164434810Y-109328828D01*
X164653509Y-109210474D01*
X164849744Y-109057738D01*
X165008771Y-108884988D01*
X165066259Y-108849651D01*
X165133741Y-108849651D01*
X165191228Y-108884988D01*
X165269696Y-108970226D01*
X165346784Y-109053967D01*
X165346787Y-109053970D01*
X165350256Y-109057738D01*
X165546491Y-109210474D01*
X165765190Y-109328828D01*
X166000386Y-109409571D01*
X166245665Y-109450500D01*
X166489201Y-109450500D01*
X166494335Y-109450500D01*
X166739614Y-109409571D01*
X166974810Y-109328828D01*
X167193509Y-109210474D01*
X167389744Y-109057738D01*
X167548771Y-108884988D01*
X167606259Y-108849651D01*
X167673741Y-108849651D01*
X167731228Y-108884988D01*
X167809696Y-108970226D01*
X167886784Y-109053967D01*
X167886787Y-109053970D01*
X167890256Y-109057738D01*
X168086491Y-109210474D01*
X168305190Y-109328828D01*
X168540386Y-109409571D01*
X168785665Y-109450500D01*
X169029201Y-109450500D01*
X169034335Y-109450500D01*
X169279614Y-109409571D01*
X169514810Y-109328828D01*
X169733509Y-109210474D01*
X169929744Y-109057738D01*
X170088771Y-108884988D01*
X170146259Y-108849651D01*
X170213741Y-108849651D01*
X170271228Y-108884988D01*
X170349696Y-108970226D01*
X170426784Y-109053967D01*
X170426787Y-109053970D01*
X170430256Y-109057738D01*
X170626491Y-109210474D01*
X170845190Y-109328828D01*
X171080386Y-109409571D01*
X171325665Y-109450500D01*
X171569201Y-109450500D01*
X171574335Y-109450500D01*
X171819614Y-109409571D01*
X172054810Y-109328828D01*
X172273509Y-109210474D01*
X172469744Y-109057738D01*
X172638164Y-108874785D01*
X172774173Y-108666607D01*
X172874063Y-108438881D01*
X172935108Y-108197821D01*
X172955643Y-107950000D01*
X172935108Y-107702179D01*
X172874063Y-107461119D01*
X172774173Y-107233393D01*
X172638164Y-107025215D01*
X172469744Y-106842262D01*
X172321333Y-106726749D01*
X172277559Y-106692678D01*
X172277557Y-106692676D01*
X172273509Y-106689526D01*
X172268997Y-106687084D01*
X172059316Y-106573610D01*
X172059310Y-106573607D01*
X172054810Y-106571172D01*
X172049969Y-106569510D01*
X172049962Y-106569507D01*
X171824465Y-106492094D01*
X171824461Y-106492093D01*
X171819614Y-106490429D01*
X171806130Y-106488179D01*
X171579398Y-106450344D01*
X171579387Y-106450343D01*
X171574335Y-106449500D01*
X171325665Y-106449500D01*
X171320613Y-106450343D01*
X171320601Y-106450344D01*
X171085443Y-106489585D01*
X171085441Y-106489585D01*
X171080386Y-106490429D01*
X171075541Y-106492092D01*
X171075534Y-106492094D01*
X170850037Y-106569507D01*
X170850026Y-106569511D01*
X170845190Y-106571172D01*
X170840693Y-106573605D01*
X170840683Y-106573610D01*
X170631002Y-106687084D01*
X170630995Y-106687088D01*
X170626491Y-106689526D01*
X170622448Y-106692672D01*
X170622440Y-106692678D01*
X170434304Y-106839111D01*
X170430256Y-106842262D01*
X170426793Y-106846023D01*
X170426784Y-106846032D01*
X170271230Y-107015010D01*
X170213741Y-107050348D01*
X170146259Y-107050348D01*
X170088770Y-107015010D01*
X169933215Y-106846032D01*
X169933211Y-106846029D01*
X169929744Y-106842262D01*
X169781333Y-106726749D01*
X169737559Y-106692678D01*
X169737557Y-106692676D01*
X169733509Y-106689526D01*
X169728997Y-106687084D01*
X169519316Y-106573610D01*
X169519310Y-106573607D01*
X169514810Y-106571172D01*
X169509969Y-106569510D01*
X169509962Y-106569507D01*
X169284465Y-106492094D01*
X169284461Y-106492093D01*
X169279614Y-106490429D01*
X169266130Y-106488179D01*
X169039398Y-106450344D01*
X169039387Y-106450343D01*
X169034335Y-106449500D01*
X168785665Y-106449500D01*
X168780613Y-106450343D01*
X168780601Y-106450344D01*
X168545443Y-106489585D01*
X168545441Y-106489585D01*
X168540386Y-106490429D01*
X168535541Y-106492092D01*
X168535534Y-106492094D01*
X168310037Y-106569507D01*
X168310026Y-106569511D01*
X168305190Y-106571172D01*
X168300693Y-106573605D01*
X168300683Y-106573610D01*
X168091002Y-106687084D01*
X168090995Y-106687088D01*
X168086491Y-106689526D01*
X168082448Y-106692672D01*
X168082440Y-106692678D01*
X167894304Y-106839111D01*
X167890256Y-106842262D01*
X167886793Y-106846023D01*
X167886784Y-106846032D01*
X167731230Y-107015010D01*
X167673741Y-107050348D01*
X167606259Y-107050348D01*
X167548770Y-107015010D01*
X167393215Y-106846032D01*
X167393211Y-106846029D01*
X167389744Y-106842262D01*
X167241333Y-106726749D01*
X167197559Y-106692678D01*
X167197557Y-106692676D01*
X167193509Y-106689526D01*
X167188997Y-106687084D01*
X166979316Y-106573610D01*
X166979310Y-106573607D01*
X166974810Y-106571172D01*
X166969969Y-106569510D01*
X166969962Y-106569507D01*
X166744465Y-106492094D01*
X166744461Y-106492093D01*
X166739614Y-106490429D01*
X166726130Y-106488179D01*
X166499398Y-106450344D01*
X166499387Y-106450343D01*
X166494335Y-106449500D01*
X166245665Y-106449500D01*
X166240613Y-106450343D01*
X166240601Y-106450344D01*
X166005443Y-106489585D01*
X166005441Y-106489585D01*
X166000386Y-106490429D01*
X165995541Y-106492092D01*
X165995534Y-106492094D01*
X165770037Y-106569507D01*
X165770026Y-106569511D01*
X165765190Y-106571172D01*
X165760693Y-106573605D01*
X165760683Y-106573610D01*
X165551002Y-106687084D01*
X165550995Y-106687088D01*
X165546491Y-106689526D01*
X165542448Y-106692672D01*
X165542440Y-106692678D01*
X165354304Y-106839111D01*
X165350256Y-106842262D01*
X165346793Y-106846023D01*
X165346784Y-106846032D01*
X165191230Y-107015010D01*
X165133741Y-107050348D01*
X165066259Y-107050348D01*
X165008770Y-107015010D01*
X164853215Y-106846032D01*
X164853211Y-106846029D01*
X164849744Y-106842262D01*
X164701333Y-106726749D01*
X164657559Y-106692678D01*
X164657557Y-106692676D01*
X164653509Y-106689526D01*
X164648997Y-106687084D01*
X164439316Y-106573610D01*
X164439310Y-106573607D01*
X164434810Y-106571172D01*
X164429969Y-106569510D01*
X164429962Y-106569507D01*
X164204465Y-106492094D01*
X164204461Y-106492093D01*
X164199614Y-106490429D01*
X164186130Y-106488179D01*
X163959398Y-106450344D01*
X163959387Y-106450343D01*
X163954335Y-106449500D01*
X163705665Y-106449500D01*
X163700613Y-106450343D01*
X163700601Y-106450344D01*
X163465443Y-106489585D01*
X163465441Y-106489585D01*
X163460386Y-106490429D01*
X163455541Y-106492092D01*
X163455534Y-106492094D01*
X163230037Y-106569507D01*
X163230026Y-106569511D01*
X163225190Y-106571172D01*
X163220693Y-106573605D01*
X163220683Y-106573610D01*
X163011002Y-106687084D01*
X163010995Y-106687088D01*
X163006491Y-106689526D01*
X163002448Y-106692672D01*
X163002440Y-106692678D01*
X162814304Y-106839111D01*
X162810256Y-106842262D01*
X162806793Y-106846023D01*
X162806784Y-106846032D01*
X162651230Y-107015010D01*
X162593741Y-107050348D01*
X162526259Y-107050348D01*
X162468770Y-107015010D01*
X162313215Y-106846032D01*
X162313211Y-106846029D01*
X162309744Y-106842262D01*
X162161333Y-106726749D01*
X162117559Y-106692678D01*
X162117557Y-106692676D01*
X162113509Y-106689526D01*
X162108997Y-106687084D01*
X161899316Y-106573610D01*
X161899310Y-106573607D01*
X161894810Y-106571172D01*
X161889969Y-106569510D01*
X161889962Y-106569507D01*
X161664465Y-106492094D01*
X161664461Y-106492093D01*
X161659614Y-106490429D01*
X161646130Y-106488179D01*
X161419398Y-106450344D01*
X161419387Y-106450343D01*
X161414335Y-106449500D01*
X161165665Y-106449500D01*
X161160613Y-106450343D01*
X161160601Y-106450344D01*
X160925443Y-106489585D01*
X160925441Y-106489585D01*
X160920386Y-106490429D01*
X160915541Y-106492092D01*
X160915534Y-106492094D01*
X160690037Y-106569507D01*
X160690026Y-106569511D01*
X160685190Y-106571172D01*
X160680693Y-106573605D01*
X160680683Y-106573610D01*
X160471002Y-106687084D01*
X160470995Y-106687088D01*
X160466491Y-106689526D01*
X160462448Y-106692672D01*
X160462440Y-106692678D01*
X160274304Y-106839111D01*
X160270256Y-106842262D01*
X160266793Y-106846023D01*
X160266784Y-106846032D01*
X160111230Y-107015010D01*
X160053741Y-107050348D01*
X159986259Y-107050348D01*
X159928770Y-107015010D01*
X159773215Y-106846032D01*
X159773211Y-106846029D01*
X159769744Y-106842262D01*
X159621333Y-106726749D01*
X159577559Y-106692678D01*
X159577557Y-106692676D01*
X159573509Y-106689526D01*
X159568997Y-106687084D01*
X159359316Y-106573610D01*
X159359310Y-106573607D01*
X159354810Y-106571172D01*
X159349969Y-106569510D01*
X159349962Y-106569507D01*
X159124465Y-106492094D01*
X159124461Y-106492093D01*
X159119614Y-106490429D01*
X158874335Y-106449500D01*
X158874662Y-106447540D01*
X158817757Y-106425668D01*
X158776486Y-106369711D01*
X158771821Y-106300336D01*
X158805231Y-106239358D01*
X159480772Y-105563819D01*
X159521000Y-105536939D01*
X159568453Y-105527500D01*
X176452225Y-105527500D01*
X176463280Y-105528021D01*
X176470667Y-105529673D01*
X176537872Y-105527561D01*
X176541768Y-105527500D01*
X176565448Y-105527500D01*
X176569350Y-105527500D01*
X176573313Y-105526999D01*
X176584963Y-105526080D01*
X176628627Y-105524709D01*
X176647861Y-105519119D01*
X176666917Y-105515174D01*
X176686792Y-105512664D01*
X176727395Y-105496587D01*
X176738450Y-105492802D01*
X176780390Y-105480618D01*
X176797629Y-105470422D01*
X176815103Y-105461862D01*
X176826474Y-105457360D01*
X176826476Y-105457358D01*
X176833732Y-105454486D01*
X176869069Y-105428811D01*
X176878824Y-105422403D01*
X176916420Y-105400170D01*
X176930584Y-105386005D01*
X176945379Y-105373368D01*
X176961587Y-105361594D01*
X176989428Y-105327938D01*
X176997279Y-105319309D01*
X180497704Y-101818885D01*
X180558014Y-101785627D01*
X180626773Y-101789681D01*
X180682760Y-101829801D01*
X180708702Y-101893607D01*
X180722529Y-102025167D01*
X180724326Y-102042256D01*
X180726331Y-102048428D01*
X180726333Y-102048435D01*
X180771415Y-102187181D01*
X180782821Y-102222284D01*
X180786068Y-102227908D01*
X180786069Y-102227910D01*
X180857810Y-102352170D01*
X180877467Y-102386216D01*
X180881811Y-102391041D01*
X180881813Y-102391043D01*
X180963417Y-102481673D01*
X181004129Y-102526888D01*
X181157270Y-102638151D01*
X181330197Y-102715144D01*
X181515354Y-102754500D01*
X181698143Y-102754500D01*
X181704646Y-102754500D01*
X181889803Y-102715144D01*
X182062730Y-102638151D01*
X182215871Y-102526888D01*
X182221601Y-102520523D01*
X182223271Y-102519310D01*
X182225050Y-102517709D01*
X182225218Y-102517895D01*
X182263315Y-102490219D01*
X182313748Y-102479500D01*
X186104225Y-102479500D01*
X186115280Y-102480021D01*
X186122667Y-102481673D01*
X186189872Y-102479561D01*
X186193768Y-102479500D01*
X186217448Y-102479500D01*
X186221350Y-102479500D01*
X186225313Y-102478999D01*
X186236963Y-102478080D01*
X186280627Y-102476709D01*
X186299861Y-102471119D01*
X186318917Y-102467174D01*
X186338792Y-102464664D01*
X186379395Y-102448587D01*
X186390450Y-102444802D01*
X186432390Y-102432618D01*
X186449629Y-102422422D01*
X186467103Y-102413862D01*
X186478474Y-102409360D01*
X186478476Y-102409358D01*
X186485732Y-102406486D01*
X186521069Y-102380811D01*
X186530824Y-102374403D01*
X186568420Y-102352170D01*
X186582584Y-102338005D01*
X186597379Y-102325368D01*
X186613587Y-102313594D01*
X186641428Y-102279938D01*
X186649279Y-102271309D01*
X189028354Y-99892235D01*
X189083940Y-99860143D01*
X189148124Y-99860143D01*
X189248592Y-99887063D01*
X189484000Y-99907659D01*
X189719408Y-99887063D01*
X189947663Y-99825903D01*
X190161830Y-99726035D01*
X190355401Y-99590495D01*
X190522495Y-99423401D01*
X190658035Y-99229830D01*
X190757903Y-99015663D01*
X190819063Y-98787408D01*
X190839659Y-98552000D01*
X190819063Y-98316592D01*
X190757903Y-98088337D01*
X190658035Y-97874171D01*
X190522495Y-97680599D01*
X190355401Y-97513505D01*
X190350970Y-97510402D01*
X190350966Y-97510399D01*
X190169405Y-97383269D01*
X190130540Y-97338951D01*
X190116529Y-97281694D01*
X190130540Y-97224437D01*
X190169406Y-97180119D01*
X190350638Y-97053219D01*
X190358909Y-97046278D01*
X190518278Y-96886909D01*
X190525215Y-96878643D01*
X190654498Y-96694008D01*
X190659886Y-96684676D01*
X190755143Y-96480397D01*
X190758831Y-96470263D01*
X190810943Y-96275780D01*
X190811311Y-96264551D01*
X190800369Y-96262000D01*
X189358000Y-96262000D01*
X189296000Y-96245387D01*
X189250613Y-96200000D01*
X189234000Y-96138000D01*
X189234000Y-95745674D01*
X189734000Y-95745674D01*
X189737450Y-95758549D01*
X189750326Y-95762000D01*
X190800369Y-95762000D01*
X190811311Y-95759448D01*
X190810943Y-95748219D01*
X190758831Y-95553736D01*
X190755143Y-95543602D01*
X190659889Y-95339332D01*
X190654491Y-95329982D01*
X190525215Y-95145357D01*
X190518280Y-95137092D01*
X190358909Y-94977721D01*
X190350643Y-94970784D01*
X190166008Y-94841501D01*
X190156676Y-94836113D01*
X189952397Y-94740856D01*
X189942263Y-94737168D01*
X189747780Y-94685056D01*
X189736551Y-94684688D01*
X189734000Y-94695631D01*
X189734000Y-95745674D01*
X189234000Y-95745674D01*
X189234000Y-94695631D01*
X189231448Y-94684688D01*
X189220219Y-94685056D01*
X189025736Y-94737168D01*
X189015602Y-94740856D01*
X188811332Y-94836110D01*
X188801982Y-94841508D01*
X188617357Y-94970784D01*
X188609092Y-94977719D01*
X188449719Y-95137092D01*
X188442788Y-95145352D01*
X188315880Y-95326596D01*
X188271562Y-95365461D01*
X188214305Y-95379472D01*
X188157048Y-95365461D01*
X188112730Y-95326595D01*
X188067325Y-95261750D01*
X187982495Y-95140599D01*
X187815401Y-94973505D01*
X187810970Y-94970402D01*
X187810966Y-94970399D01*
X187626259Y-94841066D01*
X187626257Y-94841064D01*
X187621830Y-94837965D01*
X187616933Y-94835681D01*
X187616927Y-94835678D01*
X187412572Y-94740386D01*
X187412570Y-94740385D01*
X187407663Y-94738097D01*
X187402438Y-94736697D01*
X187402430Y-94736694D01*
X187184634Y-94678337D01*
X187184630Y-94678336D01*
X187179408Y-94676937D01*
X187174020Y-94676465D01*
X187174017Y-94676465D01*
X186949395Y-94656813D01*
X186944000Y-94656341D01*
X186938605Y-94656813D01*
X186713982Y-94676465D01*
X186713977Y-94676465D01*
X186708592Y-94676937D01*
X186703371Y-94678335D01*
X186703365Y-94678337D01*
X186485569Y-94736694D01*
X186485557Y-94736698D01*
X186480337Y-94738097D01*
X186475432Y-94740383D01*
X186475427Y-94740386D01*
X186271081Y-94835675D01*
X186271077Y-94835677D01*
X186266171Y-94837965D01*
X186261738Y-94841068D01*
X186261731Y-94841073D01*
X186077034Y-94970399D01*
X186077029Y-94970402D01*
X186072599Y-94973505D01*
X186068775Y-94977328D01*
X186068769Y-94977334D01*
X185909334Y-95136769D01*
X185909328Y-95136775D01*
X185905505Y-95140599D01*
X185902403Y-95145028D01*
X185902403Y-95145029D01*
X185775269Y-95326596D01*
X185730951Y-95365462D01*
X185673693Y-95379472D01*
X185616436Y-95365461D01*
X185572118Y-95326595D01*
X185526711Y-95261746D01*
X185518603Y-95254316D01*
X185509324Y-95260227D01*
X184769095Y-96000457D01*
X184762431Y-96011999D01*
X184769095Y-96023542D01*
X185509321Y-96763768D01*
X185518603Y-96769681D01*
X185526715Y-96762248D01*
X185572120Y-96697405D01*
X185616438Y-96658539D01*
X185673694Y-96644529D01*
X185730951Y-96658540D01*
X185775269Y-96697405D01*
X185902399Y-96878966D01*
X185902402Y-96878970D01*
X185905505Y-96883401D01*
X186072599Y-97050495D01*
X186077032Y-97053599D01*
X186077038Y-97053604D01*
X186258158Y-97180425D01*
X186297024Y-97224743D01*
X186311035Y-97282000D01*
X186297024Y-97339257D01*
X186258159Y-97383575D01*
X186077041Y-97510395D01*
X186072599Y-97513505D01*
X186068775Y-97517328D01*
X186068769Y-97517334D01*
X185909334Y-97676769D01*
X185909328Y-97676775D01*
X185905505Y-97680599D01*
X185902402Y-97685029D01*
X185902399Y-97685034D01*
X185775575Y-97866159D01*
X185731257Y-97905025D01*
X185674000Y-97919036D01*
X185616743Y-97905025D01*
X185572425Y-97866159D01*
X185561327Y-97850310D01*
X185442495Y-97680599D01*
X185275401Y-97513505D01*
X185270970Y-97510402D01*
X185270966Y-97510399D01*
X185089405Y-97383269D01*
X185050540Y-97338951D01*
X185036529Y-97281694D01*
X185050539Y-97224438D01*
X185089405Y-97180120D01*
X185154248Y-97134715D01*
X185161681Y-97126603D01*
X185155768Y-97117321D01*
X184415542Y-96377095D01*
X184404000Y-96370431D01*
X184392457Y-96377095D01*
X183652230Y-97117321D01*
X183646316Y-97126604D01*
X183653749Y-97134715D01*
X183718594Y-97180120D01*
X183757460Y-97224438D01*
X183771471Y-97281695D01*
X183757460Y-97338952D01*
X183718594Y-97383270D01*
X183537034Y-97510399D01*
X183537029Y-97510402D01*
X183532599Y-97513505D01*
X183528775Y-97517328D01*
X183528769Y-97517334D01*
X183369334Y-97676769D01*
X183369328Y-97676775D01*
X183365505Y-97680599D01*
X183362402Y-97685029D01*
X183362399Y-97685034D01*
X183233073Y-97869731D01*
X183233068Y-97869738D01*
X183229965Y-97874171D01*
X183227677Y-97879077D01*
X183227675Y-97879081D01*
X183132386Y-98083427D01*
X183132383Y-98083432D01*
X183130097Y-98088337D01*
X183128698Y-98093557D01*
X183128694Y-98093569D01*
X183070337Y-98311365D01*
X183070335Y-98311371D01*
X183068937Y-98316592D01*
X183068465Y-98321977D01*
X183068465Y-98321982D01*
X183065428Y-98356695D01*
X183048341Y-98552000D01*
X183068937Y-98787408D01*
X183070336Y-98792630D01*
X183070337Y-98792634D01*
X183128694Y-99010430D01*
X183128697Y-99010438D01*
X183130097Y-99015663D01*
X183132385Y-99020570D01*
X183132386Y-99020572D01*
X183227678Y-99224927D01*
X183227681Y-99224933D01*
X183229965Y-99229830D01*
X183233064Y-99234257D01*
X183233066Y-99234259D01*
X183362399Y-99418966D01*
X183362402Y-99418970D01*
X183365505Y-99423401D01*
X183532599Y-99590495D01*
X183537031Y-99593598D01*
X183537033Y-99593600D01*
X183681260Y-99694589D01*
X183726170Y-99726035D01*
X183940337Y-99825903D01*
X184168592Y-99887063D01*
X184404000Y-99907659D01*
X184406071Y-99907477D01*
X184461155Y-99920702D01*
X184505178Y-99958302D01*
X184527333Y-100011789D01*
X184522791Y-100069505D01*
X184492541Y-100118868D01*
X184435228Y-100176181D01*
X184395000Y-100203061D01*
X184347547Y-100212500D01*
X180671775Y-100212500D01*
X180660719Y-100211978D01*
X180653333Y-100210327D01*
X180645545Y-100210571D01*
X180645538Y-100210571D01*
X180586127Y-100212439D01*
X180582232Y-100212500D01*
X180554650Y-100212500D01*
X180550805Y-100212985D01*
X180550780Y-100212987D01*
X180550653Y-100213004D01*
X180539034Y-100213918D01*
X180503172Y-100215045D01*
X180503165Y-100215046D01*
X180495373Y-100215291D01*
X180487888Y-100217465D01*
X180487872Y-100217468D01*
X180476126Y-100220881D01*
X180457083Y-100224825D01*
X180444949Y-100226358D01*
X180444948Y-100226358D01*
X180437208Y-100227336D01*
X180429958Y-100230205D01*
X180429951Y-100230208D01*
X180396598Y-100243413D01*
X180385554Y-100247194D01*
X180351101Y-100257204D01*
X180351090Y-100257208D01*
X180343610Y-100259382D01*
X180336898Y-100263351D01*
X180336896Y-100263352D01*
X180326364Y-100269580D01*
X180308904Y-100278134D01*
X180297519Y-100282642D01*
X180297513Y-100282644D01*
X180290268Y-100285514D01*
X180283963Y-100290094D01*
X180283955Y-100290099D01*
X180254932Y-100311185D01*
X180245174Y-100317595D01*
X180214296Y-100335857D01*
X180214290Y-100335861D01*
X180207580Y-100339830D01*
X180202067Y-100345341D01*
X180202060Y-100345348D01*
X180193410Y-100353998D01*
X180178627Y-100366624D01*
X180168726Y-100373817D01*
X180168716Y-100373826D01*
X180162413Y-100378406D01*
X180157444Y-100384411D01*
X180157441Y-100384415D01*
X180134572Y-100412059D01*
X180126711Y-100420697D01*
X176307228Y-104240181D01*
X176267000Y-104267061D01*
X176219547Y-104276500D01*
X159632480Y-104276500D01*
X159570480Y-104259887D01*
X159525093Y-104214500D01*
X159508480Y-104152500D01*
X159525093Y-104090500D01*
X159531700Y-104079055D01*
X159577179Y-104000284D01*
X159635674Y-103820256D01*
X159655460Y-103632000D01*
X159635674Y-103443744D01*
X159577179Y-103263716D01*
X159482533Y-103099784D01*
X159355871Y-102959112D01*
X159350613Y-102955292D01*
X159350611Y-102955290D01*
X159207988Y-102851669D01*
X159207987Y-102851668D01*
X159202730Y-102847849D01*
X159196792Y-102845205D01*
X159035745Y-102773501D01*
X159035740Y-102773499D01*
X159029803Y-102770856D01*
X159023444Y-102769504D01*
X159023440Y-102769503D01*
X158851008Y-102732852D01*
X158851005Y-102732851D01*
X158844646Y-102731500D01*
X158838143Y-102731500D01*
X158785452Y-102731500D01*
X158737999Y-102722061D01*
X158697771Y-102695181D01*
X154359286Y-98356695D01*
X154351842Y-98348514D01*
X154347786Y-98342123D01*
X154298775Y-98296098D01*
X154295978Y-98293387D01*
X154279227Y-98276636D01*
X154279226Y-98276635D01*
X154276471Y-98273880D01*
X154273290Y-98271412D01*
X154264414Y-98263830D01*
X154238269Y-98239278D01*
X154238267Y-98239276D01*
X154232582Y-98233938D01*
X154225749Y-98230182D01*
X154225743Y-98230177D01*
X154215025Y-98224285D01*
X154198766Y-98213606D01*
X154189095Y-98206104D01*
X154189092Y-98206102D01*
X154182936Y-98201327D01*
X154175779Y-98198229D01*
X154175776Y-98198228D01*
X154142849Y-98183978D01*
X154132363Y-98178841D01*
X154100932Y-98161562D01*
X154100923Y-98161558D01*
X154094092Y-98157803D01*
X154086535Y-98155862D01*
X154086531Y-98155861D01*
X154074688Y-98152820D01*
X154056284Y-98146519D01*
X154045057Y-98141660D01*
X154045050Y-98141658D01*
X154037896Y-98138562D01*
X154030192Y-98137341D01*
X154030190Y-98137341D01*
X153994759Y-98131729D01*
X153983324Y-98129361D01*
X153948571Y-98120438D01*
X153948563Y-98120437D01*
X153941019Y-98118500D01*
X153933223Y-98118500D01*
X153920983Y-98118500D01*
X153901597Y-98116974D01*
X153881804Y-98113840D01*
X153874038Y-98114574D01*
X153874035Y-98114574D01*
X153838324Y-98117950D01*
X153826655Y-98118500D01*
X121940226Y-98118500D01*
X121882969Y-98104489D01*
X121838651Y-98065623D01*
X121736010Y-97919036D01*
X121703495Y-97872599D01*
X121536401Y-97705505D01*
X121531970Y-97702402D01*
X121531966Y-97702399D01*
X121350841Y-97575574D01*
X121311976Y-97531256D01*
X121297965Y-97473999D01*
X121311976Y-97416742D01*
X121350839Y-97372426D01*
X121536401Y-97242495D01*
X121703495Y-97075401D01*
X121833425Y-96889842D01*
X121838653Y-96882376D01*
X121882971Y-96843511D01*
X121940228Y-96829500D01*
X154059548Y-96829500D01*
X154107001Y-96838939D01*
X154147229Y-96865819D01*
X160351038Y-103069629D01*
X160375278Y-103103927D01*
X160386678Y-103144348D01*
X160398633Y-103258089D01*
X160404326Y-103312256D01*
X160406331Y-103318428D01*
X160406333Y-103318435D01*
X160445041Y-103437564D01*
X160462821Y-103492284D01*
X160466068Y-103497908D01*
X160466069Y-103497910D01*
X160547215Y-103638460D01*
X160557467Y-103656216D01*
X160684129Y-103796888D01*
X160689387Y-103800708D01*
X160689388Y-103800709D01*
X160716292Y-103820256D01*
X160837270Y-103908151D01*
X161010197Y-103985144D01*
X161195354Y-104024500D01*
X161378143Y-104024500D01*
X161384646Y-104024500D01*
X161569803Y-103985144D01*
X161742730Y-103908151D01*
X161895871Y-103796888D01*
X162022533Y-103656216D01*
X162117179Y-103492284D01*
X162175674Y-103312256D01*
X162195460Y-103124000D01*
X162175674Y-102935744D01*
X162117179Y-102755716D01*
X162022533Y-102591784D01*
X161895871Y-102451112D01*
X161890613Y-102447292D01*
X161890611Y-102447290D01*
X161747988Y-102343669D01*
X161747987Y-102343668D01*
X161742730Y-102339849D01*
X161710199Y-102325365D01*
X161575745Y-102265501D01*
X161575740Y-102265499D01*
X161569803Y-102262856D01*
X161563444Y-102261504D01*
X161563440Y-102261503D01*
X161391008Y-102224852D01*
X161391005Y-102224851D01*
X161384646Y-102223500D01*
X161378143Y-102223500D01*
X161325452Y-102223500D01*
X161277999Y-102214061D01*
X161237771Y-102187181D01*
X158066253Y-99015663D01*
X155067986Y-96017395D01*
X183049315Y-96017395D01*
X183068958Y-96241922D01*
X183070833Y-96252553D01*
X183129168Y-96470263D01*
X183132856Y-96480397D01*
X183228110Y-96684668D01*
X183233508Y-96694018D01*
X183281284Y-96762249D01*
X183289395Y-96769682D01*
X183298674Y-96763771D01*
X184038904Y-96023542D01*
X184045568Y-96011999D01*
X184038904Y-96000457D01*
X183298674Y-95260227D01*
X183289396Y-95254316D01*
X183281283Y-95261750D01*
X183233505Y-95329986D01*
X183228111Y-95339330D01*
X183132856Y-95543602D01*
X183129168Y-95553736D01*
X183070833Y-95771446D01*
X183068958Y-95782077D01*
X183049315Y-96006605D01*
X183049315Y-96017395D01*
X155067986Y-96017395D01*
X154867286Y-95816695D01*
X154859842Y-95808514D01*
X154855786Y-95802123D01*
X154806775Y-95756098D01*
X154803978Y-95753387D01*
X154787227Y-95736636D01*
X154784471Y-95733880D01*
X154781290Y-95731412D01*
X154772414Y-95723830D01*
X154746269Y-95699278D01*
X154746267Y-95699276D01*
X154740582Y-95693938D01*
X154733749Y-95690182D01*
X154733743Y-95690177D01*
X154723025Y-95684285D01*
X154706766Y-95673606D01*
X154697095Y-95666104D01*
X154697092Y-95666102D01*
X154690936Y-95661327D01*
X154683779Y-95658229D01*
X154683776Y-95658228D01*
X154650849Y-95643978D01*
X154640363Y-95638841D01*
X154608932Y-95621562D01*
X154608923Y-95621558D01*
X154602092Y-95617803D01*
X154594535Y-95615862D01*
X154594531Y-95615861D01*
X154582688Y-95612820D01*
X154564284Y-95606519D01*
X154553057Y-95601660D01*
X154553050Y-95601658D01*
X154545896Y-95598562D01*
X154538192Y-95597341D01*
X154538190Y-95597341D01*
X154502759Y-95591729D01*
X154491324Y-95589361D01*
X154456571Y-95580438D01*
X154456563Y-95580437D01*
X154449019Y-95578500D01*
X154441223Y-95578500D01*
X154428983Y-95578500D01*
X154409597Y-95576974D01*
X154389804Y-95573840D01*
X154382038Y-95574574D01*
X154382035Y-95574574D01*
X154346324Y-95577950D01*
X154334655Y-95578500D01*
X121940226Y-95578500D01*
X121882969Y-95564489D01*
X121838651Y-95525623D01*
X121835926Y-95521731D01*
X121703495Y-95332599D01*
X121696077Y-95325181D01*
X121665827Y-95275818D01*
X121661285Y-95218102D01*
X121683440Y-95164615D01*
X121727463Y-95127015D01*
X121783758Y-95113500D01*
X151812361Y-95113500D01*
X151823416Y-95114021D01*
X151830803Y-95115673D01*
X151898008Y-95113561D01*
X151901904Y-95113500D01*
X151925584Y-95113500D01*
X151929486Y-95113500D01*
X151933449Y-95112999D01*
X151945099Y-95112080D01*
X151988763Y-95110709D01*
X152007997Y-95105119D01*
X152027053Y-95101174D01*
X152046928Y-95098664D01*
X152087531Y-95082587D01*
X152098586Y-95078802D01*
X152140526Y-95066618D01*
X152157765Y-95056422D01*
X152175239Y-95047862D01*
X152186610Y-95043360D01*
X152186612Y-95043358D01*
X152193868Y-95040486D01*
X152229205Y-95014811D01*
X152238960Y-95008403D01*
X152276556Y-94986170D01*
X152290720Y-94972005D01*
X152305515Y-94959368D01*
X152321723Y-94947594D01*
X152349564Y-94913938D01*
X152357415Y-94905309D01*
X152365328Y-94897396D01*
X183646316Y-94897396D01*
X183652227Y-94906674D01*
X184392457Y-95646904D01*
X184404000Y-95653568D01*
X184415542Y-95646904D01*
X185155771Y-94906674D01*
X185161682Y-94897395D01*
X185154249Y-94889284D01*
X185086018Y-94841508D01*
X185076668Y-94836110D01*
X184872397Y-94740856D01*
X184862263Y-94737168D01*
X184644553Y-94678833D01*
X184633922Y-94676958D01*
X184409395Y-94657315D01*
X184398605Y-94657315D01*
X184174077Y-94676958D01*
X184163446Y-94678833D01*
X183945736Y-94737168D01*
X183935602Y-94740856D01*
X183731330Y-94836111D01*
X183721986Y-94841505D01*
X183653750Y-94889283D01*
X183646316Y-94897396D01*
X152365328Y-94897396D01*
X160712772Y-86549953D01*
X160772502Y-86516827D01*
X160840713Y-86520354D01*
X160920386Y-86547707D01*
X161165665Y-86588636D01*
X161409201Y-86588636D01*
X161414335Y-86588636D01*
X161659614Y-86547707D01*
X161894810Y-86466964D01*
X162113509Y-86348610D01*
X162309744Y-86195874D01*
X162468771Y-86023124D01*
X162526259Y-85987787D01*
X162593741Y-85987787D01*
X162651228Y-86023124D01*
X162729696Y-86108362D01*
X162806784Y-86192103D01*
X162806787Y-86192106D01*
X162810256Y-86195874D01*
X163006491Y-86348610D01*
X163225190Y-86466964D01*
X163460386Y-86547707D01*
X163705665Y-86588636D01*
X163949201Y-86588636D01*
X163954335Y-86588636D01*
X164199614Y-86547707D01*
X164434810Y-86466964D01*
X164653509Y-86348610D01*
X164849744Y-86195874D01*
X165008771Y-86023124D01*
X165066259Y-85987787D01*
X165133741Y-85987787D01*
X165191228Y-86023124D01*
X165269696Y-86108362D01*
X165346784Y-86192103D01*
X165346787Y-86192106D01*
X165350256Y-86195874D01*
X165546491Y-86348610D01*
X165765190Y-86466964D01*
X166000386Y-86547707D01*
X166245665Y-86588636D01*
X166489201Y-86588636D01*
X166494335Y-86588636D01*
X166739614Y-86547707D01*
X166974810Y-86466964D01*
X167193509Y-86348610D01*
X167241337Y-86311384D01*
X168045749Y-86311384D01*
X168053855Y-86322575D01*
X168082717Y-86345039D01*
X168091279Y-86350632D01*
X168300885Y-86464065D01*
X168310239Y-86468168D01*
X168535656Y-86545553D01*
X168545568Y-86548064D01*
X168780643Y-86587291D01*
X168790839Y-86588136D01*
X169029161Y-86588136D01*
X169039356Y-86587291D01*
X169274431Y-86548064D01*
X169284343Y-86545553D01*
X169509760Y-86468168D01*
X169519114Y-86464065D01*
X169728723Y-86350631D01*
X169737281Y-86345039D01*
X169766146Y-86322573D01*
X169774250Y-86311386D01*
X169774249Y-86311384D01*
X170585749Y-86311384D01*
X170593855Y-86322575D01*
X170622717Y-86345039D01*
X170631279Y-86350632D01*
X170840885Y-86464065D01*
X170850239Y-86468168D01*
X171075656Y-86545553D01*
X171085568Y-86548064D01*
X171320643Y-86587291D01*
X171330839Y-86588136D01*
X171569161Y-86588136D01*
X171579356Y-86587291D01*
X171814431Y-86548064D01*
X171824343Y-86545553D01*
X172049760Y-86468168D01*
X172059114Y-86464065D01*
X172268723Y-86350631D01*
X172277281Y-86345039D01*
X172306146Y-86322573D01*
X172314250Y-86311386D01*
X172307589Y-86299278D01*
X171461542Y-85453231D01*
X171449999Y-85446567D01*
X171438457Y-85453231D01*
X170592408Y-86299279D01*
X170585749Y-86311384D01*
X169774249Y-86311384D01*
X169767589Y-86299278D01*
X168921542Y-85453231D01*
X168909999Y-85446567D01*
X168898457Y-85453231D01*
X168052408Y-86299279D01*
X168045749Y-86311384D01*
X167241337Y-86311384D01*
X167389744Y-86195874D01*
X167558164Y-86012921D01*
X167560973Y-86008621D01*
X167564118Y-86004581D01*
X167564998Y-86005266D01*
X167598637Y-85972469D01*
X167649699Y-85954783D01*
X167669937Y-85956934D01*
X167685517Y-85955073D01*
X167696345Y-85948236D01*
X168544904Y-85099678D01*
X168551568Y-85088135D01*
X169268431Y-85088135D01*
X169275095Y-85099678D01*
X170123653Y-85948236D01*
X170133835Y-85954665D01*
X170140343Y-85952469D01*
X170179999Y-85945957D01*
X170219654Y-85952469D01*
X170226163Y-85954666D01*
X170236345Y-85948236D01*
X171084904Y-85099678D01*
X171091568Y-85088135D01*
X171808431Y-85088135D01*
X171815095Y-85099678D01*
X172663653Y-85948236D01*
X172673034Y-85954160D01*
X172681002Y-85946435D01*
X172770924Y-85808800D01*
X172775792Y-85799805D01*
X172871527Y-85581550D01*
X172874846Y-85571883D01*
X172933353Y-85340848D01*
X172935037Y-85330754D01*
X172954717Y-85093253D01*
X172954717Y-85083019D01*
X172935037Y-84845517D01*
X172933353Y-84835423D01*
X172874846Y-84604388D01*
X172871527Y-84594721D01*
X172775792Y-84376466D01*
X172770924Y-84367471D01*
X172681002Y-84229835D01*
X172673034Y-84222110D01*
X172663653Y-84228034D01*
X171815095Y-85076593D01*
X171808431Y-85088135D01*
X171091568Y-85088135D01*
X171084904Y-85076593D01*
X170236343Y-84228032D01*
X170226163Y-84221604D01*
X170219657Y-84223801D01*
X170180001Y-84230313D01*
X170140344Y-84223801D01*
X170133836Y-84221604D01*
X170123654Y-84228033D01*
X169275095Y-85076593D01*
X169268431Y-85088135D01*
X168551568Y-85088135D01*
X168544904Y-85076593D01*
X167696345Y-84228034D01*
X167685517Y-84221197D01*
X167669937Y-84219336D01*
X167649706Y-84221487D01*
X167598658Y-84203814D01*
X167564993Y-84171009D01*
X167564118Y-84171691D01*
X167560971Y-84167648D01*
X167558164Y-84163351D01*
X167389744Y-83980398D01*
X167241333Y-83864885D01*
X168045748Y-83864885D01*
X168052408Y-83876991D01*
X168898457Y-84723040D01*
X168909999Y-84729704D01*
X168921542Y-84723040D01*
X169767590Y-83876991D01*
X169774250Y-83864885D01*
X170585748Y-83864885D01*
X170592408Y-83876991D01*
X171438457Y-84723040D01*
X171449999Y-84729704D01*
X171461542Y-84723040D01*
X172307590Y-83876991D01*
X172314250Y-83864885D01*
X172306143Y-83853695D01*
X172277286Y-83831235D01*
X172268719Y-83825639D01*
X172059114Y-83712206D01*
X172049760Y-83708103D01*
X171824343Y-83630718D01*
X171814431Y-83628207D01*
X171579356Y-83588980D01*
X171569161Y-83588136D01*
X171330839Y-83588136D01*
X171320643Y-83588980D01*
X171085568Y-83628207D01*
X171075656Y-83630718D01*
X170850239Y-83708103D01*
X170840885Y-83712206D01*
X170631276Y-83825640D01*
X170622717Y-83831232D01*
X170593854Y-83853696D01*
X170585748Y-83864885D01*
X169774250Y-83864885D01*
X169766143Y-83853695D01*
X169737286Y-83831235D01*
X169728719Y-83825639D01*
X169519114Y-83712206D01*
X169509760Y-83708103D01*
X169284343Y-83630718D01*
X169274431Y-83628207D01*
X169039356Y-83588980D01*
X169029161Y-83588136D01*
X168790839Y-83588136D01*
X168780643Y-83588980D01*
X168545568Y-83628207D01*
X168535656Y-83630718D01*
X168310239Y-83708103D01*
X168300885Y-83712206D01*
X168091276Y-83825640D01*
X168082717Y-83831232D01*
X168053854Y-83853696D01*
X168045748Y-83864885D01*
X167241333Y-83864885D01*
X167197559Y-83830814D01*
X167197557Y-83830812D01*
X167193509Y-83827662D01*
X167188997Y-83825220D01*
X166979316Y-83711746D01*
X166979310Y-83711743D01*
X166974810Y-83709308D01*
X166969969Y-83707646D01*
X166969962Y-83707643D01*
X166744465Y-83630230D01*
X166744461Y-83630229D01*
X166739614Y-83628565D01*
X166730768Y-83627088D01*
X166499398Y-83588480D01*
X166499387Y-83588479D01*
X166494335Y-83587636D01*
X166245665Y-83587636D01*
X166240613Y-83588479D01*
X166240601Y-83588480D01*
X166005443Y-83627721D01*
X166005441Y-83627721D01*
X166000386Y-83628565D01*
X165995541Y-83630228D01*
X165995534Y-83630230D01*
X165770037Y-83707643D01*
X165770026Y-83707647D01*
X165765190Y-83709308D01*
X165760693Y-83711741D01*
X165760683Y-83711746D01*
X165551002Y-83825220D01*
X165550995Y-83825224D01*
X165546491Y-83827662D01*
X165542448Y-83830808D01*
X165542440Y-83830814D01*
X165354304Y-83977247D01*
X165350256Y-83980398D01*
X165346793Y-83984159D01*
X165346784Y-83984168D01*
X165191230Y-84153146D01*
X165133741Y-84188484D01*
X165066259Y-84188484D01*
X165008770Y-84153146D01*
X164853215Y-83984168D01*
X164853211Y-83984165D01*
X164849744Y-83980398D01*
X164701333Y-83864885D01*
X164657559Y-83830814D01*
X164657557Y-83830812D01*
X164653509Y-83827662D01*
X164648997Y-83825220D01*
X164439316Y-83711746D01*
X164439310Y-83711743D01*
X164434810Y-83709308D01*
X164429969Y-83707646D01*
X164429962Y-83707643D01*
X164204465Y-83630230D01*
X164204461Y-83630229D01*
X164199614Y-83628565D01*
X164190768Y-83627088D01*
X163959398Y-83588480D01*
X163959387Y-83588479D01*
X163954335Y-83587636D01*
X163705665Y-83587636D01*
X163700613Y-83588479D01*
X163700601Y-83588480D01*
X163465443Y-83627721D01*
X163465441Y-83627721D01*
X163460386Y-83628565D01*
X163455541Y-83630228D01*
X163455534Y-83630230D01*
X163230037Y-83707643D01*
X163230026Y-83707647D01*
X163225190Y-83709308D01*
X163220693Y-83711741D01*
X163220683Y-83711746D01*
X163011002Y-83825220D01*
X163010995Y-83825224D01*
X163006491Y-83827662D01*
X163002448Y-83830808D01*
X163002440Y-83830814D01*
X162814304Y-83977247D01*
X162810256Y-83980398D01*
X162806793Y-83984159D01*
X162806784Y-83984168D01*
X162651230Y-84153146D01*
X162593741Y-84188484D01*
X162526259Y-84188484D01*
X162468770Y-84153146D01*
X162313215Y-83984168D01*
X162313211Y-83984165D01*
X162309744Y-83980398D01*
X162161333Y-83864885D01*
X162117559Y-83830814D01*
X162117557Y-83830812D01*
X162113509Y-83827662D01*
X162108997Y-83825220D01*
X161899316Y-83711746D01*
X161899310Y-83711743D01*
X161894810Y-83709308D01*
X161889969Y-83707646D01*
X161889962Y-83707643D01*
X161664465Y-83630230D01*
X161664461Y-83630229D01*
X161659614Y-83628565D01*
X161650768Y-83627088D01*
X161419398Y-83588480D01*
X161419387Y-83588479D01*
X161414335Y-83587636D01*
X161165665Y-83587636D01*
X161160613Y-83588479D01*
X161160601Y-83588480D01*
X160925443Y-83627721D01*
X160925441Y-83627721D01*
X160920386Y-83628565D01*
X160915541Y-83630228D01*
X160915534Y-83630230D01*
X160690037Y-83707643D01*
X160690026Y-83707647D01*
X160685190Y-83709308D01*
X160680693Y-83711741D01*
X160680683Y-83711746D01*
X160471002Y-83825220D01*
X160470995Y-83825224D01*
X160466491Y-83827662D01*
X160462448Y-83830808D01*
X160462440Y-83830814D01*
X160274304Y-83977247D01*
X160270256Y-83980398D01*
X160266793Y-83984159D01*
X160266784Y-83984168D01*
X160111230Y-84153146D01*
X160053741Y-84188484D01*
X159986259Y-84188484D01*
X159928770Y-84153146D01*
X159773215Y-83984168D01*
X159773211Y-83984165D01*
X159769744Y-83980398D01*
X159621333Y-83864885D01*
X159577559Y-83830814D01*
X159577557Y-83830812D01*
X159573509Y-83827662D01*
X159568997Y-83825220D01*
X159359316Y-83711746D01*
X159359310Y-83711743D01*
X159354810Y-83709308D01*
X159349969Y-83707646D01*
X159349962Y-83707643D01*
X159124465Y-83630230D01*
X159124461Y-83630229D01*
X159119614Y-83628565D01*
X159110768Y-83627088D01*
X158879398Y-83588480D01*
X158879387Y-83588479D01*
X158874335Y-83587636D01*
X158625665Y-83587636D01*
X158620613Y-83588479D01*
X158620601Y-83588480D01*
X158385443Y-83627721D01*
X158385441Y-83627721D01*
X158380386Y-83628565D01*
X158375541Y-83630228D01*
X158375534Y-83630230D01*
X158150037Y-83707643D01*
X158150026Y-83707647D01*
X158145190Y-83709308D01*
X158140693Y-83711741D01*
X158140683Y-83711746D01*
X157931002Y-83825220D01*
X157930995Y-83825224D01*
X157926491Y-83827662D01*
X157922448Y-83830808D01*
X157922440Y-83830814D01*
X157734304Y-83977247D01*
X157730256Y-83980398D01*
X157726793Y-83984159D01*
X157726784Y-83984168D01*
X157571230Y-84153146D01*
X157513741Y-84188484D01*
X157446259Y-84188484D01*
X157388770Y-84153146D01*
X157233215Y-83984168D01*
X157233211Y-83984165D01*
X157229744Y-83980398D01*
X157081333Y-83864885D01*
X157037559Y-83830814D01*
X157037557Y-83830812D01*
X157033509Y-83827662D01*
X157028997Y-83825220D01*
X156819316Y-83711746D01*
X156819310Y-83711743D01*
X156814810Y-83709308D01*
X156809969Y-83707646D01*
X156809962Y-83707643D01*
X156584465Y-83630230D01*
X156584461Y-83630229D01*
X156579614Y-83628565D01*
X156570768Y-83627088D01*
X156339398Y-83588480D01*
X156339387Y-83588479D01*
X156334335Y-83587636D01*
X156085665Y-83587636D01*
X156080613Y-83588479D01*
X156080601Y-83588480D01*
X155845443Y-83627721D01*
X155845441Y-83627721D01*
X155840386Y-83628565D01*
X155835541Y-83630228D01*
X155835534Y-83630230D01*
X155610037Y-83707643D01*
X155610026Y-83707647D01*
X155605190Y-83709308D01*
X155600693Y-83711741D01*
X155600683Y-83711746D01*
X155391002Y-83825220D01*
X155390995Y-83825224D01*
X155386491Y-83827662D01*
X155382448Y-83830808D01*
X155382440Y-83830814D01*
X155194304Y-83977247D01*
X155190256Y-83980398D01*
X155186793Y-83984159D01*
X155186784Y-83984168D01*
X155031230Y-84153146D01*
X154973741Y-84188484D01*
X154906259Y-84188484D01*
X154848770Y-84153146D01*
X154693215Y-83984168D01*
X154693211Y-83984165D01*
X154689744Y-83980398D01*
X154541333Y-83864885D01*
X154497559Y-83830814D01*
X154497557Y-83830812D01*
X154493509Y-83827662D01*
X154488997Y-83825220D01*
X154279316Y-83711746D01*
X154279310Y-83711743D01*
X154274810Y-83709308D01*
X154269969Y-83707646D01*
X154269962Y-83707643D01*
X154044465Y-83630230D01*
X154044461Y-83630229D01*
X154039614Y-83628565D01*
X154030768Y-83627088D01*
X153799398Y-83588480D01*
X153799387Y-83588479D01*
X153794335Y-83587636D01*
X153545665Y-83587636D01*
X153540613Y-83588479D01*
X153540601Y-83588480D01*
X153305443Y-83627721D01*
X153305441Y-83627721D01*
X153300386Y-83628565D01*
X153295541Y-83630228D01*
X153295534Y-83630230D01*
X153070037Y-83707643D01*
X153070026Y-83707647D01*
X153065190Y-83709308D01*
X153060693Y-83711741D01*
X153060683Y-83711746D01*
X152851002Y-83825220D01*
X152850995Y-83825224D01*
X152846491Y-83827662D01*
X152842448Y-83830808D01*
X152842440Y-83830814D01*
X152654304Y-83977247D01*
X152650256Y-83980398D01*
X152646793Y-83984159D01*
X152646784Y-83984168D01*
X152491230Y-84153146D01*
X152433741Y-84188484D01*
X152366259Y-84188484D01*
X152308770Y-84153146D01*
X152153215Y-83984168D01*
X152153211Y-83984165D01*
X152149744Y-83980398D01*
X152001333Y-83864885D01*
X151957559Y-83830814D01*
X151957557Y-83830812D01*
X151953509Y-83827662D01*
X151948997Y-83825220D01*
X151739316Y-83711746D01*
X151739310Y-83711743D01*
X151734810Y-83709308D01*
X151729969Y-83707646D01*
X151729962Y-83707643D01*
X151504465Y-83630230D01*
X151504461Y-83630229D01*
X151499614Y-83628565D01*
X151490768Y-83627088D01*
X151259398Y-83588480D01*
X151259387Y-83588479D01*
X151254335Y-83587636D01*
X151005665Y-83587636D01*
X151000613Y-83588479D01*
X151000601Y-83588480D01*
X150765443Y-83627721D01*
X150765441Y-83627721D01*
X150760386Y-83628565D01*
X150755541Y-83630228D01*
X150755534Y-83630230D01*
X150530037Y-83707643D01*
X150530026Y-83707647D01*
X150525190Y-83709308D01*
X150520693Y-83711741D01*
X150520683Y-83711746D01*
X150311002Y-83825220D01*
X150310995Y-83825224D01*
X150306491Y-83827662D01*
X150302448Y-83830808D01*
X150302440Y-83830814D01*
X150114304Y-83977247D01*
X150110256Y-83980398D01*
X150106793Y-83984159D01*
X150106784Y-83984168D01*
X149945306Y-84159580D01*
X149945298Y-84159590D01*
X149941836Y-84163351D01*
X149939033Y-84167639D01*
X149935883Y-84171689D01*
X149935013Y-84171012D01*
X149901317Y-84203829D01*
X149850279Y-84221489D01*
X149830051Y-84219337D01*
X149814481Y-84221197D01*
X149803653Y-84228034D01*
X148955095Y-85076593D01*
X148948431Y-85088135D01*
X148955095Y-85099678D01*
X149803653Y-85948236D01*
X149814481Y-85955073D01*
X149830056Y-85956933D01*
X149850282Y-85954782D01*
X149901336Y-85972453D01*
X149935003Y-86005260D01*
X149935879Y-86004579D01*
X149939036Y-86008635D01*
X149941836Y-86012921D01*
X149945301Y-86016685D01*
X149945305Y-86016690D01*
X150106784Y-86192103D01*
X150106787Y-86192106D01*
X150110256Y-86195874D01*
X150306491Y-86348610D01*
X150525190Y-86466964D01*
X150760386Y-86547707D01*
X151005665Y-86588636D01*
X151249201Y-86588636D01*
X151254335Y-86588636D01*
X151499614Y-86547707D01*
X151734810Y-86466964D01*
X151953509Y-86348610D01*
X152149744Y-86195874D01*
X152308771Y-86023124D01*
X152366259Y-85987787D01*
X152433741Y-85987787D01*
X152491228Y-86023124D01*
X152569696Y-86108362D01*
X152646784Y-86192103D01*
X152646787Y-86192106D01*
X152650256Y-86195874D01*
X152846491Y-86348610D01*
X153065190Y-86466964D01*
X153300386Y-86547707D01*
X153545665Y-86588636D01*
X153789201Y-86588636D01*
X153794335Y-86588636D01*
X154039614Y-86547707D01*
X154274810Y-86466964D01*
X154493509Y-86348610D01*
X154689744Y-86195874D01*
X154848771Y-86023124D01*
X154906259Y-85987787D01*
X154973741Y-85987787D01*
X155031228Y-86023124D01*
X155109696Y-86108362D01*
X155186784Y-86192103D01*
X155186787Y-86192106D01*
X155190256Y-86195874D01*
X155386491Y-86348610D01*
X155605190Y-86466964D01*
X155840386Y-86547707D01*
X156085665Y-86588636D01*
X156085336Y-86590606D01*
X156142210Y-86612444D01*
X156183503Y-86668400D01*
X156188178Y-86737786D01*
X156154766Y-86798777D01*
X150143364Y-92810181D01*
X150103136Y-92837061D01*
X150055683Y-92846500D01*
X118394771Y-92846500D01*
X118383718Y-92845979D01*
X118376332Y-92844328D01*
X118368534Y-92844573D01*
X118309144Y-92846439D01*
X118305250Y-92846500D01*
X118277650Y-92846500D01*
X118273799Y-92846986D01*
X118273768Y-92846988D01*
X118273640Y-92847005D01*
X118262029Y-92847918D01*
X118226171Y-92849045D01*
X118226164Y-92849046D01*
X118218372Y-92849291D01*
X118210888Y-92851465D01*
X118210877Y-92851467D01*
X118199128Y-92854881D01*
X118180083Y-92858825D01*
X118167947Y-92860358D01*
X118167944Y-92860358D01*
X118160208Y-92861336D01*
X118152960Y-92864205D01*
X118152950Y-92864208D01*
X118119592Y-92877415D01*
X118108550Y-92881196D01*
X118074097Y-92891207D01*
X118074092Y-92891208D01*
X118066610Y-92893383D01*
X118059902Y-92897349D01*
X118059897Y-92897352D01*
X118049364Y-92903581D01*
X118031900Y-92912136D01*
X118020524Y-92916640D01*
X118020517Y-92916643D01*
X118013268Y-92919514D01*
X118006962Y-92924094D01*
X118006957Y-92924098D01*
X117977927Y-92945189D01*
X117968169Y-92951598D01*
X117937298Y-92969856D01*
X117930579Y-92973830D01*
X117925063Y-92979344D01*
X117925056Y-92979351D01*
X117916407Y-92988000D01*
X117901624Y-93000626D01*
X117891727Y-93007817D01*
X117891720Y-93007823D01*
X117885413Y-93012406D01*
X117880446Y-93018408D01*
X117880435Y-93018420D01*
X117857570Y-93046059D01*
X117849710Y-93054697D01*
X116040646Y-94863761D01*
X115985059Y-94895855D01*
X115920873Y-94895855D01*
X115825637Y-94870338D01*
X115825636Y-94870337D01*
X115820408Y-94868937D01*
X115815020Y-94868465D01*
X115815017Y-94868465D01*
X115590395Y-94848813D01*
X115585000Y-94848341D01*
X115579605Y-94848813D01*
X115354982Y-94868465D01*
X115354977Y-94868465D01*
X115349592Y-94868937D01*
X115344371Y-94870335D01*
X115344365Y-94870337D01*
X115126569Y-94928694D01*
X115126557Y-94928698D01*
X115121337Y-94930097D01*
X115116432Y-94932383D01*
X115116427Y-94932386D01*
X114912081Y-95027675D01*
X114912077Y-95027677D01*
X114907171Y-95029965D01*
X114902738Y-95033068D01*
X114902731Y-95033073D01*
X114718034Y-95162399D01*
X114718029Y-95162402D01*
X114713599Y-95165505D01*
X114709775Y-95169328D01*
X114709769Y-95169334D01*
X114550334Y-95328769D01*
X114550328Y-95328775D01*
X114546505Y-95332599D01*
X114543402Y-95337029D01*
X114543399Y-95337034D01*
X114414073Y-95521731D01*
X114414068Y-95521738D01*
X114410965Y-95526171D01*
X114408677Y-95531077D01*
X114408675Y-95531081D01*
X114313386Y-95735427D01*
X114313383Y-95735432D01*
X114311097Y-95740337D01*
X114309698Y-95745557D01*
X114309694Y-95745569D01*
X114251337Y-95963365D01*
X114251335Y-95963371D01*
X114249937Y-95968592D01*
X114229341Y-96204000D01*
X114249937Y-96439408D01*
X114251336Y-96444630D01*
X114251337Y-96444634D01*
X114309694Y-96662430D01*
X114309697Y-96662438D01*
X114311097Y-96667663D01*
X114313385Y-96672570D01*
X114313386Y-96672572D01*
X114408678Y-96876927D01*
X114408681Y-96876933D01*
X114410965Y-96881830D01*
X114414064Y-96886257D01*
X114414066Y-96886259D01*
X114543399Y-97070966D01*
X114543402Y-97070970D01*
X114546505Y-97075401D01*
X114713599Y-97242495D01*
X114718032Y-97245599D01*
X114718038Y-97245604D01*
X114899158Y-97372425D01*
X114938024Y-97416743D01*
X114952035Y-97474000D01*
X114938024Y-97531257D01*
X114899159Y-97575575D01*
X114749169Y-97680599D01*
X114713599Y-97705505D01*
X114709775Y-97709328D01*
X114709769Y-97709334D01*
X114550334Y-97868769D01*
X114550328Y-97868775D01*
X114546505Y-97872599D01*
X114543402Y-97877029D01*
X114543399Y-97877034D01*
X114414073Y-98061731D01*
X114414068Y-98061738D01*
X114410965Y-98066171D01*
X114408677Y-98071077D01*
X114408675Y-98071081D01*
X114313386Y-98275427D01*
X114313383Y-98275432D01*
X114311097Y-98280337D01*
X114309698Y-98285557D01*
X114309694Y-98285569D01*
X114251337Y-98503365D01*
X114251335Y-98503371D01*
X114249937Y-98508592D01*
X114229341Y-98744000D01*
X113159718Y-98744000D01*
X113159718Y-85088136D01*
X142004357Y-85088136D01*
X142004781Y-85093253D01*
X142024467Y-85330837D01*
X142024468Y-85330845D01*
X142024892Y-85335957D01*
X142026149Y-85340924D01*
X142026151Y-85340931D01*
X142052902Y-85446567D01*
X142085937Y-85577017D01*
X142087997Y-85581713D01*
X142183766Y-85800046D01*
X142183769Y-85800052D01*
X142185827Y-85804743D01*
X142188627Y-85809029D01*
X142188631Y-85809036D01*
X142284042Y-85955073D01*
X142321836Y-86012921D01*
X142325306Y-86016690D01*
X142325311Y-86016696D01*
X142486784Y-86192103D01*
X142486787Y-86192106D01*
X142490256Y-86195874D01*
X142686491Y-86348610D01*
X142905190Y-86466964D01*
X143140386Y-86547707D01*
X143385665Y-86588636D01*
X143629201Y-86588636D01*
X143634335Y-86588636D01*
X143879614Y-86547707D01*
X144114810Y-86466964D01*
X144333509Y-86348610D01*
X144381337Y-86311384D01*
X145185749Y-86311384D01*
X145193855Y-86322575D01*
X145222717Y-86345039D01*
X145231279Y-86350632D01*
X145440885Y-86464065D01*
X145450239Y-86468168D01*
X145675656Y-86545553D01*
X145685568Y-86548064D01*
X145920643Y-86587291D01*
X145930839Y-86588136D01*
X146169161Y-86588136D01*
X146179356Y-86587291D01*
X146414431Y-86548064D01*
X146424343Y-86545553D01*
X146649760Y-86468168D01*
X146659114Y-86464065D01*
X146868723Y-86350631D01*
X146877281Y-86345039D01*
X146906146Y-86322573D01*
X146914250Y-86311386D01*
X146914249Y-86311384D01*
X147725749Y-86311384D01*
X147733855Y-86322575D01*
X147762717Y-86345039D01*
X147771279Y-86350632D01*
X147980885Y-86464065D01*
X147990239Y-86468168D01*
X148215656Y-86545553D01*
X148225568Y-86548064D01*
X148460643Y-86587291D01*
X148470839Y-86588136D01*
X148709161Y-86588136D01*
X148719356Y-86587291D01*
X148954431Y-86548064D01*
X148964343Y-86545553D01*
X149189760Y-86468168D01*
X149199114Y-86464065D01*
X149408723Y-86350631D01*
X149417281Y-86345039D01*
X149446146Y-86322573D01*
X149454250Y-86311386D01*
X149447589Y-86299278D01*
X148601542Y-85453231D01*
X148589999Y-85446567D01*
X148578457Y-85453231D01*
X147732408Y-86299279D01*
X147725749Y-86311384D01*
X146914249Y-86311384D01*
X146907589Y-86299278D01*
X146061542Y-85453231D01*
X146049999Y-85446567D01*
X146038457Y-85453231D01*
X145192408Y-86299279D01*
X145185749Y-86311384D01*
X144381337Y-86311384D01*
X144529744Y-86195874D01*
X144698164Y-86012921D01*
X144700973Y-86008621D01*
X144704118Y-86004581D01*
X144704998Y-86005266D01*
X144738637Y-85972469D01*
X144789699Y-85954783D01*
X144809937Y-85956934D01*
X144825517Y-85955073D01*
X144836345Y-85948236D01*
X145684904Y-85099678D01*
X145691568Y-85088135D01*
X146408431Y-85088135D01*
X146415095Y-85099678D01*
X147263653Y-85948236D01*
X147273835Y-85954665D01*
X147280343Y-85952469D01*
X147319999Y-85945957D01*
X147359654Y-85952469D01*
X147366163Y-85954666D01*
X147376345Y-85948236D01*
X148224904Y-85099678D01*
X148231568Y-85088135D01*
X148224904Y-85076593D01*
X147376343Y-84228032D01*
X147366163Y-84221604D01*
X147359657Y-84223801D01*
X147320001Y-84230313D01*
X147280344Y-84223801D01*
X147273836Y-84221604D01*
X147263654Y-84228033D01*
X146415095Y-85076593D01*
X146408431Y-85088135D01*
X145691568Y-85088135D01*
X145684904Y-85076593D01*
X144836345Y-84228034D01*
X144825517Y-84221197D01*
X144809937Y-84219336D01*
X144789706Y-84221487D01*
X144738658Y-84203814D01*
X144704993Y-84171009D01*
X144704118Y-84171691D01*
X144700971Y-84167648D01*
X144698164Y-84163351D01*
X144529744Y-83980398D01*
X144381333Y-83864885D01*
X145185748Y-83864885D01*
X145192408Y-83876991D01*
X146038457Y-84723040D01*
X146049999Y-84729704D01*
X146061542Y-84723040D01*
X146907590Y-83876991D01*
X146914250Y-83864885D01*
X147725748Y-83864885D01*
X147732408Y-83876991D01*
X148578457Y-84723040D01*
X148589999Y-84729704D01*
X148601542Y-84723040D01*
X149447590Y-83876991D01*
X149454250Y-83864885D01*
X149446143Y-83853695D01*
X149417286Y-83831235D01*
X149408719Y-83825639D01*
X149199114Y-83712206D01*
X149189760Y-83708103D01*
X148964343Y-83630718D01*
X148954431Y-83628207D01*
X148719356Y-83588980D01*
X148709161Y-83588136D01*
X148470839Y-83588136D01*
X148460643Y-83588980D01*
X148225568Y-83628207D01*
X148215656Y-83630718D01*
X147990239Y-83708103D01*
X147980885Y-83712206D01*
X147771276Y-83825640D01*
X147762717Y-83831232D01*
X147733854Y-83853696D01*
X147725748Y-83864885D01*
X146914250Y-83864885D01*
X146906143Y-83853695D01*
X146877286Y-83831235D01*
X146868719Y-83825639D01*
X146659114Y-83712206D01*
X146649760Y-83708103D01*
X146424343Y-83630718D01*
X146414431Y-83628207D01*
X146179356Y-83588980D01*
X146169161Y-83588136D01*
X145930839Y-83588136D01*
X145920643Y-83588980D01*
X145685568Y-83628207D01*
X145675656Y-83630718D01*
X145450239Y-83708103D01*
X145440885Y-83712206D01*
X145231276Y-83825640D01*
X145222717Y-83831232D01*
X145193854Y-83853696D01*
X145185748Y-83864885D01*
X144381333Y-83864885D01*
X144337559Y-83830814D01*
X144337557Y-83830812D01*
X144333509Y-83827662D01*
X144328997Y-83825220D01*
X144119316Y-83711746D01*
X144119310Y-83711743D01*
X144114810Y-83709308D01*
X144109969Y-83707646D01*
X144109962Y-83707643D01*
X143884465Y-83630230D01*
X143884461Y-83630229D01*
X143879614Y-83628565D01*
X143870768Y-83627088D01*
X143639398Y-83588480D01*
X143639387Y-83588479D01*
X143634335Y-83587636D01*
X143385665Y-83587636D01*
X143380613Y-83588479D01*
X143380601Y-83588480D01*
X143145443Y-83627721D01*
X143145441Y-83627721D01*
X143140386Y-83628565D01*
X143135541Y-83630228D01*
X143135534Y-83630230D01*
X142910037Y-83707643D01*
X142910026Y-83707647D01*
X142905190Y-83709308D01*
X142900693Y-83711741D01*
X142900683Y-83711746D01*
X142691002Y-83825220D01*
X142690995Y-83825224D01*
X142686491Y-83827662D01*
X142682448Y-83830808D01*
X142682440Y-83830814D01*
X142494304Y-83977247D01*
X142490256Y-83980398D01*
X142486793Y-83984159D01*
X142486784Y-83984168D01*
X142325311Y-84159575D01*
X142325307Y-84159580D01*
X142321836Y-84163351D01*
X142319031Y-84167642D01*
X142319028Y-84167648D01*
X142188631Y-84367235D01*
X142188624Y-84367247D01*
X142185827Y-84371529D01*
X142183772Y-84376213D01*
X142183766Y-84376225D01*
X142087997Y-84594558D01*
X142085937Y-84599255D01*
X142084679Y-84604220D01*
X142084678Y-84604225D01*
X142026151Y-84835340D01*
X142026149Y-84835349D01*
X142024892Y-84840315D01*
X142024468Y-84845424D01*
X142024467Y-84845434D01*
X142005313Y-85076593D01*
X142004357Y-85088136D01*
X113159718Y-85088136D01*
X113159718Y-78864053D01*
X113176331Y-78802053D01*
X113221718Y-78756666D01*
X113283718Y-78740053D01*
X191774718Y-78740053D01*
X191836718Y-78756666D01*
G37*
%TD.AperFunction*%
%TD*%
M02*
