M48
; DRILL file {KiCad 8.0.0} date 2024-03-24T13:49:49-0700
; FORMAT={-:-/ absolute / metric / decimal}
; #@! TF.CreationDate,2024-03-24T13:49:49-07:00
; #@! TF.GenerationSoftware,Kicad,Pcbnew,8.0.0
; #@! TF.FileFunction,Plated,1,2,PTH
FMAT,2
METRIC
; #@! TA.AperFunction,Plated,PTH,ViaDrill
T1C0.400
; #@! TA.AperFunction,Plated,PTH,ComponentDrill
T2C0.800
; #@! TA.AperFunction,Plated,PTH,ComponentDrill
T3C1.000
; #@! TA.AperFunction,Plated,PTH,ComponentDrill
T4C1.500
; #@! TA.AperFunction,Plated,PTH,ComponentDrill
T5C1.700
; #@! TA.AperFunction,Plated,PTH,ComponentDrill
T6C1.850
%
G90
G05
T1
X105.156Y-122.428
X113.284Y-91.44
X113.538Y-95.25
X115.926Y-111.303
X116.789Y-91.948
X121.158Y-82.55
X123.698Y-125.476
X123.698Y-128.016
X124.562Y-111.328
X125.501Y-91.923
X126.111Y-97.663
X127.254Y-91.694
X128.016Y-109.474
X128.524Y-108.204
X129.286Y-119.126
X130.048Y-101.854
X131.318Y-120.396
X133.096Y-107.188
X134.061Y-94.691
X134.62Y-89.662
X135.382Y-84.074
X137.16Y-91.694
X137.16Y-93.472
X144.272Y-94.996
T2
X144.78Y-71.882
X144.78Y-74.422
X144.78Y-76.962
X144.78Y-79.502
X146.558Y-99.06
X146.558Y-104.14
X146.573Y-111.506
X146.573Y-116.586
X149.098Y-101.6
X149.113Y-114.046
X152.4Y-71.882
X152.4Y-74.422
X152.4Y-76.962
X152.4Y-79.502
T3
X121.158Y-68.326
X121.158Y-70.866
X121.158Y-73.406
X121.158Y-137.16
X121.158Y-139.7
X121.158Y-142.24
X123.698Y-68.326
X123.698Y-70.866
X123.698Y-73.406
X123.698Y-137.16
X123.698Y-139.7
X123.698Y-142.24
X132.319Y-68.58
X134.859Y-68.58
X137.399Y-68.58
X144.27Y-127.508
X144.352Y-139.446
X149.27Y-127.508
X149.352Y-139.446
T4
X136.144Y-80.01
X136.398Y-122.682
T5
X159.45Y-121.746
X159.45Y-131.746
X161.95Y-119.246
X161.95Y-126.746
X161.95Y-134.246
X171.45Y-121.746
X171.45Y-131.746
T6
X166.082Y-79.605
X166.082Y-89.135
X166.082Y-98.665
X166.082Y-108.195
M30
