%TF.GenerationSoftware,KiCad,Pcbnew,8.0.0*%
%TF.CreationDate,2024-03-24T13:49:44-07:00*%
%TF.ProjectId,Bottom_Board,426f7474-6f6d-45f4-926f-6172642e6b69,0*%
%TF.SameCoordinates,Original*%
%TF.FileFunction,Legend,Top*%
%TF.FilePolarity,Positive*%
%FSLAX46Y46*%
G04 Gerber Fmt 4.6, Leading zero omitted, Abs format (unit mm)*
G04 Created by KiCad (PCBNEW 8.0.0) date 2024-03-24 13:49:44*
%MOMM*%
%LPD*%
G01*
G04 APERTURE LIST*
%ADD10C,0.150000*%
%ADD11C,0.300000*%
%ADD12C,0.100000*%
%ADD13C,0.120000*%
%ADD14C,0.000000*%
G04 APERTURE END LIST*
D10*
X163639500Y-90551000D02*
X161988500Y-90551000D01*
X162814000Y-90551000D02*
X162814000Y-77597000D01*
X163639500Y-77597000D02*
X161988500Y-77597000D01*
X140771714Y-77670819D02*
X140771714Y-76670819D01*
X140771714Y-76670819D02*
X141009809Y-76670819D01*
X141009809Y-76670819D02*
X141152666Y-76718438D01*
X141152666Y-76718438D02*
X141247904Y-76813676D01*
X141247904Y-76813676D02*
X141295523Y-76908914D01*
X141295523Y-76908914D02*
X141343142Y-77099390D01*
X141343142Y-77099390D02*
X141343142Y-77242247D01*
X141343142Y-77242247D02*
X141295523Y-77432723D01*
X141295523Y-77432723D02*
X141247904Y-77527961D01*
X141247904Y-77527961D02*
X141152666Y-77623200D01*
X141152666Y-77623200D02*
X141009809Y-77670819D01*
X141009809Y-77670819D02*
X140771714Y-77670819D01*
X142200285Y-77004152D02*
X142200285Y-77670819D01*
X141962190Y-76623200D02*
X141724095Y-77337485D01*
X141724095Y-77337485D02*
X142343142Y-77337485D01*
X142628857Y-76670819D02*
X143247904Y-76670819D01*
X143247904Y-76670819D02*
X142914571Y-77051771D01*
X142914571Y-77051771D02*
X143057428Y-77051771D01*
X143057428Y-77051771D02*
X143152666Y-77099390D01*
X143152666Y-77099390D02*
X143200285Y-77147009D01*
X143200285Y-77147009D02*
X143247904Y-77242247D01*
X143247904Y-77242247D02*
X143247904Y-77480342D01*
X143247904Y-77480342D02*
X143200285Y-77575580D01*
X143200285Y-77575580D02*
X143152666Y-77623200D01*
X143152666Y-77623200D02*
X143057428Y-77670819D01*
X143057428Y-77670819D02*
X142771714Y-77670819D01*
X142771714Y-77670819D02*
X142676476Y-77623200D01*
X142676476Y-77623200D02*
X142628857Y-77575580D01*
X163769922Y-68719819D02*
X164103255Y-69719819D01*
X164103255Y-69719819D02*
X164436588Y-68719819D01*
X165341350Y-69624580D02*
X165293731Y-69672200D01*
X165293731Y-69672200D02*
X165150874Y-69719819D01*
X165150874Y-69719819D02*
X165055636Y-69719819D01*
X165055636Y-69719819D02*
X164912779Y-69672200D01*
X164912779Y-69672200D02*
X164817541Y-69576961D01*
X164817541Y-69576961D02*
X164769922Y-69481723D01*
X164769922Y-69481723D02*
X164722303Y-69291247D01*
X164722303Y-69291247D02*
X164722303Y-69148390D01*
X164722303Y-69148390D02*
X164769922Y-68957914D01*
X164769922Y-68957914D02*
X164817541Y-68862676D01*
X164817541Y-68862676D02*
X164912779Y-68767438D01*
X164912779Y-68767438D02*
X165055636Y-68719819D01*
X165055636Y-68719819D02*
X165150874Y-68719819D01*
X165150874Y-68719819D02*
X165293731Y-68767438D01*
X165293731Y-68767438D02*
X165341350Y-68815057D01*
X166293731Y-69719819D02*
X165722303Y-69719819D01*
X166008017Y-69719819D02*
X166008017Y-68719819D01*
X166008017Y-68719819D02*
X165912779Y-68862676D01*
X165912779Y-68862676D02*
X165817541Y-68957914D01*
X165817541Y-68957914D02*
X165722303Y-69005533D01*
X166722303Y-69624580D02*
X166769922Y-69672200D01*
X166769922Y-69672200D02*
X166722303Y-69719819D01*
X166722303Y-69719819D02*
X166674684Y-69672200D01*
X166674684Y-69672200D02*
X166722303Y-69624580D01*
X166722303Y-69624580D02*
X166722303Y-69719819D01*
X167388969Y-68719819D02*
X167484207Y-68719819D01*
X167484207Y-68719819D02*
X167579445Y-68767438D01*
X167579445Y-68767438D02*
X167627064Y-68815057D01*
X167627064Y-68815057D02*
X167674683Y-68910295D01*
X167674683Y-68910295D02*
X167722302Y-69100771D01*
X167722302Y-69100771D02*
X167722302Y-69338866D01*
X167722302Y-69338866D02*
X167674683Y-69529342D01*
X167674683Y-69529342D02*
X167627064Y-69624580D01*
X167627064Y-69624580D02*
X167579445Y-69672200D01*
X167579445Y-69672200D02*
X167484207Y-69719819D01*
X167484207Y-69719819D02*
X167388969Y-69719819D01*
X167388969Y-69719819D02*
X167293731Y-69672200D01*
X167293731Y-69672200D02*
X167246112Y-69624580D01*
X167246112Y-69624580D02*
X167198493Y-69529342D01*
X167198493Y-69529342D02*
X167150874Y-69338866D01*
X167150874Y-69338866D02*
X167150874Y-69100771D01*
X167150874Y-69100771D02*
X167198493Y-68910295D01*
X167198493Y-68910295D02*
X167246112Y-68815057D01*
X167246112Y-68815057D02*
X167293731Y-68767438D01*
X167293731Y-68767438D02*
X167388969Y-68719819D01*
X168627064Y-68719819D02*
X168150874Y-68719819D01*
X168150874Y-68719819D02*
X168103255Y-69196009D01*
X168103255Y-69196009D02*
X168150874Y-69148390D01*
X168150874Y-69148390D02*
X168246112Y-69100771D01*
X168246112Y-69100771D02*
X168484207Y-69100771D01*
X168484207Y-69100771D02*
X168579445Y-69148390D01*
X168579445Y-69148390D02*
X168627064Y-69196009D01*
X168627064Y-69196009D02*
X168674683Y-69291247D01*
X168674683Y-69291247D02*
X168674683Y-69529342D01*
X168674683Y-69529342D02*
X168627064Y-69624580D01*
X168627064Y-69624580D02*
X168579445Y-69672200D01*
X168579445Y-69672200D02*
X168484207Y-69719819D01*
X168484207Y-69719819D02*
X168246112Y-69719819D01*
X168246112Y-69719819D02*
X168150874Y-69672200D01*
X168150874Y-69672200D02*
X168103255Y-69624580D01*
X126746095Y-136662438D02*
X126650857Y-136614819D01*
X126650857Y-136614819D02*
X126508000Y-136614819D01*
X126508000Y-136614819D02*
X126365143Y-136662438D01*
X126365143Y-136662438D02*
X126269905Y-136757676D01*
X126269905Y-136757676D02*
X126222286Y-136852914D01*
X126222286Y-136852914D02*
X126174667Y-137043390D01*
X126174667Y-137043390D02*
X126174667Y-137186247D01*
X126174667Y-137186247D02*
X126222286Y-137376723D01*
X126222286Y-137376723D02*
X126269905Y-137471961D01*
X126269905Y-137471961D02*
X126365143Y-137567200D01*
X126365143Y-137567200D02*
X126508000Y-137614819D01*
X126508000Y-137614819D02*
X126603238Y-137614819D01*
X126603238Y-137614819D02*
X126746095Y-137567200D01*
X126746095Y-137567200D02*
X126793714Y-137519580D01*
X126793714Y-137519580D02*
X126793714Y-137186247D01*
X126793714Y-137186247D02*
X126603238Y-137186247D01*
X127222286Y-137614819D02*
X127222286Y-136614819D01*
X127222286Y-136614819D02*
X127793714Y-137614819D01*
X127793714Y-137614819D02*
X127793714Y-136614819D01*
X128269905Y-137614819D02*
X128269905Y-136614819D01*
X128269905Y-136614819D02*
X128508000Y-136614819D01*
X128508000Y-136614819D02*
X128650857Y-136662438D01*
X128650857Y-136662438D02*
X128746095Y-136757676D01*
X128746095Y-136757676D02*
X128793714Y-136852914D01*
X128793714Y-136852914D02*
X128841333Y-137043390D01*
X128841333Y-137043390D02*
X128841333Y-137186247D01*
X128841333Y-137186247D02*
X128793714Y-137376723D01*
X128793714Y-137376723D02*
X128746095Y-137471961D01*
X128746095Y-137471961D02*
X128650857Y-137567200D01*
X128650857Y-137567200D02*
X128508000Y-137614819D01*
X128508000Y-137614819D02*
X128269905Y-137614819D01*
X116189333Y-142647200D02*
X116332190Y-142694819D01*
X116332190Y-142694819D02*
X116570285Y-142694819D01*
X116570285Y-142694819D02*
X116665523Y-142647200D01*
X116665523Y-142647200D02*
X116713142Y-142599580D01*
X116713142Y-142599580D02*
X116760761Y-142504342D01*
X116760761Y-142504342D02*
X116760761Y-142409104D01*
X116760761Y-142409104D02*
X116713142Y-142313866D01*
X116713142Y-142313866D02*
X116665523Y-142266247D01*
X116665523Y-142266247D02*
X116570285Y-142218628D01*
X116570285Y-142218628D02*
X116379809Y-142171009D01*
X116379809Y-142171009D02*
X116284571Y-142123390D01*
X116284571Y-142123390D02*
X116236952Y-142075771D01*
X116236952Y-142075771D02*
X116189333Y-141980533D01*
X116189333Y-141980533D02*
X116189333Y-141885295D01*
X116189333Y-141885295D02*
X116236952Y-141790057D01*
X116236952Y-141790057D02*
X116284571Y-141742438D01*
X116284571Y-141742438D02*
X116379809Y-141694819D01*
X116379809Y-141694819D02*
X116617904Y-141694819D01*
X116617904Y-141694819D02*
X116760761Y-141742438D01*
X117760761Y-142599580D02*
X117713142Y-142647200D01*
X117713142Y-142647200D02*
X117570285Y-142694819D01*
X117570285Y-142694819D02*
X117475047Y-142694819D01*
X117475047Y-142694819D02*
X117332190Y-142647200D01*
X117332190Y-142647200D02*
X117236952Y-142551961D01*
X117236952Y-142551961D02*
X117189333Y-142456723D01*
X117189333Y-142456723D02*
X117141714Y-142266247D01*
X117141714Y-142266247D02*
X117141714Y-142123390D01*
X117141714Y-142123390D02*
X117189333Y-141932914D01*
X117189333Y-141932914D02*
X117236952Y-141837676D01*
X117236952Y-141837676D02*
X117332190Y-141742438D01*
X117332190Y-141742438D02*
X117475047Y-141694819D01*
X117475047Y-141694819D02*
X117570285Y-141694819D01*
X117570285Y-141694819D02*
X117713142Y-141742438D01*
X117713142Y-141742438D02*
X117760761Y-141790057D01*
X118665523Y-142694819D02*
X118189333Y-142694819D01*
X118189333Y-142694819D02*
X118189333Y-141694819D01*
X116141714Y-140107200D02*
X116284571Y-140154819D01*
X116284571Y-140154819D02*
X116522666Y-140154819D01*
X116522666Y-140154819D02*
X116617904Y-140107200D01*
X116617904Y-140107200D02*
X116665523Y-140059580D01*
X116665523Y-140059580D02*
X116713142Y-139964342D01*
X116713142Y-139964342D02*
X116713142Y-139869104D01*
X116713142Y-139869104D02*
X116665523Y-139773866D01*
X116665523Y-139773866D02*
X116617904Y-139726247D01*
X116617904Y-139726247D02*
X116522666Y-139678628D01*
X116522666Y-139678628D02*
X116332190Y-139631009D01*
X116332190Y-139631009D02*
X116236952Y-139583390D01*
X116236952Y-139583390D02*
X116189333Y-139535771D01*
X116189333Y-139535771D02*
X116141714Y-139440533D01*
X116141714Y-139440533D02*
X116141714Y-139345295D01*
X116141714Y-139345295D02*
X116189333Y-139250057D01*
X116189333Y-139250057D02*
X116236952Y-139202438D01*
X116236952Y-139202438D02*
X116332190Y-139154819D01*
X116332190Y-139154819D02*
X116570285Y-139154819D01*
X116570285Y-139154819D02*
X116713142Y-139202438D01*
X117141714Y-140154819D02*
X117141714Y-139154819D01*
X117141714Y-139154819D02*
X117379809Y-139154819D01*
X117379809Y-139154819D02*
X117522666Y-139202438D01*
X117522666Y-139202438D02*
X117617904Y-139297676D01*
X117617904Y-139297676D02*
X117665523Y-139392914D01*
X117665523Y-139392914D02*
X117713142Y-139583390D01*
X117713142Y-139583390D02*
X117713142Y-139726247D01*
X117713142Y-139726247D02*
X117665523Y-139916723D01*
X117665523Y-139916723D02*
X117617904Y-140011961D01*
X117617904Y-140011961D02*
X117522666Y-140107200D01*
X117522666Y-140107200D02*
X117379809Y-140154819D01*
X117379809Y-140154819D02*
X117141714Y-140154819D01*
X118094095Y-139869104D02*
X118570285Y-139869104D01*
X117998857Y-140154819D02*
X118332190Y-139154819D01*
X118332190Y-139154819D02*
X118665523Y-140154819D01*
X125785714Y-73860819D02*
X125785714Y-72860819D01*
X125785714Y-72860819D02*
X126023809Y-72860819D01*
X126023809Y-72860819D02*
X126166666Y-72908438D01*
X126166666Y-72908438D02*
X126261904Y-73003676D01*
X126261904Y-73003676D02*
X126309523Y-73098914D01*
X126309523Y-73098914D02*
X126357142Y-73289390D01*
X126357142Y-73289390D02*
X126357142Y-73432247D01*
X126357142Y-73432247D02*
X126309523Y-73622723D01*
X126309523Y-73622723D02*
X126261904Y-73717961D01*
X126261904Y-73717961D02*
X126166666Y-73813200D01*
X126166666Y-73813200D02*
X126023809Y-73860819D01*
X126023809Y-73860819D02*
X125785714Y-73860819D01*
X127309523Y-73860819D02*
X126738095Y-73860819D01*
X127023809Y-73860819D02*
X127023809Y-72860819D01*
X127023809Y-72860819D02*
X126928571Y-73003676D01*
X126928571Y-73003676D02*
X126833333Y-73098914D01*
X126833333Y-73098914D02*
X126738095Y-73146533D01*
X127928571Y-72860819D02*
X128023809Y-72860819D01*
X128023809Y-72860819D02*
X128119047Y-72908438D01*
X128119047Y-72908438D02*
X128166666Y-72956057D01*
X128166666Y-72956057D02*
X128214285Y-73051295D01*
X128214285Y-73051295D02*
X128261904Y-73241771D01*
X128261904Y-73241771D02*
X128261904Y-73479866D01*
X128261904Y-73479866D02*
X128214285Y-73670342D01*
X128214285Y-73670342D02*
X128166666Y-73765580D01*
X128166666Y-73765580D02*
X128119047Y-73813200D01*
X128119047Y-73813200D02*
X128023809Y-73860819D01*
X128023809Y-73860819D02*
X127928571Y-73860819D01*
X127928571Y-73860819D02*
X127833333Y-73813200D01*
X127833333Y-73813200D02*
X127785714Y-73765580D01*
X127785714Y-73765580D02*
X127738095Y-73670342D01*
X127738095Y-73670342D02*
X127690476Y-73479866D01*
X127690476Y-73479866D02*
X127690476Y-73241771D01*
X127690476Y-73241771D02*
X127738095Y-73051295D01*
X127738095Y-73051295D02*
X127785714Y-72956057D01*
X127785714Y-72956057D02*
X127833333Y-72908438D01*
X127833333Y-72908438D02*
X127928571Y-72860819D01*
X126698476Y-139154819D02*
X126222286Y-139154819D01*
X126222286Y-139154819D02*
X126174667Y-139631009D01*
X126174667Y-139631009D02*
X126222286Y-139583390D01*
X126222286Y-139583390D02*
X126317524Y-139535771D01*
X126317524Y-139535771D02*
X126555619Y-139535771D01*
X126555619Y-139535771D02*
X126650857Y-139583390D01*
X126650857Y-139583390D02*
X126698476Y-139631009D01*
X126698476Y-139631009D02*
X126746095Y-139726247D01*
X126746095Y-139726247D02*
X126746095Y-139964342D01*
X126746095Y-139964342D02*
X126698476Y-140059580D01*
X126698476Y-140059580D02*
X126650857Y-140107200D01*
X126650857Y-140107200D02*
X126555619Y-140154819D01*
X126555619Y-140154819D02*
X126317524Y-140154819D01*
X126317524Y-140154819D02*
X126222286Y-140107200D01*
X126222286Y-140107200D02*
X126174667Y-140059580D01*
X127031810Y-139154819D02*
X127365143Y-140154819D01*
X127365143Y-140154819D02*
X127698476Y-139154819D01*
D11*
X164376510Y-66960114D02*
X164590796Y-67031542D01*
X164590796Y-67031542D02*
X164662225Y-67102971D01*
X164662225Y-67102971D02*
X164733653Y-67245828D01*
X164733653Y-67245828D02*
X164733653Y-67460114D01*
X164733653Y-67460114D02*
X164662225Y-67602971D01*
X164662225Y-67602971D02*
X164590796Y-67674400D01*
X164590796Y-67674400D02*
X164447939Y-67745828D01*
X164447939Y-67745828D02*
X163876510Y-67745828D01*
X163876510Y-67745828D02*
X163876510Y-66245828D01*
X163876510Y-66245828D02*
X164376510Y-66245828D01*
X164376510Y-66245828D02*
X164519368Y-66317257D01*
X164519368Y-66317257D02*
X164590796Y-66388685D01*
X164590796Y-66388685D02*
X164662225Y-66531542D01*
X164662225Y-66531542D02*
X164662225Y-66674400D01*
X164662225Y-66674400D02*
X164590796Y-66817257D01*
X164590796Y-66817257D02*
X164519368Y-66888685D01*
X164519368Y-66888685D02*
X164376510Y-66960114D01*
X164376510Y-66960114D02*
X163876510Y-66960114D01*
X165019368Y-67888685D02*
X166162225Y-67888685D01*
X167019367Y-66960114D02*
X167233653Y-67031542D01*
X167233653Y-67031542D02*
X167305082Y-67102971D01*
X167305082Y-67102971D02*
X167376510Y-67245828D01*
X167376510Y-67245828D02*
X167376510Y-67460114D01*
X167376510Y-67460114D02*
X167305082Y-67602971D01*
X167305082Y-67602971D02*
X167233653Y-67674400D01*
X167233653Y-67674400D02*
X167090796Y-67745828D01*
X167090796Y-67745828D02*
X166519367Y-67745828D01*
X166519367Y-67745828D02*
X166519367Y-66245828D01*
X166519367Y-66245828D02*
X167019367Y-66245828D01*
X167019367Y-66245828D02*
X167162225Y-66317257D01*
X167162225Y-66317257D02*
X167233653Y-66388685D01*
X167233653Y-66388685D02*
X167305082Y-66531542D01*
X167305082Y-66531542D02*
X167305082Y-66674400D01*
X167305082Y-66674400D02*
X167233653Y-66817257D01*
X167233653Y-66817257D02*
X167162225Y-66888685D01*
X167162225Y-66888685D02*
X167019367Y-66960114D01*
X167019367Y-66960114D02*
X166519367Y-66960114D01*
X168233653Y-67745828D02*
X168090796Y-67674400D01*
X168090796Y-67674400D02*
X168019367Y-67602971D01*
X168019367Y-67602971D02*
X167947939Y-67460114D01*
X167947939Y-67460114D02*
X167947939Y-67031542D01*
X167947939Y-67031542D02*
X168019367Y-66888685D01*
X168019367Y-66888685D02*
X168090796Y-66817257D01*
X168090796Y-66817257D02*
X168233653Y-66745828D01*
X168233653Y-66745828D02*
X168447939Y-66745828D01*
X168447939Y-66745828D02*
X168590796Y-66817257D01*
X168590796Y-66817257D02*
X168662225Y-66888685D01*
X168662225Y-66888685D02*
X168733653Y-67031542D01*
X168733653Y-67031542D02*
X168733653Y-67460114D01*
X168733653Y-67460114D02*
X168662225Y-67602971D01*
X168662225Y-67602971D02*
X168590796Y-67674400D01*
X168590796Y-67674400D02*
X168447939Y-67745828D01*
X168447939Y-67745828D02*
X168233653Y-67745828D01*
X170019368Y-67745828D02*
X170019368Y-66960114D01*
X170019368Y-66960114D02*
X169947939Y-66817257D01*
X169947939Y-66817257D02*
X169805082Y-66745828D01*
X169805082Y-66745828D02*
X169519368Y-66745828D01*
X169519368Y-66745828D02*
X169376510Y-66817257D01*
X170019368Y-67674400D02*
X169876510Y-67745828D01*
X169876510Y-67745828D02*
X169519368Y-67745828D01*
X169519368Y-67745828D02*
X169376510Y-67674400D01*
X169376510Y-67674400D02*
X169305082Y-67531542D01*
X169305082Y-67531542D02*
X169305082Y-67388685D01*
X169305082Y-67388685D02*
X169376510Y-67245828D01*
X169376510Y-67245828D02*
X169519368Y-67174400D01*
X169519368Y-67174400D02*
X169876510Y-67174400D01*
X169876510Y-67174400D02*
X170019368Y-67102971D01*
X170733653Y-67745828D02*
X170733653Y-66745828D01*
X170733653Y-67031542D02*
X170805082Y-66888685D01*
X170805082Y-66888685D02*
X170876511Y-66817257D01*
X170876511Y-66817257D02*
X171019368Y-66745828D01*
X171019368Y-66745828D02*
X171162225Y-66745828D01*
X172305082Y-67745828D02*
X172305082Y-66245828D01*
X172305082Y-67674400D02*
X172162224Y-67745828D01*
X172162224Y-67745828D02*
X171876510Y-67745828D01*
X171876510Y-67745828D02*
X171733653Y-67674400D01*
X171733653Y-67674400D02*
X171662224Y-67602971D01*
X171662224Y-67602971D02*
X171590796Y-67460114D01*
X171590796Y-67460114D02*
X171590796Y-67031542D01*
X171590796Y-67031542D02*
X171662224Y-66888685D01*
X171662224Y-66888685D02*
X171733653Y-66817257D01*
X171733653Y-66817257D02*
X171876510Y-66745828D01*
X171876510Y-66745828D02*
X172162224Y-66745828D01*
X172162224Y-66745828D02*
X172305082Y-66817257D01*
D10*
X161290095Y-107706438D02*
X161194857Y-107658819D01*
X161194857Y-107658819D02*
X161052000Y-107658819D01*
X161052000Y-107658819D02*
X160909143Y-107706438D01*
X160909143Y-107706438D02*
X160813905Y-107801676D01*
X160813905Y-107801676D02*
X160766286Y-107896914D01*
X160766286Y-107896914D02*
X160718667Y-108087390D01*
X160718667Y-108087390D02*
X160718667Y-108230247D01*
X160718667Y-108230247D02*
X160766286Y-108420723D01*
X160766286Y-108420723D02*
X160813905Y-108515961D01*
X160813905Y-108515961D02*
X160909143Y-108611200D01*
X160909143Y-108611200D02*
X161052000Y-108658819D01*
X161052000Y-108658819D02*
X161147238Y-108658819D01*
X161147238Y-108658819D02*
X161290095Y-108611200D01*
X161290095Y-108611200D02*
X161337714Y-108563580D01*
X161337714Y-108563580D02*
X161337714Y-108230247D01*
X161337714Y-108230247D02*
X161147238Y-108230247D01*
X161766286Y-108658819D02*
X161766286Y-107658819D01*
X161766286Y-107658819D02*
X162337714Y-108658819D01*
X162337714Y-108658819D02*
X162337714Y-107658819D01*
X162813905Y-108658819D02*
X162813905Y-107658819D01*
X162813905Y-107658819D02*
X163052000Y-107658819D01*
X163052000Y-107658819D02*
X163194857Y-107706438D01*
X163194857Y-107706438D02*
X163290095Y-107801676D01*
X163290095Y-107801676D02*
X163337714Y-107896914D01*
X163337714Y-107896914D02*
X163385333Y-108087390D01*
X163385333Y-108087390D02*
X163385333Y-108230247D01*
X163385333Y-108230247D02*
X163337714Y-108420723D01*
X163337714Y-108420723D02*
X163290095Y-108515961D01*
X163290095Y-108515961D02*
X163194857Y-108611200D01*
X163194857Y-108611200D02*
X163052000Y-108658819D01*
X163052000Y-108658819D02*
X162813905Y-108658819D01*
X161290095Y-98054438D02*
X161194857Y-98006819D01*
X161194857Y-98006819D02*
X161052000Y-98006819D01*
X161052000Y-98006819D02*
X160909143Y-98054438D01*
X160909143Y-98054438D02*
X160813905Y-98149676D01*
X160813905Y-98149676D02*
X160766286Y-98244914D01*
X160766286Y-98244914D02*
X160718667Y-98435390D01*
X160718667Y-98435390D02*
X160718667Y-98578247D01*
X160718667Y-98578247D02*
X160766286Y-98768723D01*
X160766286Y-98768723D02*
X160813905Y-98863961D01*
X160813905Y-98863961D02*
X160909143Y-98959200D01*
X160909143Y-98959200D02*
X161052000Y-99006819D01*
X161052000Y-99006819D02*
X161147238Y-99006819D01*
X161147238Y-99006819D02*
X161290095Y-98959200D01*
X161290095Y-98959200D02*
X161337714Y-98911580D01*
X161337714Y-98911580D02*
X161337714Y-98578247D01*
X161337714Y-98578247D02*
X161147238Y-98578247D01*
X161766286Y-99006819D02*
X161766286Y-98006819D01*
X161766286Y-98006819D02*
X162337714Y-99006819D01*
X162337714Y-99006819D02*
X162337714Y-98006819D01*
X162813905Y-99006819D02*
X162813905Y-98006819D01*
X162813905Y-98006819D02*
X163052000Y-98006819D01*
X163052000Y-98006819D02*
X163194857Y-98054438D01*
X163194857Y-98054438D02*
X163290095Y-98149676D01*
X163290095Y-98149676D02*
X163337714Y-98244914D01*
X163337714Y-98244914D02*
X163385333Y-98435390D01*
X163385333Y-98435390D02*
X163385333Y-98578247D01*
X163385333Y-98578247D02*
X163337714Y-98768723D01*
X163337714Y-98768723D02*
X163290095Y-98863961D01*
X163290095Y-98863961D02*
X163194857Y-98959200D01*
X163194857Y-98959200D02*
X163052000Y-99006819D01*
X163052000Y-99006819D02*
X162813905Y-99006819D01*
X125785714Y-68780819D02*
X125785714Y-67780819D01*
X125785714Y-67780819D02*
X126023809Y-67780819D01*
X126023809Y-67780819D02*
X126166666Y-67828438D01*
X126166666Y-67828438D02*
X126261904Y-67923676D01*
X126261904Y-67923676D02*
X126309523Y-68018914D01*
X126309523Y-68018914D02*
X126357142Y-68209390D01*
X126357142Y-68209390D02*
X126357142Y-68352247D01*
X126357142Y-68352247D02*
X126309523Y-68542723D01*
X126309523Y-68542723D02*
X126261904Y-68637961D01*
X126261904Y-68637961D02*
X126166666Y-68733200D01*
X126166666Y-68733200D02*
X126023809Y-68780819D01*
X126023809Y-68780819D02*
X125785714Y-68780819D01*
X127309523Y-68780819D02*
X126738095Y-68780819D01*
X127023809Y-68780819D02*
X127023809Y-67780819D01*
X127023809Y-67780819D02*
X126928571Y-67923676D01*
X126928571Y-67923676D02*
X126833333Y-68018914D01*
X126833333Y-68018914D02*
X126738095Y-68066533D01*
X127642857Y-67780819D02*
X128309523Y-67780819D01*
X128309523Y-67780819D02*
X127880952Y-68780819D01*
X116641714Y-71320819D02*
X116641714Y-70320819D01*
X116641714Y-70320819D02*
X116879809Y-70320819D01*
X116879809Y-70320819D02*
X117022666Y-70368438D01*
X117022666Y-70368438D02*
X117117904Y-70463676D01*
X117117904Y-70463676D02*
X117165523Y-70558914D01*
X117165523Y-70558914D02*
X117213142Y-70749390D01*
X117213142Y-70749390D02*
X117213142Y-70892247D01*
X117213142Y-70892247D02*
X117165523Y-71082723D01*
X117165523Y-71082723D02*
X117117904Y-71177961D01*
X117117904Y-71177961D02*
X117022666Y-71273200D01*
X117022666Y-71273200D02*
X116879809Y-71320819D01*
X116879809Y-71320819D02*
X116641714Y-71320819D01*
X118070285Y-70654152D02*
X118070285Y-71320819D01*
X117832190Y-70273200D02*
X117594095Y-70987485D01*
X117594095Y-70987485D02*
X118213142Y-70987485D01*
X118498857Y-70320819D02*
X119117904Y-70320819D01*
X119117904Y-70320819D02*
X118784571Y-70701771D01*
X118784571Y-70701771D02*
X118927428Y-70701771D01*
X118927428Y-70701771D02*
X119022666Y-70749390D01*
X119022666Y-70749390D02*
X119070285Y-70797009D01*
X119070285Y-70797009D02*
X119117904Y-70892247D01*
X119117904Y-70892247D02*
X119117904Y-71130342D01*
X119117904Y-71130342D02*
X119070285Y-71225580D01*
X119070285Y-71225580D02*
X119022666Y-71273200D01*
X119022666Y-71273200D02*
X118927428Y-71320819D01*
X118927428Y-71320819D02*
X118641714Y-71320819D01*
X118641714Y-71320819D02*
X118546476Y-71273200D01*
X118546476Y-71273200D02*
X118498857Y-71225580D01*
X162128200Y-85816839D02*
X162175819Y-85673982D01*
X162175819Y-85673982D02*
X162175819Y-85435887D01*
X162175819Y-85435887D02*
X162128200Y-85340649D01*
X162128200Y-85340649D02*
X162080580Y-85293030D01*
X162080580Y-85293030D02*
X161985342Y-85245411D01*
X161985342Y-85245411D02*
X161890104Y-85245411D01*
X161890104Y-85245411D02*
X161794866Y-85293030D01*
X161794866Y-85293030D02*
X161747247Y-85340649D01*
X161747247Y-85340649D02*
X161699628Y-85435887D01*
X161699628Y-85435887D02*
X161652009Y-85626363D01*
X161652009Y-85626363D02*
X161604390Y-85721601D01*
X161604390Y-85721601D02*
X161556771Y-85769220D01*
X161556771Y-85769220D02*
X161461533Y-85816839D01*
X161461533Y-85816839D02*
X161366295Y-85816839D01*
X161366295Y-85816839D02*
X161271057Y-85769220D01*
X161271057Y-85769220D02*
X161223438Y-85721601D01*
X161223438Y-85721601D02*
X161175819Y-85626363D01*
X161175819Y-85626363D02*
X161175819Y-85388268D01*
X161175819Y-85388268D02*
X161223438Y-85245411D01*
X162175819Y-84816839D02*
X161175819Y-84816839D01*
X162175819Y-84388268D02*
X161652009Y-84388268D01*
X161652009Y-84388268D02*
X161556771Y-84435887D01*
X161556771Y-84435887D02*
X161509152Y-84531125D01*
X161509152Y-84531125D02*
X161509152Y-84673982D01*
X161509152Y-84673982D02*
X161556771Y-84769220D01*
X161556771Y-84769220D02*
X161604390Y-84816839D01*
X161509152Y-83483506D02*
X162175819Y-83483506D01*
X161509152Y-83912077D02*
X162032961Y-83912077D01*
X162032961Y-83912077D02*
X162128200Y-83864458D01*
X162128200Y-83864458D02*
X162175819Y-83769220D01*
X162175819Y-83769220D02*
X162175819Y-83626363D01*
X162175819Y-83626363D02*
X162128200Y-83531125D01*
X162128200Y-83531125D02*
X162080580Y-83483506D01*
X161509152Y-83007315D02*
X162175819Y-83007315D01*
X161604390Y-83007315D02*
X161556771Y-82959696D01*
X161556771Y-82959696D02*
X161509152Y-82864458D01*
X161509152Y-82864458D02*
X161509152Y-82721601D01*
X161509152Y-82721601D02*
X161556771Y-82626363D01*
X161556771Y-82626363D02*
X161652009Y-82578744D01*
X161652009Y-82578744D02*
X162175819Y-82578744D01*
X161509152Y-82245410D02*
X161509152Y-81864458D01*
X161175819Y-82102553D02*
X162032961Y-82102553D01*
X162032961Y-82102553D02*
X162128200Y-82054934D01*
X162128200Y-82054934D02*
X162175819Y-81959696D01*
X162175819Y-81959696D02*
X162175819Y-81864458D01*
X116641714Y-73860819D02*
X116641714Y-72860819D01*
X116641714Y-72860819D02*
X116879809Y-72860819D01*
X116879809Y-72860819D02*
X117022666Y-72908438D01*
X117022666Y-72908438D02*
X117117904Y-73003676D01*
X117117904Y-73003676D02*
X117165523Y-73098914D01*
X117165523Y-73098914D02*
X117213142Y-73289390D01*
X117213142Y-73289390D02*
X117213142Y-73432247D01*
X117213142Y-73432247D02*
X117165523Y-73622723D01*
X117165523Y-73622723D02*
X117117904Y-73717961D01*
X117117904Y-73717961D02*
X117022666Y-73813200D01*
X117022666Y-73813200D02*
X116879809Y-73860819D01*
X116879809Y-73860819D02*
X116641714Y-73860819D01*
X118165523Y-73860819D02*
X117594095Y-73860819D01*
X117879809Y-73860819D02*
X117879809Y-72860819D01*
X117879809Y-72860819D02*
X117784571Y-73003676D01*
X117784571Y-73003676D02*
X117689333Y-73098914D01*
X117689333Y-73098914D02*
X117594095Y-73146533D01*
X119117904Y-73860819D02*
X118546476Y-73860819D01*
X118832190Y-73860819D02*
X118832190Y-72860819D01*
X118832190Y-72860819D02*
X118736952Y-73003676D01*
X118736952Y-73003676D02*
X118641714Y-73098914D01*
X118641714Y-73098914D02*
X118546476Y-73146533D01*
X131788819Y-66547904D02*
X131788819Y-65976476D01*
X132788819Y-66262190D02*
X131788819Y-66262190D01*
X131788819Y-65738380D02*
X132788819Y-65071714D01*
X131788819Y-65071714D02*
X132788819Y-65738380D01*
X125785714Y-71320819D02*
X125785714Y-70320819D01*
X125785714Y-70320819D02*
X126023809Y-70320819D01*
X126023809Y-70320819D02*
X126166666Y-70368438D01*
X126166666Y-70368438D02*
X126261904Y-70463676D01*
X126261904Y-70463676D02*
X126309523Y-70558914D01*
X126309523Y-70558914D02*
X126357142Y-70749390D01*
X126357142Y-70749390D02*
X126357142Y-70892247D01*
X126357142Y-70892247D02*
X126309523Y-71082723D01*
X126309523Y-71082723D02*
X126261904Y-71177961D01*
X126261904Y-71177961D02*
X126166666Y-71273200D01*
X126166666Y-71273200D02*
X126023809Y-71320819D01*
X126023809Y-71320819D02*
X125785714Y-71320819D01*
X127309523Y-71320819D02*
X126738095Y-71320819D01*
X127023809Y-71320819D02*
X127023809Y-70320819D01*
X127023809Y-70320819D02*
X126928571Y-70463676D01*
X126928571Y-70463676D02*
X126833333Y-70558914D01*
X126833333Y-70558914D02*
X126738095Y-70606533D01*
X127880952Y-70749390D02*
X127785714Y-70701771D01*
X127785714Y-70701771D02*
X127738095Y-70654152D01*
X127738095Y-70654152D02*
X127690476Y-70558914D01*
X127690476Y-70558914D02*
X127690476Y-70511295D01*
X127690476Y-70511295D02*
X127738095Y-70416057D01*
X127738095Y-70416057D02*
X127785714Y-70368438D01*
X127785714Y-70368438D02*
X127880952Y-70320819D01*
X127880952Y-70320819D02*
X128071428Y-70320819D01*
X128071428Y-70320819D02*
X128166666Y-70368438D01*
X128166666Y-70368438D02*
X128214285Y-70416057D01*
X128214285Y-70416057D02*
X128261904Y-70511295D01*
X128261904Y-70511295D02*
X128261904Y-70558914D01*
X128261904Y-70558914D02*
X128214285Y-70654152D01*
X128214285Y-70654152D02*
X128166666Y-70701771D01*
X128166666Y-70701771D02*
X128071428Y-70749390D01*
X128071428Y-70749390D02*
X127880952Y-70749390D01*
X127880952Y-70749390D02*
X127785714Y-70797009D01*
X127785714Y-70797009D02*
X127738095Y-70844628D01*
X127738095Y-70844628D02*
X127690476Y-70939866D01*
X127690476Y-70939866D02*
X127690476Y-71130342D01*
X127690476Y-71130342D02*
X127738095Y-71225580D01*
X127738095Y-71225580D02*
X127785714Y-71273200D01*
X127785714Y-71273200D02*
X127880952Y-71320819D01*
X127880952Y-71320819D02*
X128071428Y-71320819D01*
X128071428Y-71320819D02*
X128166666Y-71273200D01*
X128166666Y-71273200D02*
X128214285Y-71225580D01*
X128214285Y-71225580D02*
X128261904Y-71130342D01*
X128261904Y-71130342D02*
X128261904Y-70939866D01*
X128261904Y-70939866D02*
X128214285Y-70844628D01*
X128214285Y-70844628D02*
X128166666Y-70797009D01*
X128166666Y-70797009D02*
X128071428Y-70749390D01*
X140771714Y-74876819D02*
X140771714Y-73876819D01*
X140771714Y-73876819D02*
X141009809Y-73876819D01*
X141009809Y-73876819D02*
X141152666Y-73924438D01*
X141152666Y-73924438D02*
X141247904Y-74019676D01*
X141247904Y-74019676D02*
X141295523Y-74114914D01*
X141295523Y-74114914D02*
X141343142Y-74305390D01*
X141343142Y-74305390D02*
X141343142Y-74448247D01*
X141343142Y-74448247D02*
X141295523Y-74638723D01*
X141295523Y-74638723D02*
X141247904Y-74733961D01*
X141247904Y-74733961D02*
X141152666Y-74829200D01*
X141152666Y-74829200D02*
X141009809Y-74876819D01*
X141009809Y-74876819D02*
X140771714Y-74876819D01*
X142295523Y-74876819D02*
X141724095Y-74876819D01*
X142009809Y-74876819D02*
X142009809Y-73876819D01*
X142009809Y-73876819D02*
X141914571Y-74019676D01*
X141914571Y-74019676D02*
X141819333Y-74114914D01*
X141819333Y-74114914D02*
X141724095Y-74162533D01*
X143247904Y-74876819D02*
X142676476Y-74876819D01*
X142962190Y-74876819D02*
X142962190Y-73876819D01*
X142962190Y-73876819D02*
X142866952Y-74019676D01*
X142866952Y-74019676D02*
X142771714Y-74114914D01*
X142771714Y-74114914D02*
X142676476Y-74162533D01*
X140771714Y-72336819D02*
X140771714Y-71336819D01*
X140771714Y-71336819D02*
X141009809Y-71336819D01*
X141009809Y-71336819D02*
X141152666Y-71384438D01*
X141152666Y-71384438D02*
X141247904Y-71479676D01*
X141247904Y-71479676D02*
X141295523Y-71574914D01*
X141295523Y-71574914D02*
X141343142Y-71765390D01*
X141343142Y-71765390D02*
X141343142Y-71908247D01*
X141343142Y-71908247D02*
X141295523Y-72098723D01*
X141295523Y-72098723D02*
X141247904Y-72193961D01*
X141247904Y-72193961D02*
X141152666Y-72289200D01*
X141152666Y-72289200D02*
X141009809Y-72336819D01*
X141009809Y-72336819D02*
X140771714Y-72336819D01*
X142295523Y-72336819D02*
X141724095Y-72336819D01*
X142009809Y-72336819D02*
X142009809Y-71336819D01*
X142009809Y-71336819D02*
X141914571Y-71479676D01*
X141914571Y-71479676D02*
X141819333Y-71574914D01*
X141819333Y-71574914D02*
X141724095Y-71622533D01*
X142914571Y-71336819D02*
X143009809Y-71336819D01*
X143009809Y-71336819D02*
X143105047Y-71384438D01*
X143105047Y-71384438D02*
X143152666Y-71432057D01*
X143152666Y-71432057D02*
X143200285Y-71527295D01*
X143200285Y-71527295D02*
X143247904Y-71717771D01*
X143247904Y-71717771D02*
X143247904Y-71955866D01*
X143247904Y-71955866D02*
X143200285Y-72146342D01*
X143200285Y-72146342D02*
X143152666Y-72241580D01*
X143152666Y-72241580D02*
X143105047Y-72289200D01*
X143105047Y-72289200D02*
X143009809Y-72336819D01*
X143009809Y-72336819D02*
X142914571Y-72336819D01*
X142914571Y-72336819D02*
X142819333Y-72289200D01*
X142819333Y-72289200D02*
X142771714Y-72241580D01*
X142771714Y-72241580D02*
X142724095Y-72146342D01*
X142724095Y-72146342D02*
X142676476Y-71955866D01*
X142676476Y-71955866D02*
X142676476Y-71717771D01*
X142676476Y-71717771D02*
X142724095Y-71527295D01*
X142724095Y-71527295D02*
X142771714Y-71432057D01*
X142771714Y-71432057D02*
X142819333Y-71384438D01*
X142819333Y-71384438D02*
X142914571Y-71336819D01*
X126746095Y-141742438D02*
X126650857Y-141694819D01*
X126650857Y-141694819D02*
X126508000Y-141694819D01*
X126508000Y-141694819D02*
X126365143Y-141742438D01*
X126365143Y-141742438D02*
X126269905Y-141837676D01*
X126269905Y-141837676D02*
X126222286Y-141932914D01*
X126222286Y-141932914D02*
X126174667Y-142123390D01*
X126174667Y-142123390D02*
X126174667Y-142266247D01*
X126174667Y-142266247D02*
X126222286Y-142456723D01*
X126222286Y-142456723D02*
X126269905Y-142551961D01*
X126269905Y-142551961D02*
X126365143Y-142647200D01*
X126365143Y-142647200D02*
X126508000Y-142694819D01*
X126508000Y-142694819D02*
X126603238Y-142694819D01*
X126603238Y-142694819D02*
X126746095Y-142647200D01*
X126746095Y-142647200D02*
X126793714Y-142599580D01*
X126793714Y-142599580D02*
X126793714Y-142266247D01*
X126793714Y-142266247D02*
X126603238Y-142266247D01*
X127222286Y-142694819D02*
X127222286Y-141694819D01*
X127222286Y-141694819D02*
X127793714Y-142694819D01*
X127793714Y-142694819D02*
X127793714Y-141694819D01*
X128269905Y-142694819D02*
X128269905Y-141694819D01*
X128269905Y-141694819D02*
X128508000Y-141694819D01*
X128508000Y-141694819D02*
X128650857Y-141742438D01*
X128650857Y-141742438D02*
X128746095Y-141837676D01*
X128746095Y-141837676D02*
X128793714Y-141932914D01*
X128793714Y-141932914D02*
X128841333Y-142123390D01*
X128841333Y-142123390D02*
X128841333Y-142266247D01*
X128841333Y-142266247D02*
X128793714Y-142456723D01*
X128793714Y-142456723D02*
X128746095Y-142551961D01*
X128746095Y-142551961D02*
X128650857Y-142647200D01*
X128650857Y-142647200D02*
X128508000Y-142694819D01*
X128508000Y-142694819D02*
X128269905Y-142694819D01*
X117094095Y-136614819D02*
X117713142Y-136614819D01*
X117713142Y-136614819D02*
X117379809Y-136995771D01*
X117379809Y-136995771D02*
X117522666Y-136995771D01*
X117522666Y-136995771D02*
X117617904Y-137043390D01*
X117617904Y-137043390D02*
X117665523Y-137091009D01*
X117665523Y-137091009D02*
X117713142Y-137186247D01*
X117713142Y-137186247D02*
X117713142Y-137424342D01*
X117713142Y-137424342D02*
X117665523Y-137519580D01*
X117665523Y-137519580D02*
X117617904Y-137567200D01*
X117617904Y-137567200D02*
X117522666Y-137614819D01*
X117522666Y-137614819D02*
X117236952Y-137614819D01*
X117236952Y-137614819D02*
X117141714Y-137567200D01*
X117141714Y-137567200D02*
X117094095Y-137519580D01*
X117998857Y-136614819D02*
X118332190Y-137614819D01*
X118332190Y-137614819D02*
X118665523Y-136614819D01*
X135582819Y-65952666D02*
X135106628Y-66285999D01*
X135582819Y-66524094D02*
X134582819Y-66524094D01*
X134582819Y-66524094D02*
X134582819Y-66143142D01*
X134582819Y-66143142D02*
X134630438Y-66047904D01*
X134630438Y-66047904D02*
X134678057Y-66000285D01*
X134678057Y-66000285D02*
X134773295Y-65952666D01*
X134773295Y-65952666D02*
X134916152Y-65952666D01*
X134916152Y-65952666D02*
X135011390Y-66000285D01*
X135011390Y-66000285D02*
X135059009Y-66047904D01*
X135059009Y-66047904D02*
X135106628Y-66143142D01*
X135106628Y-66143142D02*
X135106628Y-66524094D01*
X134582819Y-65619332D02*
X135582819Y-64952666D01*
X134582819Y-64952666D02*
X135582819Y-65619332D01*
X137170438Y-66039904D02*
X137122819Y-66135142D01*
X137122819Y-66135142D02*
X137122819Y-66277999D01*
X137122819Y-66277999D02*
X137170438Y-66420856D01*
X137170438Y-66420856D02*
X137265676Y-66516094D01*
X137265676Y-66516094D02*
X137360914Y-66563713D01*
X137360914Y-66563713D02*
X137551390Y-66611332D01*
X137551390Y-66611332D02*
X137694247Y-66611332D01*
X137694247Y-66611332D02*
X137884723Y-66563713D01*
X137884723Y-66563713D02*
X137979961Y-66516094D01*
X137979961Y-66516094D02*
X138075200Y-66420856D01*
X138075200Y-66420856D02*
X138122819Y-66277999D01*
X138122819Y-66277999D02*
X138122819Y-66182761D01*
X138122819Y-66182761D02*
X138075200Y-66039904D01*
X138075200Y-66039904D02*
X138027580Y-65992285D01*
X138027580Y-65992285D02*
X137694247Y-65992285D01*
X137694247Y-65992285D02*
X137694247Y-66182761D01*
X138122819Y-65563713D02*
X137122819Y-65563713D01*
X137122819Y-65563713D02*
X138122819Y-64992285D01*
X138122819Y-64992285D02*
X137122819Y-64992285D01*
X138122819Y-64516094D02*
X137122819Y-64516094D01*
X137122819Y-64516094D02*
X137122819Y-64277999D01*
X137122819Y-64277999D02*
X137170438Y-64135142D01*
X137170438Y-64135142D02*
X137265676Y-64039904D01*
X137265676Y-64039904D02*
X137360914Y-63992285D01*
X137360914Y-63992285D02*
X137551390Y-63944666D01*
X137551390Y-63944666D02*
X137694247Y-63944666D01*
X137694247Y-63944666D02*
X137884723Y-63992285D01*
X137884723Y-63992285D02*
X137979961Y-64039904D01*
X137979961Y-64039904D02*
X138075200Y-64135142D01*
X138075200Y-64135142D02*
X138122819Y-64277999D01*
X138122819Y-64277999D02*
X138122819Y-64516094D01*
X140771714Y-80210819D02*
X140771714Y-79210819D01*
X140771714Y-79210819D02*
X141009809Y-79210819D01*
X141009809Y-79210819D02*
X141152666Y-79258438D01*
X141152666Y-79258438D02*
X141247904Y-79353676D01*
X141247904Y-79353676D02*
X141295523Y-79448914D01*
X141295523Y-79448914D02*
X141343142Y-79639390D01*
X141343142Y-79639390D02*
X141343142Y-79782247D01*
X141343142Y-79782247D02*
X141295523Y-79972723D01*
X141295523Y-79972723D02*
X141247904Y-80067961D01*
X141247904Y-80067961D02*
X141152666Y-80163200D01*
X141152666Y-80163200D02*
X141009809Y-80210819D01*
X141009809Y-80210819D02*
X140771714Y-80210819D01*
X142200285Y-79544152D02*
X142200285Y-80210819D01*
X141962190Y-79163200D02*
X141724095Y-79877485D01*
X141724095Y-79877485D02*
X142343142Y-79877485D01*
X143152666Y-79544152D02*
X143152666Y-80210819D01*
X142914571Y-79163200D02*
X142676476Y-79877485D01*
X142676476Y-79877485D02*
X143295523Y-79877485D01*
X161671048Y-79321866D02*
X162432953Y-79321866D01*
X162052000Y-79702819D02*
X162052000Y-78940914D01*
X116641714Y-68780819D02*
X116641714Y-67780819D01*
X116641714Y-67780819D02*
X116879809Y-67780819D01*
X116879809Y-67780819D02*
X117022666Y-67828438D01*
X117022666Y-67828438D02*
X117117904Y-67923676D01*
X117117904Y-67923676D02*
X117165523Y-68018914D01*
X117165523Y-68018914D02*
X117213142Y-68209390D01*
X117213142Y-68209390D02*
X117213142Y-68352247D01*
X117213142Y-68352247D02*
X117165523Y-68542723D01*
X117165523Y-68542723D02*
X117117904Y-68637961D01*
X117117904Y-68637961D02*
X117022666Y-68733200D01*
X117022666Y-68733200D02*
X116879809Y-68780819D01*
X116879809Y-68780819D02*
X116641714Y-68780819D01*
X118070285Y-68114152D02*
X118070285Y-68780819D01*
X117832190Y-67733200D02*
X117594095Y-68447485D01*
X117594095Y-68447485D02*
X118213142Y-68447485D01*
X119022666Y-68114152D02*
X119022666Y-68780819D01*
X118784571Y-67733200D02*
X118546476Y-68447485D01*
X118546476Y-68447485D02*
X119165523Y-68447485D01*
X161417048Y-88973866D02*
X162178953Y-88973866D01*
X147256667Y-68869200D02*
X147399524Y-68916819D01*
X147399524Y-68916819D02*
X147637619Y-68916819D01*
X147637619Y-68916819D02*
X147732857Y-68869200D01*
X147732857Y-68869200D02*
X147780476Y-68821580D01*
X147780476Y-68821580D02*
X147828095Y-68726342D01*
X147828095Y-68726342D02*
X147828095Y-68631104D01*
X147828095Y-68631104D02*
X147780476Y-68535866D01*
X147780476Y-68535866D02*
X147732857Y-68488247D01*
X147732857Y-68488247D02*
X147637619Y-68440628D01*
X147637619Y-68440628D02*
X147447143Y-68393009D01*
X147447143Y-68393009D02*
X147351905Y-68345390D01*
X147351905Y-68345390D02*
X147304286Y-68297771D01*
X147304286Y-68297771D02*
X147256667Y-68202533D01*
X147256667Y-68202533D02*
X147256667Y-68107295D01*
X147256667Y-68107295D02*
X147304286Y-68012057D01*
X147304286Y-68012057D02*
X147351905Y-67964438D01*
X147351905Y-67964438D02*
X147447143Y-67916819D01*
X147447143Y-67916819D02*
X147685238Y-67916819D01*
X147685238Y-67916819D02*
X147828095Y-67964438D01*
X148161429Y-67916819D02*
X148399524Y-68916819D01*
X148399524Y-68916819D02*
X148590000Y-68202533D01*
X148590000Y-68202533D02*
X148780476Y-68916819D01*
X148780476Y-68916819D02*
X149018572Y-67916819D01*
X149923333Y-68916819D02*
X149351905Y-68916819D01*
X149637619Y-68916819D02*
X149637619Y-67916819D01*
X149637619Y-67916819D02*
X149542381Y-68059676D01*
X149542381Y-68059676D02*
X149447143Y-68154914D01*
X149447143Y-68154914D02*
X149351905Y-68202533D01*
X140295333Y-126851580D02*
X140247714Y-126899200D01*
X140247714Y-126899200D02*
X140104857Y-126946819D01*
X140104857Y-126946819D02*
X140009619Y-126946819D01*
X140009619Y-126946819D02*
X139866762Y-126899200D01*
X139866762Y-126899200D02*
X139771524Y-126803961D01*
X139771524Y-126803961D02*
X139723905Y-126708723D01*
X139723905Y-126708723D02*
X139676286Y-126518247D01*
X139676286Y-126518247D02*
X139676286Y-126375390D01*
X139676286Y-126375390D02*
X139723905Y-126184914D01*
X139723905Y-126184914D02*
X139771524Y-126089676D01*
X139771524Y-126089676D02*
X139866762Y-125994438D01*
X139866762Y-125994438D02*
X140009619Y-125946819D01*
X140009619Y-125946819D02*
X140104857Y-125946819D01*
X140104857Y-125946819D02*
X140247714Y-125994438D01*
X140247714Y-125994438D02*
X140295333Y-126042057D01*
X141247714Y-126946819D02*
X140676286Y-126946819D01*
X140962000Y-126946819D02*
X140962000Y-125946819D01*
X140962000Y-125946819D02*
X140866762Y-126089676D01*
X140866762Y-126089676D02*
X140771524Y-126184914D01*
X140771524Y-126184914D02*
X140676286Y-126232533D01*
X144603656Y-120712819D02*
X145222703Y-120712819D01*
X145222703Y-120712819D02*
X144889370Y-121093771D01*
X144889370Y-121093771D02*
X145032227Y-121093771D01*
X145032227Y-121093771D02*
X145127465Y-121141390D01*
X145127465Y-121141390D02*
X145175084Y-121189009D01*
X145175084Y-121189009D02*
X145222703Y-121284247D01*
X145222703Y-121284247D02*
X145222703Y-121522342D01*
X145222703Y-121522342D02*
X145175084Y-121617580D01*
X145175084Y-121617580D02*
X145127465Y-121665200D01*
X145127465Y-121665200D02*
X145032227Y-121712819D01*
X145032227Y-121712819D02*
X144746513Y-121712819D01*
X144746513Y-121712819D02*
X144651275Y-121665200D01*
X144651275Y-121665200D02*
X144603656Y-121617580D01*
X145556037Y-120712819D02*
X146175084Y-120712819D01*
X146175084Y-120712819D02*
X145841751Y-121093771D01*
X145841751Y-121093771D02*
X145984608Y-121093771D01*
X145984608Y-121093771D02*
X146079846Y-121141390D01*
X146079846Y-121141390D02*
X146127465Y-121189009D01*
X146127465Y-121189009D02*
X146175084Y-121284247D01*
X146175084Y-121284247D02*
X146175084Y-121522342D01*
X146175084Y-121522342D02*
X146127465Y-121617580D01*
X146127465Y-121617580D02*
X146079846Y-121665200D01*
X146079846Y-121665200D02*
X145984608Y-121712819D01*
X145984608Y-121712819D02*
X145698894Y-121712819D01*
X145698894Y-121712819D02*
X145603656Y-121665200D01*
X145603656Y-121665200D02*
X145556037Y-121617580D01*
X146794132Y-120712819D02*
X146889370Y-120712819D01*
X146889370Y-120712819D02*
X146984608Y-120760438D01*
X146984608Y-120760438D02*
X147032227Y-120808057D01*
X147032227Y-120808057D02*
X147079846Y-120903295D01*
X147079846Y-120903295D02*
X147127465Y-121093771D01*
X147127465Y-121093771D02*
X147127465Y-121331866D01*
X147127465Y-121331866D02*
X147079846Y-121522342D01*
X147079846Y-121522342D02*
X147032227Y-121617580D01*
X147032227Y-121617580D02*
X146984608Y-121665200D01*
X146984608Y-121665200D02*
X146889370Y-121712819D01*
X146889370Y-121712819D02*
X146794132Y-121712819D01*
X146794132Y-121712819D02*
X146698894Y-121665200D01*
X146698894Y-121665200D02*
X146651275Y-121617580D01*
X146651275Y-121617580D02*
X146603656Y-121522342D01*
X146603656Y-121522342D02*
X146556037Y-121331866D01*
X146556037Y-121331866D02*
X146556037Y-121093771D01*
X146556037Y-121093771D02*
X146603656Y-120903295D01*
X146603656Y-120903295D02*
X146651275Y-120808057D01*
X146651275Y-120808057D02*
X146698894Y-120760438D01*
X146698894Y-120760438D02*
X146794132Y-120712819D01*
X147984608Y-121046152D02*
X147984608Y-121712819D01*
X147556037Y-121046152D02*
X147556037Y-121569961D01*
X147556037Y-121569961D02*
X147603656Y-121665200D01*
X147603656Y-121665200D02*
X147698894Y-121712819D01*
X147698894Y-121712819D02*
X147841751Y-121712819D01*
X147841751Y-121712819D02*
X147936989Y-121665200D01*
X147936989Y-121665200D02*
X147984608Y-121617580D01*
X148794132Y-121189009D02*
X148460799Y-121189009D01*
X148460799Y-121712819D02*
X148460799Y-120712819D01*
X148460799Y-120712819D02*
X148936989Y-120712819D01*
D12*
X168492580Y-126412666D02*
X167778295Y-126412666D01*
X167778295Y-126412666D02*
X167635438Y-126365047D01*
X167635438Y-126365047D02*
X167540200Y-126269809D01*
X167540200Y-126269809D02*
X167492580Y-126126952D01*
X167492580Y-126126952D02*
X167492580Y-126031714D01*
X168159247Y-127317428D02*
X167492580Y-127317428D01*
X168540200Y-127079333D02*
X167825914Y-126841238D01*
X167825914Y-126841238D02*
X167825914Y-127460285D01*
D10*
X140803333Y-137519580D02*
X140755714Y-137567200D01*
X140755714Y-137567200D02*
X140612857Y-137614819D01*
X140612857Y-137614819D02*
X140517619Y-137614819D01*
X140517619Y-137614819D02*
X140374762Y-137567200D01*
X140374762Y-137567200D02*
X140279524Y-137471961D01*
X140279524Y-137471961D02*
X140231905Y-137376723D01*
X140231905Y-137376723D02*
X140184286Y-137186247D01*
X140184286Y-137186247D02*
X140184286Y-137043390D01*
X140184286Y-137043390D02*
X140231905Y-136852914D01*
X140231905Y-136852914D02*
X140279524Y-136757676D01*
X140279524Y-136757676D02*
X140374762Y-136662438D01*
X140374762Y-136662438D02*
X140517619Y-136614819D01*
X140517619Y-136614819D02*
X140612857Y-136614819D01*
X140612857Y-136614819D02*
X140755714Y-136662438D01*
X140755714Y-136662438D02*
X140803333Y-136710057D01*
X141184286Y-136710057D02*
X141231905Y-136662438D01*
X141231905Y-136662438D02*
X141327143Y-136614819D01*
X141327143Y-136614819D02*
X141565238Y-136614819D01*
X141565238Y-136614819D02*
X141660476Y-136662438D01*
X141660476Y-136662438D02*
X141708095Y-136710057D01*
X141708095Y-136710057D02*
X141755714Y-136805295D01*
X141755714Y-136805295D02*
X141755714Y-136900533D01*
X141755714Y-136900533D02*
X141708095Y-137043390D01*
X141708095Y-137043390D02*
X141136667Y-137614819D01*
X141136667Y-137614819D02*
X141755714Y-137614819D01*
X144645333Y-133058819D02*
X145264380Y-133058819D01*
X145264380Y-133058819D02*
X144931047Y-133439771D01*
X144931047Y-133439771D02*
X145073904Y-133439771D01*
X145073904Y-133439771D02*
X145169142Y-133487390D01*
X145169142Y-133487390D02*
X145216761Y-133535009D01*
X145216761Y-133535009D02*
X145264380Y-133630247D01*
X145264380Y-133630247D02*
X145264380Y-133868342D01*
X145264380Y-133868342D02*
X145216761Y-133963580D01*
X145216761Y-133963580D02*
X145169142Y-134011200D01*
X145169142Y-134011200D02*
X145073904Y-134058819D01*
X145073904Y-134058819D02*
X144788190Y-134058819D01*
X144788190Y-134058819D02*
X144692952Y-134011200D01*
X144692952Y-134011200D02*
X144645333Y-133963580D01*
X145597714Y-133058819D02*
X146216761Y-133058819D01*
X146216761Y-133058819D02*
X145883428Y-133439771D01*
X145883428Y-133439771D02*
X146026285Y-133439771D01*
X146026285Y-133439771D02*
X146121523Y-133487390D01*
X146121523Y-133487390D02*
X146169142Y-133535009D01*
X146169142Y-133535009D02*
X146216761Y-133630247D01*
X146216761Y-133630247D02*
X146216761Y-133868342D01*
X146216761Y-133868342D02*
X146169142Y-133963580D01*
X146169142Y-133963580D02*
X146121523Y-134011200D01*
X146121523Y-134011200D02*
X146026285Y-134058819D01*
X146026285Y-134058819D02*
X145740571Y-134058819D01*
X145740571Y-134058819D02*
X145645333Y-134011200D01*
X145645333Y-134011200D02*
X145597714Y-133963580D01*
X146835809Y-133058819D02*
X146931047Y-133058819D01*
X146931047Y-133058819D02*
X147026285Y-133106438D01*
X147026285Y-133106438D02*
X147073904Y-133154057D01*
X147073904Y-133154057D02*
X147121523Y-133249295D01*
X147121523Y-133249295D02*
X147169142Y-133439771D01*
X147169142Y-133439771D02*
X147169142Y-133677866D01*
X147169142Y-133677866D02*
X147121523Y-133868342D01*
X147121523Y-133868342D02*
X147073904Y-133963580D01*
X147073904Y-133963580D02*
X147026285Y-134011200D01*
X147026285Y-134011200D02*
X146931047Y-134058819D01*
X146931047Y-134058819D02*
X146835809Y-134058819D01*
X146835809Y-134058819D02*
X146740571Y-134011200D01*
X146740571Y-134011200D02*
X146692952Y-133963580D01*
X146692952Y-133963580D02*
X146645333Y-133868342D01*
X146645333Y-133868342D02*
X146597714Y-133677866D01*
X146597714Y-133677866D02*
X146597714Y-133439771D01*
X146597714Y-133439771D02*
X146645333Y-133249295D01*
X146645333Y-133249295D02*
X146692952Y-133154057D01*
X146692952Y-133154057D02*
X146740571Y-133106438D01*
X146740571Y-133106438D02*
X146835809Y-133058819D01*
X148026285Y-133392152D02*
X148026285Y-134058819D01*
X147597714Y-133392152D02*
X147597714Y-133915961D01*
X147597714Y-133915961D02*
X147645333Y-134011200D01*
X147645333Y-134011200D02*
X147740571Y-134058819D01*
X147740571Y-134058819D02*
X147883428Y-134058819D01*
X147883428Y-134058819D02*
X147978666Y-134011200D01*
X147978666Y-134011200D02*
X148026285Y-133963580D01*
X148835809Y-133535009D02*
X148502476Y-133535009D01*
X148502476Y-134058819D02*
X148502476Y-133058819D01*
X148502476Y-133058819D02*
X148978666Y-133058819D01*
X122094666Y-65010819D02*
X122094666Y-65725104D01*
X122094666Y-65725104D02*
X122047047Y-65867961D01*
X122047047Y-65867961D02*
X121951809Y-65963200D01*
X121951809Y-65963200D02*
X121808952Y-66010819D01*
X121808952Y-66010819D02*
X121713714Y-66010819D01*
X123094666Y-66010819D02*
X122523238Y-66010819D01*
X122808952Y-66010819D02*
X122808952Y-65010819D01*
X122808952Y-65010819D02*
X122713714Y-65153676D01*
X122713714Y-65153676D02*
X122618476Y-65248914D01*
X122618476Y-65248914D02*
X122523238Y-65296533D01*
X135390095Y-124930819D02*
X135961523Y-124930819D01*
X135675809Y-125930819D02*
X135675809Y-124930819D01*
X136294857Y-125930819D02*
X136294857Y-124930819D01*
X136294857Y-124930819D02*
X136675809Y-124930819D01*
X136675809Y-124930819D02*
X136771047Y-124978438D01*
X136771047Y-124978438D02*
X136818666Y-125026057D01*
X136818666Y-125026057D02*
X136866285Y-125121295D01*
X136866285Y-125121295D02*
X136866285Y-125264152D01*
X136866285Y-125264152D02*
X136818666Y-125359390D01*
X136818666Y-125359390D02*
X136771047Y-125407009D01*
X136771047Y-125407009D02*
X136675809Y-125454628D01*
X136675809Y-125454628D02*
X136294857Y-125454628D01*
X137247238Y-125026057D02*
X137294857Y-124978438D01*
X137294857Y-124978438D02*
X137390095Y-124930819D01*
X137390095Y-124930819D02*
X137628190Y-124930819D01*
X137628190Y-124930819D02*
X137723428Y-124978438D01*
X137723428Y-124978438D02*
X137771047Y-125026057D01*
X137771047Y-125026057D02*
X137818666Y-125121295D01*
X137818666Y-125121295D02*
X137818666Y-125216533D01*
X137818666Y-125216533D02*
X137771047Y-125359390D01*
X137771047Y-125359390D02*
X137199619Y-125930819D01*
X137199619Y-125930819D02*
X137818666Y-125930819D01*
X122094666Y-133844819D02*
X122094666Y-134559104D01*
X122094666Y-134559104D02*
X122047047Y-134701961D01*
X122047047Y-134701961D02*
X121951809Y-134797200D01*
X121951809Y-134797200D02*
X121808952Y-134844819D01*
X121808952Y-134844819D02*
X121713714Y-134844819D01*
X123047047Y-133844819D02*
X122570857Y-133844819D01*
X122570857Y-133844819D02*
X122523238Y-134321009D01*
X122523238Y-134321009D02*
X122570857Y-134273390D01*
X122570857Y-134273390D02*
X122666095Y-134225771D01*
X122666095Y-134225771D02*
X122904190Y-134225771D01*
X122904190Y-134225771D02*
X122999428Y-134273390D01*
X122999428Y-134273390D02*
X123047047Y-134321009D01*
X123047047Y-134321009D02*
X123094666Y-134416247D01*
X123094666Y-134416247D02*
X123094666Y-134654342D01*
X123094666Y-134654342D02*
X123047047Y-134749580D01*
X123047047Y-134749580D02*
X122999428Y-134797200D01*
X122999428Y-134797200D02*
X122904190Y-134844819D01*
X122904190Y-134844819D02*
X122666095Y-134844819D01*
X122666095Y-134844819D02*
X122570857Y-134797200D01*
X122570857Y-134797200D02*
X122523238Y-134749580D01*
X145962761Y-108485819D02*
X145629428Y-108009628D01*
X145391333Y-108485819D02*
X145391333Y-107485819D01*
X145391333Y-107485819D02*
X145772285Y-107485819D01*
X145772285Y-107485819D02*
X145867523Y-107533438D01*
X145867523Y-107533438D02*
X145915142Y-107581057D01*
X145915142Y-107581057D02*
X145962761Y-107676295D01*
X145962761Y-107676295D02*
X145962761Y-107819152D01*
X145962761Y-107819152D02*
X145915142Y-107914390D01*
X145915142Y-107914390D02*
X145867523Y-107962009D01*
X145867523Y-107962009D02*
X145772285Y-108009628D01*
X145772285Y-108009628D02*
X145391333Y-108009628D01*
X146248476Y-107485819D02*
X146581809Y-108485819D01*
X146581809Y-108485819D02*
X146915142Y-107485819D01*
X147200857Y-107581057D02*
X147248476Y-107533438D01*
X147248476Y-107533438D02*
X147343714Y-107485819D01*
X147343714Y-107485819D02*
X147581809Y-107485819D01*
X147581809Y-107485819D02*
X147677047Y-107533438D01*
X147677047Y-107533438D02*
X147724666Y-107581057D01*
X147724666Y-107581057D02*
X147772285Y-107676295D01*
X147772285Y-107676295D02*
X147772285Y-107771533D01*
X147772285Y-107771533D02*
X147724666Y-107914390D01*
X147724666Y-107914390D02*
X147153238Y-108485819D01*
X147153238Y-108485819D02*
X147772285Y-108485819D01*
X139183819Y-68913333D02*
X139898104Y-68913333D01*
X139898104Y-68913333D02*
X140040961Y-68960952D01*
X140040961Y-68960952D02*
X140136200Y-69056190D01*
X140136200Y-69056190D02*
X140183819Y-69199047D01*
X140183819Y-69199047D02*
X140183819Y-69294285D01*
X139279057Y-68484761D02*
X139231438Y-68437142D01*
X139231438Y-68437142D02*
X139183819Y-68341904D01*
X139183819Y-68341904D02*
X139183819Y-68103809D01*
X139183819Y-68103809D02*
X139231438Y-68008571D01*
X139231438Y-68008571D02*
X139279057Y-67960952D01*
X139279057Y-67960952D02*
X139374295Y-67913333D01*
X139374295Y-67913333D02*
X139469533Y-67913333D01*
X139469533Y-67913333D02*
X139612390Y-67960952D01*
X139612390Y-67960952D02*
X140183819Y-68532380D01*
X140183819Y-68532380D02*
X140183819Y-67913333D01*
X135136095Y-82258819D02*
X135707523Y-82258819D01*
X135421809Y-83258819D02*
X135421809Y-82258819D01*
X136040857Y-83258819D02*
X136040857Y-82258819D01*
X136040857Y-82258819D02*
X136421809Y-82258819D01*
X136421809Y-82258819D02*
X136517047Y-82306438D01*
X136517047Y-82306438D02*
X136564666Y-82354057D01*
X136564666Y-82354057D02*
X136612285Y-82449295D01*
X136612285Y-82449295D02*
X136612285Y-82592152D01*
X136612285Y-82592152D02*
X136564666Y-82687390D01*
X136564666Y-82687390D02*
X136517047Y-82735009D01*
X136517047Y-82735009D02*
X136421809Y-82782628D01*
X136421809Y-82782628D02*
X136040857Y-82782628D01*
X137564666Y-83258819D02*
X136993238Y-83258819D01*
X137278952Y-83258819D02*
X137278952Y-82258819D01*
X137278952Y-82258819D02*
X137183714Y-82401676D01*
X137183714Y-82401676D02*
X137088476Y-82496914D01*
X137088476Y-82496914D02*
X136993238Y-82544533D01*
X145947761Y-96039819D02*
X145614428Y-95563628D01*
X145376333Y-96039819D02*
X145376333Y-95039819D01*
X145376333Y-95039819D02*
X145757285Y-95039819D01*
X145757285Y-95039819D02*
X145852523Y-95087438D01*
X145852523Y-95087438D02*
X145900142Y-95135057D01*
X145900142Y-95135057D02*
X145947761Y-95230295D01*
X145947761Y-95230295D02*
X145947761Y-95373152D01*
X145947761Y-95373152D02*
X145900142Y-95468390D01*
X145900142Y-95468390D02*
X145852523Y-95516009D01*
X145852523Y-95516009D02*
X145757285Y-95563628D01*
X145757285Y-95563628D02*
X145376333Y-95563628D01*
X146233476Y-95039819D02*
X146566809Y-96039819D01*
X146566809Y-96039819D02*
X146900142Y-95039819D01*
X147757285Y-96039819D02*
X147185857Y-96039819D01*
X147471571Y-96039819D02*
X147471571Y-95039819D01*
X147471571Y-95039819D02*
X147376333Y-95182676D01*
X147376333Y-95182676D02*
X147281095Y-95277914D01*
X147281095Y-95277914D02*
X147185857Y-95325533D01*
D13*
%TO.C,SW1*%
X143400000Y-69222000D02*
X143400000Y-70605000D01*
X143400000Y-69222000D02*
X144784000Y-69222000D01*
X143640000Y-69462000D02*
X143640000Y-81922000D01*
X143640000Y-69462000D02*
X153540000Y-69462000D01*
X143640000Y-81922000D02*
X153540000Y-81922000D01*
X146560000Y-71247000D02*
X146560000Y-72517000D01*
X146560000Y-71367000D02*
X147913333Y-71367000D01*
X146560000Y-71487000D02*
X147913333Y-71487000D01*
X146560000Y-71607000D02*
X147913333Y-71607000D01*
X146560000Y-71727000D02*
X147913333Y-71727000D01*
X146560000Y-71847000D02*
X147913333Y-71847000D01*
X146560000Y-71967000D02*
X147913333Y-71967000D01*
X146560000Y-72087000D02*
X147913333Y-72087000D01*
X146560000Y-72207000D02*
X147913333Y-72207000D01*
X146560000Y-72327000D02*
X147913333Y-72327000D01*
X146560000Y-72447000D02*
X147913333Y-72447000D01*
X146560000Y-72517000D02*
X150620000Y-72517000D01*
X146560000Y-73787000D02*
X146560000Y-75057000D01*
X146560000Y-73907000D02*
X147913333Y-73907000D01*
X146560000Y-74027000D02*
X147913333Y-74027000D01*
X146560000Y-74147000D02*
X147913333Y-74147000D01*
X146560000Y-74267000D02*
X147913333Y-74267000D01*
X146560000Y-74387000D02*
X147913333Y-74387000D01*
X146560000Y-74507000D02*
X147913333Y-74507000D01*
X146560000Y-74627000D02*
X147913333Y-74627000D01*
X146560000Y-74747000D02*
X147913333Y-74747000D01*
X146560000Y-74867000D02*
X147913333Y-74867000D01*
X146560000Y-74987000D02*
X147913333Y-74987000D01*
X146560000Y-75057000D02*
X150620000Y-75057000D01*
X146560000Y-76327000D02*
X146560000Y-77597000D01*
X146560000Y-76447000D02*
X147913333Y-76447000D01*
X146560000Y-76567000D02*
X147913333Y-76567000D01*
X146560000Y-76687000D02*
X147913333Y-76687000D01*
X146560000Y-76807000D02*
X147913333Y-76807000D01*
X146560000Y-76927000D02*
X147913333Y-76927000D01*
X146560000Y-77047000D02*
X147913333Y-77047000D01*
X146560000Y-77167000D02*
X147913333Y-77167000D01*
X146560000Y-77287000D02*
X147913333Y-77287000D01*
X146560000Y-77407000D02*
X147913333Y-77407000D01*
X146560000Y-77527000D02*
X147913333Y-77527000D01*
X146560000Y-77597000D02*
X150620000Y-77597000D01*
X146560000Y-78867000D02*
X146560000Y-80137000D01*
X146560000Y-78987000D02*
X147913333Y-78987000D01*
X146560000Y-79107000D02*
X147913333Y-79107000D01*
X146560000Y-79227000D02*
X147913333Y-79227000D01*
X146560000Y-79347000D02*
X147913333Y-79347000D01*
X146560000Y-79467000D02*
X147913333Y-79467000D01*
X146560000Y-79587000D02*
X147913333Y-79587000D01*
X146560000Y-79707000D02*
X147913333Y-79707000D01*
X146560000Y-79827000D02*
X147913333Y-79827000D01*
X146560000Y-79947000D02*
X147913333Y-79947000D01*
X146560000Y-80067000D02*
X147913333Y-80067000D01*
X146560000Y-80137000D02*
X150620000Y-80137000D01*
X147913333Y-71247000D02*
X147913333Y-72517000D01*
X147913333Y-73787000D02*
X147913333Y-75057000D01*
X147913333Y-76327000D02*
X147913333Y-77597000D01*
X147913333Y-78867000D02*
X147913333Y-80137000D01*
X150620000Y-71247000D02*
X146560000Y-71247000D01*
X150620000Y-72517000D02*
X150620000Y-71247000D01*
X150620000Y-73787000D02*
X146560000Y-73787000D01*
X150620000Y-75057000D02*
X150620000Y-73787000D01*
X150620000Y-76327000D02*
X146560000Y-76327000D01*
X150620000Y-77597000D02*
X150620000Y-76327000D01*
X150620000Y-78867000D02*
X146560000Y-78867000D01*
X150620000Y-80137000D02*
X150620000Y-78867000D01*
X153540000Y-69462000D02*
X153540000Y-81922000D01*
%TO.C,C1*%
X141689323Y-128107000D02*
X141689323Y-126909000D01*
X141729323Y-128370000D02*
X141729323Y-126646000D01*
X141769323Y-128570000D02*
X141769323Y-126446000D01*
X141809323Y-128738000D02*
X141809323Y-126278000D01*
X141849323Y-128886000D02*
X141849323Y-126130000D01*
X141889323Y-129018000D02*
X141889323Y-125998000D01*
X141929323Y-129138000D02*
X141929323Y-125878000D01*
X141969323Y-129250000D02*
X141969323Y-125766000D01*
X142009323Y-129354000D02*
X142009323Y-125662000D01*
X142049323Y-129452000D02*
X142049323Y-125564000D01*
X142089323Y-129545000D02*
X142089323Y-125471000D01*
X142129323Y-129633000D02*
X142129323Y-125383000D01*
X142169323Y-129717000D02*
X142169323Y-125299000D01*
X142209323Y-129797000D02*
X142209323Y-125219000D01*
X142249323Y-129873000D02*
X142249323Y-125143000D01*
X142289323Y-129947000D02*
X142289323Y-125069000D01*
X142329323Y-130018000D02*
X142329323Y-124998000D01*
X142369323Y-130087000D02*
X142369323Y-124929000D01*
X142409323Y-130153000D02*
X142409323Y-124863000D01*
X142449323Y-130217000D02*
X142449323Y-124799000D01*
X142489323Y-130278000D02*
X142489323Y-124738000D01*
X142529323Y-130338000D02*
X142529323Y-124678000D01*
X142569323Y-130397000D02*
X142569323Y-124619000D01*
X142609323Y-130453000D02*
X142609323Y-124563000D01*
X142649323Y-130508000D02*
X142649323Y-124508000D01*
X142689323Y-130562000D02*
X142689323Y-124454000D01*
X142729323Y-130614000D02*
X142729323Y-124402000D01*
X142769323Y-130664000D02*
X142769323Y-124352000D01*
X142809323Y-130714000D02*
X142809323Y-124302000D01*
X142849323Y-130762000D02*
X142849323Y-124254000D01*
X142889323Y-130809000D02*
X142889323Y-124207000D01*
X142929323Y-130855000D02*
X142929323Y-124161000D01*
X142969323Y-130900000D02*
X142969323Y-124116000D01*
X143009323Y-130944000D02*
X143009323Y-124072000D01*
X143049323Y-126267000D02*
X143049323Y-124030000D01*
X143049323Y-130986000D02*
X143049323Y-128749000D01*
X143089323Y-126267000D02*
X143089323Y-123988000D01*
X143089323Y-131028000D02*
X143089323Y-128749000D01*
X143129323Y-126267000D02*
X143129323Y-123947000D01*
X143129323Y-131069000D02*
X143129323Y-128749000D01*
X143169323Y-126267000D02*
X143169323Y-123907000D01*
X143169323Y-131109000D02*
X143169323Y-128749000D01*
X143209323Y-126267000D02*
X143209323Y-123868000D01*
X143209323Y-131148000D02*
X143209323Y-128749000D01*
X143249323Y-126267000D02*
X143249323Y-123829000D01*
X143249323Y-131187000D02*
X143249323Y-128749000D01*
X143289323Y-126267000D02*
X143289323Y-123792000D01*
X143289323Y-131224000D02*
X143289323Y-128749000D01*
X143329323Y-126267000D02*
X143329323Y-123755000D01*
X143329323Y-131261000D02*
X143329323Y-128749000D01*
X143369323Y-126267000D02*
X143369323Y-123719000D01*
X143369323Y-131297000D02*
X143369323Y-128749000D01*
X143409323Y-126267000D02*
X143409323Y-123684000D01*
X143409323Y-131332000D02*
X143409323Y-128749000D01*
X143449323Y-126267000D02*
X143449323Y-123650000D01*
X143449323Y-131366000D02*
X143449323Y-128749000D01*
X143489323Y-126267000D02*
X143489323Y-123616000D01*
X143489323Y-131400000D02*
X143489323Y-128749000D01*
X143529323Y-126267000D02*
X143529323Y-123583000D01*
X143529323Y-131433000D02*
X143529323Y-128749000D01*
X143569323Y-126267000D02*
X143569323Y-123551000D01*
X143569323Y-131465000D02*
X143569323Y-128749000D01*
X143609323Y-126267000D02*
X143609323Y-123519000D01*
X143609323Y-131497000D02*
X143609323Y-128749000D01*
X143649323Y-126267000D02*
X143649323Y-123488000D01*
X143649323Y-131528000D02*
X143649323Y-128749000D01*
X143689323Y-126267000D02*
X143689323Y-123458000D01*
X143689323Y-131558000D02*
X143689323Y-128749000D01*
X143729323Y-126267000D02*
X143729323Y-123428000D01*
X143729323Y-131588000D02*
X143729323Y-128749000D01*
X143769323Y-126267000D02*
X143769323Y-123398000D01*
X143769323Y-131618000D02*
X143769323Y-128749000D01*
X143809323Y-126267000D02*
X143809323Y-123370000D01*
X143809323Y-131646000D02*
X143809323Y-128749000D01*
X143849323Y-126267000D02*
X143849323Y-123342000D01*
X143849323Y-131674000D02*
X143849323Y-128749000D01*
X143889323Y-126267000D02*
X143889323Y-123314000D01*
X143889323Y-131702000D02*
X143889323Y-128749000D01*
X143929323Y-126267000D02*
X143929323Y-123287000D01*
X143929323Y-131729000D02*
X143929323Y-128749000D01*
X143969323Y-126267000D02*
X143969323Y-123261000D01*
X143969323Y-131755000D02*
X143969323Y-128749000D01*
X144009323Y-126267000D02*
X144009323Y-123235000D01*
X144009323Y-131781000D02*
X144009323Y-128749000D01*
X144049323Y-126267000D02*
X144049323Y-123210000D01*
X144049323Y-131806000D02*
X144049323Y-128749000D01*
X144089323Y-126267000D02*
X144089323Y-123185000D01*
X144089323Y-131831000D02*
X144089323Y-128749000D01*
X144129323Y-126267000D02*
X144129323Y-123161000D01*
X144129323Y-131855000D02*
X144129323Y-128749000D01*
X144169323Y-126267000D02*
X144169323Y-123137000D01*
X144169323Y-131879000D02*
X144169323Y-128749000D01*
X144209323Y-126267000D02*
X144209323Y-123113000D01*
X144209323Y-131903000D02*
X144209323Y-128749000D01*
X144249323Y-126267000D02*
X144249323Y-123091000D01*
X144249323Y-131925000D02*
X144249323Y-128749000D01*
X144289323Y-126267000D02*
X144289323Y-123068000D01*
X144289323Y-131948000D02*
X144289323Y-128749000D01*
X144329323Y-126267000D02*
X144329323Y-123046000D01*
X144329323Y-131970000D02*
X144329323Y-128749000D01*
X144369323Y-126267000D02*
X144369323Y-123025000D01*
X144369323Y-131991000D02*
X144369323Y-128749000D01*
X144409323Y-126267000D02*
X144409323Y-123004000D01*
X144409323Y-132012000D02*
X144409323Y-128749000D01*
X144449323Y-126267000D02*
X144449323Y-122983000D01*
X144449323Y-132033000D02*
X144449323Y-128749000D01*
X144489323Y-126267000D02*
X144489323Y-122963000D01*
X144489323Y-132053000D02*
X144489323Y-128749000D01*
X144529323Y-126267000D02*
X144529323Y-122944000D01*
X144529323Y-132072000D02*
X144529323Y-128749000D01*
X144569323Y-126267000D02*
X144569323Y-122924000D01*
X144569323Y-132092000D02*
X144569323Y-128749000D01*
X144609323Y-126267000D02*
X144609323Y-122905000D01*
X144609323Y-132111000D02*
X144609323Y-128749000D01*
X144649323Y-126267000D02*
X144649323Y-122887000D01*
X144649323Y-132129000D02*
X144649323Y-128749000D01*
X144689323Y-126267000D02*
X144689323Y-122869000D01*
X144689323Y-132147000D02*
X144689323Y-128749000D01*
X144729323Y-126267000D02*
X144729323Y-122851000D01*
X144729323Y-132165000D02*
X144729323Y-128749000D01*
X144769323Y-126267000D02*
X144769323Y-122834000D01*
X144769323Y-132182000D02*
X144769323Y-128749000D01*
X144809323Y-126267000D02*
X144809323Y-122818000D01*
X144809323Y-132198000D02*
X144809323Y-128749000D01*
X144849323Y-126267000D02*
X144849323Y-122801000D01*
X144849323Y-132215000D02*
X144849323Y-128749000D01*
X144889323Y-126267000D02*
X144889323Y-122785000D01*
X144889323Y-132231000D02*
X144889323Y-128749000D01*
X144929323Y-126267000D02*
X144929323Y-122770000D01*
X144929323Y-132246000D02*
X144929323Y-128749000D01*
X144969323Y-126267000D02*
X144969323Y-122754000D01*
X144969323Y-132262000D02*
X144969323Y-128749000D01*
X145009323Y-126267000D02*
X145009323Y-122740000D01*
X145009323Y-132276000D02*
X145009323Y-128749000D01*
X145049323Y-126267000D02*
X145049323Y-122725000D01*
X145049323Y-132291000D02*
X145049323Y-128749000D01*
X145089323Y-126267000D02*
X145089323Y-122711000D01*
X145089323Y-132305000D02*
X145089323Y-128749000D01*
X145129323Y-126267000D02*
X145129323Y-122697000D01*
X145129323Y-132319000D02*
X145129323Y-128749000D01*
X145169323Y-126267000D02*
X145169323Y-122684000D01*
X145169323Y-132332000D02*
X145169323Y-128749000D01*
X145209323Y-126267000D02*
X145209323Y-122671000D01*
X145209323Y-132345000D02*
X145209323Y-128749000D01*
X145249323Y-126267000D02*
X145249323Y-122658000D01*
X145249323Y-132358000D02*
X145249323Y-128749000D01*
X145289323Y-126267000D02*
X145289323Y-122646000D01*
X145289323Y-132370000D02*
X145289323Y-128749000D01*
X145329323Y-126267000D02*
X145329323Y-122634000D01*
X145329323Y-132382000D02*
X145329323Y-128749000D01*
X145369323Y-126267000D02*
X145369323Y-122623000D01*
X145369323Y-132393000D02*
X145369323Y-128749000D01*
X145409323Y-126267000D02*
X145409323Y-122611000D01*
X145409323Y-132405000D02*
X145409323Y-128749000D01*
X145449323Y-126267000D02*
X145449323Y-122601000D01*
X145449323Y-132415000D02*
X145449323Y-128749000D01*
X145489323Y-126267000D02*
X145489323Y-122590000D01*
X145489323Y-132426000D02*
X145489323Y-128749000D01*
X145529323Y-132436000D02*
X145529323Y-122580000D01*
X145569323Y-132446000D02*
X145569323Y-122570000D01*
X145609323Y-132455000D02*
X145609323Y-122561000D01*
X145649323Y-132464000D02*
X145649323Y-122552000D01*
X145689323Y-132473000D02*
X145689323Y-122543000D01*
X145729323Y-132482000D02*
X145729323Y-122534000D01*
X145769323Y-132490000D02*
X145769323Y-122526000D01*
X145809323Y-132498000D02*
X145809323Y-122518000D01*
X145849323Y-132505000D02*
X145849323Y-122511000D01*
X145889323Y-132512000D02*
X145889323Y-122504000D01*
X145929323Y-132519000D02*
X145929323Y-122497000D01*
X145969323Y-132526000D02*
X145969323Y-122490000D01*
X146009323Y-132532000D02*
X146009323Y-122484000D01*
X146049323Y-132538000D02*
X146049323Y-122478000D01*
X146090323Y-132543000D02*
X146090323Y-122473000D01*
X146130323Y-132548000D02*
X146130323Y-122468000D01*
X146170323Y-132553000D02*
X146170323Y-122463000D01*
X146210323Y-132558000D02*
X146210323Y-122458000D01*
X146250323Y-132562000D02*
X146250323Y-122454000D01*
X146290323Y-132566000D02*
X146290323Y-122450000D01*
X146330323Y-132570000D02*
X146330323Y-122446000D01*
X146370323Y-132573000D02*
X146370323Y-122443000D01*
X146410323Y-132576000D02*
X146410323Y-122440000D01*
X146450323Y-132578000D02*
X146450323Y-122438000D01*
X146490323Y-132581000D02*
X146490323Y-122435000D01*
X146530323Y-132583000D02*
X146530323Y-122433000D01*
X146570323Y-132585000D02*
X146570323Y-122431000D01*
X146610323Y-132586000D02*
X146610323Y-122430000D01*
X146650323Y-132587000D02*
X146650323Y-122429000D01*
X146690323Y-132588000D02*
X146690323Y-122428000D01*
X146730323Y-132588000D02*
X146730323Y-122428000D01*
X146770323Y-132588000D02*
X146770323Y-122428000D01*
X151749969Y-130883000D02*
X151749969Y-129883000D01*
X152249969Y-130383000D02*
X151249969Y-130383000D01*
X151890323Y-127508000D02*
G75*
G02*
X141650323Y-127508000I-5120000J0D01*
G01*
X141650323Y-127508000D02*
G75*
G02*
X151890323Y-127508000I5120000J0D01*
G01*
D12*
%TO.C,J4*%
X173450000Y-117246000D02*
X174450000Y-117246000D01*
X174450000Y-136246000D01*
X174450000Y-137246000D01*
X173450000Y-137246000D01*
X173450000Y-136246000D01*
X160950000Y-136246000D01*
X160950000Y-132246000D01*
X158950000Y-132246000D01*
X158950000Y-131246000D01*
X160950000Y-131246000D01*
X160950000Y-122246000D01*
X158950000Y-122246000D01*
X158950000Y-121246000D01*
X160950000Y-121246000D01*
X160950000Y-117246000D01*
X169950000Y-117246000D01*
X172450000Y-117246000D01*
X172450000Y-116246000D01*
X173450000Y-116246000D01*
X173450000Y-117246000D01*
D13*
%TO.C,C2*%
X141771000Y-140045000D02*
X141771000Y-138847000D01*
X141811000Y-140308000D02*
X141811000Y-138584000D01*
X141851000Y-140508000D02*
X141851000Y-138384000D01*
X141891000Y-140676000D02*
X141891000Y-138216000D01*
X141931000Y-140824000D02*
X141931000Y-138068000D01*
X141971000Y-140956000D02*
X141971000Y-137936000D01*
X142011000Y-141076000D02*
X142011000Y-137816000D01*
X142051000Y-141188000D02*
X142051000Y-137704000D01*
X142091000Y-141292000D02*
X142091000Y-137600000D01*
X142131000Y-141390000D02*
X142131000Y-137502000D01*
X142171000Y-141483000D02*
X142171000Y-137409000D01*
X142211000Y-141571000D02*
X142211000Y-137321000D01*
X142251000Y-141655000D02*
X142251000Y-137237000D01*
X142291000Y-141735000D02*
X142291000Y-137157000D01*
X142331000Y-141811000D02*
X142331000Y-137081000D01*
X142371000Y-141885000D02*
X142371000Y-137007000D01*
X142411000Y-141956000D02*
X142411000Y-136936000D01*
X142451000Y-142025000D02*
X142451000Y-136867000D01*
X142491000Y-142091000D02*
X142491000Y-136801000D01*
X142531000Y-142155000D02*
X142531000Y-136737000D01*
X142571000Y-142216000D02*
X142571000Y-136676000D01*
X142611000Y-142276000D02*
X142611000Y-136616000D01*
X142651000Y-142335000D02*
X142651000Y-136557000D01*
X142691000Y-142391000D02*
X142691000Y-136501000D01*
X142731000Y-142446000D02*
X142731000Y-136446000D01*
X142771000Y-142500000D02*
X142771000Y-136392000D01*
X142811000Y-142552000D02*
X142811000Y-136340000D01*
X142851000Y-142602000D02*
X142851000Y-136290000D01*
X142891000Y-142652000D02*
X142891000Y-136240000D01*
X142931000Y-142700000D02*
X142931000Y-136192000D01*
X142971000Y-142747000D02*
X142971000Y-136145000D01*
X143011000Y-142793000D02*
X143011000Y-136099000D01*
X143051000Y-142838000D02*
X143051000Y-136054000D01*
X143091000Y-142882000D02*
X143091000Y-136010000D01*
X143131000Y-138205000D02*
X143131000Y-135968000D01*
X143131000Y-142924000D02*
X143131000Y-140687000D01*
X143171000Y-138205000D02*
X143171000Y-135926000D01*
X143171000Y-142966000D02*
X143171000Y-140687000D01*
X143211000Y-138205000D02*
X143211000Y-135885000D01*
X143211000Y-143007000D02*
X143211000Y-140687000D01*
X143251000Y-138205000D02*
X143251000Y-135845000D01*
X143251000Y-143047000D02*
X143251000Y-140687000D01*
X143291000Y-138205000D02*
X143291000Y-135806000D01*
X143291000Y-143086000D02*
X143291000Y-140687000D01*
X143331000Y-138205000D02*
X143331000Y-135767000D01*
X143331000Y-143125000D02*
X143331000Y-140687000D01*
X143371000Y-138205000D02*
X143371000Y-135730000D01*
X143371000Y-143162000D02*
X143371000Y-140687000D01*
X143411000Y-138205000D02*
X143411000Y-135693000D01*
X143411000Y-143199000D02*
X143411000Y-140687000D01*
X143451000Y-138205000D02*
X143451000Y-135657000D01*
X143451000Y-143235000D02*
X143451000Y-140687000D01*
X143491000Y-138205000D02*
X143491000Y-135622000D01*
X143491000Y-143270000D02*
X143491000Y-140687000D01*
X143531000Y-138205000D02*
X143531000Y-135588000D01*
X143531000Y-143304000D02*
X143531000Y-140687000D01*
X143571000Y-138205000D02*
X143571000Y-135554000D01*
X143571000Y-143338000D02*
X143571000Y-140687000D01*
X143611000Y-138205000D02*
X143611000Y-135521000D01*
X143611000Y-143371000D02*
X143611000Y-140687000D01*
X143651000Y-138205000D02*
X143651000Y-135489000D01*
X143651000Y-143403000D02*
X143651000Y-140687000D01*
X143691000Y-138205000D02*
X143691000Y-135457000D01*
X143691000Y-143435000D02*
X143691000Y-140687000D01*
X143731000Y-138205000D02*
X143731000Y-135426000D01*
X143731000Y-143466000D02*
X143731000Y-140687000D01*
X143771000Y-138205000D02*
X143771000Y-135396000D01*
X143771000Y-143496000D02*
X143771000Y-140687000D01*
X143811000Y-138205000D02*
X143811000Y-135366000D01*
X143811000Y-143526000D02*
X143811000Y-140687000D01*
X143851000Y-138205000D02*
X143851000Y-135336000D01*
X143851000Y-143556000D02*
X143851000Y-140687000D01*
X143891000Y-138205000D02*
X143891000Y-135308000D01*
X143891000Y-143584000D02*
X143891000Y-140687000D01*
X143931000Y-138205000D02*
X143931000Y-135280000D01*
X143931000Y-143612000D02*
X143931000Y-140687000D01*
X143971000Y-138205000D02*
X143971000Y-135252000D01*
X143971000Y-143640000D02*
X143971000Y-140687000D01*
X144011000Y-138205000D02*
X144011000Y-135225000D01*
X144011000Y-143667000D02*
X144011000Y-140687000D01*
X144051000Y-138205000D02*
X144051000Y-135199000D01*
X144051000Y-143693000D02*
X144051000Y-140687000D01*
X144091000Y-138205000D02*
X144091000Y-135173000D01*
X144091000Y-143719000D02*
X144091000Y-140687000D01*
X144131000Y-138205000D02*
X144131000Y-135148000D01*
X144131000Y-143744000D02*
X144131000Y-140687000D01*
X144171000Y-138205000D02*
X144171000Y-135123000D01*
X144171000Y-143769000D02*
X144171000Y-140687000D01*
X144211000Y-138205000D02*
X144211000Y-135099000D01*
X144211000Y-143793000D02*
X144211000Y-140687000D01*
X144251000Y-138205000D02*
X144251000Y-135075000D01*
X144251000Y-143817000D02*
X144251000Y-140687000D01*
X144291000Y-138205000D02*
X144291000Y-135051000D01*
X144291000Y-143841000D02*
X144291000Y-140687000D01*
X144331000Y-138205000D02*
X144331000Y-135029000D01*
X144331000Y-143863000D02*
X144331000Y-140687000D01*
X144371000Y-138205000D02*
X144371000Y-135006000D01*
X144371000Y-143886000D02*
X144371000Y-140687000D01*
X144411000Y-138205000D02*
X144411000Y-134984000D01*
X144411000Y-143908000D02*
X144411000Y-140687000D01*
X144451000Y-138205000D02*
X144451000Y-134963000D01*
X144451000Y-143929000D02*
X144451000Y-140687000D01*
X144491000Y-138205000D02*
X144491000Y-134942000D01*
X144491000Y-143950000D02*
X144491000Y-140687000D01*
X144531000Y-138205000D02*
X144531000Y-134921000D01*
X144531000Y-143971000D02*
X144531000Y-140687000D01*
X144571000Y-138205000D02*
X144571000Y-134901000D01*
X144571000Y-143991000D02*
X144571000Y-140687000D01*
X144611000Y-138205000D02*
X144611000Y-134882000D01*
X144611000Y-144010000D02*
X144611000Y-140687000D01*
X144651000Y-138205000D02*
X144651000Y-134862000D01*
X144651000Y-144030000D02*
X144651000Y-140687000D01*
X144691000Y-138205000D02*
X144691000Y-134843000D01*
X144691000Y-144049000D02*
X144691000Y-140687000D01*
X144731000Y-138205000D02*
X144731000Y-134825000D01*
X144731000Y-144067000D02*
X144731000Y-140687000D01*
X144771000Y-138205000D02*
X144771000Y-134807000D01*
X144771000Y-144085000D02*
X144771000Y-140687000D01*
X144811000Y-138205000D02*
X144811000Y-134789000D01*
X144811000Y-144103000D02*
X144811000Y-140687000D01*
X144851000Y-138205000D02*
X144851000Y-134772000D01*
X144851000Y-144120000D02*
X144851000Y-140687000D01*
X144891000Y-138205000D02*
X144891000Y-134756000D01*
X144891000Y-144136000D02*
X144891000Y-140687000D01*
X144931000Y-138205000D02*
X144931000Y-134739000D01*
X144931000Y-144153000D02*
X144931000Y-140687000D01*
X144971000Y-138205000D02*
X144971000Y-134723000D01*
X144971000Y-144169000D02*
X144971000Y-140687000D01*
X145011000Y-138205000D02*
X145011000Y-134708000D01*
X145011000Y-144184000D02*
X145011000Y-140687000D01*
X145051000Y-138205000D02*
X145051000Y-134692000D01*
X145051000Y-144200000D02*
X145051000Y-140687000D01*
X145091000Y-138205000D02*
X145091000Y-134678000D01*
X145091000Y-144214000D02*
X145091000Y-140687000D01*
X145131000Y-138205000D02*
X145131000Y-134663000D01*
X145131000Y-144229000D02*
X145131000Y-140687000D01*
X145171000Y-138205000D02*
X145171000Y-134649000D01*
X145171000Y-144243000D02*
X145171000Y-140687000D01*
X145211000Y-138205000D02*
X145211000Y-134635000D01*
X145211000Y-144257000D02*
X145211000Y-140687000D01*
X145251000Y-138205000D02*
X145251000Y-134622000D01*
X145251000Y-144270000D02*
X145251000Y-140687000D01*
X145291000Y-138205000D02*
X145291000Y-134609000D01*
X145291000Y-144283000D02*
X145291000Y-140687000D01*
X145331000Y-138205000D02*
X145331000Y-134596000D01*
X145331000Y-144296000D02*
X145331000Y-140687000D01*
X145371000Y-138205000D02*
X145371000Y-134584000D01*
X145371000Y-144308000D02*
X145371000Y-140687000D01*
X145411000Y-138205000D02*
X145411000Y-134572000D01*
X145411000Y-144320000D02*
X145411000Y-140687000D01*
X145451000Y-138205000D02*
X145451000Y-134561000D01*
X145451000Y-144331000D02*
X145451000Y-140687000D01*
X145491000Y-138205000D02*
X145491000Y-134549000D01*
X145491000Y-144343000D02*
X145491000Y-140687000D01*
X145531000Y-138205000D02*
X145531000Y-134539000D01*
X145531000Y-144353000D02*
X145531000Y-140687000D01*
X145571000Y-138205000D02*
X145571000Y-134528000D01*
X145571000Y-144364000D02*
X145571000Y-140687000D01*
X145611000Y-144374000D02*
X145611000Y-134518000D01*
X145651000Y-144384000D02*
X145651000Y-134508000D01*
X145691000Y-144393000D02*
X145691000Y-134499000D01*
X145731000Y-144402000D02*
X145731000Y-134490000D01*
X145771000Y-144411000D02*
X145771000Y-134481000D01*
X145811000Y-144420000D02*
X145811000Y-134472000D01*
X145851000Y-144428000D02*
X145851000Y-134464000D01*
X145891000Y-144436000D02*
X145891000Y-134456000D01*
X145931000Y-144443000D02*
X145931000Y-134449000D01*
X145971000Y-144450000D02*
X145971000Y-134442000D01*
X146011000Y-144457000D02*
X146011000Y-134435000D01*
X146051000Y-144464000D02*
X146051000Y-134428000D01*
X146091000Y-144470000D02*
X146091000Y-134422000D01*
X146131000Y-144476000D02*
X146131000Y-134416000D01*
X146172000Y-144481000D02*
X146172000Y-134411000D01*
X146212000Y-144486000D02*
X146212000Y-134406000D01*
X146252000Y-144491000D02*
X146252000Y-134401000D01*
X146292000Y-144496000D02*
X146292000Y-134396000D01*
X146332000Y-144500000D02*
X146332000Y-134392000D01*
X146372000Y-144504000D02*
X146372000Y-134388000D01*
X146412000Y-144508000D02*
X146412000Y-134384000D01*
X146452000Y-144511000D02*
X146452000Y-134381000D01*
X146492000Y-144514000D02*
X146492000Y-134378000D01*
X146532000Y-144516000D02*
X146532000Y-134376000D01*
X146572000Y-144519000D02*
X146572000Y-134373000D01*
X146612000Y-144521000D02*
X146612000Y-134371000D01*
X146652000Y-144523000D02*
X146652000Y-134369000D01*
X146692000Y-144524000D02*
X146692000Y-134368000D01*
X146732000Y-144525000D02*
X146732000Y-134367000D01*
X146772000Y-144526000D02*
X146772000Y-134366000D01*
X146812000Y-144526000D02*
X146812000Y-134366000D01*
X146852000Y-144526000D02*
X146852000Y-134366000D01*
X151831646Y-142821000D02*
X151831646Y-141821000D01*
X152331646Y-142321000D02*
X151331646Y-142321000D01*
X151972000Y-139446000D02*
G75*
G02*
X141732000Y-139446000I-5120000J0D01*
G01*
X141732000Y-139446000D02*
G75*
G02*
X151972000Y-139446000I5120000J0D01*
G01*
%TO.C,J1*%
X119828000Y-66996000D02*
X119828000Y-74736000D01*
X119828000Y-66996000D02*
X122428000Y-66996000D01*
X119828000Y-74736000D02*
X125028000Y-74736000D01*
X122428000Y-66996000D02*
X122428000Y-69596000D01*
X122428000Y-69596000D02*
X125028000Y-69596000D01*
X123698000Y-66996000D02*
X125028000Y-66996000D01*
X125028000Y-66996000D02*
X125028000Y-68326000D01*
X125028000Y-69596000D02*
X125028000Y-74736000D01*
%TO.C,TP2*%
X138098000Y-122682000D02*
G75*
G02*
X134698000Y-122682000I-1700000J0D01*
G01*
X134698000Y-122682000D02*
G75*
G02*
X138098000Y-122682000I1700000J0D01*
G01*
%TO.C,J5*%
X119828000Y-135830000D02*
X119828000Y-143570000D01*
X119828000Y-135830000D02*
X122428000Y-135830000D01*
X119828000Y-143570000D02*
X125028000Y-143570000D01*
X122428000Y-135830000D02*
X122428000Y-138430000D01*
X122428000Y-138430000D02*
X125028000Y-138430000D01*
X123698000Y-135830000D02*
X125028000Y-135830000D01*
X125028000Y-135830000D02*
X125028000Y-137160000D01*
X125028000Y-138430000D02*
X125028000Y-143570000D01*
%TO.C,RV2*%
X141673000Y-109161000D02*
X141673000Y-118931000D01*
X141673000Y-109161000D02*
X151443000Y-109161000D01*
X141673000Y-118931000D02*
X151443000Y-118931000D01*
X151443000Y-109161000D02*
X151443000Y-118931000D01*
%TO.C,J2*%
X130989000Y-67250000D02*
X130989000Y-69910000D01*
X136129000Y-67250000D02*
X130989000Y-67250000D01*
X136129000Y-67250000D02*
X136129000Y-69910000D01*
X136129000Y-69910000D02*
X130989000Y-69910000D01*
X137399000Y-67250000D02*
X138729000Y-67250000D01*
X138729000Y-67250000D02*
X138729000Y-68580000D01*
%TO.C,TP1*%
X137844000Y-80010000D02*
G75*
G02*
X134444000Y-80010000I-1700000J0D01*
G01*
X134444000Y-80010000D02*
G75*
G02*
X137844000Y-80010000I1700000J0D01*
G01*
%TO.C,J3*%
D12*
X174659500Y-73887000D02*
X164176500Y-73887000D01*
X164176500Y-113913000D01*
X174659500Y-113913000D01*
X174659500Y-73887000D01*
D13*
%TO.C,RV1*%
X141658000Y-96715000D02*
X141658000Y-106485000D01*
X141658000Y-96715000D02*
X151428000Y-96715000D01*
X141658000Y-106485000D02*
X151428000Y-106485000D01*
X151428000Y-96715000D02*
X151428000Y-106485000D01*
D14*
%TO.C,G\u002A\u002A\u002A*%
G36*
X157083222Y-65443095D02*
G01*
X157101597Y-65499266D01*
X157109905Y-65610373D01*
X157111265Y-65724280D01*
X157108156Y-65880797D01*
X157096922Y-65972670D01*
X157074700Y-66014211D01*
X157051919Y-66021009D01*
X157020615Y-66005466D01*
X157002241Y-65949295D01*
X156993933Y-65838188D01*
X156992573Y-65724280D01*
X156995682Y-65567764D01*
X157006916Y-65475890D01*
X157029137Y-65434350D01*
X157051919Y-65427551D01*
X157083222Y-65443095D01*
G37*
G36*
X156610440Y-65444720D02*
G01*
X156628942Y-65506066D01*
X156636064Y-65626353D01*
X156636498Y-65684716D01*
X156636498Y-65941882D01*
X156774972Y-65941882D01*
X156866499Y-65951819D01*
X156912249Y-65976253D01*
X156913445Y-65981445D01*
X156877863Y-66004014D01*
X156786883Y-66018339D01*
X156715626Y-66021009D01*
X156517807Y-66021009D01*
X156517807Y-65724280D01*
X156520915Y-65567764D01*
X156532150Y-65475890D01*
X156554371Y-65434350D01*
X156577152Y-65427551D01*
X156610440Y-65444720D01*
G37*
G36*
X156401633Y-66998223D02*
G01*
X156371859Y-67076500D01*
X156300205Y-67184627D01*
X156216848Y-67349267D01*
X156201296Y-67458934D01*
X156189530Y-67563765D01*
X156151462Y-67602755D01*
X156141950Y-67603564D01*
X156098363Y-67574013D01*
X156082777Y-67479240D01*
X156082604Y-67462991D01*
X156053387Y-67315010D01*
X155983694Y-67176860D01*
X155912160Y-67063435D01*
X155888626Y-66999324D01*
X155910421Y-66973066D01*
X155935600Y-66970542D01*
X155987524Y-67001722D01*
X156049689Y-67078451D01*
X156060170Y-67095399D01*
X156133925Y-67220255D01*
X156236847Y-67095042D01*
X156328629Y-66999720D01*
X156385390Y-66970038D01*
X156401633Y-66998223D01*
G37*
G36*
X156331618Y-66194052D02*
G01*
X156352266Y-66218386D01*
X156350522Y-66226729D01*
X156301929Y-66273230D01*
X156247652Y-66290817D01*
X156200937Y-66305178D01*
X156175058Y-66343329D01*
X156163997Y-66423977D01*
X156161732Y-66557873D01*
X156155791Y-66712659D01*
X156136461Y-66794682D01*
X156101484Y-66809522D01*
X156069416Y-66785911D01*
X156055098Y-66734821D01*
X156045519Y-66630213D01*
X156043040Y-66531497D01*
X156039993Y-66401823D01*
X156025956Y-66331333D01*
X155993582Y-66300167D01*
X155954022Y-66290817D01*
X155874384Y-66269590D01*
X155864464Y-66242932D01*
X155915615Y-66216369D01*
X156019188Y-66195427D01*
X156116238Y-66187165D01*
X156257022Y-66184334D01*
X156331618Y-66194052D01*
G37*
G36*
X157434833Y-66984928D02*
G01*
X157464703Y-67010266D01*
X157467339Y-67028000D01*
X157433175Y-67077671D01*
X157368430Y-67089234D01*
X157315260Y-67093743D01*
X157285645Y-67119189D01*
X157272710Y-67183448D01*
X157269577Y-67304398D01*
X157269520Y-67346399D01*
X157263670Y-67502104D01*
X157244610Y-67585111D01*
X157210070Y-67601091D01*
X157177204Y-67577188D01*
X157162886Y-67526098D01*
X157153307Y-67421490D01*
X157150828Y-67322775D01*
X157147782Y-67193101D01*
X157133744Y-67122611D01*
X157101371Y-67091445D01*
X157061810Y-67082094D01*
X156982322Y-67060798D01*
X156972517Y-67033977D01*
X157023744Y-67007292D01*
X157127353Y-66986401D01*
X157220065Y-66978545D01*
X157358666Y-66975430D01*
X157434833Y-66984928D01*
G37*
G36*
X157169974Y-66183822D02*
G01*
X157243979Y-66199979D01*
X157269052Y-66231460D01*
X157269520Y-66238611D01*
X157235127Y-66286341D01*
X157170610Y-66297956D01*
X157117441Y-66302466D01*
X157087826Y-66327912D01*
X157074890Y-66392171D01*
X157071758Y-66513120D01*
X157071701Y-66555121D01*
X157066111Y-66689506D01*
X157051302Y-66781512D01*
X157032137Y-66812287D01*
X157011462Y-66775951D01*
X156997308Y-66679698D01*
X156992573Y-66555121D01*
X156990839Y-66416881D01*
X156981052Y-66339882D01*
X156956337Y-66306249D01*
X156909818Y-66298105D01*
X156893663Y-66297956D01*
X156814113Y-66277321D01*
X156794754Y-66238611D01*
X156812984Y-66204151D01*
X156877611Y-66185650D01*
X157003535Y-66179382D01*
X157032137Y-66179265D01*
X157169974Y-66183822D01*
G37*
G36*
X157564548Y-65455143D02*
G01*
X157670244Y-65537202D01*
X157717794Y-65672652D01*
X157720548Y-65724280D01*
X157690914Y-65875758D01*
X157602783Y-65974171D01*
X157457310Y-66018445D01*
X157401862Y-66021009D01*
X157229956Y-66021009D01*
X157229956Y-65724280D01*
X157309084Y-65724280D01*
X157311751Y-65848983D01*
X157325439Y-65913921D01*
X157358682Y-65938417D01*
X157405168Y-65941882D01*
X157506962Y-65916926D01*
X157563423Y-65879710D01*
X157620770Y-65775961D01*
X157615512Y-65664460D01*
X157557677Y-65568848D01*
X157457294Y-65512762D01*
X157405168Y-65506679D01*
X157350104Y-65512719D01*
X157321430Y-65543719D01*
X157310614Y-65619005D01*
X157309084Y-65724280D01*
X157229956Y-65724280D01*
X157229956Y-65427551D01*
X157401862Y-65427551D01*
X157564548Y-65455143D01*
G37*
G36*
X157724959Y-66978459D02*
G01*
X157861180Y-66994208D01*
X157935620Y-67019120D01*
X157943972Y-67046731D01*
X157881928Y-67070581D01*
X157793741Y-67081617D01*
X157675392Y-67104299D01*
X157624237Y-67141931D01*
X157642461Y-67181722D01*
X157732246Y-67210879D01*
X157770901Y-67215428D01*
X157885395Y-67238235D01*
X157933356Y-67272998D01*
X157912857Y-67306529D01*
X157821971Y-67325638D01*
X157787147Y-67326617D01*
X157682299Y-67332968D01*
X157635374Y-67358764D01*
X157625595Y-67405745D01*
X157637244Y-67455193D01*
X157685614Y-67478576D01*
X157790842Y-67484842D01*
X157803632Y-67484872D01*
X157920979Y-67492639D01*
X157974430Y-67519047D01*
X157981670Y-67544218D01*
X157963439Y-67578677D01*
X157898812Y-67597179D01*
X157772888Y-67603447D01*
X157744286Y-67603564D01*
X157506903Y-67603564D01*
X157506903Y-67285079D01*
X157506903Y-66966593D01*
X157724959Y-66978459D01*
G37*
G36*
X156289778Y-65447824D02*
G01*
X156381114Y-65508647D01*
X156447013Y-65634960D01*
X156450655Y-65779200D01*
X156394220Y-65913366D01*
X156345476Y-65966791D01*
X156249220Y-66036973D01*
X156166779Y-66053407D01*
X156061130Y-66022981D01*
X156055518Y-66020733D01*
X155954168Y-65941347D01*
X155896313Y-65817585D01*
X155891328Y-65737976D01*
X156005016Y-65737976D01*
X156022339Y-65845716D01*
X156050953Y-65894405D01*
X156144946Y-65940976D01*
X156246142Y-65925767D01*
X156321570Y-65854595D01*
X156325857Y-65845889D01*
X156350608Y-65726933D01*
X156324863Y-65620285D01*
X156262471Y-65541672D01*
X156177285Y-65506818D01*
X156083153Y-65531448D01*
X156062308Y-65546669D01*
X156018768Y-65625142D01*
X156005016Y-65737976D01*
X155891328Y-65737976D01*
X155887348Y-65674421D01*
X155932668Y-65536829D01*
X155946374Y-65515482D01*
X156037376Y-65447186D01*
X156162233Y-65424470D01*
X156289778Y-65447824D01*
G37*
G36*
X156587467Y-66213814D02*
G01*
X156643077Y-66294648D01*
X156705221Y-66412525D01*
X156764182Y-66548595D01*
X156810246Y-66684005D01*
X156817736Y-66712044D01*
X156821724Y-66791127D01*
X156790537Y-66810673D01*
X156741363Y-66770472D01*
X156708427Y-66713377D01*
X156640354Y-66632621D01*
X156557371Y-66614467D01*
X156457534Y-66643656D01*
X156406314Y-66713377D01*
X156360893Y-66781155D01*
X156312857Y-66814344D01*
X156283719Y-66800963D01*
X156281990Y-66782614D01*
X156299406Y-66711178D01*
X156340433Y-66599599D01*
X156395215Y-66469867D01*
X156401580Y-66456212D01*
X156506343Y-66456212D01*
X156508192Y-66519424D01*
X156561074Y-66535340D01*
X156623439Y-66528071D01*
X156636498Y-66518793D01*
X156619160Y-66454113D01*
X156582658Y-66394011D01*
X156557752Y-66377084D01*
X156524276Y-66409952D01*
X156506343Y-66456212D01*
X156401580Y-66456212D01*
X156453896Y-66343969D01*
X156506622Y-66243897D01*
X156543535Y-66191639D01*
X156548106Y-66188875D01*
X156587467Y-66213814D01*
G37*
G36*
X155454768Y-65000412D02*
G01*
X155605225Y-65008610D01*
X155692983Y-65021563D01*
X155734471Y-65044390D01*
X155746116Y-65082208D01*
X155746311Y-65091259D01*
X155739896Y-65127399D01*
X155711283Y-65152178D01*
X155646419Y-65169196D01*
X155531250Y-65182055D01*
X155351723Y-65194356D01*
X155341600Y-65194973D01*
X155089855Y-65219958D01*
X154902204Y-65259651D01*
X154783294Y-65312601D01*
X154737772Y-65377353D01*
X154737433Y-65383925D01*
X154756309Y-65472520D01*
X154806207Y-65605236D01*
X154877033Y-65758588D01*
X154958695Y-65909089D01*
X154974121Y-65934642D01*
X155038140Y-66053242D01*
X155075331Y-66151477D01*
X155078878Y-66199887D01*
X155030631Y-66254246D01*
X154960385Y-66238475D01*
X154875679Y-66155852D01*
X154831367Y-66092256D01*
X154707534Y-65876921D01*
X154612923Y-65673530D01*
X154554972Y-65499851D01*
X154540000Y-65396080D01*
X154575728Y-65252200D01*
X154681575Y-65139011D01*
X154854120Y-65057994D01*
X155089943Y-65010627D01*
X155385626Y-64998389D01*
X155454768Y-65000412D01*
G37*
G36*
X157761741Y-66195595D02*
G01*
X157775923Y-66222939D01*
X157774879Y-66226626D01*
X157728160Y-66261490D01*
X157631561Y-66286132D01*
X157592847Y-66290340D01*
X157472959Y-66313696D01*
X157421959Y-66351573D01*
X157440614Y-66389754D01*
X157529692Y-66414021D01*
X157586031Y-66416648D01*
X157696071Y-66426448D01*
X157741414Y-66458932D01*
X157744286Y-66475994D01*
X157718154Y-66517259D01*
X157631528Y-66534262D01*
X157586031Y-66535340D01*
X157482494Y-66541975D01*
X157436735Y-66568795D01*
X157427775Y-66614467D01*
X157439424Y-66663916D01*
X157487795Y-66687299D01*
X157593023Y-66693565D01*
X157605813Y-66693595D01*
X157723160Y-66701362D01*
X157776611Y-66727770D01*
X157783850Y-66752941D01*
X157749249Y-66788122D01*
X157662906Y-66809279D01*
X157551012Y-66816084D01*
X157439759Y-66808210D01*
X157355338Y-66785330D01*
X157325588Y-66758665D01*
X157316593Y-66692914D01*
X157313769Y-66575415D01*
X157316938Y-66452045D01*
X157328866Y-66199047D01*
X157560353Y-66187062D01*
X157694005Y-66184396D01*
X157761741Y-66195595D01*
G37*
G36*
X158129734Y-66978016D02*
G01*
X158186639Y-67024738D01*
X158248102Y-67135973D01*
X158275949Y-67206266D01*
X158353227Y-67421240D01*
X158434504Y-67194928D01*
X158495113Y-67052647D01*
X158548278Y-66985777D01*
X158575128Y-66980012D01*
X158606079Y-67022193D01*
X158626961Y-67119082D01*
X158637390Y-67246855D01*
X158636983Y-67381687D01*
X158625355Y-67499754D01*
X158602123Y-67577229D01*
X158585018Y-67593673D01*
X158553915Y-67577587D01*
X158537656Y-67497514D01*
X158533918Y-67399151D01*
X158532273Y-67188143D01*
X158463029Y-67383216D01*
X158415965Y-67496428D01*
X158370897Y-67573780D01*
X158349832Y-67592941D01*
X158314180Y-67567068D01*
X158267754Y-67484971D01*
X158232792Y-67397868D01*
X158159707Y-67188143D01*
X158147748Y-67395854D01*
X158133693Y-67532375D01*
X158114291Y-67595354D01*
X158093464Y-67589830D01*
X158075137Y-67520844D01*
X158063233Y-67393437D01*
X158060797Y-67284152D01*
X158062632Y-67125491D01*
X158070355Y-67031139D01*
X158087295Y-66986318D01*
X158116778Y-66976249D01*
X158129734Y-66978016D01*
G37*
G36*
X159062513Y-66994655D02*
G01*
X159140021Y-67052512D01*
X159143414Y-67057663D01*
X159167801Y-67129326D01*
X159138359Y-67155846D01*
X159072038Y-67127456D01*
X159051610Y-67110569D01*
X158968107Y-67066076D01*
X158893191Y-67072631D01*
X158853459Y-67125994D01*
X158852075Y-67142392D01*
X158886610Y-67187760D01*
X158970799Y-67221715D01*
X158976886Y-67222997D01*
X159118586Y-67273207D01*
X159195939Y-67348516D01*
X159204089Y-67439294D01*
X159138180Y-67535911D01*
X159135797Y-67538086D01*
X159018996Y-67595631D01*
X158887052Y-67589587D01*
X158769907Y-67521392D01*
X158768990Y-67520480D01*
X158715429Y-67450566D01*
X158724091Y-67400473D01*
X158731891Y-67391897D01*
X158778615Y-67372014D01*
X158816941Y-67415635D01*
X158874087Y-67464934D01*
X158955706Y-67486642D01*
X159033698Y-67480457D01*
X159079964Y-67446080D01*
X159082468Y-67418481D01*
X159038373Y-67361047D01*
X158958346Y-67322316D01*
X158814510Y-67260987D01*
X158741911Y-67174387D01*
X158733383Y-67125345D01*
X158766869Y-67046883D01*
X158850107Y-66996104D01*
X158957265Y-66977274D01*
X159062513Y-66994655D01*
G37*
G36*
X155169466Y-66276216D02*
G01*
X155218407Y-66330081D01*
X155289813Y-66436693D01*
X155373052Y-66576922D01*
X155457496Y-66731640D01*
X155532515Y-66881717D01*
X155587480Y-67008024D01*
X155605392Y-67060717D01*
X155628996Y-67241278D01*
X155587015Y-67384147D01*
X155478046Y-67490379D01*
X155300687Y-67561029D01*
X155053537Y-67597155D01*
X154885797Y-67602695D01*
X154720076Y-67602274D01*
X154618039Y-67597077D01*
X154564245Y-67582731D01*
X154543251Y-67554863D01*
X154539617Y-67509100D01*
X154539614Y-67504654D01*
X154543079Y-67455235D01*
X154564339Y-67425824D01*
X154619688Y-67411232D01*
X154725423Y-67406269D01*
X154850221Y-67405745D01*
X155018687Y-67399959D01*
X155173089Y-67384712D01*
X155282506Y-67363169D01*
X155289954Y-67360731D01*
X155370314Y-67326909D01*
X155404019Y-67282423D01*
X155405489Y-67199280D01*
X155400060Y-67146966D01*
X155360768Y-67000514D01*
X155274553Y-66811988D01*
X155195037Y-66671844D01*
X155107398Y-66523728D01*
X155057900Y-66426657D01*
X155041252Y-66365532D01*
X155052162Y-66325255D01*
X155067256Y-66307252D01*
X155132630Y-66271393D01*
X155169466Y-66276216D01*
G37*
G36*
X156810106Y-66998419D02*
G01*
X156836919Y-67011498D01*
X156896724Y-67066939D01*
X156910800Y-67127457D01*
X156876122Y-67165461D01*
X156854099Y-67168361D01*
X156801417Y-67149247D01*
X156794754Y-67133030D01*
X156762732Y-67087063D01*
X156691860Y-67069060D01*
X156619926Y-67087297D01*
X156612137Y-67093034D01*
X156574612Y-67148538D01*
X156613092Y-67191669D01*
X156710034Y-67220654D01*
X156819929Y-67262147D01*
X156909460Y-67328512D01*
X156952250Y-67399349D01*
X156953009Y-67408571D01*
X156920087Y-67477860D01*
X156841123Y-67547520D01*
X156745817Y-67595028D01*
X156695844Y-67603564D01*
X156593505Y-67576047D01*
X156517807Y-67524436D01*
X156459719Y-67453580D01*
X156438679Y-67405745D01*
X156464462Y-67369118D01*
X156518713Y-67374418D01*
X156566785Y-67415844D01*
X156572695Y-67428176D01*
X156630033Y-67474828D01*
X156702459Y-67477631D01*
X156796439Y-67451444D01*
X156816734Y-67409355D01*
X156765072Y-67359422D01*
X156668149Y-67317583D01*
X156548288Y-67264358D01*
X156492474Y-67200989D01*
X156485097Y-67172976D01*
X156500567Y-67064623D01*
X156571705Y-66993990D01*
X156680791Y-66969211D01*
X156810106Y-66998419D01*
G37*
G36*
X160157358Y-67108271D02*
G01*
X160338202Y-67225464D01*
X160530987Y-67415370D01*
X160736944Y-67679178D01*
X160957300Y-68018078D01*
X161166561Y-68383885D01*
X161256018Y-68546173D01*
X161320233Y-68651630D01*
X161371422Y-68713125D01*
X161421801Y-68743527D01*
X161483586Y-68755704D01*
X161522635Y-68758984D01*
X161627356Y-68774510D01*
X161673171Y-68807881D01*
X161680891Y-68849826D01*
X161678804Y-68869749D01*
X161667695Y-68886138D01*
X161640289Y-68899454D01*
X161589313Y-68910159D01*
X161507492Y-68918716D01*
X161387551Y-68925584D01*
X161222218Y-68931228D01*
X161004217Y-68936107D01*
X160726275Y-68940685D01*
X160381117Y-68945423D01*
X160122922Y-68948735D01*
X158564952Y-68968517D01*
X158283202Y-69466862D01*
X158165249Y-69669451D01*
X158043125Y-69868937D01*
X157930040Y-70044359D01*
X157839202Y-70174758D01*
X157826872Y-70191005D01*
X157641974Y-70392577D01*
X157451702Y-70530047D01*
X157263698Y-70599660D01*
X157085604Y-70597663D01*
X157032137Y-70581357D01*
X156867635Y-70483100D01*
X156685656Y-70308349D01*
X156486663Y-70057679D01*
X156271122Y-69731660D01*
X156082888Y-69409460D01*
X155838731Y-68971558D01*
X155963913Y-68971558D01*
X155983933Y-69026232D01*
X156038253Y-69132915D01*
X156118256Y-69277135D01*
X156215328Y-69444421D01*
X156320856Y-69620301D01*
X156426224Y-69790303D01*
X156522817Y-69939955D01*
X156602022Y-70054787D01*
X156632517Y-70094753D01*
X156759709Y-70244991D01*
X156861668Y-70351872D01*
X156929537Y-70406368D01*
X156943118Y-70411340D01*
X156946237Y-70374239D01*
X156948951Y-70270298D01*
X156951096Y-70111803D01*
X156952504Y-69911040D01*
X156953009Y-69680667D01*
X156953009Y-68948735D01*
X156458461Y-68948735D01*
X156271112Y-68950446D01*
X156116328Y-68955116D01*
X156009087Y-68962056D01*
X155964371Y-68970572D01*
X155963913Y-68971558D01*
X155838731Y-68971558D01*
X155826006Y-68948735D01*
X155636552Y-68948735D01*
X155503386Y-68938702D01*
X155435042Y-68906307D01*
X155423671Y-68887683D01*
X155417688Y-68819514D01*
X155428170Y-68798664D01*
X155472615Y-68792034D01*
X155587559Y-68784974D01*
X155764378Y-68777742D01*
X155994446Y-68770597D01*
X156269137Y-68763797D01*
X156579828Y-68757602D01*
X156917893Y-68752270D01*
X157020325Y-68750916D01*
X158691787Y-68750916D01*
X159128006Y-68750916D01*
X159564224Y-68750916D01*
X159562616Y-68068439D01*
X159561008Y-67385963D01*
X159440916Y-67524436D01*
X159374888Y-67611826D01*
X159280480Y-67751266D01*
X159168182Y-67925884D01*
X159048484Y-68118809D01*
X158931875Y-68313169D01*
X158828845Y-68492091D01*
X158758058Y-68622762D01*
X158691787Y-68750916D01*
X157020325Y-68750916D01*
X158584553Y-68731134D01*
X158808930Y-68335495D01*
X159045411Y-67939070D01*
X159262705Y-67617942D01*
X159461804Y-67370895D01*
X159643698Y-67196715D01*
X159809378Y-67094187D01*
X159826575Y-67087262D01*
X159987225Y-67062600D01*
X160157358Y-67108271D01*
G37*
G36*
X158496000Y-63630264D02*
G01*
X158754751Y-63632184D01*
X158952010Y-63636910D01*
X159105406Y-63646299D01*
X159232568Y-63662202D01*
X159351126Y-63686476D01*
X159478710Y-63720973D01*
X159544442Y-63740531D01*
X160083967Y-63938814D01*
X160569369Y-64192335D01*
X161006317Y-64504502D01*
X161353003Y-64828068D01*
X161610109Y-65118468D01*
X161819136Y-65405563D01*
X162001971Y-65721384D01*
X162101239Y-65923077D01*
X162215044Y-66179223D01*
X162299771Y-66407555D01*
X162359393Y-66628037D01*
X162397883Y-66860634D01*
X162419214Y-67125310D01*
X162427361Y-67442028D01*
X162427833Y-67564000D01*
X162423039Y-67906601D01*
X162405763Y-68190766D01*
X162371671Y-68436766D01*
X162316426Y-68664872D01*
X162235693Y-68895357D01*
X162125133Y-69148491D01*
X162059691Y-69285028D01*
X161776350Y-69779190D01*
X161437800Y-70216888D01*
X161045397Y-70596991D01*
X160600496Y-70918367D01*
X160104454Y-71179883D01*
X159558626Y-71380409D01*
X159544442Y-71384605D01*
X159382388Y-71428711D01*
X159231836Y-71459829D01*
X159070790Y-71480716D01*
X158877254Y-71494131D01*
X158629231Y-71502833D01*
X158594909Y-71503688D01*
X158248198Y-71506057D01*
X157974078Y-71494405D01*
X157767220Y-71468485D01*
X157744286Y-71463907D01*
X157210245Y-71313024D01*
X156703253Y-71093435D01*
X156231648Y-70810791D01*
X155803771Y-70470746D01*
X155427961Y-70078953D01*
X155155434Y-69709067D01*
X154927810Y-69301926D01*
X154742736Y-68858860D01*
X154610872Y-68407894D01*
X154562433Y-68150057D01*
X154550221Y-68033748D01*
X154561702Y-67968671D01*
X154603463Y-67928801D01*
X154620938Y-67918899D01*
X154681406Y-67895944D01*
X154729349Y-67907003D01*
X154770484Y-67961760D01*
X154810530Y-68069899D01*
X154855206Y-68241104D01*
X154883259Y-68363142D01*
X155037420Y-68875614D01*
X155259245Y-69352366D01*
X155543389Y-69788193D01*
X155884506Y-70177888D01*
X156277253Y-70516244D01*
X156716285Y-70798056D01*
X157196256Y-71018116D01*
X157711823Y-71171218D01*
X157780926Y-71185880D01*
X158053495Y-71223401D01*
X158371745Y-71238976D01*
X158709017Y-71233523D01*
X159038653Y-71207963D01*
X159333993Y-71163213D01*
X159485096Y-71127122D01*
X159985966Y-70943964D01*
X160450368Y-70693796D01*
X160872573Y-70382521D01*
X161246852Y-70016044D01*
X161567474Y-69600268D01*
X161828710Y-69141097D01*
X162024831Y-68644433D01*
X162079271Y-68454187D01*
X162119580Y-68290689D01*
X162146875Y-68153637D01*
X162162973Y-68021558D01*
X162169694Y-67872980D01*
X162168856Y-67686428D01*
X162163042Y-67465090D01*
X162145726Y-67123672D01*
X162113225Y-66836944D01*
X162059927Y-66581050D01*
X161980220Y-66332133D01*
X161868492Y-66066337D01*
X161800059Y-65922100D01*
X161540854Y-65479172D01*
X161217729Y-65075667D01*
X160838814Y-64718296D01*
X160412240Y-64413770D01*
X159946137Y-64168800D01*
X159465314Y-63994823D01*
X159336751Y-63960745D01*
X159215468Y-63936361D01*
X159084207Y-63920138D01*
X158925708Y-63910539D01*
X158722714Y-63906028D01*
X158457963Y-63905071D01*
X158456436Y-63905073D01*
X158204893Y-63905831D01*
X158015367Y-63908895D01*
X157870745Y-63916360D01*
X157753918Y-63930322D01*
X157647772Y-63952876D01*
X157535198Y-63986120D01*
X157399084Y-64032147D01*
X157388212Y-64035909D01*
X156936594Y-64218386D01*
X156525289Y-64436889D01*
X156198661Y-64661337D01*
X156048769Y-64767568D01*
X155941130Y-64814328D01*
X155867629Y-64803173D01*
X155820153Y-64735662D01*
X155819536Y-64734068D01*
X155830312Y-64656888D01*
X155905463Y-64557628D01*
X156035341Y-64442161D01*
X156210296Y-64316362D01*
X156420678Y-64186105D01*
X156656839Y-64057264D01*
X156909128Y-63935713D01*
X157167896Y-63827327D01*
X157423494Y-63737979D01*
X157487121Y-63718914D01*
X157614329Y-63684726D01*
X157733021Y-63660308D01*
X157860377Y-63644152D01*
X158013572Y-63634748D01*
X158209784Y-63630587D01*
X158466190Y-63630159D01*
X158496000Y-63630264D01*
G37*
%TD*%
M02*
