%TF.GenerationSoftware,KiCad,Pcbnew,8.0.0*%
%TF.CreationDate,2024-03-24T13:49:44-07:00*%
%TF.ProjectId,Bottom_Board,426f7474-6f6d-45f4-926f-6172642e6b69,0*%
%TF.SameCoordinates,Original*%
%TF.FileFunction,Legend,Bot*%
%TF.FilePolarity,Positive*%
%FSLAX46Y46*%
G04 Gerber Fmt 4.6, Leading zero omitted, Abs format (unit mm)*
G04 Created by KiCad (PCBNEW 8.0.0) date 2024-03-24 13:49:44*
%MOMM*%
%LPD*%
G01*
G04 APERTURE LIST*
%ADD10C,0.150000*%
%ADD11C,0.120000*%
%ADD12C,0.200000*%
%ADD13C,0.000000*%
G04 APERTURE END LIST*
D10*
X129994819Y-97909142D02*
X129518628Y-97575809D01*
X129994819Y-97337714D02*
X128994819Y-97337714D01*
X128994819Y-97337714D02*
X128994819Y-97718666D01*
X128994819Y-97718666D02*
X129042438Y-97813904D01*
X129042438Y-97813904D02*
X129090057Y-97861523D01*
X129090057Y-97861523D02*
X129185295Y-97909142D01*
X129185295Y-97909142D02*
X129328152Y-97909142D01*
X129328152Y-97909142D02*
X129423390Y-97861523D01*
X129423390Y-97861523D02*
X129471009Y-97813904D01*
X129471009Y-97813904D02*
X129518628Y-97718666D01*
X129518628Y-97718666D02*
X129518628Y-97337714D01*
X129994819Y-98861523D02*
X129994819Y-98290095D01*
X129994819Y-98575809D02*
X128994819Y-98575809D01*
X128994819Y-98575809D02*
X129137676Y-98480571D01*
X129137676Y-98480571D02*
X129232914Y-98385333D01*
X129232914Y-98385333D02*
X129280533Y-98290095D01*
X128994819Y-99194857D02*
X128994819Y-99813904D01*
X128994819Y-99813904D02*
X129375771Y-99480571D01*
X129375771Y-99480571D02*
X129375771Y-99623428D01*
X129375771Y-99623428D02*
X129423390Y-99718666D01*
X129423390Y-99718666D02*
X129471009Y-99766285D01*
X129471009Y-99766285D02*
X129566247Y-99813904D01*
X129566247Y-99813904D02*
X129804342Y-99813904D01*
X129804342Y-99813904D02*
X129899580Y-99766285D01*
X129899580Y-99766285D02*
X129947200Y-99718666D01*
X129947200Y-99718666D02*
X129994819Y-99623428D01*
X129994819Y-99623428D02*
X129994819Y-99337714D01*
X129994819Y-99337714D02*
X129947200Y-99242476D01*
X129947200Y-99242476D02*
X129899580Y-99194857D01*
X115262819Y-95623142D02*
X114786628Y-95289809D01*
X115262819Y-95051714D02*
X114262819Y-95051714D01*
X114262819Y-95051714D02*
X114262819Y-95432666D01*
X114262819Y-95432666D02*
X114310438Y-95527904D01*
X114310438Y-95527904D02*
X114358057Y-95575523D01*
X114358057Y-95575523D02*
X114453295Y-95623142D01*
X114453295Y-95623142D02*
X114596152Y-95623142D01*
X114596152Y-95623142D02*
X114691390Y-95575523D01*
X114691390Y-95575523D02*
X114739009Y-95527904D01*
X114739009Y-95527904D02*
X114786628Y-95432666D01*
X114786628Y-95432666D02*
X114786628Y-95051714D01*
X115262819Y-96575523D02*
X115262819Y-96004095D01*
X115262819Y-96289809D02*
X114262819Y-96289809D01*
X114262819Y-96289809D02*
X114405676Y-96194571D01*
X114405676Y-96194571D02*
X114500914Y-96099333D01*
X114500914Y-96099333D02*
X114548533Y-96004095D01*
X114262819Y-97480285D02*
X114262819Y-97004095D01*
X114262819Y-97004095D02*
X114739009Y-96956476D01*
X114739009Y-96956476D02*
X114691390Y-97004095D01*
X114691390Y-97004095D02*
X114643771Y-97099333D01*
X114643771Y-97099333D02*
X114643771Y-97337428D01*
X114643771Y-97337428D02*
X114691390Y-97432666D01*
X114691390Y-97432666D02*
X114739009Y-97480285D01*
X114739009Y-97480285D02*
X114834247Y-97527904D01*
X114834247Y-97527904D02*
X115072342Y-97527904D01*
X115072342Y-97527904D02*
X115167580Y-97480285D01*
X115167580Y-97480285D02*
X115215200Y-97432666D01*
X115215200Y-97432666D02*
X115262819Y-97337428D01*
X115262819Y-97337428D02*
X115262819Y-97099333D01*
X115262819Y-97099333D02*
X115215200Y-97004095D01*
X115215200Y-97004095D02*
X115167580Y-96956476D01*
X127420666Y-121009580D02*
X127468285Y-121057200D01*
X127468285Y-121057200D02*
X127611142Y-121104819D01*
X127611142Y-121104819D02*
X127706380Y-121104819D01*
X127706380Y-121104819D02*
X127849237Y-121057200D01*
X127849237Y-121057200D02*
X127944475Y-120961961D01*
X127944475Y-120961961D02*
X127992094Y-120866723D01*
X127992094Y-120866723D02*
X128039713Y-120676247D01*
X128039713Y-120676247D02*
X128039713Y-120533390D01*
X128039713Y-120533390D02*
X127992094Y-120342914D01*
X127992094Y-120342914D02*
X127944475Y-120247676D01*
X127944475Y-120247676D02*
X127849237Y-120152438D01*
X127849237Y-120152438D02*
X127706380Y-120104819D01*
X127706380Y-120104819D02*
X127611142Y-120104819D01*
X127611142Y-120104819D02*
X127468285Y-120152438D01*
X127468285Y-120152438D02*
X127420666Y-120200057D01*
X126849237Y-120533390D02*
X126944475Y-120485771D01*
X126944475Y-120485771D02*
X126992094Y-120438152D01*
X126992094Y-120438152D02*
X127039713Y-120342914D01*
X127039713Y-120342914D02*
X127039713Y-120295295D01*
X127039713Y-120295295D02*
X126992094Y-120200057D01*
X126992094Y-120200057D02*
X126944475Y-120152438D01*
X126944475Y-120152438D02*
X126849237Y-120104819D01*
X126849237Y-120104819D02*
X126658761Y-120104819D01*
X126658761Y-120104819D02*
X126563523Y-120152438D01*
X126563523Y-120152438D02*
X126515904Y-120200057D01*
X126515904Y-120200057D02*
X126468285Y-120295295D01*
X126468285Y-120295295D02*
X126468285Y-120342914D01*
X126468285Y-120342914D02*
X126515904Y-120438152D01*
X126515904Y-120438152D02*
X126563523Y-120485771D01*
X126563523Y-120485771D02*
X126658761Y-120533390D01*
X126658761Y-120533390D02*
X126849237Y-120533390D01*
X126849237Y-120533390D02*
X126944475Y-120581009D01*
X126944475Y-120581009D02*
X126992094Y-120628628D01*
X126992094Y-120628628D02*
X127039713Y-120723866D01*
X127039713Y-120723866D02*
X127039713Y-120914342D01*
X127039713Y-120914342D02*
X126992094Y-121009580D01*
X126992094Y-121009580D02*
X126944475Y-121057200D01*
X126944475Y-121057200D02*
X126849237Y-121104819D01*
X126849237Y-121104819D02*
X126658761Y-121104819D01*
X126658761Y-121104819D02*
X126563523Y-121057200D01*
X126563523Y-121057200D02*
X126515904Y-121009580D01*
X126515904Y-121009580D02*
X126468285Y-120914342D01*
X126468285Y-120914342D02*
X126468285Y-120723866D01*
X126468285Y-120723866D02*
X126515904Y-120628628D01*
X126515904Y-120628628D02*
X126563523Y-120581009D01*
X126563523Y-120581009D02*
X126658761Y-120533390D01*
X135262857Y-102562819D02*
X135596190Y-102086628D01*
X135834285Y-102562819D02*
X135834285Y-101562819D01*
X135834285Y-101562819D02*
X135453333Y-101562819D01*
X135453333Y-101562819D02*
X135358095Y-101610438D01*
X135358095Y-101610438D02*
X135310476Y-101658057D01*
X135310476Y-101658057D02*
X135262857Y-101753295D01*
X135262857Y-101753295D02*
X135262857Y-101896152D01*
X135262857Y-101896152D02*
X135310476Y-101991390D01*
X135310476Y-101991390D02*
X135358095Y-102039009D01*
X135358095Y-102039009D02*
X135453333Y-102086628D01*
X135453333Y-102086628D02*
X135834285Y-102086628D01*
X134310476Y-102562819D02*
X134881904Y-102562819D01*
X134596190Y-102562819D02*
X134596190Y-101562819D01*
X134596190Y-101562819D02*
X134691428Y-101705676D01*
X134691428Y-101705676D02*
X134786666Y-101800914D01*
X134786666Y-101800914D02*
X134881904Y-101848533D01*
X133453333Y-101562819D02*
X133643809Y-101562819D01*
X133643809Y-101562819D02*
X133739047Y-101610438D01*
X133739047Y-101610438D02*
X133786666Y-101658057D01*
X133786666Y-101658057D02*
X133881904Y-101800914D01*
X133881904Y-101800914D02*
X133929523Y-101991390D01*
X133929523Y-101991390D02*
X133929523Y-102372342D01*
X133929523Y-102372342D02*
X133881904Y-102467580D01*
X133881904Y-102467580D02*
X133834285Y-102515200D01*
X133834285Y-102515200D02*
X133739047Y-102562819D01*
X133739047Y-102562819D02*
X133548571Y-102562819D01*
X133548571Y-102562819D02*
X133453333Y-102515200D01*
X133453333Y-102515200D02*
X133405714Y-102467580D01*
X133405714Y-102467580D02*
X133358095Y-102372342D01*
X133358095Y-102372342D02*
X133358095Y-102134247D01*
X133358095Y-102134247D02*
X133405714Y-102039009D01*
X133405714Y-102039009D02*
X133453333Y-101991390D01*
X133453333Y-101991390D02*
X133548571Y-101943771D01*
X133548571Y-101943771D02*
X133739047Y-101943771D01*
X133739047Y-101943771D02*
X133834285Y-101991390D01*
X133834285Y-101991390D02*
X133881904Y-102039009D01*
X133881904Y-102039009D02*
X133929523Y-102134247D01*
X121737857Y-124660819D02*
X122071190Y-124184628D01*
X122309285Y-124660819D02*
X122309285Y-123660819D01*
X122309285Y-123660819D02*
X121928333Y-123660819D01*
X121928333Y-123660819D02*
X121833095Y-123708438D01*
X121833095Y-123708438D02*
X121785476Y-123756057D01*
X121785476Y-123756057D02*
X121737857Y-123851295D01*
X121737857Y-123851295D02*
X121737857Y-123994152D01*
X121737857Y-123994152D02*
X121785476Y-124089390D01*
X121785476Y-124089390D02*
X121833095Y-124137009D01*
X121833095Y-124137009D02*
X121928333Y-124184628D01*
X121928333Y-124184628D02*
X122309285Y-124184628D01*
X121356904Y-123756057D02*
X121309285Y-123708438D01*
X121309285Y-123708438D02*
X121214047Y-123660819D01*
X121214047Y-123660819D02*
X120975952Y-123660819D01*
X120975952Y-123660819D02*
X120880714Y-123708438D01*
X120880714Y-123708438D02*
X120833095Y-123756057D01*
X120833095Y-123756057D02*
X120785476Y-123851295D01*
X120785476Y-123851295D02*
X120785476Y-123946533D01*
X120785476Y-123946533D02*
X120833095Y-124089390D01*
X120833095Y-124089390D02*
X121404523Y-124660819D01*
X121404523Y-124660819D02*
X120785476Y-124660819D01*
X120214047Y-124089390D02*
X120309285Y-124041771D01*
X120309285Y-124041771D02*
X120356904Y-123994152D01*
X120356904Y-123994152D02*
X120404523Y-123898914D01*
X120404523Y-123898914D02*
X120404523Y-123851295D01*
X120404523Y-123851295D02*
X120356904Y-123756057D01*
X120356904Y-123756057D02*
X120309285Y-123708438D01*
X120309285Y-123708438D02*
X120214047Y-123660819D01*
X120214047Y-123660819D02*
X120023571Y-123660819D01*
X120023571Y-123660819D02*
X119928333Y-123708438D01*
X119928333Y-123708438D02*
X119880714Y-123756057D01*
X119880714Y-123756057D02*
X119833095Y-123851295D01*
X119833095Y-123851295D02*
X119833095Y-123898914D01*
X119833095Y-123898914D02*
X119880714Y-123994152D01*
X119880714Y-123994152D02*
X119928333Y-124041771D01*
X119928333Y-124041771D02*
X120023571Y-124089390D01*
X120023571Y-124089390D02*
X120214047Y-124089390D01*
X120214047Y-124089390D02*
X120309285Y-124137009D01*
X120309285Y-124137009D02*
X120356904Y-124184628D01*
X120356904Y-124184628D02*
X120404523Y-124279866D01*
X120404523Y-124279866D02*
X120404523Y-124470342D01*
X120404523Y-124470342D02*
X120356904Y-124565580D01*
X120356904Y-124565580D02*
X120309285Y-124613200D01*
X120309285Y-124613200D02*
X120214047Y-124660819D01*
X120214047Y-124660819D02*
X120023571Y-124660819D01*
X120023571Y-124660819D02*
X119928333Y-124613200D01*
X119928333Y-124613200D02*
X119880714Y-124565580D01*
X119880714Y-124565580D02*
X119833095Y-124470342D01*
X119833095Y-124470342D02*
X119833095Y-124279866D01*
X119833095Y-124279866D02*
X119880714Y-124184628D01*
X119880714Y-124184628D02*
X119928333Y-124137009D01*
X119928333Y-124137009D02*
X120023571Y-124089390D01*
X135802666Y-85957580D02*
X135850285Y-86005200D01*
X135850285Y-86005200D02*
X135993142Y-86052819D01*
X135993142Y-86052819D02*
X136088380Y-86052819D01*
X136088380Y-86052819D02*
X136231237Y-86005200D01*
X136231237Y-86005200D02*
X136326475Y-85909961D01*
X136326475Y-85909961D02*
X136374094Y-85814723D01*
X136374094Y-85814723D02*
X136421713Y-85624247D01*
X136421713Y-85624247D02*
X136421713Y-85481390D01*
X136421713Y-85481390D02*
X136374094Y-85290914D01*
X136374094Y-85290914D02*
X136326475Y-85195676D01*
X136326475Y-85195676D02*
X136231237Y-85100438D01*
X136231237Y-85100438D02*
X136088380Y-85052819D01*
X136088380Y-85052819D02*
X135993142Y-85052819D01*
X135993142Y-85052819D02*
X135850285Y-85100438D01*
X135850285Y-85100438D02*
X135802666Y-85148057D01*
X135469332Y-85052819D02*
X134850285Y-85052819D01*
X134850285Y-85052819D02*
X135183618Y-85433771D01*
X135183618Y-85433771D02*
X135040761Y-85433771D01*
X135040761Y-85433771D02*
X134945523Y-85481390D01*
X134945523Y-85481390D02*
X134897904Y-85529009D01*
X134897904Y-85529009D02*
X134850285Y-85624247D01*
X134850285Y-85624247D02*
X134850285Y-85862342D01*
X134850285Y-85862342D02*
X134897904Y-85957580D01*
X134897904Y-85957580D02*
X134945523Y-86005200D01*
X134945523Y-86005200D02*
X135040761Y-86052819D01*
X135040761Y-86052819D02*
X135326475Y-86052819D01*
X135326475Y-86052819D02*
X135421713Y-86005200D01*
X135421713Y-86005200D02*
X135469332Y-85957580D01*
X121919904Y-86122819D02*
X121919904Y-86932342D01*
X121919904Y-86932342D02*
X121872285Y-87027580D01*
X121872285Y-87027580D02*
X121824666Y-87075200D01*
X121824666Y-87075200D02*
X121729428Y-87122819D01*
X121729428Y-87122819D02*
X121538952Y-87122819D01*
X121538952Y-87122819D02*
X121443714Y-87075200D01*
X121443714Y-87075200D02*
X121396095Y-87027580D01*
X121396095Y-87027580D02*
X121348476Y-86932342D01*
X121348476Y-86932342D02*
X121348476Y-86122819D01*
X120348476Y-87122819D02*
X120919904Y-87122819D01*
X120634190Y-87122819D02*
X120634190Y-86122819D01*
X120634190Y-86122819D02*
X120729428Y-86265676D01*
X120729428Y-86265676D02*
X120824666Y-86360914D01*
X120824666Y-86360914D02*
X120919904Y-86408533D01*
X120903904Y-105426819D02*
X120903904Y-106236342D01*
X120903904Y-106236342D02*
X120856285Y-106331580D01*
X120856285Y-106331580D02*
X120808666Y-106379200D01*
X120808666Y-106379200D02*
X120713428Y-106426819D01*
X120713428Y-106426819D02*
X120522952Y-106426819D01*
X120522952Y-106426819D02*
X120427714Y-106379200D01*
X120427714Y-106379200D02*
X120380095Y-106331580D01*
X120380095Y-106331580D02*
X120332476Y-106236342D01*
X120332476Y-106236342D02*
X120332476Y-105426819D01*
X119903904Y-105522057D02*
X119856285Y-105474438D01*
X119856285Y-105474438D02*
X119761047Y-105426819D01*
X119761047Y-105426819D02*
X119522952Y-105426819D01*
X119522952Y-105426819D02*
X119427714Y-105474438D01*
X119427714Y-105474438D02*
X119380095Y-105522057D01*
X119380095Y-105522057D02*
X119332476Y-105617295D01*
X119332476Y-105617295D02*
X119332476Y-105712533D01*
X119332476Y-105712533D02*
X119380095Y-105855390D01*
X119380095Y-105855390D02*
X119951523Y-106426819D01*
X119951523Y-106426819D02*
X119332476Y-106426819D01*
X112910857Y-93164819D02*
X113244190Y-92688628D01*
X113482285Y-93164819D02*
X113482285Y-92164819D01*
X113482285Y-92164819D02*
X113101333Y-92164819D01*
X113101333Y-92164819D02*
X113006095Y-92212438D01*
X113006095Y-92212438D02*
X112958476Y-92260057D01*
X112958476Y-92260057D02*
X112910857Y-92355295D01*
X112910857Y-92355295D02*
X112910857Y-92498152D01*
X112910857Y-92498152D02*
X112958476Y-92593390D01*
X112958476Y-92593390D02*
X113006095Y-92641009D01*
X113006095Y-92641009D02*
X113101333Y-92688628D01*
X113101333Y-92688628D02*
X113482285Y-92688628D01*
X111958476Y-93164819D02*
X112529904Y-93164819D01*
X112244190Y-93164819D02*
X112244190Y-92164819D01*
X112244190Y-92164819D02*
X112339428Y-92307676D01*
X112339428Y-92307676D02*
X112434666Y-92402914D01*
X112434666Y-92402914D02*
X112529904Y-92450533D01*
X111339428Y-92164819D02*
X111244190Y-92164819D01*
X111244190Y-92164819D02*
X111148952Y-92212438D01*
X111148952Y-92212438D02*
X111101333Y-92260057D01*
X111101333Y-92260057D02*
X111053714Y-92355295D01*
X111053714Y-92355295D02*
X111006095Y-92545771D01*
X111006095Y-92545771D02*
X111006095Y-92783866D01*
X111006095Y-92783866D02*
X111053714Y-92974342D01*
X111053714Y-92974342D02*
X111101333Y-93069580D01*
X111101333Y-93069580D02*
X111148952Y-93117200D01*
X111148952Y-93117200D02*
X111244190Y-93164819D01*
X111244190Y-93164819D02*
X111339428Y-93164819D01*
X111339428Y-93164819D02*
X111434666Y-93117200D01*
X111434666Y-93117200D02*
X111482285Y-93069580D01*
X111482285Y-93069580D02*
X111529904Y-92974342D01*
X111529904Y-92974342D02*
X111577523Y-92783866D01*
X111577523Y-92783866D02*
X111577523Y-92545771D01*
X111577523Y-92545771D02*
X111529904Y-92355295D01*
X111529904Y-92355295D02*
X111482285Y-92260057D01*
X111482285Y-92260057D02*
X111434666Y-92212438D01*
X111434666Y-92212438D02*
X111339428Y-92164819D01*
X108605857Y-129137580D02*
X108653476Y-129185200D01*
X108653476Y-129185200D02*
X108796333Y-129232819D01*
X108796333Y-129232819D02*
X108891571Y-129232819D01*
X108891571Y-129232819D02*
X109034428Y-129185200D01*
X109034428Y-129185200D02*
X109129666Y-129089961D01*
X109129666Y-129089961D02*
X109177285Y-128994723D01*
X109177285Y-128994723D02*
X109224904Y-128804247D01*
X109224904Y-128804247D02*
X109224904Y-128661390D01*
X109224904Y-128661390D02*
X109177285Y-128470914D01*
X109177285Y-128470914D02*
X109129666Y-128375676D01*
X109129666Y-128375676D02*
X109034428Y-128280438D01*
X109034428Y-128280438D02*
X108891571Y-128232819D01*
X108891571Y-128232819D02*
X108796333Y-128232819D01*
X108796333Y-128232819D02*
X108653476Y-128280438D01*
X108653476Y-128280438D02*
X108605857Y-128328057D01*
X107653476Y-129232819D02*
X108224904Y-129232819D01*
X107939190Y-129232819D02*
X107939190Y-128232819D01*
X107939190Y-128232819D02*
X108034428Y-128375676D01*
X108034428Y-128375676D02*
X108129666Y-128470914D01*
X108129666Y-128470914D02*
X108224904Y-128518533D01*
X107034428Y-128232819D02*
X106939190Y-128232819D01*
X106939190Y-128232819D02*
X106843952Y-128280438D01*
X106843952Y-128280438D02*
X106796333Y-128328057D01*
X106796333Y-128328057D02*
X106748714Y-128423295D01*
X106748714Y-128423295D02*
X106701095Y-128613771D01*
X106701095Y-128613771D02*
X106701095Y-128851866D01*
X106701095Y-128851866D02*
X106748714Y-129042342D01*
X106748714Y-129042342D02*
X106796333Y-129137580D01*
X106796333Y-129137580D02*
X106843952Y-129185200D01*
X106843952Y-129185200D02*
X106939190Y-129232819D01*
X106939190Y-129232819D02*
X107034428Y-129232819D01*
X107034428Y-129232819D02*
X107129666Y-129185200D01*
X107129666Y-129185200D02*
X107177285Y-129137580D01*
X107177285Y-129137580D02*
X107224904Y-129042342D01*
X107224904Y-129042342D02*
X107272523Y-128851866D01*
X107272523Y-128851866D02*
X107272523Y-128613771D01*
X107272523Y-128613771D02*
X107224904Y-128423295D01*
X107224904Y-128423295D02*
X107177285Y-128328057D01*
X107177285Y-128328057D02*
X107129666Y-128280438D01*
X107129666Y-128280438D02*
X107034428Y-128232819D01*
X134566819Y-110355142D02*
X134090628Y-110021809D01*
X134566819Y-109783714D02*
X133566819Y-109783714D01*
X133566819Y-109783714D02*
X133566819Y-110164666D01*
X133566819Y-110164666D02*
X133614438Y-110259904D01*
X133614438Y-110259904D02*
X133662057Y-110307523D01*
X133662057Y-110307523D02*
X133757295Y-110355142D01*
X133757295Y-110355142D02*
X133900152Y-110355142D01*
X133900152Y-110355142D02*
X133995390Y-110307523D01*
X133995390Y-110307523D02*
X134043009Y-110259904D01*
X134043009Y-110259904D02*
X134090628Y-110164666D01*
X134090628Y-110164666D02*
X134090628Y-109783714D01*
X134566819Y-111307523D02*
X134566819Y-110736095D01*
X134566819Y-111021809D02*
X133566819Y-111021809D01*
X133566819Y-111021809D02*
X133709676Y-110926571D01*
X133709676Y-110926571D02*
X133804914Y-110831333D01*
X133804914Y-110831333D02*
X133852533Y-110736095D01*
X134566819Y-111783714D02*
X134566819Y-111974190D01*
X134566819Y-111974190D02*
X134519200Y-112069428D01*
X134519200Y-112069428D02*
X134471580Y-112117047D01*
X134471580Y-112117047D02*
X134328723Y-112212285D01*
X134328723Y-112212285D02*
X134138247Y-112259904D01*
X134138247Y-112259904D02*
X133757295Y-112259904D01*
X133757295Y-112259904D02*
X133662057Y-112212285D01*
X133662057Y-112212285D02*
X133614438Y-112164666D01*
X133614438Y-112164666D02*
X133566819Y-112069428D01*
X133566819Y-112069428D02*
X133566819Y-111878952D01*
X133566819Y-111878952D02*
X133614438Y-111783714D01*
X133614438Y-111783714D02*
X133662057Y-111736095D01*
X133662057Y-111736095D02*
X133757295Y-111688476D01*
X133757295Y-111688476D02*
X133995390Y-111688476D01*
X133995390Y-111688476D02*
X134090628Y-111736095D01*
X134090628Y-111736095D02*
X134138247Y-111783714D01*
X134138247Y-111783714D02*
X134185866Y-111878952D01*
X134185866Y-111878952D02*
X134185866Y-112069428D01*
X134185866Y-112069428D02*
X134138247Y-112164666D01*
X134138247Y-112164666D02*
X134090628Y-112212285D01*
X134090628Y-112212285D02*
X133995390Y-112259904D01*
X128216819Y-97909142D02*
X127740628Y-97575809D01*
X128216819Y-97337714D02*
X127216819Y-97337714D01*
X127216819Y-97337714D02*
X127216819Y-97718666D01*
X127216819Y-97718666D02*
X127264438Y-97813904D01*
X127264438Y-97813904D02*
X127312057Y-97861523D01*
X127312057Y-97861523D02*
X127407295Y-97909142D01*
X127407295Y-97909142D02*
X127550152Y-97909142D01*
X127550152Y-97909142D02*
X127645390Y-97861523D01*
X127645390Y-97861523D02*
X127693009Y-97813904D01*
X127693009Y-97813904D02*
X127740628Y-97718666D01*
X127740628Y-97718666D02*
X127740628Y-97337714D01*
X128216819Y-98861523D02*
X128216819Y-98290095D01*
X128216819Y-98575809D02*
X127216819Y-98575809D01*
X127216819Y-98575809D02*
X127359676Y-98480571D01*
X127359676Y-98480571D02*
X127454914Y-98385333D01*
X127454914Y-98385333D02*
X127502533Y-98290095D01*
X127550152Y-99718666D02*
X128216819Y-99718666D01*
X127169200Y-99480571D02*
X127883485Y-99242476D01*
X127883485Y-99242476D02*
X127883485Y-99861523D01*
X154706857Y-132330380D02*
X154754476Y-132378000D01*
X154754476Y-132378000D02*
X154897333Y-132425619D01*
X154897333Y-132425619D02*
X154992571Y-132425619D01*
X154992571Y-132425619D02*
X155135428Y-132378000D01*
X155135428Y-132378000D02*
X155230666Y-132282761D01*
X155230666Y-132282761D02*
X155278285Y-132187523D01*
X155278285Y-132187523D02*
X155325904Y-131997047D01*
X155325904Y-131997047D02*
X155325904Y-131854190D01*
X155325904Y-131854190D02*
X155278285Y-131663714D01*
X155278285Y-131663714D02*
X155230666Y-131568476D01*
X155230666Y-131568476D02*
X155135428Y-131473238D01*
X155135428Y-131473238D02*
X154992571Y-131425619D01*
X154992571Y-131425619D02*
X154897333Y-131425619D01*
X154897333Y-131425619D02*
X154754476Y-131473238D01*
X154754476Y-131473238D02*
X154706857Y-131520857D01*
X153754476Y-132425619D02*
X154325904Y-132425619D01*
X154040190Y-132425619D02*
X154040190Y-131425619D01*
X154040190Y-131425619D02*
X154135428Y-131568476D01*
X154135428Y-131568476D02*
X154230666Y-131663714D01*
X154230666Y-131663714D02*
X154325904Y-131711333D01*
X152802095Y-132425619D02*
X153373523Y-132425619D01*
X153087809Y-132425619D02*
X153087809Y-131425619D01*
X153087809Y-131425619D02*
X153183047Y-131568476D01*
X153183047Y-131568476D02*
X153278285Y-131663714D01*
X153278285Y-131663714D02*
X153373523Y-131711333D01*
X115315904Y-126708819D02*
X115315904Y-127518342D01*
X115315904Y-127518342D02*
X115268285Y-127613580D01*
X115268285Y-127613580D02*
X115220666Y-127661200D01*
X115220666Y-127661200D02*
X115125428Y-127708819D01*
X115125428Y-127708819D02*
X114934952Y-127708819D01*
X114934952Y-127708819D02*
X114839714Y-127661200D01*
X114839714Y-127661200D02*
X114792095Y-127613580D01*
X114792095Y-127613580D02*
X114744476Y-127518342D01*
X114744476Y-127518342D02*
X114744476Y-126708819D01*
X114363523Y-126708819D02*
X113744476Y-126708819D01*
X113744476Y-126708819D02*
X114077809Y-127089771D01*
X114077809Y-127089771D02*
X113934952Y-127089771D01*
X113934952Y-127089771D02*
X113839714Y-127137390D01*
X113839714Y-127137390D02*
X113792095Y-127185009D01*
X113792095Y-127185009D02*
X113744476Y-127280247D01*
X113744476Y-127280247D02*
X113744476Y-127518342D01*
X113744476Y-127518342D02*
X113792095Y-127613580D01*
X113792095Y-127613580D02*
X113839714Y-127661200D01*
X113839714Y-127661200D02*
X113934952Y-127708819D01*
X113934952Y-127708819D02*
X114220666Y-127708819D01*
X114220666Y-127708819D02*
X114315904Y-127661200D01*
X114315904Y-127661200D02*
X114363523Y-127613580D01*
X108655857Y-123898819D02*
X108989190Y-123422628D01*
X109227285Y-123898819D02*
X109227285Y-122898819D01*
X109227285Y-122898819D02*
X108846333Y-122898819D01*
X108846333Y-122898819D02*
X108751095Y-122946438D01*
X108751095Y-122946438D02*
X108703476Y-122994057D01*
X108703476Y-122994057D02*
X108655857Y-123089295D01*
X108655857Y-123089295D02*
X108655857Y-123232152D01*
X108655857Y-123232152D02*
X108703476Y-123327390D01*
X108703476Y-123327390D02*
X108751095Y-123375009D01*
X108751095Y-123375009D02*
X108846333Y-123422628D01*
X108846333Y-123422628D02*
X109227285Y-123422628D01*
X108274904Y-122994057D02*
X108227285Y-122946438D01*
X108227285Y-122946438D02*
X108132047Y-122898819D01*
X108132047Y-122898819D02*
X107893952Y-122898819D01*
X107893952Y-122898819D02*
X107798714Y-122946438D01*
X107798714Y-122946438D02*
X107751095Y-122994057D01*
X107751095Y-122994057D02*
X107703476Y-123089295D01*
X107703476Y-123089295D02*
X107703476Y-123184533D01*
X107703476Y-123184533D02*
X107751095Y-123327390D01*
X107751095Y-123327390D02*
X108322523Y-123898819D01*
X108322523Y-123898819D02*
X107703476Y-123898819D01*
X107227285Y-123898819D02*
X107036809Y-123898819D01*
X107036809Y-123898819D02*
X106941571Y-123851200D01*
X106941571Y-123851200D02*
X106893952Y-123803580D01*
X106893952Y-123803580D02*
X106798714Y-123660723D01*
X106798714Y-123660723D02*
X106751095Y-123470247D01*
X106751095Y-123470247D02*
X106751095Y-123089295D01*
X106751095Y-123089295D02*
X106798714Y-122994057D01*
X106798714Y-122994057D02*
X106846333Y-122946438D01*
X106846333Y-122946438D02*
X106941571Y-122898819D01*
X106941571Y-122898819D02*
X107132047Y-122898819D01*
X107132047Y-122898819D02*
X107227285Y-122946438D01*
X107227285Y-122946438D02*
X107274904Y-122994057D01*
X107274904Y-122994057D02*
X107322523Y-123089295D01*
X107322523Y-123089295D02*
X107322523Y-123327390D01*
X107322523Y-123327390D02*
X107274904Y-123422628D01*
X107274904Y-123422628D02*
X107227285Y-123470247D01*
X107227285Y-123470247D02*
X107132047Y-123517866D01*
X107132047Y-123517866D02*
X106941571Y-123517866D01*
X106941571Y-123517866D02*
X106846333Y-123470247D01*
X106846333Y-123470247D02*
X106798714Y-123422628D01*
X106798714Y-123422628D02*
X106751095Y-123327390D01*
X130538457Y-119072819D02*
X130871790Y-118596628D01*
X131109885Y-119072819D02*
X131109885Y-118072819D01*
X131109885Y-118072819D02*
X130728933Y-118072819D01*
X130728933Y-118072819D02*
X130633695Y-118120438D01*
X130633695Y-118120438D02*
X130586076Y-118168057D01*
X130586076Y-118168057D02*
X130538457Y-118263295D01*
X130538457Y-118263295D02*
X130538457Y-118406152D01*
X130538457Y-118406152D02*
X130586076Y-118501390D01*
X130586076Y-118501390D02*
X130633695Y-118549009D01*
X130633695Y-118549009D02*
X130728933Y-118596628D01*
X130728933Y-118596628D02*
X131109885Y-118596628D01*
X130157504Y-118168057D02*
X130109885Y-118120438D01*
X130109885Y-118120438D02*
X130014647Y-118072819D01*
X130014647Y-118072819D02*
X129776552Y-118072819D01*
X129776552Y-118072819D02*
X129681314Y-118120438D01*
X129681314Y-118120438D02*
X129633695Y-118168057D01*
X129633695Y-118168057D02*
X129586076Y-118263295D01*
X129586076Y-118263295D02*
X129586076Y-118358533D01*
X129586076Y-118358533D02*
X129633695Y-118501390D01*
X129633695Y-118501390D02*
X130205123Y-119072819D01*
X130205123Y-119072819D02*
X129586076Y-119072819D01*
X128728933Y-118406152D02*
X128728933Y-119072819D01*
X128967028Y-118025200D02*
X129205123Y-118739485D01*
X129205123Y-118739485D02*
X128586076Y-118739485D01*
X111281467Y-107922219D02*
X111614800Y-107446028D01*
X111852895Y-107922219D02*
X111852895Y-106922219D01*
X111852895Y-106922219D02*
X111471943Y-106922219D01*
X111471943Y-106922219D02*
X111376705Y-106969838D01*
X111376705Y-106969838D02*
X111329086Y-107017457D01*
X111329086Y-107017457D02*
X111281467Y-107112695D01*
X111281467Y-107112695D02*
X111281467Y-107255552D01*
X111281467Y-107255552D02*
X111329086Y-107350790D01*
X111329086Y-107350790D02*
X111376705Y-107398409D01*
X111376705Y-107398409D02*
X111471943Y-107446028D01*
X111471943Y-107446028D02*
X111852895Y-107446028D01*
X110329086Y-107922219D02*
X110900514Y-107922219D01*
X110614800Y-107922219D02*
X110614800Y-106922219D01*
X110614800Y-106922219D02*
X110710038Y-107065076D01*
X110710038Y-107065076D02*
X110805276Y-107160314D01*
X110805276Y-107160314D02*
X110900514Y-107207933D01*
X109757657Y-107350790D02*
X109852895Y-107303171D01*
X109852895Y-107303171D02*
X109900514Y-107255552D01*
X109900514Y-107255552D02*
X109948133Y-107160314D01*
X109948133Y-107160314D02*
X109948133Y-107112695D01*
X109948133Y-107112695D02*
X109900514Y-107017457D01*
X109900514Y-107017457D02*
X109852895Y-106969838D01*
X109852895Y-106969838D02*
X109757657Y-106922219D01*
X109757657Y-106922219D02*
X109567181Y-106922219D01*
X109567181Y-106922219D02*
X109471943Y-106969838D01*
X109471943Y-106969838D02*
X109424324Y-107017457D01*
X109424324Y-107017457D02*
X109376705Y-107112695D01*
X109376705Y-107112695D02*
X109376705Y-107160314D01*
X109376705Y-107160314D02*
X109424324Y-107255552D01*
X109424324Y-107255552D02*
X109471943Y-107303171D01*
X109471943Y-107303171D02*
X109567181Y-107350790D01*
X109567181Y-107350790D02*
X109757657Y-107350790D01*
X109757657Y-107350790D02*
X109852895Y-107398409D01*
X109852895Y-107398409D02*
X109900514Y-107446028D01*
X109900514Y-107446028D02*
X109948133Y-107541266D01*
X109948133Y-107541266D02*
X109948133Y-107731742D01*
X109948133Y-107731742D02*
X109900514Y-107826980D01*
X109900514Y-107826980D02*
X109852895Y-107874600D01*
X109852895Y-107874600D02*
X109757657Y-107922219D01*
X109757657Y-107922219D02*
X109567181Y-107922219D01*
X109567181Y-107922219D02*
X109471943Y-107874600D01*
X109471943Y-107874600D02*
X109424324Y-107826980D01*
X109424324Y-107826980D02*
X109376705Y-107731742D01*
X109376705Y-107731742D02*
X109376705Y-107541266D01*
X109376705Y-107541266D02*
X109424324Y-107446028D01*
X109424324Y-107446028D02*
X109471943Y-107398409D01*
X109471943Y-107398409D02*
X109567181Y-107350790D01*
X141136666Y-84407919D02*
X141469999Y-83931728D01*
X141708094Y-84407919D02*
X141708094Y-83407919D01*
X141708094Y-83407919D02*
X141327142Y-83407919D01*
X141327142Y-83407919D02*
X141231904Y-83455538D01*
X141231904Y-83455538D02*
X141184285Y-83503157D01*
X141184285Y-83503157D02*
X141136666Y-83598395D01*
X141136666Y-83598395D02*
X141136666Y-83741252D01*
X141136666Y-83741252D02*
X141184285Y-83836490D01*
X141184285Y-83836490D02*
X141231904Y-83884109D01*
X141231904Y-83884109D02*
X141327142Y-83931728D01*
X141327142Y-83931728D02*
X141708094Y-83931728D01*
X140184285Y-84407919D02*
X140755713Y-84407919D01*
X140469999Y-84407919D02*
X140469999Y-83407919D01*
X140469999Y-83407919D02*
X140565237Y-83550776D01*
X140565237Y-83550776D02*
X140660475Y-83646014D01*
X140660475Y-83646014D02*
X140755713Y-83693633D01*
X108116666Y-126597580D02*
X108164285Y-126645200D01*
X108164285Y-126645200D02*
X108307142Y-126692819D01*
X108307142Y-126692819D02*
X108402380Y-126692819D01*
X108402380Y-126692819D02*
X108545237Y-126645200D01*
X108545237Y-126645200D02*
X108640475Y-126549961D01*
X108640475Y-126549961D02*
X108688094Y-126454723D01*
X108688094Y-126454723D02*
X108735713Y-126264247D01*
X108735713Y-126264247D02*
X108735713Y-126121390D01*
X108735713Y-126121390D02*
X108688094Y-125930914D01*
X108688094Y-125930914D02*
X108640475Y-125835676D01*
X108640475Y-125835676D02*
X108545237Y-125740438D01*
X108545237Y-125740438D02*
X108402380Y-125692819D01*
X108402380Y-125692819D02*
X108307142Y-125692819D01*
X108307142Y-125692819D02*
X108164285Y-125740438D01*
X108164285Y-125740438D02*
X108116666Y-125788057D01*
X107640475Y-126692819D02*
X107449999Y-126692819D01*
X107449999Y-126692819D02*
X107354761Y-126645200D01*
X107354761Y-126645200D02*
X107307142Y-126597580D01*
X107307142Y-126597580D02*
X107211904Y-126454723D01*
X107211904Y-126454723D02*
X107164285Y-126264247D01*
X107164285Y-126264247D02*
X107164285Y-125883295D01*
X107164285Y-125883295D02*
X107211904Y-125788057D01*
X107211904Y-125788057D02*
X107259523Y-125740438D01*
X107259523Y-125740438D02*
X107354761Y-125692819D01*
X107354761Y-125692819D02*
X107545237Y-125692819D01*
X107545237Y-125692819D02*
X107640475Y-125740438D01*
X107640475Y-125740438D02*
X107688094Y-125788057D01*
X107688094Y-125788057D02*
X107735713Y-125883295D01*
X107735713Y-125883295D02*
X107735713Y-126121390D01*
X107735713Y-126121390D02*
X107688094Y-126216628D01*
X107688094Y-126216628D02*
X107640475Y-126264247D01*
X107640475Y-126264247D02*
X107545237Y-126311866D01*
X107545237Y-126311866D02*
X107354761Y-126311866D01*
X107354761Y-126311866D02*
X107259523Y-126264247D01*
X107259523Y-126264247D02*
X107211904Y-126216628D01*
X107211904Y-126216628D02*
X107164285Y-126121390D01*
X114974666Y-86052819D02*
X115307999Y-85576628D01*
X115546094Y-86052819D02*
X115546094Y-85052819D01*
X115546094Y-85052819D02*
X115165142Y-85052819D01*
X115165142Y-85052819D02*
X115069904Y-85100438D01*
X115069904Y-85100438D02*
X115022285Y-85148057D01*
X115022285Y-85148057D02*
X114974666Y-85243295D01*
X114974666Y-85243295D02*
X114974666Y-85386152D01*
X114974666Y-85386152D02*
X115022285Y-85481390D01*
X115022285Y-85481390D02*
X115069904Y-85529009D01*
X115069904Y-85529009D02*
X115165142Y-85576628D01*
X115165142Y-85576628D02*
X115546094Y-85576628D01*
X114069904Y-85052819D02*
X114546094Y-85052819D01*
X114546094Y-85052819D02*
X114593713Y-85529009D01*
X114593713Y-85529009D02*
X114546094Y-85481390D01*
X114546094Y-85481390D02*
X114450856Y-85433771D01*
X114450856Y-85433771D02*
X114212761Y-85433771D01*
X114212761Y-85433771D02*
X114117523Y-85481390D01*
X114117523Y-85481390D02*
X114069904Y-85529009D01*
X114069904Y-85529009D02*
X114022285Y-85624247D01*
X114022285Y-85624247D02*
X114022285Y-85862342D01*
X114022285Y-85862342D02*
X114069904Y-85957580D01*
X114069904Y-85957580D02*
X114117523Y-86005200D01*
X114117523Y-86005200D02*
X114212761Y-86052819D01*
X114212761Y-86052819D02*
X114450856Y-86052819D01*
X114450856Y-86052819D02*
X114546094Y-86005200D01*
X114546094Y-86005200D02*
X114593713Y-85957580D01*
X137580666Y-92402819D02*
X137913999Y-91926628D01*
X138152094Y-92402819D02*
X138152094Y-91402819D01*
X138152094Y-91402819D02*
X137771142Y-91402819D01*
X137771142Y-91402819D02*
X137675904Y-91450438D01*
X137675904Y-91450438D02*
X137628285Y-91498057D01*
X137628285Y-91498057D02*
X137580666Y-91593295D01*
X137580666Y-91593295D02*
X137580666Y-91736152D01*
X137580666Y-91736152D02*
X137628285Y-91831390D01*
X137628285Y-91831390D02*
X137675904Y-91879009D01*
X137675904Y-91879009D02*
X137771142Y-91926628D01*
X137771142Y-91926628D02*
X138152094Y-91926628D01*
X136723523Y-91402819D02*
X136913999Y-91402819D01*
X136913999Y-91402819D02*
X137009237Y-91450438D01*
X137009237Y-91450438D02*
X137056856Y-91498057D01*
X137056856Y-91498057D02*
X137152094Y-91640914D01*
X137152094Y-91640914D02*
X137199713Y-91831390D01*
X137199713Y-91831390D02*
X137199713Y-92212342D01*
X137199713Y-92212342D02*
X137152094Y-92307580D01*
X137152094Y-92307580D02*
X137104475Y-92355200D01*
X137104475Y-92355200D02*
X137009237Y-92402819D01*
X137009237Y-92402819D02*
X136818761Y-92402819D01*
X136818761Y-92402819D02*
X136723523Y-92355200D01*
X136723523Y-92355200D02*
X136675904Y-92307580D01*
X136675904Y-92307580D02*
X136628285Y-92212342D01*
X136628285Y-92212342D02*
X136628285Y-91974247D01*
X136628285Y-91974247D02*
X136675904Y-91879009D01*
X136675904Y-91879009D02*
X136723523Y-91831390D01*
X136723523Y-91831390D02*
X136818761Y-91783771D01*
X136818761Y-91783771D02*
X137009237Y-91783771D01*
X137009237Y-91783771D02*
X137104475Y-91831390D01*
X137104475Y-91831390D02*
X137152094Y-91879009D01*
X137152094Y-91879009D02*
X137199713Y-91974247D01*
X125610857Y-114475419D02*
X125944190Y-113999228D01*
X126182285Y-114475419D02*
X126182285Y-113475419D01*
X126182285Y-113475419D02*
X125801333Y-113475419D01*
X125801333Y-113475419D02*
X125706095Y-113523038D01*
X125706095Y-113523038D02*
X125658476Y-113570657D01*
X125658476Y-113570657D02*
X125610857Y-113665895D01*
X125610857Y-113665895D02*
X125610857Y-113808752D01*
X125610857Y-113808752D02*
X125658476Y-113903990D01*
X125658476Y-113903990D02*
X125706095Y-113951609D01*
X125706095Y-113951609D02*
X125801333Y-113999228D01*
X125801333Y-113999228D02*
X126182285Y-113999228D01*
X125229904Y-113570657D02*
X125182285Y-113523038D01*
X125182285Y-113523038D02*
X125087047Y-113475419D01*
X125087047Y-113475419D02*
X124848952Y-113475419D01*
X124848952Y-113475419D02*
X124753714Y-113523038D01*
X124753714Y-113523038D02*
X124706095Y-113570657D01*
X124706095Y-113570657D02*
X124658476Y-113665895D01*
X124658476Y-113665895D02*
X124658476Y-113761133D01*
X124658476Y-113761133D02*
X124706095Y-113903990D01*
X124706095Y-113903990D02*
X125277523Y-114475419D01*
X125277523Y-114475419D02*
X124658476Y-114475419D01*
X124325142Y-113475419D02*
X123706095Y-113475419D01*
X123706095Y-113475419D02*
X124039428Y-113856371D01*
X124039428Y-113856371D02*
X123896571Y-113856371D01*
X123896571Y-113856371D02*
X123801333Y-113903990D01*
X123801333Y-113903990D02*
X123753714Y-113951609D01*
X123753714Y-113951609D02*
X123706095Y-114046847D01*
X123706095Y-114046847D02*
X123706095Y-114284942D01*
X123706095Y-114284942D02*
X123753714Y-114380180D01*
X123753714Y-114380180D02*
X123801333Y-114427800D01*
X123801333Y-114427800D02*
X123896571Y-114475419D01*
X123896571Y-114475419D02*
X124182285Y-114475419D01*
X124182285Y-114475419D02*
X124277523Y-114427800D01*
X124277523Y-114427800D02*
X124325142Y-114380180D01*
X141197666Y-86265294D02*
X141530999Y-85789103D01*
X141769094Y-86265294D02*
X141769094Y-85265294D01*
X141769094Y-85265294D02*
X141388142Y-85265294D01*
X141388142Y-85265294D02*
X141292904Y-85312913D01*
X141292904Y-85312913D02*
X141245285Y-85360532D01*
X141245285Y-85360532D02*
X141197666Y-85455770D01*
X141197666Y-85455770D02*
X141197666Y-85598627D01*
X141197666Y-85598627D02*
X141245285Y-85693865D01*
X141245285Y-85693865D02*
X141292904Y-85741484D01*
X141292904Y-85741484D02*
X141388142Y-85789103D01*
X141388142Y-85789103D02*
X141769094Y-85789103D01*
X140816713Y-85360532D02*
X140769094Y-85312913D01*
X140769094Y-85312913D02*
X140673856Y-85265294D01*
X140673856Y-85265294D02*
X140435761Y-85265294D01*
X140435761Y-85265294D02*
X140340523Y-85312913D01*
X140340523Y-85312913D02*
X140292904Y-85360532D01*
X140292904Y-85360532D02*
X140245285Y-85455770D01*
X140245285Y-85455770D02*
X140245285Y-85551008D01*
X140245285Y-85551008D02*
X140292904Y-85693865D01*
X140292904Y-85693865D02*
X140864332Y-86265294D01*
X140864332Y-86265294D02*
X140245285Y-86265294D01*
X121737857Y-121612819D02*
X122071190Y-121136628D01*
X122309285Y-121612819D02*
X122309285Y-120612819D01*
X122309285Y-120612819D02*
X121928333Y-120612819D01*
X121928333Y-120612819D02*
X121833095Y-120660438D01*
X121833095Y-120660438D02*
X121785476Y-120708057D01*
X121785476Y-120708057D02*
X121737857Y-120803295D01*
X121737857Y-120803295D02*
X121737857Y-120946152D01*
X121737857Y-120946152D02*
X121785476Y-121041390D01*
X121785476Y-121041390D02*
X121833095Y-121089009D01*
X121833095Y-121089009D02*
X121928333Y-121136628D01*
X121928333Y-121136628D02*
X122309285Y-121136628D01*
X121356904Y-120708057D02*
X121309285Y-120660438D01*
X121309285Y-120660438D02*
X121214047Y-120612819D01*
X121214047Y-120612819D02*
X120975952Y-120612819D01*
X120975952Y-120612819D02*
X120880714Y-120660438D01*
X120880714Y-120660438D02*
X120833095Y-120708057D01*
X120833095Y-120708057D02*
X120785476Y-120803295D01*
X120785476Y-120803295D02*
X120785476Y-120898533D01*
X120785476Y-120898533D02*
X120833095Y-121041390D01*
X120833095Y-121041390D02*
X121404523Y-121612819D01*
X121404523Y-121612819D02*
X120785476Y-121612819D01*
X119928333Y-120612819D02*
X120118809Y-120612819D01*
X120118809Y-120612819D02*
X120214047Y-120660438D01*
X120214047Y-120660438D02*
X120261666Y-120708057D01*
X120261666Y-120708057D02*
X120356904Y-120850914D01*
X120356904Y-120850914D02*
X120404523Y-121041390D01*
X120404523Y-121041390D02*
X120404523Y-121422342D01*
X120404523Y-121422342D02*
X120356904Y-121517580D01*
X120356904Y-121517580D02*
X120309285Y-121565200D01*
X120309285Y-121565200D02*
X120214047Y-121612819D01*
X120214047Y-121612819D02*
X120023571Y-121612819D01*
X120023571Y-121612819D02*
X119928333Y-121565200D01*
X119928333Y-121565200D02*
X119880714Y-121517580D01*
X119880714Y-121517580D02*
X119833095Y-121422342D01*
X119833095Y-121422342D02*
X119833095Y-121184247D01*
X119833095Y-121184247D02*
X119880714Y-121089009D01*
X119880714Y-121089009D02*
X119928333Y-121041390D01*
X119928333Y-121041390D02*
X120023571Y-120993771D01*
X120023571Y-120993771D02*
X120214047Y-120993771D01*
X120214047Y-120993771D02*
X120309285Y-121041390D01*
X120309285Y-121041390D02*
X120356904Y-121089009D01*
X120356904Y-121089009D02*
X120404523Y-121184247D01*
X125134666Y-112627580D02*
X125182285Y-112675200D01*
X125182285Y-112675200D02*
X125325142Y-112722819D01*
X125325142Y-112722819D02*
X125420380Y-112722819D01*
X125420380Y-112722819D02*
X125563237Y-112675200D01*
X125563237Y-112675200D02*
X125658475Y-112579961D01*
X125658475Y-112579961D02*
X125706094Y-112484723D01*
X125706094Y-112484723D02*
X125753713Y-112294247D01*
X125753713Y-112294247D02*
X125753713Y-112151390D01*
X125753713Y-112151390D02*
X125706094Y-111960914D01*
X125706094Y-111960914D02*
X125658475Y-111865676D01*
X125658475Y-111865676D02*
X125563237Y-111770438D01*
X125563237Y-111770438D02*
X125420380Y-111722819D01*
X125420380Y-111722819D02*
X125325142Y-111722819D01*
X125325142Y-111722819D02*
X125182285Y-111770438D01*
X125182285Y-111770438D02*
X125134666Y-111818057D01*
X124801332Y-111722819D02*
X124134666Y-111722819D01*
X124134666Y-111722819D02*
X124563237Y-112722819D01*
X127674666Y-90529580D02*
X127722285Y-90577200D01*
X127722285Y-90577200D02*
X127865142Y-90624819D01*
X127865142Y-90624819D02*
X127960380Y-90624819D01*
X127960380Y-90624819D02*
X128103237Y-90577200D01*
X128103237Y-90577200D02*
X128198475Y-90481961D01*
X128198475Y-90481961D02*
X128246094Y-90386723D01*
X128246094Y-90386723D02*
X128293713Y-90196247D01*
X128293713Y-90196247D02*
X128293713Y-90053390D01*
X128293713Y-90053390D02*
X128246094Y-89862914D01*
X128246094Y-89862914D02*
X128198475Y-89767676D01*
X128198475Y-89767676D02*
X128103237Y-89672438D01*
X128103237Y-89672438D02*
X127960380Y-89624819D01*
X127960380Y-89624819D02*
X127865142Y-89624819D01*
X127865142Y-89624819D02*
X127722285Y-89672438D01*
X127722285Y-89672438D02*
X127674666Y-89720057D01*
X126769904Y-89624819D02*
X127246094Y-89624819D01*
X127246094Y-89624819D02*
X127293713Y-90101009D01*
X127293713Y-90101009D02*
X127246094Y-90053390D01*
X127246094Y-90053390D02*
X127150856Y-90005771D01*
X127150856Y-90005771D02*
X126912761Y-90005771D01*
X126912761Y-90005771D02*
X126817523Y-90053390D01*
X126817523Y-90053390D02*
X126769904Y-90101009D01*
X126769904Y-90101009D02*
X126722285Y-90196247D01*
X126722285Y-90196247D02*
X126722285Y-90434342D01*
X126722285Y-90434342D02*
X126769904Y-90529580D01*
X126769904Y-90529580D02*
X126817523Y-90577200D01*
X126817523Y-90577200D02*
X126912761Y-90624819D01*
X126912761Y-90624819D02*
X127150856Y-90624819D01*
X127150856Y-90624819D02*
X127246094Y-90577200D01*
X127246094Y-90577200D02*
X127293713Y-90529580D01*
X131772819Y-97909142D02*
X131296628Y-97575809D01*
X131772819Y-97337714D02*
X130772819Y-97337714D01*
X130772819Y-97337714D02*
X130772819Y-97718666D01*
X130772819Y-97718666D02*
X130820438Y-97813904D01*
X130820438Y-97813904D02*
X130868057Y-97861523D01*
X130868057Y-97861523D02*
X130963295Y-97909142D01*
X130963295Y-97909142D02*
X131106152Y-97909142D01*
X131106152Y-97909142D02*
X131201390Y-97861523D01*
X131201390Y-97861523D02*
X131249009Y-97813904D01*
X131249009Y-97813904D02*
X131296628Y-97718666D01*
X131296628Y-97718666D02*
X131296628Y-97337714D01*
X131772819Y-98861523D02*
X131772819Y-98290095D01*
X131772819Y-98575809D02*
X130772819Y-98575809D01*
X130772819Y-98575809D02*
X130915676Y-98480571D01*
X130915676Y-98480571D02*
X131010914Y-98385333D01*
X131010914Y-98385333D02*
X131058533Y-98290095D01*
X130868057Y-99242476D02*
X130820438Y-99290095D01*
X130820438Y-99290095D02*
X130772819Y-99385333D01*
X130772819Y-99385333D02*
X130772819Y-99623428D01*
X130772819Y-99623428D02*
X130820438Y-99718666D01*
X130820438Y-99718666D02*
X130868057Y-99766285D01*
X130868057Y-99766285D02*
X130963295Y-99813904D01*
X130963295Y-99813904D02*
X131058533Y-99813904D01*
X131058533Y-99813904D02*
X131201390Y-99766285D01*
X131201390Y-99766285D02*
X131772819Y-99194857D01*
X131772819Y-99194857D02*
X131772819Y-99813904D01*
X130513057Y-114754819D02*
X130846390Y-114278628D01*
X131084485Y-114754819D02*
X131084485Y-113754819D01*
X131084485Y-113754819D02*
X130703533Y-113754819D01*
X130703533Y-113754819D02*
X130608295Y-113802438D01*
X130608295Y-113802438D02*
X130560676Y-113850057D01*
X130560676Y-113850057D02*
X130513057Y-113945295D01*
X130513057Y-113945295D02*
X130513057Y-114088152D01*
X130513057Y-114088152D02*
X130560676Y-114183390D01*
X130560676Y-114183390D02*
X130608295Y-114231009D01*
X130608295Y-114231009D02*
X130703533Y-114278628D01*
X130703533Y-114278628D02*
X131084485Y-114278628D01*
X130132104Y-113850057D02*
X130084485Y-113802438D01*
X130084485Y-113802438D02*
X129989247Y-113754819D01*
X129989247Y-113754819D02*
X129751152Y-113754819D01*
X129751152Y-113754819D02*
X129655914Y-113802438D01*
X129655914Y-113802438D02*
X129608295Y-113850057D01*
X129608295Y-113850057D02*
X129560676Y-113945295D01*
X129560676Y-113945295D02*
X129560676Y-114040533D01*
X129560676Y-114040533D02*
X129608295Y-114183390D01*
X129608295Y-114183390D02*
X130179723Y-114754819D01*
X130179723Y-114754819D02*
X129560676Y-114754819D01*
X129179723Y-113850057D02*
X129132104Y-113802438D01*
X129132104Y-113802438D02*
X129036866Y-113754819D01*
X129036866Y-113754819D02*
X128798771Y-113754819D01*
X128798771Y-113754819D02*
X128703533Y-113802438D01*
X128703533Y-113802438D02*
X128655914Y-113850057D01*
X128655914Y-113850057D02*
X128608295Y-113945295D01*
X128608295Y-113945295D02*
X128608295Y-114040533D01*
X128608295Y-114040533D02*
X128655914Y-114183390D01*
X128655914Y-114183390D02*
X129227342Y-114754819D01*
X129227342Y-114754819D02*
X128608295Y-114754819D01*
X125356857Y-111198819D02*
X125690190Y-110722628D01*
X125928285Y-111198819D02*
X125928285Y-110198819D01*
X125928285Y-110198819D02*
X125547333Y-110198819D01*
X125547333Y-110198819D02*
X125452095Y-110246438D01*
X125452095Y-110246438D02*
X125404476Y-110294057D01*
X125404476Y-110294057D02*
X125356857Y-110389295D01*
X125356857Y-110389295D02*
X125356857Y-110532152D01*
X125356857Y-110532152D02*
X125404476Y-110627390D01*
X125404476Y-110627390D02*
X125452095Y-110675009D01*
X125452095Y-110675009D02*
X125547333Y-110722628D01*
X125547333Y-110722628D02*
X125928285Y-110722628D01*
X124975904Y-110294057D02*
X124928285Y-110246438D01*
X124928285Y-110246438D02*
X124833047Y-110198819D01*
X124833047Y-110198819D02*
X124594952Y-110198819D01*
X124594952Y-110198819D02*
X124499714Y-110246438D01*
X124499714Y-110246438D02*
X124452095Y-110294057D01*
X124452095Y-110294057D02*
X124404476Y-110389295D01*
X124404476Y-110389295D02*
X124404476Y-110484533D01*
X124404476Y-110484533D02*
X124452095Y-110627390D01*
X124452095Y-110627390D02*
X125023523Y-111198819D01*
X125023523Y-111198819D02*
X124404476Y-111198819D01*
X123785428Y-110198819D02*
X123690190Y-110198819D01*
X123690190Y-110198819D02*
X123594952Y-110246438D01*
X123594952Y-110246438D02*
X123547333Y-110294057D01*
X123547333Y-110294057D02*
X123499714Y-110389295D01*
X123499714Y-110389295D02*
X123452095Y-110579771D01*
X123452095Y-110579771D02*
X123452095Y-110817866D01*
X123452095Y-110817866D02*
X123499714Y-111008342D01*
X123499714Y-111008342D02*
X123547333Y-111103580D01*
X123547333Y-111103580D02*
X123594952Y-111151200D01*
X123594952Y-111151200D02*
X123690190Y-111198819D01*
X123690190Y-111198819D02*
X123785428Y-111198819D01*
X123785428Y-111198819D02*
X123880666Y-111151200D01*
X123880666Y-111151200D02*
X123928285Y-111103580D01*
X123928285Y-111103580D02*
X123975904Y-111008342D01*
X123975904Y-111008342D02*
X124023523Y-110817866D01*
X124023523Y-110817866D02*
X124023523Y-110579771D01*
X124023523Y-110579771D02*
X123975904Y-110389295D01*
X123975904Y-110389295D02*
X123928285Y-110294057D01*
X123928285Y-110294057D02*
X123880666Y-110246438D01*
X123880666Y-110246438D02*
X123785428Y-110198819D01*
X111386857Y-106449019D02*
X111720190Y-105972828D01*
X111958285Y-106449019D02*
X111958285Y-105449019D01*
X111958285Y-105449019D02*
X111577333Y-105449019D01*
X111577333Y-105449019D02*
X111482095Y-105496638D01*
X111482095Y-105496638D02*
X111434476Y-105544257D01*
X111434476Y-105544257D02*
X111386857Y-105639495D01*
X111386857Y-105639495D02*
X111386857Y-105782352D01*
X111386857Y-105782352D02*
X111434476Y-105877590D01*
X111434476Y-105877590D02*
X111482095Y-105925209D01*
X111482095Y-105925209D02*
X111577333Y-105972828D01*
X111577333Y-105972828D02*
X111958285Y-105972828D01*
X110434476Y-106449019D02*
X111005904Y-106449019D01*
X110720190Y-106449019D02*
X110720190Y-105449019D01*
X110720190Y-105449019D02*
X110815428Y-105591876D01*
X110815428Y-105591876D02*
X110910666Y-105687114D01*
X110910666Y-105687114D02*
X111005904Y-105734733D01*
X110101142Y-105449019D02*
X109434476Y-105449019D01*
X109434476Y-105449019D02*
X109863047Y-106449019D01*
X135802666Y-87830819D02*
X136135999Y-87354628D01*
X136374094Y-87830819D02*
X136374094Y-86830819D01*
X136374094Y-86830819D02*
X135993142Y-86830819D01*
X135993142Y-86830819D02*
X135897904Y-86878438D01*
X135897904Y-86878438D02*
X135850285Y-86926057D01*
X135850285Y-86926057D02*
X135802666Y-87021295D01*
X135802666Y-87021295D02*
X135802666Y-87164152D01*
X135802666Y-87164152D02*
X135850285Y-87259390D01*
X135850285Y-87259390D02*
X135897904Y-87307009D01*
X135897904Y-87307009D02*
X135993142Y-87354628D01*
X135993142Y-87354628D02*
X136374094Y-87354628D01*
X135469332Y-86830819D02*
X134850285Y-86830819D01*
X134850285Y-86830819D02*
X135183618Y-87211771D01*
X135183618Y-87211771D02*
X135040761Y-87211771D01*
X135040761Y-87211771D02*
X134945523Y-87259390D01*
X134945523Y-87259390D02*
X134897904Y-87307009D01*
X134897904Y-87307009D02*
X134850285Y-87402247D01*
X134850285Y-87402247D02*
X134850285Y-87640342D01*
X134850285Y-87640342D02*
X134897904Y-87735580D01*
X134897904Y-87735580D02*
X134945523Y-87783200D01*
X134945523Y-87783200D02*
X135040761Y-87830819D01*
X135040761Y-87830819D02*
X135326475Y-87830819D01*
X135326475Y-87830819D02*
X135421713Y-87783200D01*
X135421713Y-87783200D02*
X135469332Y-87735580D01*
X123570094Y-101038819D02*
X123570094Y-100038819D01*
X123570094Y-100038819D02*
X123331999Y-100038819D01*
X123331999Y-100038819D02*
X123189142Y-100086438D01*
X123189142Y-100086438D02*
X123093904Y-100181676D01*
X123093904Y-100181676D02*
X123046285Y-100276914D01*
X123046285Y-100276914D02*
X122998666Y-100467390D01*
X122998666Y-100467390D02*
X122998666Y-100610247D01*
X122998666Y-100610247D02*
X123046285Y-100800723D01*
X123046285Y-100800723D02*
X123093904Y-100895961D01*
X123093904Y-100895961D02*
X123189142Y-100991200D01*
X123189142Y-100991200D02*
X123331999Y-101038819D01*
X123331999Y-101038819D02*
X123570094Y-101038819D01*
X122046285Y-101038819D02*
X122617713Y-101038819D01*
X122331999Y-101038819D02*
X122331999Y-100038819D01*
X122331999Y-100038819D02*
X122427237Y-100181676D01*
X122427237Y-100181676D02*
X122522475Y-100276914D01*
X122522475Y-100276914D02*
X122617713Y-100324533D01*
X137834666Y-93926819D02*
X138167999Y-93450628D01*
X138406094Y-93926819D02*
X138406094Y-92926819D01*
X138406094Y-92926819D02*
X138025142Y-92926819D01*
X138025142Y-92926819D02*
X137929904Y-92974438D01*
X137929904Y-92974438D02*
X137882285Y-93022057D01*
X137882285Y-93022057D02*
X137834666Y-93117295D01*
X137834666Y-93117295D02*
X137834666Y-93260152D01*
X137834666Y-93260152D02*
X137882285Y-93355390D01*
X137882285Y-93355390D02*
X137929904Y-93403009D01*
X137929904Y-93403009D02*
X138025142Y-93450628D01*
X138025142Y-93450628D02*
X138406094Y-93450628D01*
X137263237Y-93355390D02*
X137358475Y-93307771D01*
X137358475Y-93307771D02*
X137406094Y-93260152D01*
X137406094Y-93260152D02*
X137453713Y-93164914D01*
X137453713Y-93164914D02*
X137453713Y-93117295D01*
X137453713Y-93117295D02*
X137406094Y-93022057D01*
X137406094Y-93022057D02*
X137358475Y-92974438D01*
X137358475Y-92974438D02*
X137263237Y-92926819D01*
X137263237Y-92926819D02*
X137072761Y-92926819D01*
X137072761Y-92926819D02*
X136977523Y-92974438D01*
X136977523Y-92974438D02*
X136929904Y-93022057D01*
X136929904Y-93022057D02*
X136882285Y-93117295D01*
X136882285Y-93117295D02*
X136882285Y-93164914D01*
X136882285Y-93164914D02*
X136929904Y-93260152D01*
X136929904Y-93260152D02*
X136977523Y-93307771D01*
X136977523Y-93307771D02*
X137072761Y-93355390D01*
X137072761Y-93355390D02*
X137263237Y-93355390D01*
X137263237Y-93355390D02*
X137358475Y-93403009D01*
X137358475Y-93403009D02*
X137406094Y-93450628D01*
X137406094Y-93450628D02*
X137453713Y-93545866D01*
X137453713Y-93545866D02*
X137453713Y-93736342D01*
X137453713Y-93736342D02*
X137406094Y-93831580D01*
X137406094Y-93831580D02*
X137358475Y-93879200D01*
X137358475Y-93879200D02*
X137263237Y-93926819D01*
X137263237Y-93926819D02*
X137072761Y-93926819D01*
X137072761Y-93926819D02*
X136977523Y-93879200D01*
X136977523Y-93879200D02*
X136929904Y-93831580D01*
X136929904Y-93831580D02*
X136882285Y-93736342D01*
X136882285Y-93736342D02*
X136882285Y-93545866D01*
X136882285Y-93545866D02*
X136929904Y-93450628D01*
X136929904Y-93450628D02*
X136977523Y-93403009D01*
X136977523Y-93403009D02*
X137072761Y-93355390D01*
X141136666Y-88243580D02*
X141184285Y-88291200D01*
X141184285Y-88291200D02*
X141327142Y-88338819D01*
X141327142Y-88338819D02*
X141422380Y-88338819D01*
X141422380Y-88338819D02*
X141565237Y-88291200D01*
X141565237Y-88291200D02*
X141660475Y-88195961D01*
X141660475Y-88195961D02*
X141708094Y-88100723D01*
X141708094Y-88100723D02*
X141755713Y-87910247D01*
X141755713Y-87910247D02*
X141755713Y-87767390D01*
X141755713Y-87767390D02*
X141708094Y-87576914D01*
X141708094Y-87576914D02*
X141660475Y-87481676D01*
X141660475Y-87481676D02*
X141565237Y-87386438D01*
X141565237Y-87386438D02*
X141422380Y-87338819D01*
X141422380Y-87338819D02*
X141327142Y-87338819D01*
X141327142Y-87338819D02*
X141184285Y-87386438D01*
X141184285Y-87386438D02*
X141136666Y-87434057D01*
X140279523Y-87672152D02*
X140279523Y-88338819D01*
X140517618Y-87291200D02*
X140755713Y-88005485D01*
X140755713Y-88005485D02*
X140136666Y-88005485D01*
X133262666Y-90878819D02*
X133595999Y-90402628D01*
X133834094Y-90878819D02*
X133834094Y-89878819D01*
X133834094Y-89878819D02*
X133453142Y-89878819D01*
X133453142Y-89878819D02*
X133357904Y-89926438D01*
X133357904Y-89926438D02*
X133310285Y-89974057D01*
X133310285Y-89974057D02*
X133262666Y-90069295D01*
X133262666Y-90069295D02*
X133262666Y-90212152D01*
X133262666Y-90212152D02*
X133310285Y-90307390D01*
X133310285Y-90307390D02*
X133357904Y-90355009D01*
X133357904Y-90355009D02*
X133453142Y-90402628D01*
X133453142Y-90402628D02*
X133834094Y-90402628D01*
X132929332Y-89878819D02*
X132262666Y-89878819D01*
X132262666Y-89878819D02*
X132691237Y-90878819D01*
X108592857Y-121104819D02*
X108926190Y-120628628D01*
X109164285Y-121104819D02*
X109164285Y-120104819D01*
X109164285Y-120104819D02*
X108783333Y-120104819D01*
X108783333Y-120104819D02*
X108688095Y-120152438D01*
X108688095Y-120152438D02*
X108640476Y-120200057D01*
X108640476Y-120200057D02*
X108592857Y-120295295D01*
X108592857Y-120295295D02*
X108592857Y-120438152D01*
X108592857Y-120438152D02*
X108640476Y-120533390D01*
X108640476Y-120533390D02*
X108688095Y-120581009D01*
X108688095Y-120581009D02*
X108783333Y-120628628D01*
X108783333Y-120628628D02*
X109164285Y-120628628D01*
X108211904Y-120200057D02*
X108164285Y-120152438D01*
X108164285Y-120152438D02*
X108069047Y-120104819D01*
X108069047Y-120104819D02*
X107830952Y-120104819D01*
X107830952Y-120104819D02*
X107735714Y-120152438D01*
X107735714Y-120152438D02*
X107688095Y-120200057D01*
X107688095Y-120200057D02*
X107640476Y-120295295D01*
X107640476Y-120295295D02*
X107640476Y-120390533D01*
X107640476Y-120390533D02*
X107688095Y-120533390D01*
X107688095Y-120533390D02*
X108259523Y-121104819D01*
X108259523Y-121104819D02*
X107640476Y-121104819D01*
X107307142Y-120104819D02*
X106640476Y-120104819D01*
X106640476Y-120104819D02*
X107069047Y-121104819D01*
X124848857Y-116786819D02*
X125182190Y-116310628D01*
X125420285Y-116786819D02*
X125420285Y-115786819D01*
X125420285Y-115786819D02*
X125039333Y-115786819D01*
X125039333Y-115786819D02*
X124944095Y-115834438D01*
X124944095Y-115834438D02*
X124896476Y-115882057D01*
X124896476Y-115882057D02*
X124848857Y-115977295D01*
X124848857Y-115977295D02*
X124848857Y-116120152D01*
X124848857Y-116120152D02*
X124896476Y-116215390D01*
X124896476Y-116215390D02*
X124944095Y-116263009D01*
X124944095Y-116263009D02*
X125039333Y-116310628D01*
X125039333Y-116310628D02*
X125420285Y-116310628D01*
X124467904Y-115882057D02*
X124420285Y-115834438D01*
X124420285Y-115834438D02*
X124325047Y-115786819D01*
X124325047Y-115786819D02*
X124086952Y-115786819D01*
X124086952Y-115786819D02*
X123991714Y-115834438D01*
X123991714Y-115834438D02*
X123944095Y-115882057D01*
X123944095Y-115882057D02*
X123896476Y-115977295D01*
X123896476Y-115977295D02*
X123896476Y-116072533D01*
X123896476Y-116072533D02*
X123944095Y-116215390D01*
X123944095Y-116215390D02*
X124515523Y-116786819D01*
X124515523Y-116786819D02*
X123896476Y-116786819D01*
X122991714Y-115786819D02*
X123467904Y-115786819D01*
X123467904Y-115786819D02*
X123515523Y-116263009D01*
X123515523Y-116263009D02*
X123467904Y-116215390D01*
X123467904Y-116215390D02*
X123372666Y-116167771D01*
X123372666Y-116167771D02*
X123134571Y-116167771D01*
X123134571Y-116167771D02*
X123039333Y-116215390D01*
X123039333Y-116215390D02*
X122991714Y-116263009D01*
X122991714Y-116263009D02*
X122944095Y-116358247D01*
X122944095Y-116358247D02*
X122944095Y-116596342D01*
X122944095Y-116596342D02*
X122991714Y-116691580D01*
X122991714Y-116691580D02*
X123039333Y-116739200D01*
X123039333Y-116739200D02*
X123134571Y-116786819D01*
X123134571Y-116786819D02*
X123372666Y-116786819D01*
X123372666Y-116786819D02*
X123467904Y-116739200D01*
X123467904Y-116739200D02*
X123515523Y-116691580D01*
X115711266Y-93018780D02*
X115758885Y-93066400D01*
X115758885Y-93066400D02*
X115901742Y-93114019D01*
X115901742Y-93114019D02*
X115996980Y-93114019D01*
X115996980Y-93114019D02*
X116139837Y-93066400D01*
X116139837Y-93066400D02*
X116235075Y-92971161D01*
X116235075Y-92971161D02*
X116282694Y-92875923D01*
X116282694Y-92875923D02*
X116330313Y-92685447D01*
X116330313Y-92685447D02*
X116330313Y-92542590D01*
X116330313Y-92542590D02*
X116282694Y-92352114D01*
X116282694Y-92352114D02*
X116235075Y-92256876D01*
X116235075Y-92256876D02*
X116139837Y-92161638D01*
X116139837Y-92161638D02*
X115996980Y-92114019D01*
X115996980Y-92114019D02*
X115901742Y-92114019D01*
X115901742Y-92114019D02*
X115758885Y-92161638D01*
X115758885Y-92161638D02*
X115711266Y-92209257D01*
X114854123Y-92114019D02*
X115044599Y-92114019D01*
X115044599Y-92114019D02*
X115139837Y-92161638D01*
X115139837Y-92161638D02*
X115187456Y-92209257D01*
X115187456Y-92209257D02*
X115282694Y-92352114D01*
X115282694Y-92352114D02*
X115330313Y-92542590D01*
X115330313Y-92542590D02*
X115330313Y-92923542D01*
X115330313Y-92923542D02*
X115282694Y-93018780D01*
X115282694Y-93018780D02*
X115235075Y-93066400D01*
X115235075Y-93066400D02*
X115139837Y-93114019D01*
X115139837Y-93114019D02*
X114949361Y-93114019D01*
X114949361Y-93114019D02*
X114854123Y-93066400D01*
X114854123Y-93066400D02*
X114806504Y-93018780D01*
X114806504Y-93018780D02*
X114758885Y-92923542D01*
X114758885Y-92923542D02*
X114758885Y-92685447D01*
X114758885Y-92685447D02*
X114806504Y-92590209D01*
X114806504Y-92590209D02*
X114854123Y-92542590D01*
X114854123Y-92542590D02*
X114949361Y-92494971D01*
X114949361Y-92494971D02*
X115139837Y-92494971D01*
X115139837Y-92494971D02*
X115235075Y-92542590D01*
X115235075Y-92542590D02*
X115282694Y-92590209D01*
X115282694Y-92590209D02*
X115330313Y-92685447D01*
X134312819Y-114419142D02*
X133836628Y-114085809D01*
X134312819Y-113847714D02*
X133312819Y-113847714D01*
X133312819Y-113847714D02*
X133312819Y-114228666D01*
X133312819Y-114228666D02*
X133360438Y-114323904D01*
X133360438Y-114323904D02*
X133408057Y-114371523D01*
X133408057Y-114371523D02*
X133503295Y-114419142D01*
X133503295Y-114419142D02*
X133646152Y-114419142D01*
X133646152Y-114419142D02*
X133741390Y-114371523D01*
X133741390Y-114371523D02*
X133789009Y-114323904D01*
X133789009Y-114323904D02*
X133836628Y-114228666D01*
X133836628Y-114228666D02*
X133836628Y-113847714D01*
X133408057Y-114800095D02*
X133360438Y-114847714D01*
X133360438Y-114847714D02*
X133312819Y-114942952D01*
X133312819Y-114942952D02*
X133312819Y-115181047D01*
X133312819Y-115181047D02*
X133360438Y-115276285D01*
X133360438Y-115276285D02*
X133408057Y-115323904D01*
X133408057Y-115323904D02*
X133503295Y-115371523D01*
X133503295Y-115371523D02*
X133598533Y-115371523D01*
X133598533Y-115371523D02*
X133741390Y-115323904D01*
X133741390Y-115323904D02*
X134312819Y-114752476D01*
X134312819Y-114752476D02*
X134312819Y-115371523D01*
X134312819Y-116323904D02*
X134312819Y-115752476D01*
X134312819Y-116038190D02*
X133312819Y-116038190D01*
X133312819Y-116038190D02*
X133455676Y-115942952D01*
X133455676Y-115942952D02*
X133550914Y-115847714D01*
X133550914Y-115847714D02*
X133598533Y-115752476D01*
X128436666Y-87068819D02*
X128769999Y-86592628D01*
X129008094Y-87068819D02*
X129008094Y-86068819D01*
X129008094Y-86068819D02*
X128627142Y-86068819D01*
X128627142Y-86068819D02*
X128531904Y-86116438D01*
X128531904Y-86116438D02*
X128484285Y-86164057D01*
X128484285Y-86164057D02*
X128436666Y-86259295D01*
X128436666Y-86259295D02*
X128436666Y-86402152D01*
X128436666Y-86402152D02*
X128484285Y-86497390D01*
X128484285Y-86497390D02*
X128531904Y-86545009D01*
X128531904Y-86545009D02*
X128627142Y-86592628D01*
X128627142Y-86592628D02*
X129008094Y-86592628D01*
X127579523Y-86402152D02*
X127579523Y-87068819D01*
X127817618Y-86021200D02*
X128055713Y-86735485D01*
X128055713Y-86735485D02*
X127436666Y-86735485D01*
X109862857Y-93164819D02*
X110196190Y-92688628D01*
X110434285Y-93164819D02*
X110434285Y-92164819D01*
X110434285Y-92164819D02*
X110053333Y-92164819D01*
X110053333Y-92164819D02*
X109958095Y-92212438D01*
X109958095Y-92212438D02*
X109910476Y-92260057D01*
X109910476Y-92260057D02*
X109862857Y-92355295D01*
X109862857Y-92355295D02*
X109862857Y-92498152D01*
X109862857Y-92498152D02*
X109910476Y-92593390D01*
X109910476Y-92593390D02*
X109958095Y-92641009D01*
X109958095Y-92641009D02*
X110053333Y-92688628D01*
X110053333Y-92688628D02*
X110434285Y-92688628D01*
X108910476Y-93164819D02*
X109481904Y-93164819D01*
X109196190Y-93164819D02*
X109196190Y-92164819D01*
X109196190Y-92164819D02*
X109291428Y-92307676D01*
X109291428Y-92307676D02*
X109386666Y-92402914D01*
X109386666Y-92402914D02*
X109481904Y-92450533D01*
X107958095Y-93164819D02*
X108529523Y-93164819D01*
X108243809Y-93164819D02*
X108243809Y-92164819D01*
X108243809Y-92164819D02*
X108339047Y-92307676D01*
X108339047Y-92307676D02*
X108434285Y-92402914D01*
X108434285Y-92402914D02*
X108529523Y-92450533D01*
X121737857Y-127200819D02*
X122071190Y-126724628D01*
X122309285Y-127200819D02*
X122309285Y-126200819D01*
X122309285Y-126200819D02*
X121928333Y-126200819D01*
X121928333Y-126200819D02*
X121833095Y-126248438D01*
X121833095Y-126248438D02*
X121785476Y-126296057D01*
X121785476Y-126296057D02*
X121737857Y-126391295D01*
X121737857Y-126391295D02*
X121737857Y-126534152D01*
X121737857Y-126534152D02*
X121785476Y-126629390D01*
X121785476Y-126629390D02*
X121833095Y-126677009D01*
X121833095Y-126677009D02*
X121928333Y-126724628D01*
X121928333Y-126724628D02*
X122309285Y-126724628D01*
X121404523Y-126200819D02*
X120785476Y-126200819D01*
X120785476Y-126200819D02*
X121118809Y-126581771D01*
X121118809Y-126581771D02*
X120975952Y-126581771D01*
X120975952Y-126581771D02*
X120880714Y-126629390D01*
X120880714Y-126629390D02*
X120833095Y-126677009D01*
X120833095Y-126677009D02*
X120785476Y-126772247D01*
X120785476Y-126772247D02*
X120785476Y-127010342D01*
X120785476Y-127010342D02*
X120833095Y-127105580D01*
X120833095Y-127105580D02*
X120880714Y-127153200D01*
X120880714Y-127153200D02*
X120975952Y-127200819D01*
X120975952Y-127200819D02*
X121261666Y-127200819D01*
X121261666Y-127200819D02*
X121356904Y-127153200D01*
X121356904Y-127153200D02*
X121404523Y-127105580D01*
X120166428Y-126200819D02*
X120071190Y-126200819D01*
X120071190Y-126200819D02*
X119975952Y-126248438D01*
X119975952Y-126248438D02*
X119928333Y-126296057D01*
X119928333Y-126296057D02*
X119880714Y-126391295D01*
X119880714Y-126391295D02*
X119833095Y-126581771D01*
X119833095Y-126581771D02*
X119833095Y-126819866D01*
X119833095Y-126819866D02*
X119880714Y-127010342D01*
X119880714Y-127010342D02*
X119928333Y-127105580D01*
X119928333Y-127105580D02*
X119975952Y-127153200D01*
X119975952Y-127153200D02*
X120071190Y-127200819D01*
X120071190Y-127200819D02*
X120166428Y-127200819D01*
X120166428Y-127200819D02*
X120261666Y-127153200D01*
X120261666Y-127153200D02*
X120309285Y-127105580D01*
X120309285Y-127105580D02*
X120356904Y-127010342D01*
X120356904Y-127010342D02*
X120404523Y-126819866D01*
X120404523Y-126819866D02*
X120404523Y-126581771D01*
X120404523Y-126581771D02*
X120356904Y-126391295D01*
X120356904Y-126391295D02*
X120309285Y-126296057D01*
X120309285Y-126296057D02*
X120261666Y-126248438D01*
X120261666Y-126248438D02*
X120166428Y-126200819D01*
X127502476Y-93723619D02*
X127835809Y-93247428D01*
X128073904Y-93723619D02*
X128073904Y-92723619D01*
X128073904Y-92723619D02*
X127692952Y-92723619D01*
X127692952Y-92723619D02*
X127597714Y-92771238D01*
X127597714Y-92771238D02*
X127550095Y-92818857D01*
X127550095Y-92818857D02*
X127502476Y-92914095D01*
X127502476Y-92914095D02*
X127502476Y-93056952D01*
X127502476Y-93056952D02*
X127550095Y-93152190D01*
X127550095Y-93152190D02*
X127597714Y-93199809D01*
X127597714Y-93199809D02*
X127692952Y-93247428D01*
X127692952Y-93247428D02*
X128073904Y-93247428D01*
X127026285Y-93723619D02*
X126835809Y-93723619D01*
X126835809Y-93723619D02*
X126740571Y-93676000D01*
X126740571Y-93676000D02*
X126692952Y-93628380D01*
X126692952Y-93628380D02*
X126597714Y-93485523D01*
X126597714Y-93485523D02*
X126550095Y-93295047D01*
X126550095Y-93295047D02*
X126550095Y-92914095D01*
X126550095Y-92914095D02*
X126597714Y-92818857D01*
X126597714Y-92818857D02*
X126645333Y-92771238D01*
X126645333Y-92771238D02*
X126740571Y-92723619D01*
X126740571Y-92723619D02*
X126931047Y-92723619D01*
X126931047Y-92723619D02*
X127026285Y-92771238D01*
X127026285Y-92771238D02*
X127073904Y-92818857D01*
X127073904Y-92818857D02*
X127121523Y-92914095D01*
X127121523Y-92914095D02*
X127121523Y-93152190D01*
X127121523Y-93152190D02*
X127073904Y-93247428D01*
X127073904Y-93247428D02*
X127026285Y-93295047D01*
X127026285Y-93295047D02*
X126931047Y-93342666D01*
X126931047Y-93342666D02*
X126740571Y-93342666D01*
X126740571Y-93342666D02*
X126645333Y-93295047D01*
X126645333Y-93295047D02*
X126597714Y-93247428D01*
X126597714Y-93247428D02*
X126550095Y-93152190D01*
D11*
%TO.C,R13*%
X129093700Y-95741258D02*
X129093700Y-95266742D01*
X130138700Y-95741258D02*
X130138700Y-95266742D01*
%TO.C,R15*%
X115809500Y-96566258D02*
X115809500Y-96091742D01*
X116854500Y-96566258D02*
X116854500Y-96091742D01*
%TO.C,C8*%
X127382180Y-118566200D02*
X127101020Y-118566200D01*
X127382180Y-119586200D02*
X127101020Y-119586200D01*
%TO.C,R16*%
X131875100Y-101712242D02*
X131875100Y-102186758D01*
X132920100Y-101712242D02*
X132920100Y-102186758D01*
%TO.C,R28*%
X120857742Y-124837500D02*
X121332258Y-124837500D01*
X120857742Y-125882500D02*
X121332258Y-125882500D01*
%TO.C,C3*%
X133249580Y-85138800D02*
X132968420Y-85138800D01*
X133249580Y-86158800D02*
X132968420Y-86158800D01*
%TO.C,U1*%
X119208000Y-87513000D02*
X121158000Y-87513000D01*
X119208000Y-96383000D02*
X121158000Y-96383000D01*
X123108000Y-87513000D02*
X121158000Y-87513000D01*
X123108000Y-96383000D02*
X121158000Y-96383000D01*
X123858000Y-87578000D02*
X123618000Y-87248000D01*
X124098000Y-87248000D01*
X123858000Y-87578000D01*
G36*
X123858000Y-87578000D02*
G01*
X123618000Y-87248000D01*
X124098000Y-87248000D01*
X123858000Y-87578000D01*
G37*
%TO.C,U2*%
X118192000Y-106817000D02*
X120142000Y-106817000D01*
X118192000Y-115687000D02*
X120142000Y-115687000D01*
X122092000Y-106817000D02*
X120142000Y-106817000D01*
X122092000Y-115687000D02*
X120142000Y-115687000D01*
X122842000Y-106882000D02*
X122602000Y-106552000D01*
X123082000Y-106552000D01*
X122842000Y-106882000D01*
G36*
X122842000Y-106882000D02*
G01*
X122602000Y-106552000D01*
X123082000Y-106552000D01*
X122842000Y-106882000D01*
G37*
%TO.C,R10*%
X111237500Y-95233258D02*
X111237500Y-94758742D01*
X112282500Y-95233258D02*
X112282500Y-94758742D01*
%TO.C,C10*%
X107809420Y-129560000D02*
X108090580Y-129560000D01*
X107809420Y-130580000D02*
X108090580Y-130580000D01*
%TO.C,R19*%
X131786100Y-111184458D02*
X131786100Y-110709942D01*
X132831100Y-111184458D02*
X132831100Y-110709942D01*
%TO.C,R14*%
X127239500Y-95741258D02*
X127239500Y-95266742D01*
X128284500Y-95741258D02*
X128284500Y-95266742D01*
%TO.C,C11*%
X153923420Y-132890800D02*
X154204580Y-132890800D01*
X153923420Y-133910800D02*
X154204580Y-133910800D01*
D12*
%TO.C,U3*%
X113653999Y-125704001D02*
X117304000Y-125704001D01*
X113653999Y-128803999D02*
X115454001Y-128803999D01*
D11*
%TO.C,R29*%
X107775742Y-124191500D02*
X108250258Y-124191500D01*
X107775742Y-125236500D02*
X108250258Y-125236500D01*
%TO.C,R24*%
X129086342Y-116571500D02*
X129560858Y-116571500D01*
X129086342Y-117616500D02*
X129560858Y-117616500D01*
%TO.C,R18*%
X113953058Y-106944900D02*
X113478542Y-106944900D01*
X113953058Y-107989900D02*
X113478542Y-107989900D01*
%TO.C,R1*%
X138669858Y-83430600D02*
X138195342Y-83430600D01*
X138669858Y-84475600D02*
X138195342Y-84475600D01*
%TO.C,C9*%
X107809420Y-126882000D02*
X108090580Y-126882000D01*
X107809420Y-127902000D02*
X108090580Y-127902000D01*
%TO.C,R5*%
X114570742Y-86345500D02*
X115045258Y-86345500D01*
X114570742Y-87390500D02*
X115045258Y-87390500D01*
%TO.C,R6*%
X134699742Y-91171500D02*
X135174258Y-91171500D01*
X134699742Y-92216500D02*
X135174258Y-92216500D01*
%TO.C,R23*%
X127003542Y-113269500D02*
X127478058Y-113269500D01*
X127003542Y-114314500D02*
X127478058Y-114314500D01*
%TO.C,R2*%
X138667258Y-85287975D02*
X138192742Y-85287975D01*
X138667258Y-86332975D02*
X138192742Y-86332975D01*
%TO.C,R26*%
X121332258Y-122159500D02*
X120857742Y-122159500D01*
X121332258Y-123204500D02*
X120857742Y-123204500D01*
%TO.C,C7*%
X127088020Y-111708200D02*
X127369180Y-111708200D01*
X127088020Y-112728200D02*
X127369180Y-112728200D01*
%TO.C,C5*%
X129080800Y-90321820D02*
X129080800Y-90602980D01*
X130100800Y-90321820D02*
X130100800Y-90602980D01*
%TO.C,R12*%
X130617700Y-95266742D02*
X130617700Y-95741258D01*
X131662700Y-95266742D02*
X131662700Y-95741258D01*
%TO.C,R22*%
X129560858Y-114997700D02*
X129086342Y-114997700D01*
X129560858Y-116042700D02*
X129086342Y-116042700D01*
%TO.C,R20*%
X126991342Y-110171700D02*
X127465858Y-110171700D01*
X126991342Y-111216700D02*
X127465858Y-111216700D01*
%TO.C,R17*%
X113439942Y-105217700D02*
X113914458Y-105217700D01*
X113439942Y-106262700D02*
X113914458Y-106262700D01*
%TO.C,R3*%
X133333258Y-86904300D02*
X132858742Y-86904300D01*
X133333258Y-87949300D02*
X132858742Y-87949300D01*
%TO.C,D1*%
X121172000Y-97963000D02*
X121172000Y-99433000D01*
X121172000Y-99433000D02*
X123632000Y-99433000D01*
X123632000Y-97963000D02*
X121172000Y-97963000D01*
%TO.C,R8*%
X135174258Y-92949500D02*
X134699742Y-92949500D01*
X135174258Y-93994500D02*
X134699742Y-93994500D01*
%TO.C,C4*%
X138242020Y-87253100D02*
X138523180Y-87253100D01*
X138242020Y-88273100D02*
X138523180Y-88273100D01*
%TO.C,R7*%
X130846300Y-90699658D02*
X130846300Y-90225142D01*
X131891300Y-90699658D02*
X131891300Y-90225142D01*
%TO.C,R27*%
X107775742Y-121513500D02*
X108250258Y-121513500D01*
X107775742Y-122558500D02*
X108250258Y-122558500D01*
%TO.C,R25*%
X125969500Y-116531658D02*
X125969500Y-116057142D01*
X127014500Y-116531658D02*
X127014500Y-116057142D01*
%TO.C,C6*%
X115429420Y-93216000D02*
X115710580Y-93216000D01*
X115429420Y-94236000D02*
X115710580Y-94236000D01*
%TO.C,R21*%
X131786100Y-114994458D02*
X131786100Y-114519942D01*
X132831100Y-114994458D02*
X132831100Y-114519942D01*
D13*
%TO.C,G\u002A\u002A\u002A*%
G36*
X106249773Y-67256164D02*
G01*
X106212574Y-67315338D01*
X106220554Y-67320096D01*
X106233587Y-67311602D01*
X106271702Y-67307650D01*
X106325820Y-67334775D01*
X106406140Y-67400905D01*
X106522863Y-67513965D01*
X106686192Y-67681881D01*
X106698244Y-67694451D01*
X106916124Y-67926418D01*
X107121898Y-68153859D01*
X107307761Y-68367395D01*
X107465908Y-68557652D01*
X107588534Y-68715252D01*
X107667833Y-68830819D01*
X107696000Y-68894977D01*
X107679449Y-68952732D01*
X107627679Y-68949266D01*
X107537702Y-68882184D01*
X107406528Y-68749255D01*
X107231167Y-68548250D01*
X107114119Y-68411762D01*
X106912754Y-68184613D01*
X106704427Y-67956839D01*
X106519225Y-67761681D01*
X106412907Y-67653967D01*
X106284096Y-67530326D01*
X106196702Y-67458941D01*
X106141788Y-67432895D01*
X106110420Y-67445274D01*
X106110252Y-67445493D01*
X106068098Y-67500914D01*
X105986756Y-67608417D01*
X105877870Y-67752593D01*
X105753086Y-67918037D01*
X105746978Y-67926134D01*
X105592849Y-68125306D01*
X105477854Y-68260794D01*
X105394842Y-68339408D01*
X105336660Y-68367962D01*
X105296157Y-68353268D01*
X105295604Y-68352673D01*
X105274309Y-68296941D01*
X105246875Y-68185622D01*
X105218810Y-68046035D01*
X105195625Y-67905496D01*
X105182827Y-67791322D01*
X105181500Y-67775361D01*
X105157580Y-67723576D01*
X105088582Y-67734823D01*
X105009342Y-67757897D01*
X104833034Y-67783955D01*
X104648135Y-67789041D01*
X104499170Y-67770463D01*
X104370759Y-67706320D01*
X104218870Y-67575428D01*
X104067200Y-67395713D01*
X103931051Y-67183000D01*
X103802868Y-66950167D01*
X103794601Y-67204167D01*
X103793076Y-67257365D01*
X103793392Y-67620494D01*
X103811597Y-67957229D01*
X103846270Y-68239109D01*
X103848866Y-68254518D01*
X103863905Y-68422149D01*
X103846504Y-68516433D01*
X103803394Y-68538721D01*
X103741306Y-68490363D01*
X103666971Y-68372710D01*
X103587119Y-68187112D01*
X103539249Y-68064426D01*
X103439536Y-67832584D01*
X103318485Y-67570045D01*
X103186774Y-67298621D01*
X103055078Y-67040125D01*
X102934072Y-66816372D01*
X102834433Y-66649175D01*
X102795582Y-66591768D01*
X102625090Y-66379128D01*
X102435496Y-66191335D01*
X102252814Y-66054968D01*
X102199581Y-66006317D01*
X102220156Y-65955513D01*
X102227245Y-65948655D01*
X102315849Y-65921083D01*
X102432442Y-65963763D01*
X102571378Y-66070147D01*
X102727012Y-66233685D01*
X102893700Y-66447831D01*
X103065796Y-66706034D01*
X103237657Y-67001748D01*
X103403637Y-67328424D01*
X103460194Y-67444249D01*
X103525711Y-67567909D01*
X103571084Y-67640355D01*
X103588840Y-67648667D01*
X103590955Y-67608892D01*
X103608805Y-67326126D01*
X103630153Y-67060299D01*
X103653523Y-66824938D01*
X103677440Y-66633572D01*
X103700428Y-66499727D01*
X103721011Y-66436933D01*
X103748855Y-66411848D01*
X103810279Y-66412765D01*
X103863603Y-66486529D01*
X103901030Y-66624995D01*
X103909023Y-66665917D01*
X103973703Y-66861736D01*
X104077144Y-67078410D01*
X104202682Y-67284255D01*
X104333651Y-67447584D01*
X104346363Y-67460534D01*
X104451223Y-67553017D01*
X104546552Y-67595875D01*
X104668703Y-67606334D01*
X104851408Y-67598673D01*
X104990753Y-67577264D01*
X105070953Y-67545220D01*
X105079303Y-67505656D01*
X105061197Y-67474085D01*
X105017184Y-67375638D01*
X104967315Y-67246500D01*
X104929193Y-67146874D01*
X104863046Y-66981741D01*
X104776974Y-66771330D01*
X104677819Y-66532360D01*
X104572424Y-66281552D01*
X104545675Y-66218156D01*
X104466282Y-66025545D01*
X104677276Y-66025545D01*
X104693212Y-66098415D01*
X104740133Y-66224751D01*
X104813352Y-66404093D01*
X104908188Y-66635983D01*
X104998909Y-66866750D01*
X105077949Y-67079521D01*
X105138454Y-67255291D01*
X105175714Y-67380359D01*
X105185017Y-67441020D01*
X105182744Y-67450023D01*
X105181919Y-67487831D01*
X105219829Y-67487573D01*
X105315597Y-67450663D01*
X105387880Y-67418085D01*
X105535067Y-67344860D01*
X105685700Y-67263687D01*
X105767379Y-67218829D01*
X105862226Y-67176025D01*
X105918756Y-67171642D01*
X105957632Y-67200911D01*
X105964046Y-67209193D01*
X105974889Y-67253438D01*
X105933435Y-67304046D01*
X105828013Y-67376859D01*
X105782719Y-67404620D01*
X105614029Y-67499632D01*
X105450846Y-67581985D01*
X105348032Y-67635018D01*
X105288160Y-67686875D01*
X105289204Y-67734880D01*
X105289857Y-67736053D01*
X105329978Y-67819070D01*
X105377509Y-67930398D01*
X105431167Y-68063962D01*
X105763979Y-67618060D01*
X105796097Y-67574875D01*
X105909301Y-67419861D01*
X105994937Y-67298069D01*
X106045141Y-67220912D01*
X106052054Y-67199808D01*
X106010400Y-67181767D01*
X105918221Y-67113043D01*
X105786202Y-67002120D01*
X105624701Y-66857706D01*
X105444076Y-66688513D01*
X105226291Y-66479254D01*
X105017049Y-66277907D01*
X104862210Y-66132322D01*
X104757091Y-66042040D01*
X104697008Y-66006601D01*
X104677276Y-66025545D01*
X104466282Y-66025545D01*
X104428088Y-65932886D01*
X104347289Y-65719540D01*
X104304033Y-65574128D01*
X104299073Y-65492656D01*
X104333164Y-65471134D01*
X104407058Y-65505570D01*
X104521510Y-65591971D01*
X104677274Y-65726347D01*
X104769988Y-65810175D01*
X104943570Y-65971123D01*
X105146573Y-66162735D01*
X105360821Y-66367814D01*
X105568138Y-66569167D01*
X105577117Y-66577956D01*
X105750631Y-66745472D01*
X105899603Y-66884977D01*
X106015178Y-66988529D01*
X106088504Y-67048184D01*
X106110729Y-67056000D01*
X106130931Y-67003509D01*
X106200510Y-66926957D01*
X106295687Y-66847409D01*
X106392354Y-66784950D01*
X106466401Y-66759667D01*
X106512507Y-66771406D01*
X106526240Y-66832267D01*
X106474577Y-66945489D01*
X106357360Y-67111586D01*
X106324462Y-67154291D01*
X106291091Y-67199808D01*
X106249773Y-67256164D01*
G37*
D11*
%TO.C,R4*%
X129525500Y-86236542D02*
X129525500Y-86711058D01*
X130570500Y-86236542D02*
X130570500Y-86711058D01*
%TO.C,R11*%
X109459500Y-94695742D02*
X109459500Y-95170258D01*
X110504500Y-94695742D02*
X110504500Y-95170258D01*
%TO.C,R30*%
X120857742Y-127515500D02*
X121332258Y-127515500D01*
X120857742Y-128560500D02*
X121332258Y-128560500D01*
%TO.C,R9*%
X130602258Y-92492300D02*
X130127742Y-92492300D01*
X130602258Y-93537300D02*
X130127742Y-93537300D01*
%TD*%
M02*
