%TF.GenerationSoftware,KiCad,Pcbnew,8.0.0*%
%TF.CreationDate,2024-03-24T13:49:44-07:00*%
%TF.ProjectId,Bottom_Board,426f7474-6f6d-45f4-926f-6172642e6b69,0*%
%TF.SameCoordinates,Original*%
%TF.FileFunction,Copper,L1,Top*%
%TF.FilePolarity,Positive*%
%FSLAX46Y46*%
G04 Gerber Fmt 4.6, Leading zero omitted, Abs format (unit mm)*
G04 Created by KiCad (PCBNEW 8.0.0) date 2024-03-24 13:49:44*
%MOMM*%
%LPD*%
G01*
G04 APERTURE LIST*
%TA.AperFunction,ComponentPad*%
%ADD10R,1.600000X1.600000*%
%TD*%
%TA.AperFunction,ComponentPad*%
%ADD11O,1.600000X1.600000*%
%TD*%
%TA.AperFunction,ComponentPad*%
%ADD12R,2.000000X2.000000*%
%TD*%
%TA.AperFunction,ComponentPad*%
%ADD13C,2.000000*%
%TD*%
%TA.AperFunction,ComponentPad*%
%ADD14C,3.000000*%
%TD*%
%TA.AperFunction,ComponentPad*%
%ADD15C,1.700000*%
%TD*%
%TA.AperFunction,ComponentPad*%
%ADD16O,1.700000X1.700000*%
%TD*%
%TA.AperFunction,ComponentPad*%
%ADD17C,1.440000*%
%TD*%
%TA.AperFunction,ComponentPad*%
%ADD18R,1.700000X1.700000*%
%TD*%
%TA.AperFunction,ComponentPad*%
%ADD19C,3.500000*%
%TD*%
%TA.AperFunction,ViaPad*%
%ADD20C,0.800000*%
%TD*%
%TA.AperFunction,Conductor*%
%ADD21C,0.250000*%
%TD*%
G04 APERTURE END LIST*
D10*
%TO.P,SW1,1*%
%TO.N,D10*%
X144780000Y-71882000D03*
D11*
%TO.P,SW1,2*%
%TO.N,D11*%
X144780000Y-74422000D03*
%TO.P,SW1,3*%
%TO.N,D43*%
X144780000Y-76962000D03*
%TO.P,SW1,4*%
%TO.N,D44*%
X144780000Y-79502000D03*
%TO.P,SW1,5*%
%TO.N,GND*%
X152400000Y-79502000D03*
%TO.P,SW1,6*%
X152400000Y-76962000D03*
%TO.P,SW1,7*%
X152400000Y-74422000D03*
%TO.P,SW1,8*%
X152400000Y-71882000D03*
%TD*%
D12*
%TO.P,C1,1*%
%TO.N,+5VD*%
X149270323Y-127508000D03*
D13*
%TO.P,C1,2*%
%TO.N,GND*%
X144270323Y-127508000D03*
%TD*%
D14*
%TO.P,J4,1*%
%TO.N,GND*%
X161950000Y-119246000D03*
%TO.P,J4,2*%
X161950000Y-126746000D03*
%TO.P,J4,3*%
%TO.N,+5VD*%
X161950000Y-134246000D03*
%TO.P,J4,4*%
%TO.N,-5V*%
X159450000Y-121746000D03*
%TO.P,J4,5*%
%TO.N,+12V*%
X159450000Y-131746000D03*
%TO.P,J4,6*%
%TO.N,N/C*%
X171450000Y-121746000D03*
%TO.P,J4,7*%
X171450000Y-131746000D03*
%TD*%
D12*
%TO.P,C2,1*%
%TO.N,+5VD*%
X149352000Y-139446000D03*
D13*
%TO.P,C2,2*%
%TO.N,GND*%
X144352000Y-139446000D03*
%TD*%
D15*
%TO.P,J1,1,Pin_1*%
%TO.N,TX*%
X123698000Y-68326000D03*
D16*
%TO.P,J1,2,Pin_2*%
%TO.N,D44*%
X121158000Y-68326000D03*
%TO.P,J1,3,Pin_3*%
%TO.N,RX*%
X123698000Y-70866000D03*
%TO.P,J1,4,Pin_4*%
%TO.N,D43*%
X121158000Y-70866000D03*
%TO.P,J1,5,Pin_5*%
%TO.N,D10*%
X123698000Y-73406000D03*
%TO.P,J1,6,Pin_6*%
%TO.N,D11*%
X121158000Y-73406000D03*
%TD*%
D14*
%TO.P,TP2,1,1*%
%TO.N,Net-(C8-Pad1)*%
X136398000Y-122682000D03*
%TD*%
D15*
%TO.P,J5,1,Pin_1*%
%TO.N,GND*%
X123698000Y-137160000D03*
D16*
%TO.P,J5,2,Pin_2*%
%TO.N,+3V0*%
X121158000Y-137160000D03*
%TO.P,J5,3,Pin_3*%
%TO.N,+5VD*%
X123698000Y-139700000D03*
%TO.P,J5,4,Pin_4*%
%TO.N,SDA*%
X121158000Y-139700000D03*
%TO.P,J5,5,Pin_5*%
%TO.N,GND*%
X123698000Y-142240000D03*
%TO.P,J5,6,Pin_6*%
%TO.N,SCL*%
X121158000Y-142240000D03*
%TD*%
D17*
%TO.P,RV2,1,1*%
%TO.N,Net-(R8-Pad2)*%
X146573000Y-116586000D03*
%TO.P,RV2,2,2*%
%TO.N,Net-(R14-Pad2)*%
X149113000Y-114046000D03*
%TO.P,RV2,3,3*%
%TO.N,Net-(R18-Pad1)*%
X146573000Y-111506000D03*
%TD*%
D18*
%TO.P,J2,1,Pin_1*%
%TO.N,GND*%
X137399000Y-68580000D03*
D16*
%TO.P,J2,2,Pin_2*%
%TO.N,RX*%
X134859000Y-68580000D03*
%TO.P,J2,3,Pin_3*%
%TO.N,TX*%
X132319000Y-68580000D03*
%TD*%
D14*
%TO.P,TP1,1,1*%
%TO.N,Net-(U1D--)*%
X136144000Y-80010000D03*
%TD*%
D19*
%TO.P,J3,1,Pin_1*%
%TO.N,GND*%
X166082500Y-108195000D03*
%TO.P,J3,2,Pin_2*%
X166082500Y-98665000D03*
%TO.P,J3,3,Pin_3*%
X166082500Y-89135000D03*
%TO.P,J3,4,Pin_4*%
%TO.N,E23_INPUT*%
X166082500Y-79605000D03*
%TD*%
D17*
%TO.P,RV1,1,1*%
%TO.N,Net-(R6-Pad1)*%
X146558000Y-104140000D03*
%TO.P,RV1,2,2*%
%TO.N,Net-(R22-Pad2)*%
X149098000Y-101600000D03*
%TO.P,RV1,3,3*%
%TO.N,Net-(R17-Pad2)*%
X146558000Y-99060000D03*
%TD*%
D20*
%TO.N,+5VD*%
X128524000Y-108204000D03*
X134061200Y-94691200D03*
X125501400Y-91922600D03*
X124561600Y-111328200D03*
%TO.N,SDA*%
X105156000Y-122428000D03*
%TO.N,Net-(U1C--)*%
X113538000Y-95250000D03*
X113284000Y-91440000D03*
X135382000Y-84074000D03*
X121158000Y-82550000D03*
%TO.N,-5V*%
X115925600Y-111302800D03*
X116789200Y-91948000D03*
%TO.N,AN0*%
X131318000Y-120396000D03*
X123698000Y-128016000D03*
%TO.N,+3V0*%
X123698000Y-125476000D03*
%TO.N,GND*%
X133096000Y-107188000D03*
X130048000Y-101854000D03*
%TO.N,Net-(R8-Pad2)*%
X137160000Y-93472000D03*
%TO.N,Net-(C3-Pad2)*%
X134620000Y-89662000D03*
X127254000Y-91694000D03*
%TO.N,Net-(C8-Pad2)*%
X129286000Y-119126000D03*
X128016000Y-109474000D03*
%TO.N,Net-(R6-Pad1)*%
X137160000Y-91694000D03*
%TO.N,Net-(R14-Pad2)*%
X126111000Y-97663000D03*
%TO.N,Net-(R22-Pad2)*%
X144272000Y-94996000D03*
%TD*%
D21*
%TO.N,+5VD*%
X134366000Y-120396000D02*
X142240000Y-120396000D01*
X129794000Y-115824000D02*
X134366000Y-120396000D01*
X144485161Y-122722838D02*
X149270323Y-127508000D01*
X125730000Y-108204000D02*
X128524000Y-108204000D01*
X144485161Y-122641161D02*
X144485161Y-122722838D01*
X134061200Y-94691200D02*
X128270000Y-94691200D01*
X128270000Y-94691200D02*
X125501400Y-91922600D01*
X124561600Y-111328200D02*
X124561600Y-109372400D01*
X128524000Y-108204000D02*
X129794000Y-109474000D01*
X129794000Y-109474000D02*
X129794000Y-115824000D01*
X124561600Y-109372400D02*
X125730000Y-108204000D01*
X142240000Y-120396000D02*
X144485161Y-122641161D01*
%TO.N,SDA*%
X109220000Y-139700000D02*
X121158000Y-139700000D01*
X103124000Y-124460000D02*
X103124000Y-133604000D01*
X103124000Y-133604000D02*
X109220000Y-139700000D01*
X105156000Y-122428000D02*
X103124000Y-124460000D01*
%TO.N,D43*%
X143796500Y-75946000D02*
X120650000Y-75946000D01*
X120650000Y-75946000D02*
X119380000Y-74676000D01*
X144822500Y-76972000D02*
X143796500Y-75946000D01*
X119380000Y-72644000D02*
X121158000Y-70866000D01*
X119380000Y-74676000D02*
X119380000Y-72644000D01*
%TO.N,D44*%
X118872000Y-70612000D02*
X121158000Y-68326000D01*
X119888000Y-76454000D02*
X118872000Y-75438000D01*
X141764500Y-76454000D02*
X119888000Y-76454000D01*
X118872000Y-75438000D02*
X118872000Y-70612000D01*
X144822500Y-79512000D02*
X141764500Y-76454000D01*
%TO.N,TX*%
X132319000Y-68580000D02*
X123952000Y-68580000D01*
X123952000Y-68580000D02*
X123698000Y-68326000D01*
%TO.N,D10*%
X144822500Y-71892000D02*
X125212000Y-71892000D01*
X125212000Y-71892000D02*
X123698000Y-73406000D01*
%TO.N,D11*%
X144822500Y-74432000D02*
X144070500Y-75184000D01*
X122936000Y-75184000D02*
X121158000Y-73406000D01*
X144070500Y-75184000D02*
X122936000Y-75184000D01*
%TO.N,RX*%
X134859000Y-68580000D02*
X132573000Y-70866000D01*
X132573000Y-70866000D02*
X123698000Y-70866000D01*
%TO.N,Net-(U1C--)*%
X113284000Y-94996000D02*
X113538000Y-95250000D01*
X113284000Y-91440000D02*
X113284000Y-94996000D01*
X135382000Y-84074000D02*
X122682000Y-84074000D01*
X122682000Y-84074000D02*
X121158000Y-82550000D01*
%TO.N,-5V*%
X144146396Y-121666000D02*
X159370000Y-121666000D01*
X116789200Y-96215200D02*
X123698000Y-103124000D01*
X116789200Y-91948000D02*
X116789200Y-96215200D01*
X117094000Y-103124000D02*
X115824000Y-104394000D01*
X115925600Y-111302800D02*
X115824000Y-111201200D01*
X131064000Y-116078000D02*
X134932000Y-119946000D01*
X159370000Y-121666000D02*
X159450000Y-121746000D01*
X134932000Y-119946000D02*
X142426396Y-119946000D01*
X115824000Y-111201200D02*
X115824000Y-104394000D01*
X131064000Y-109220000D02*
X131064000Y-116078000D01*
X142426396Y-119946000D02*
X144146396Y-121666000D01*
X123698000Y-103124000D02*
X117094000Y-103124000D01*
X124968000Y-103124000D02*
X131064000Y-109220000D01*
X123698000Y-103124000D02*
X124968000Y-103124000D01*
%TO.N,AN0*%
X123698000Y-128016000D02*
X131318000Y-120396000D01*
%TO.N,+3V0*%
X123952000Y-125730000D02*
X123952000Y-126492000D01*
X123952000Y-126492000D02*
X122936000Y-127508000D01*
X123698000Y-125476000D02*
X123952000Y-125730000D01*
X122936000Y-127508000D02*
X122936000Y-132080000D01*
X122936000Y-132080000D02*
X121158000Y-133858000D01*
X121158000Y-133858000D02*
X121158000Y-137160000D01*
%TO.N,GND*%
X152442500Y-79512000D02*
X152442500Y-76972000D01*
X130048000Y-101854000D02*
X130048000Y-104140000D01*
X152442500Y-74432000D02*
X152442500Y-71892000D01*
X149130500Y-68580000D02*
X152442500Y-71892000D01*
X145154000Y-119246000D02*
X133096000Y-107188000D01*
X130048000Y-104140000D02*
X133096000Y-107188000D01*
X152442500Y-76972000D02*
X152442500Y-74432000D01*
X161950000Y-119246000D02*
X145154000Y-119246000D01*
X166082500Y-98665000D02*
X166082500Y-89135000D01*
X137399000Y-68580000D02*
X149130500Y-68580000D01*
%TO.N,Net-(R8-Pad2)*%
X137160000Y-93472000D02*
X138684000Y-94996000D01*
X138684000Y-94996000D02*
X138684000Y-108697000D01*
X138684000Y-108697000D02*
X146573000Y-116586000D01*
%TO.N,Net-(C3-Pad2)*%
X132588000Y-91694000D02*
X134620000Y-89662000D01*
X127254000Y-91694000D02*
X132588000Y-91694000D01*
%TO.N,Net-(C8-Pad2)*%
X129286000Y-119126000D02*
X128016000Y-117856000D01*
X128016000Y-117856000D02*
X128016000Y-109474000D01*
%TO.N,Net-(R6-Pad1)*%
X143256000Y-97282000D02*
X143256000Y-100838000D01*
X137160000Y-91694000D02*
X137668000Y-91694000D01*
X143256000Y-100838000D02*
X146558000Y-104140000D01*
X137668000Y-91694000D02*
X143256000Y-97282000D01*
%TO.N,Net-(R14-Pad2)*%
X148336000Y-118364000D02*
X149113000Y-117587000D01*
X128778000Y-100330000D02*
X134874000Y-100330000D01*
X137668000Y-103124000D02*
X137668000Y-110744000D01*
X145288000Y-118364000D02*
X148336000Y-118364000D01*
X134874000Y-100330000D02*
X137668000Y-103124000D01*
X126111000Y-97663000D02*
X128778000Y-100330000D01*
X149113000Y-117587000D02*
X149113000Y-114046000D01*
X137668000Y-110744000D02*
X145288000Y-118364000D01*
%TO.N,Net-(R22-Pad2)*%
X147574000Y-94996000D02*
X149098000Y-96520000D01*
X144272000Y-94996000D02*
X147574000Y-94996000D01*
X149098000Y-96520000D02*
X149098000Y-101600000D01*
%TD*%
M02*
