%TF.GenerationSoftware,KiCad,Pcbnew,8.0.4*%
%TF.CreationDate,2024-09-09T14:05:50-07:00*%
%TF.ProjectId,Bottom_Board,426f7474-6f6d-45f4-926f-6172642e6b69,0*%
%TF.SameCoordinates,Original*%
%TF.FileFunction,Drillmap*%
%TF.FilePolarity,Positive*%
%FSLAX45Y45*%
G04 Gerber Fmt 4.5, Leading zero omitted, Abs format (unit mm)*
G04 Created by KiCad (PCBNEW 8.0.4) date 2024-09-09 14:05:50*
%MOMM*%
%LPD*%
G01*
G04 APERTURE LIST*
%ADD10C,0.100000*%
%ADD11C,0.200000*%
%ADD12C,0.150000*%
%ADD13C,0.170000*%
%ADD14C,0.185000*%
G04 APERTURE END LIST*
D10*
X9999580Y-6490720D02*
G75*
G02*
X10190300Y-6300000I190720J0D01*
G01*
X17284280Y-6299580D02*
G75*
G02*
X17475000Y-6490300I0J-190720D01*
G01*
X17284700Y-14749580D02*
X10190720Y-14750420D01*
X17475000Y-14559280D02*
G75*
G02*
X17284700Y-14749580I-190300J0D01*
G01*
X10190300Y-6300000D02*
X17284280Y-6299580D01*
X17475000Y-6490300D02*
X17475000Y-14559280D01*
X10000000Y-14559700D02*
X9999580Y-6490720D01*
X10190720Y-14750420D02*
G75*
G02*
X10000000Y-14559700I0J190720D01*
G01*
D11*
D10*
X10495600Y-12222800D02*
X10535600Y-12262800D01*
X10535600Y-12222800D02*
X10495600Y-12262800D01*
X11049320Y-8461060D02*
X11089320Y-8501060D01*
X11089320Y-8461060D02*
X11049320Y-8501060D01*
X11110280Y-7734620D02*
X11150280Y-7774620D01*
X11150280Y-7734620D02*
X11110280Y-7774620D01*
X11206800Y-8913180D02*
X11246800Y-8953180D01*
X11246800Y-8913180D02*
X11206800Y-8953180D01*
X11333800Y-9505000D02*
X11373800Y-9545000D01*
X11373800Y-9505000D02*
X11333800Y-9545000D01*
X11572560Y-11110280D02*
X11612560Y-11150280D01*
X11612560Y-11110280D02*
X11572560Y-11150280D01*
X11658920Y-9174800D02*
X11698920Y-9214800D01*
X11698920Y-9174800D02*
X11658920Y-9214800D01*
X12011980Y-11740200D02*
X12051980Y-11780200D01*
X12051980Y-11740200D02*
X12011980Y-11780200D01*
X12095800Y-8235000D02*
X12135800Y-8275000D01*
X12135800Y-8235000D02*
X12095800Y-8275000D01*
X12349800Y-12527600D02*
X12389800Y-12567600D01*
X12389800Y-12527600D02*
X12349800Y-12567600D01*
X12349800Y-12781600D02*
X12389800Y-12821600D01*
X12389800Y-12781600D02*
X12349800Y-12821600D01*
X12436160Y-11112820D02*
X12476160Y-11152820D01*
X12476160Y-11112820D02*
X12436160Y-11152820D01*
X12530140Y-9172260D02*
X12570140Y-9212260D01*
X12570140Y-9172260D02*
X12530140Y-9212260D01*
X12591100Y-9746300D02*
X12631100Y-9786300D01*
X12631100Y-9746300D02*
X12591100Y-9786300D01*
X12591100Y-10223820D02*
X12631100Y-10263820D01*
X12631100Y-10223820D02*
X12591100Y-10263820D01*
X12705400Y-9149400D02*
X12745400Y-9189400D01*
X12745400Y-9149400D02*
X12705400Y-9189400D01*
X12781600Y-10927400D02*
X12821600Y-10967400D01*
X12821600Y-10927400D02*
X12781600Y-10967400D01*
X12832400Y-10800400D02*
X12872400Y-10840400D01*
X12872400Y-10800400D02*
X12832400Y-10840400D01*
X12908600Y-11892600D02*
X12948600Y-11932600D01*
X12948600Y-11892600D02*
X12908600Y-11932600D01*
X12913680Y-10449880D02*
X12953680Y-10489880D01*
X12953680Y-10449880D02*
X12913680Y-10489880D01*
X13111800Y-12019600D02*
X13151800Y-12059600D01*
X13151800Y-12019600D02*
X13111800Y-12059600D01*
X13289600Y-10698800D02*
X13329600Y-10738800D01*
X13329600Y-10698800D02*
X13289600Y-10738800D01*
X13302300Y-10447340D02*
X13342300Y-10487340D01*
X13342300Y-10447340D02*
X13302300Y-10487340D01*
X13386120Y-9449120D02*
X13426120Y-9489120D01*
X13426120Y-9449120D02*
X13386120Y-9489120D01*
X13442000Y-8946200D02*
X13482000Y-8986200D01*
X13482000Y-8946200D02*
X13442000Y-8986200D01*
X13518200Y-8387400D02*
X13558200Y-8427400D01*
X13558200Y-8387400D02*
X13518200Y-8427400D01*
X13655360Y-10454960D02*
X13695360Y-10494960D01*
X13695360Y-10454960D02*
X13655360Y-10494960D01*
X13696000Y-9149400D02*
X13736000Y-9189400D01*
X13736000Y-9149400D02*
X13696000Y-9189400D01*
X13696000Y-9327200D02*
X13736000Y-9367200D01*
X13736000Y-9327200D02*
X13696000Y-9367200D01*
X14407200Y-9479600D02*
X14447200Y-9519600D01*
X14447200Y-9479600D02*
X14407200Y-9519600D01*
X14518000Y-7188200D02*
G75*
G02*
X14438000Y-7188200I-40000J0D01*
G01*
X14438000Y-7188200D02*
G75*
G02*
X14518000Y-7188200I40000J0D01*
G01*
X14518000Y-7442200D02*
G75*
G02*
X14438000Y-7442200I-40000J0D01*
G01*
X14438000Y-7442200D02*
G75*
G02*
X14518000Y-7442200I40000J0D01*
G01*
X14518000Y-7696200D02*
G75*
G02*
X14438000Y-7696200I-40000J0D01*
G01*
X14438000Y-7696200D02*
G75*
G02*
X14518000Y-7696200I40000J0D01*
G01*
X14518000Y-7950200D02*
G75*
G02*
X14438000Y-7950200I-40000J0D01*
G01*
X14438000Y-7950200D02*
G75*
G02*
X14518000Y-7950200I40000J0D01*
G01*
X14695800Y-9906000D02*
G75*
G02*
X14615800Y-9906000I-40000J0D01*
G01*
X14615800Y-9906000D02*
G75*
G02*
X14695800Y-9906000I40000J0D01*
G01*
X14695800Y-10414000D02*
G75*
G02*
X14615800Y-10414000I-40000J0D01*
G01*
X14615800Y-10414000D02*
G75*
G02*
X14695800Y-10414000I40000J0D01*
G01*
X14697300Y-11150600D02*
G75*
G02*
X14617300Y-11150600I-40000J0D01*
G01*
X14617300Y-11150600D02*
G75*
G02*
X14697300Y-11150600I40000J0D01*
G01*
X14697300Y-11658600D02*
G75*
G02*
X14617300Y-11658600I-40000J0D01*
G01*
X14617300Y-11658600D02*
G75*
G02*
X14697300Y-11658600I40000J0D01*
G01*
X14949800Y-10160000D02*
G75*
G02*
X14869800Y-10160000I-40000J0D01*
G01*
X14869800Y-10160000D02*
G75*
G02*
X14949800Y-10160000I40000J0D01*
G01*
X14951300Y-11404600D02*
G75*
G02*
X14871300Y-11404600I-40000J0D01*
G01*
X14871300Y-11404600D02*
G75*
G02*
X14951300Y-11404600I40000J0D01*
G01*
X15280000Y-7188200D02*
G75*
G02*
X15200000Y-7188200I-40000J0D01*
G01*
X15200000Y-7188200D02*
G75*
G02*
X15280000Y-7188200I40000J0D01*
G01*
X15280000Y-7442200D02*
G75*
G02*
X15200000Y-7442200I-40000J0D01*
G01*
X15200000Y-7442200D02*
G75*
G02*
X15280000Y-7442200I40000J0D01*
G01*
X15280000Y-7696200D02*
G75*
G02*
X15200000Y-7696200I-40000J0D01*
G01*
X15200000Y-7696200D02*
G75*
G02*
X15280000Y-7696200I40000J0D01*
G01*
X15280000Y-7950200D02*
G75*
G02*
X15200000Y-7950200I-40000J0D01*
G01*
X15200000Y-7950200D02*
G75*
G02*
X15280000Y-7950200I40000J0D01*
G01*
X12115800Y-6782600D02*
X12115800Y-6882600D01*
X12065800Y-6832600D02*
X12165800Y-6832600D01*
X12115800Y-7036600D02*
X12115800Y-7136600D01*
X12065800Y-7086600D02*
X12165800Y-7086600D01*
X12115800Y-7290600D02*
X12115800Y-7390600D01*
X12065800Y-7340600D02*
X12165800Y-7340600D01*
X12115800Y-13666000D02*
X12115800Y-13766000D01*
X12065800Y-13716000D02*
X12165800Y-13716000D01*
X12115800Y-13920000D02*
X12115800Y-14020000D01*
X12065800Y-13970000D02*
X12165800Y-13970000D01*
X12115800Y-14174000D02*
X12115800Y-14274000D01*
X12065800Y-14224000D02*
X12165800Y-14224000D01*
X12369800Y-6782600D02*
X12369800Y-6882600D01*
X12319800Y-6832600D02*
X12419800Y-6832600D01*
X12369800Y-7036600D02*
X12369800Y-7136600D01*
X12319800Y-7086600D02*
X12419800Y-7086600D01*
X12369800Y-7290600D02*
X12369800Y-7390600D01*
X12319800Y-7340600D02*
X12419800Y-7340600D01*
X12369800Y-13666000D02*
X12369800Y-13766000D01*
X12319800Y-13716000D02*
X12419800Y-13716000D01*
X12369800Y-13920000D02*
X12369800Y-14020000D01*
X12319800Y-13970000D02*
X12419800Y-13970000D01*
X12369800Y-14174000D02*
X12369800Y-14274000D01*
X12319800Y-14224000D02*
X12419800Y-14224000D01*
X13231900Y-6808000D02*
X13231900Y-6908000D01*
X13181900Y-6858000D02*
X13281900Y-6858000D01*
X13485900Y-6808000D02*
X13485900Y-6908000D01*
X13435900Y-6858000D02*
X13535900Y-6858000D01*
X13739900Y-6808000D02*
X13739900Y-6908000D01*
X13689900Y-6858000D02*
X13789900Y-6858000D01*
X14427032Y-12700800D02*
X14427032Y-12800800D01*
X14377032Y-12750800D02*
X14477032Y-12750800D01*
X14435200Y-13894600D02*
X14435200Y-13994600D01*
X14385200Y-13944600D02*
X14485200Y-13944600D01*
X14927032Y-12700800D02*
X14927032Y-12800800D01*
X14877032Y-12750800D02*
X14977032Y-12750800D01*
X14935200Y-13894600D02*
X14935200Y-13994600D01*
X14885200Y-13944600D02*
X14985200Y-13944600D01*
D12*
X13667433Y-8054033D02*
X13667433Y-7947966D01*
X13561366Y-7947966D01*
X13561366Y-8054033D01*
X13667433Y-8054033D01*
X13692833Y-12321233D02*
X13692833Y-12215166D01*
X13586766Y-12215166D01*
X13586766Y-12321233D01*
X13692833Y-12321233D01*
D13*
X15945000Y-12259600D02*
X16030000Y-12174600D01*
X15945000Y-12089600D01*
X15860000Y-12174600D01*
X15945000Y-12259600D01*
X15945000Y-13259600D02*
X16030000Y-13174600D01*
X15945000Y-13089600D01*
X15860000Y-13174600D01*
X15945000Y-13259600D01*
X16195000Y-12009600D02*
X16280000Y-11924600D01*
X16195000Y-11839600D01*
X16110000Y-11924600D01*
X16195000Y-12009600D01*
X16195000Y-12759600D02*
X16280000Y-12674600D01*
X16195000Y-12589600D01*
X16110000Y-12674600D01*
X16195000Y-12759600D01*
X16195000Y-13509600D02*
X16280000Y-13424600D01*
X16195000Y-13339600D01*
X16110000Y-13424600D01*
X16195000Y-13509600D01*
X17145000Y-12259600D02*
X17230000Y-12174600D01*
X17145000Y-12089600D01*
X17060000Y-12174600D01*
X17145000Y-12259600D01*
X17145000Y-13259600D02*
X17230000Y-13174600D01*
X17145000Y-13089600D01*
X17060000Y-13174600D01*
X17145000Y-13259600D01*
D14*
X16515750Y-7868000D02*
X16700750Y-8053000D01*
X16700750Y-7868000D02*
X16515750Y-8053000D01*
X16700750Y-7960500D02*
G75*
G02*
X16515750Y-7960500I-92500J0D01*
G01*
X16515750Y-7960500D02*
G75*
G02*
X16700750Y-7960500I92500J0D01*
G01*
X16515750Y-8821000D02*
X16700750Y-9006000D01*
X16700750Y-8821000D02*
X16515750Y-9006000D01*
X16700750Y-8913500D02*
G75*
G02*
X16515750Y-8913500I-92500J0D01*
G01*
X16515750Y-8913500D02*
G75*
G02*
X16700750Y-8913500I92500J0D01*
G01*
X16515750Y-9774000D02*
X16700750Y-9959000D01*
X16700750Y-9774000D02*
X16515750Y-9959000D01*
X16700750Y-9866500D02*
G75*
G02*
X16515750Y-9866500I-92500J0D01*
G01*
X16515750Y-9866500D02*
G75*
G02*
X16700750Y-9866500I92500J0D01*
G01*
X16515750Y-10727000D02*
X16700750Y-10912000D01*
X16700750Y-10727000D02*
X16515750Y-10912000D01*
X16700750Y-10819500D02*
G75*
G02*
X16515750Y-10819500I-92500J0D01*
G01*
X16515750Y-10819500D02*
G75*
G02*
X16700750Y-10819500I92500J0D01*
G01*
D11*
X10255357Y-15066904D02*
X10255357Y-14866904D01*
X10255357Y-14866904D02*
X10302976Y-14866904D01*
X10302976Y-14866904D02*
X10331547Y-14876428D01*
X10331547Y-14876428D02*
X10350595Y-14895475D01*
X10350595Y-14895475D02*
X10360119Y-14914523D01*
X10360119Y-14914523D02*
X10369643Y-14952618D01*
X10369643Y-14952618D02*
X10369643Y-14981189D01*
X10369643Y-14981189D02*
X10360119Y-15019285D01*
X10360119Y-15019285D02*
X10350595Y-15038332D01*
X10350595Y-15038332D02*
X10331547Y-15057380D01*
X10331547Y-15057380D02*
X10302976Y-15066904D01*
X10302976Y-15066904D02*
X10255357Y-15066904D01*
X10455357Y-15066904D02*
X10455357Y-14933570D01*
X10455357Y-14971666D02*
X10464881Y-14952618D01*
X10464881Y-14952618D02*
X10474404Y-14943094D01*
X10474404Y-14943094D02*
X10493452Y-14933570D01*
X10493452Y-14933570D02*
X10512500Y-14933570D01*
X10579166Y-15066904D02*
X10579166Y-14933570D01*
X10579166Y-14866904D02*
X10569643Y-14876428D01*
X10569643Y-14876428D02*
X10579166Y-14885951D01*
X10579166Y-14885951D02*
X10588690Y-14876428D01*
X10588690Y-14876428D02*
X10579166Y-14866904D01*
X10579166Y-14866904D02*
X10579166Y-14885951D01*
X10702976Y-15066904D02*
X10683928Y-15057380D01*
X10683928Y-15057380D02*
X10674404Y-15038332D01*
X10674404Y-15038332D02*
X10674404Y-14866904D01*
X10807738Y-15066904D02*
X10788690Y-15057380D01*
X10788690Y-15057380D02*
X10779166Y-15038332D01*
X10779166Y-15038332D02*
X10779166Y-14866904D01*
X11036309Y-15066904D02*
X11036309Y-14866904D01*
X11036309Y-14866904D02*
X11102976Y-15009761D01*
X11102976Y-15009761D02*
X11169643Y-14866904D01*
X11169643Y-14866904D02*
X11169643Y-15066904D01*
X11350595Y-15066904D02*
X11350595Y-14962142D01*
X11350595Y-14962142D02*
X11341071Y-14943094D01*
X11341071Y-14943094D02*
X11322023Y-14933570D01*
X11322023Y-14933570D02*
X11283928Y-14933570D01*
X11283928Y-14933570D02*
X11264881Y-14943094D01*
X11350595Y-15057380D02*
X11331547Y-15066904D01*
X11331547Y-15066904D02*
X11283928Y-15066904D01*
X11283928Y-15066904D02*
X11264881Y-15057380D01*
X11264881Y-15057380D02*
X11255357Y-15038332D01*
X11255357Y-15038332D02*
X11255357Y-15019285D01*
X11255357Y-15019285D02*
X11264881Y-15000237D01*
X11264881Y-15000237D02*
X11283928Y-14990713D01*
X11283928Y-14990713D02*
X11331547Y-14990713D01*
X11331547Y-14990713D02*
X11350595Y-14981189D01*
X11445833Y-14933570D02*
X11445833Y-15133570D01*
X11445833Y-14943094D02*
X11464881Y-14933570D01*
X11464881Y-14933570D02*
X11502976Y-14933570D01*
X11502976Y-14933570D02*
X11522023Y-14943094D01*
X11522023Y-14943094D02*
X11531547Y-14952618D01*
X11531547Y-14952618D02*
X11541071Y-14971666D01*
X11541071Y-14971666D02*
X11541071Y-15028808D01*
X11541071Y-15028808D02*
X11531547Y-15047856D01*
X11531547Y-15047856D02*
X11522023Y-15057380D01*
X11522023Y-15057380D02*
X11502976Y-15066904D01*
X11502976Y-15066904D02*
X11464881Y-15066904D01*
X11464881Y-15066904D02*
X11445833Y-15057380D01*
X11626785Y-15047856D02*
X11636309Y-15057380D01*
X11636309Y-15057380D02*
X11626785Y-15066904D01*
X11626785Y-15066904D02*
X11617262Y-15057380D01*
X11617262Y-15057380D02*
X11626785Y-15047856D01*
X11626785Y-15047856D02*
X11626785Y-15066904D01*
X11626785Y-14943094D02*
X11636309Y-14952618D01*
X11636309Y-14952618D02*
X11626785Y-14962142D01*
X11626785Y-14962142D02*
X11617262Y-14952618D01*
X11617262Y-14952618D02*
X11626785Y-14943094D01*
X11626785Y-14943094D02*
X11626785Y-14962142D01*
D10*
X9954580Y-15375420D02*
X9994580Y-15415420D01*
X9994580Y-15375420D02*
X9954580Y-15415420D01*
D11*
X10293452Y-15286904D02*
X10312500Y-15286904D01*
X10312500Y-15286904D02*
X10331547Y-15296428D01*
X10331547Y-15296428D02*
X10341071Y-15305951D01*
X10341071Y-15305951D02*
X10350595Y-15324999D01*
X10350595Y-15324999D02*
X10360119Y-15363094D01*
X10360119Y-15363094D02*
X10360119Y-15410713D01*
X10360119Y-15410713D02*
X10350595Y-15448808D01*
X10350595Y-15448808D02*
X10341071Y-15467856D01*
X10341071Y-15467856D02*
X10331547Y-15477380D01*
X10331547Y-15477380D02*
X10312500Y-15486904D01*
X10312500Y-15486904D02*
X10293452Y-15486904D01*
X10293452Y-15486904D02*
X10274404Y-15477380D01*
X10274404Y-15477380D02*
X10264881Y-15467856D01*
X10264881Y-15467856D02*
X10255357Y-15448808D01*
X10255357Y-15448808D02*
X10245833Y-15410713D01*
X10245833Y-15410713D02*
X10245833Y-15363094D01*
X10245833Y-15363094D02*
X10255357Y-15324999D01*
X10255357Y-15324999D02*
X10264881Y-15305951D01*
X10264881Y-15305951D02*
X10274404Y-15296428D01*
X10274404Y-15296428D02*
X10293452Y-15286904D01*
X10445833Y-15467856D02*
X10455357Y-15477380D01*
X10455357Y-15477380D02*
X10445833Y-15486904D01*
X10445833Y-15486904D02*
X10436309Y-15477380D01*
X10436309Y-15477380D02*
X10445833Y-15467856D01*
X10445833Y-15467856D02*
X10445833Y-15486904D01*
X10626785Y-15353570D02*
X10626785Y-15486904D01*
X10579166Y-15277380D02*
X10531547Y-15420237D01*
X10531547Y-15420237D02*
X10655357Y-15420237D01*
X10769643Y-15286904D02*
X10788690Y-15286904D01*
X10788690Y-15286904D02*
X10807738Y-15296428D01*
X10807738Y-15296428D02*
X10817262Y-15305951D01*
X10817262Y-15305951D02*
X10826785Y-15324999D01*
X10826785Y-15324999D02*
X10836309Y-15363094D01*
X10836309Y-15363094D02*
X10836309Y-15410713D01*
X10836309Y-15410713D02*
X10826785Y-15448808D01*
X10826785Y-15448808D02*
X10817262Y-15467856D01*
X10817262Y-15467856D02*
X10807738Y-15477380D01*
X10807738Y-15477380D02*
X10788690Y-15486904D01*
X10788690Y-15486904D02*
X10769643Y-15486904D01*
X10769643Y-15486904D02*
X10750595Y-15477380D01*
X10750595Y-15477380D02*
X10741071Y-15467856D01*
X10741071Y-15467856D02*
X10731547Y-15448808D01*
X10731547Y-15448808D02*
X10722024Y-15410713D01*
X10722024Y-15410713D02*
X10722024Y-15363094D01*
X10722024Y-15363094D02*
X10731547Y-15324999D01*
X10731547Y-15324999D02*
X10741071Y-15305951D01*
X10741071Y-15305951D02*
X10750595Y-15296428D01*
X10750595Y-15296428D02*
X10769643Y-15286904D01*
X10960119Y-15286904D02*
X10979166Y-15286904D01*
X10979166Y-15286904D02*
X10998214Y-15296428D01*
X10998214Y-15296428D02*
X11007738Y-15305951D01*
X11007738Y-15305951D02*
X11017262Y-15324999D01*
X11017262Y-15324999D02*
X11026785Y-15363094D01*
X11026785Y-15363094D02*
X11026785Y-15410713D01*
X11026785Y-15410713D02*
X11017262Y-15448808D01*
X11017262Y-15448808D02*
X11007738Y-15467856D01*
X11007738Y-15467856D02*
X10998214Y-15477380D01*
X10998214Y-15477380D02*
X10979166Y-15486904D01*
X10979166Y-15486904D02*
X10960119Y-15486904D01*
X10960119Y-15486904D02*
X10941071Y-15477380D01*
X10941071Y-15477380D02*
X10931547Y-15467856D01*
X10931547Y-15467856D02*
X10922024Y-15448808D01*
X10922024Y-15448808D02*
X10912500Y-15410713D01*
X10912500Y-15410713D02*
X10912500Y-15363094D01*
X10912500Y-15363094D02*
X10922024Y-15324999D01*
X10922024Y-15324999D02*
X10931547Y-15305951D01*
X10931547Y-15305951D02*
X10941071Y-15296428D01*
X10941071Y-15296428D02*
X10960119Y-15286904D01*
X11112500Y-15486904D02*
X11112500Y-15353570D01*
X11112500Y-15372618D02*
X11122024Y-15363094D01*
X11122024Y-15363094D02*
X11141071Y-15353570D01*
X11141071Y-15353570D02*
X11169643Y-15353570D01*
X11169643Y-15353570D02*
X11188690Y-15363094D01*
X11188690Y-15363094D02*
X11198214Y-15382142D01*
X11198214Y-15382142D02*
X11198214Y-15486904D01*
X11198214Y-15382142D02*
X11207738Y-15363094D01*
X11207738Y-15363094D02*
X11226785Y-15353570D01*
X11226785Y-15353570D02*
X11255357Y-15353570D01*
X11255357Y-15353570D02*
X11274404Y-15363094D01*
X11274404Y-15363094D02*
X11283928Y-15382142D01*
X11283928Y-15382142D02*
X11283928Y-15486904D01*
X11379166Y-15486904D02*
X11379166Y-15353570D01*
X11379166Y-15372618D02*
X11388690Y-15363094D01*
X11388690Y-15363094D02*
X11407738Y-15353570D01*
X11407738Y-15353570D02*
X11436309Y-15353570D01*
X11436309Y-15353570D02*
X11455357Y-15363094D01*
X11455357Y-15363094D02*
X11464881Y-15382142D01*
X11464881Y-15382142D02*
X11464881Y-15486904D01*
X11464881Y-15382142D02*
X11474404Y-15363094D01*
X11474404Y-15363094D02*
X11493452Y-15353570D01*
X11493452Y-15353570D02*
X11522023Y-15353570D01*
X11522023Y-15353570D02*
X11541071Y-15363094D01*
X11541071Y-15363094D02*
X11550595Y-15382142D01*
X11550595Y-15382142D02*
X11550595Y-15486904D01*
X11941071Y-15277380D02*
X11769643Y-15534523D01*
X12198214Y-15286904D02*
X12217262Y-15286904D01*
X12217262Y-15286904D02*
X12236309Y-15296428D01*
X12236309Y-15296428D02*
X12245833Y-15305951D01*
X12245833Y-15305951D02*
X12255357Y-15324999D01*
X12255357Y-15324999D02*
X12264881Y-15363094D01*
X12264881Y-15363094D02*
X12264881Y-15410713D01*
X12264881Y-15410713D02*
X12255357Y-15448808D01*
X12255357Y-15448808D02*
X12245833Y-15467856D01*
X12245833Y-15467856D02*
X12236309Y-15477380D01*
X12236309Y-15477380D02*
X12217262Y-15486904D01*
X12217262Y-15486904D02*
X12198214Y-15486904D01*
X12198214Y-15486904D02*
X12179166Y-15477380D01*
X12179166Y-15477380D02*
X12169643Y-15467856D01*
X12169643Y-15467856D02*
X12160119Y-15448808D01*
X12160119Y-15448808D02*
X12150595Y-15410713D01*
X12150595Y-15410713D02*
X12150595Y-15363094D01*
X12150595Y-15363094D02*
X12160119Y-15324999D01*
X12160119Y-15324999D02*
X12169643Y-15305951D01*
X12169643Y-15305951D02*
X12179166Y-15296428D01*
X12179166Y-15296428D02*
X12198214Y-15286904D01*
X12350595Y-15467856D02*
X12360119Y-15477380D01*
X12360119Y-15477380D02*
X12350595Y-15486904D01*
X12350595Y-15486904D02*
X12341071Y-15477380D01*
X12341071Y-15477380D02*
X12350595Y-15467856D01*
X12350595Y-15467856D02*
X12350595Y-15486904D01*
X12483928Y-15286904D02*
X12502976Y-15286904D01*
X12502976Y-15286904D02*
X12522024Y-15296428D01*
X12522024Y-15296428D02*
X12531547Y-15305951D01*
X12531547Y-15305951D02*
X12541071Y-15324999D01*
X12541071Y-15324999D02*
X12550595Y-15363094D01*
X12550595Y-15363094D02*
X12550595Y-15410713D01*
X12550595Y-15410713D02*
X12541071Y-15448808D01*
X12541071Y-15448808D02*
X12531547Y-15467856D01*
X12531547Y-15467856D02*
X12522024Y-15477380D01*
X12522024Y-15477380D02*
X12502976Y-15486904D01*
X12502976Y-15486904D02*
X12483928Y-15486904D01*
X12483928Y-15486904D02*
X12464881Y-15477380D01*
X12464881Y-15477380D02*
X12455357Y-15467856D01*
X12455357Y-15467856D02*
X12445833Y-15448808D01*
X12445833Y-15448808D02*
X12436309Y-15410713D01*
X12436309Y-15410713D02*
X12436309Y-15363094D01*
X12436309Y-15363094D02*
X12445833Y-15324999D01*
X12445833Y-15324999D02*
X12455357Y-15305951D01*
X12455357Y-15305951D02*
X12464881Y-15296428D01*
X12464881Y-15296428D02*
X12483928Y-15286904D01*
X12741071Y-15486904D02*
X12626786Y-15486904D01*
X12683928Y-15486904D02*
X12683928Y-15286904D01*
X12683928Y-15286904D02*
X12664881Y-15315475D01*
X12664881Y-15315475D02*
X12645833Y-15334523D01*
X12645833Y-15334523D02*
X12626786Y-15344047D01*
X12922024Y-15286904D02*
X12826786Y-15286904D01*
X12826786Y-15286904D02*
X12817262Y-15382142D01*
X12817262Y-15382142D02*
X12826786Y-15372618D01*
X12826786Y-15372618D02*
X12845833Y-15363094D01*
X12845833Y-15363094D02*
X12893452Y-15363094D01*
X12893452Y-15363094D02*
X12912500Y-15372618D01*
X12912500Y-15372618D02*
X12922024Y-15382142D01*
X12922024Y-15382142D02*
X12931547Y-15401189D01*
X12931547Y-15401189D02*
X12931547Y-15448808D01*
X12931547Y-15448808D02*
X12922024Y-15467856D01*
X12922024Y-15467856D02*
X12912500Y-15477380D01*
X12912500Y-15477380D02*
X12893452Y-15486904D01*
X12893452Y-15486904D02*
X12845833Y-15486904D01*
X12845833Y-15486904D02*
X12826786Y-15477380D01*
X12826786Y-15477380D02*
X12817262Y-15467856D01*
X12998214Y-15286904D02*
X13131547Y-15286904D01*
X13131547Y-15286904D02*
X13045833Y-15486904D01*
X13198214Y-15286904D02*
X13198214Y-15324999D01*
X13274405Y-15286904D02*
X13274405Y-15324999D01*
X13569643Y-15563094D02*
X13560119Y-15553570D01*
X13560119Y-15553570D02*
X13541071Y-15524999D01*
X13541071Y-15524999D02*
X13531548Y-15505951D01*
X13531548Y-15505951D02*
X13522024Y-15477380D01*
X13522024Y-15477380D02*
X13512500Y-15429761D01*
X13512500Y-15429761D02*
X13512500Y-15391666D01*
X13512500Y-15391666D02*
X13522024Y-15344047D01*
X13522024Y-15344047D02*
X13531548Y-15315475D01*
X13531548Y-15315475D02*
X13541071Y-15296428D01*
X13541071Y-15296428D02*
X13560119Y-15267856D01*
X13560119Y-15267856D02*
X13569643Y-15258332D01*
X13626786Y-15286904D02*
X13750595Y-15286904D01*
X13750595Y-15286904D02*
X13683928Y-15363094D01*
X13683928Y-15363094D02*
X13712500Y-15363094D01*
X13712500Y-15363094D02*
X13731548Y-15372618D01*
X13731548Y-15372618D02*
X13741071Y-15382142D01*
X13741071Y-15382142D02*
X13750595Y-15401189D01*
X13750595Y-15401189D02*
X13750595Y-15448808D01*
X13750595Y-15448808D02*
X13741071Y-15467856D01*
X13741071Y-15467856D02*
X13731548Y-15477380D01*
X13731548Y-15477380D02*
X13712500Y-15486904D01*
X13712500Y-15486904D02*
X13655357Y-15486904D01*
X13655357Y-15486904D02*
X13636309Y-15477380D01*
X13636309Y-15477380D02*
X13626786Y-15467856D01*
X13874405Y-15286904D02*
X13893452Y-15286904D01*
X13893452Y-15286904D02*
X13912500Y-15296428D01*
X13912500Y-15296428D02*
X13922024Y-15305951D01*
X13922024Y-15305951D02*
X13931548Y-15324999D01*
X13931548Y-15324999D02*
X13941071Y-15363094D01*
X13941071Y-15363094D02*
X13941071Y-15410713D01*
X13941071Y-15410713D02*
X13931548Y-15448808D01*
X13931548Y-15448808D02*
X13922024Y-15467856D01*
X13922024Y-15467856D02*
X13912500Y-15477380D01*
X13912500Y-15477380D02*
X13893452Y-15486904D01*
X13893452Y-15486904D02*
X13874405Y-15486904D01*
X13874405Y-15486904D02*
X13855357Y-15477380D01*
X13855357Y-15477380D02*
X13845833Y-15467856D01*
X13845833Y-15467856D02*
X13836309Y-15448808D01*
X13836309Y-15448808D02*
X13826786Y-15410713D01*
X13826786Y-15410713D02*
X13826786Y-15363094D01*
X13826786Y-15363094D02*
X13836309Y-15324999D01*
X13836309Y-15324999D02*
X13845833Y-15305951D01*
X13845833Y-15305951D02*
X13855357Y-15296428D01*
X13855357Y-15296428D02*
X13874405Y-15286904D01*
X14179167Y-15486904D02*
X14179167Y-15286904D01*
X14264881Y-15486904D02*
X14264881Y-15382142D01*
X14264881Y-15382142D02*
X14255357Y-15363094D01*
X14255357Y-15363094D02*
X14236310Y-15353570D01*
X14236310Y-15353570D02*
X14207738Y-15353570D01*
X14207738Y-15353570D02*
X14188690Y-15363094D01*
X14188690Y-15363094D02*
X14179167Y-15372618D01*
X14388690Y-15486904D02*
X14369643Y-15477380D01*
X14369643Y-15477380D02*
X14360119Y-15467856D01*
X14360119Y-15467856D02*
X14350595Y-15448808D01*
X14350595Y-15448808D02*
X14350595Y-15391666D01*
X14350595Y-15391666D02*
X14360119Y-15372618D01*
X14360119Y-15372618D02*
X14369643Y-15363094D01*
X14369643Y-15363094D02*
X14388690Y-15353570D01*
X14388690Y-15353570D02*
X14417262Y-15353570D01*
X14417262Y-15353570D02*
X14436310Y-15363094D01*
X14436310Y-15363094D02*
X14445833Y-15372618D01*
X14445833Y-15372618D02*
X14455357Y-15391666D01*
X14455357Y-15391666D02*
X14455357Y-15448808D01*
X14455357Y-15448808D02*
X14445833Y-15467856D01*
X14445833Y-15467856D02*
X14436310Y-15477380D01*
X14436310Y-15477380D02*
X14417262Y-15486904D01*
X14417262Y-15486904D02*
X14388690Y-15486904D01*
X14569643Y-15486904D02*
X14550595Y-15477380D01*
X14550595Y-15477380D02*
X14541071Y-15458332D01*
X14541071Y-15458332D02*
X14541071Y-15286904D01*
X14722024Y-15477380D02*
X14702976Y-15486904D01*
X14702976Y-15486904D02*
X14664881Y-15486904D01*
X14664881Y-15486904D02*
X14645833Y-15477380D01*
X14645833Y-15477380D02*
X14636310Y-15458332D01*
X14636310Y-15458332D02*
X14636310Y-15382142D01*
X14636310Y-15382142D02*
X14645833Y-15363094D01*
X14645833Y-15363094D02*
X14664881Y-15353570D01*
X14664881Y-15353570D02*
X14702976Y-15353570D01*
X14702976Y-15353570D02*
X14722024Y-15363094D01*
X14722024Y-15363094D02*
X14731548Y-15382142D01*
X14731548Y-15382142D02*
X14731548Y-15401189D01*
X14731548Y-15401189D02*
X14636310Y-15420237D01*
X14807738Y-15477380D02*
X14826786Y-15486904D01*
X14826786Y-15486904D02*
X14864881Y-15486904D01*
X14864881Y-15486904D02*
X14883929Y-15477380D01*
X14883929Y-15477380D02*
X14893452Y-15458332D01*
X14893452Y-15458332D02*
X14893452Y-15448808D01*
X14893452Y-15448808D02*
X14883929Y-15429761D01*
X14883929Y-15429761D02*
X14864881Y-15420237D01*
X14864881Y-15420237D02*
X14836310Y-15420237D01*
X14836310Y-15420237D02*
X14817262Y-15410713D01*
X14817262Y-15410713D02*
X14807738Y-15391666D01*
X14807738Y-15391666D02*
X14807738Y-15382142D01*
X14807738Y-15382142D02*
X14817262Y-15363094D01*
X14817262Y-15363094D02*
X14836310Y-15353570D01*
X14836310Y-15353570D02*
X14864881Y-15353570D01*
X14864881Y-15353570D02*
X14883929Y-15363094D01*
X14960119Y-15563094D02*
X14969643Y-15553570D01*
X14969643Y-15553570D02*
X14988691Y-15524999D01*
X14988691Y-15524999D02*
X14998214Y-15505951D01*
X14998214Y-15505951D02*
X15007738Y-15477380D01*
X15007738Y-15477380D02*
X15017262Y-15429761D01*
X15017262Y-15429761D02*
X15017262Y-15391666D01*
X15017262Y-15391666D02*
X15007738Y-15344047D01*
X15007738Y-15344047D02*
X14998214Y-15315475D01*
X14998214Y-15315475D02*
X14988691Y-15296428D01*
X14988691Y-15296428D02*
X14969643Y-15267856D01*
X14969643Y-15267856D02*
X14960119Y-15258332D01*
D10*
X9994580Y-15659420D02*
G75*
G02*
X9914580Y-15659420I-40000J0D01*
G01*
X9914580Y-15659420D02*
G75*
G02*
X9994580Y-15659420I40000J0D01*
G01*
D11*
X10293452Y-15550904D02*
X10312500Y-15550904D01*
X10312500Y-15550904D02*
X10331547Y-15560428D01*
X10331547Y-15560428D02*
X10341071Y-15569951D01*
X10341071Y-15569951D02*
X10350595Y-15588999D01*
X10350595Y-15588999D02*
X10360119Y-15627094D01*
X10360119Y-15627094D02*
X10360119Y-15674713D01*
X10360119Y-15674713D02*
X10350595Y-15712808D01*
X10350595Y-15712808D02*
X10341071Y-15731856D01*
X10341071Y-15731856D02*
X10331547Y-15741380D01*
X10331547Y-15741380D02*
X10312500Y-15750904D01*
X10312500Y-15750904D02*
X10293452Y-15750904D01*
X10293452Y-15750904D02*
X10274404Y-15741380D01*
X10274404Y-15741380D02*
X10264881Y-15731856D01*
X10264881Y-15731856D02*
X10255357Y-15712808D01*
X10255357Y-15712808D02*
X10245833Y-15674713D01*
X10245833Y-15674713D02*
X10245833Y-15627094D01*
X10245833Y-15627094D02*
X10255357Y-15588999D01*
X10255357Y-15588999D02*
X10264881Y-15569951D01*
X10264881Y-15569951D02*
X10274404Y-15560428D01*
X10274404Y-15560428D02*
X10293452Y-15550904D01*
X10445833Y-15731856D02*
X10455357Y-15741380D01*
X10455357Y-15741380D02*
X10445833Y-15750904D01*
X10445833Y-15750904D02*
X10436309Y-15741380D01*
X10436309Y-15741380D02*
X10445833Y-15731856D01*
X10445833Y-15731856D02*
X10445833Y-15750904D01*
X10569643Y-15636618D02*
X10550595Y-15627094D01*
X10550595Y-15627094D02*
X10541071Y-15617570D01*
X10541071Y-15617570D02*
X10531547Y-15598523D01*
X10531547Y-15598523D02*
X10531547Y-15588999D01*
X10531547Y-15588999D02*
X10541071Y-15569951D01*
X10541071Y-15569951D02*
X10550595Y-15560428D01*
X10550595Y-15560428D02*
X10569643Y-15550904D01*
X10569643Y-15550904D02*
X10607738Y-15550904D01*
X10607738Y-15550904D02*
X10626785Y-15560428D01*
X10626785Y-15560428D02*
X10636309Y-15569951D01*
X10636309Y-15569951D02*
X10645833Y-15588999D01*
X10645833Y-15588999D02*
X10645833Y-15598523D01*
X10645833Y-15598523D02*
X10636309Y-15617570D01*
X10636309Y-15617570D02*
X10626785Y-15627094D01*
X10626785Y-15627094D02*
X10607738Y-15636618D01*
X10607738Y-15636618D02*
X10569643Y-15636618D01*
X10569643Y-15636618D02*
X10550595Y-15646142D01*
X10550595Y-15646142D02*
X10541071Y-15655666D01*
X10541071Y-15655666D02*
X10531547Y-15674713D01*
X10531547Y-15674713D02*
X10531547Y-15712808D01*
X10531547Y-15712808D02*
X10541071Y-15731856D01*
X10541071Y-15731856D02*
X10550595Y-15741380D01*
X10550595Y-15741380D02*
X10569643Y-15750904D01*
X10569643Y-15750904D02*
X10607738Y-15750904D01*
X10607738Y-15750904D02*
X10626785Y-15741380D01*
X10626785Y-15741380D02*
X10636309Y-15731856D01*
X10636309Y-15731856D02*
X10645833Y-15712808D01*
X10645833Y-15712808D02*
X10645833Y-15674713D01*
X10645833Y-15674713D02*
X10636309Y-15655666D01*
X10636309Y-15655666D02*
X10626785Y-15646142D01*
X10626785Y-15646142D02*
X10607738Y-15636618D01*
X10769643Y-15550904D02*
X10788690Y-15550904D01*
X10788690Y-15550904D02*
X10807738Y-15560428D01*
X10807738Y-15560428D02*
X10817262Y-15569951D01*
X10817262Y-15569951D02*
X10826785Y-15588999D01*
X10826785Y-15588999D02*
X10836309Y-15627094D01*
X10836309Y-15627094D02*
X10836309Y-15674713D01*
X10836309Y-15674713D02*
X10826785Y-15712808D01*
X10826785Y-15712808D02*
X10817262Y-15731856D01*
X10817262Y-15731856D02*
X10807738Y-15741380D01*
X10807738Y-15741380D02*
X10788690Y-15750904D01*
X10788690Y-15750904D02*
X10769643Y-15750904D01*
X10769643Y-15750904D02*
X10750595Y-15741380D01*
X10750595Y-15741380D02*
X10741071Y-15731856D01*
X10741071Y-15731856D02*
X10731547Y-15712808D01*
X10731547Y-15712808D02*
X10722024Y-15674713D01*
X10722024Y-15674713D02*
X10722024Y-15627094D01*
X10722024Y-15627094D02*
X10731547Y-15588999D01*
X10731547Y-15588999D02*
X10741071Y-15569951D01*
X10741071Y-15569951D02*
X10750595Y-15560428D01*
X10750595Y-15560428D02*
X10769643Y-15550904D01*
X10960119Y-15550904D02*
X10979166Y-15550904D01*
X10979166Y-15550904D02*
X10998214Y-15560428D01*
X10998214Y-15560428D02*
X11007738Y-15569951D01*
X11007738Y-15569951D02*
X11017262Y-15588999D01*
X11017262Y-15588999D02*
X11026785Y-15627094D01*
X11026785Y-15627094D02*
X11026785Y-15674713D01*
X11026785Y-15674713D02*
X11017262Y-15712808D01*
X11017262Y-15712808D02*
X11007738Y-15731856D01*
X11007738Y-15731856D02*
X10998214Y-15741380D01*
X10998214Y-15741380D02*
X10979166Y-15750904D01*
X10979166Y-15750904D02*
X10960119Y-15750904D01*
X10960119Y-15750904D02*
X10941071Y-15741380D01*
X10941071Y-15741380D02*
X10931547Y-15731856D01*
X10931547Y-15731856D02*
X10922024Y-15712808D01*
X10922024Y-15712808D02*
X10912500Y-15674713D01*
X10912500Y-15674713D02*
X10912500Y-15627094D01*
X10912500Y-15627094D02*
X10922024Y-15588999D01*
X10922024Y-15588999D02*
X10931547Y-15569951D01*
X10931547Y-15569951D02*
X10941071Y-15560428D01*
X10941071Y-15560428D02*
X10960119Y-15550904D01*
X11112500Y-15750904D02*
X11112500Y-15617570D01*
X11112500Y-15636618D02*
X11122024Y-15627094D01*
X11122024Y-15627094D02*
X11141071Y-15617570D01*
X11141071Y-15617570D02*
X11169643Y-15617570D01*
X11169643Y-15617570D02*
X11188690Y-15627094D01*
X11188690Y-15627094D02*
X11198214Y-15646142D01*
X11198214Y-15646142D02*
X11198214Y-15750904D01*
X11198214Y-15646142D02*
X11207738Y-15627094D01*
X11207738Y-15627094D02*
X11226785Y-15617570D01*
X11226785Y-15617570D02*
X11255357Y-15617570D01*
X11255357Y-15617570D02*
X11274404Y-15627094D01*
X11274404Y-15627094D02*
X11283928Y-15646142D01*
X11283928Y-15646142D02*
X11283928Y-15750904D01*
X11379166Y-15750904D02*
X11379166Y-15617570D01*
X11379166Y-15636618D02*
X11388690Y-15627094D01*
X11388690Y-15627094D02*
X11407738Y-15617570D01*
X11407738Y-15617570D02*
X11436309Y-15617570D01*
X11436309Y-15617570D02*
X11455357Y-15627094D01*
X11455357Y-15627094D02*
X11464881Y-15646142D01*
X11464881Y-15646142D02*
X11464881Y-15750904D01*
X11464881Y-15646142D02*
X11474404Y-15627094D01*
X11474404Y-15627094D02*
X11493452Y-15617570D01*
X11493452Y-15617570D02*
X11522023Y-15617570D01*
X11522023Y-15617570D02*
X11541071Y-15627094D01*
X11541071Y-15627094D02*
X11550595Y-15646142D01*
X11550595Y-15646142D02*
X11550595Y-15750904D01*
X11941071Y-15541380D02*
X11769643Y-15798523D01*
X12198214Y-15550904D02*
X12217262Y-15550904D01*
X12217262Y-15550904D02*
X12236309Y-15560428D01*
X12236309Y-15560428D02*
X12245833Y-15569951D01*
X12245833Y-15569951D02*
X12255357Y-15588999D01*
X12255357Y-15588999D02*
X12264881Y-15627094D01*
X12264881Y-15627094D02*
X12264881Y-15674713D01*
X12264881Y-15674713D02*
X12255357Y-15712808D01*
X12255357Y-15712808D02*
X12245833Y-15731856D01*
X12245833Y-15731856D02*
X12236309Y-15741380D01*
X12236309Y-15741380D02*
X12217262Y-15750904D01*
X12217262Y-15750904D02*
X12198214Y-15750904D01*
X12198214Y-15750904D02*
X12179166Y-15741380D01*
X12179166Y-15741380D02*
X12169643Y-15731856D01*
X12169643Y-15731856D02*
X12160119Y-15712808D01*
X12160119Y-15712808D02*
X12150595Y-15674713D01*
X12150595Y-15674713D02*
X12150595Y-15627094D01*
X12150595Y-15627094D02*
X12160119Y-15588999D01*
X12160119Y-15588999D02*
X12169643Y-15569951D01*
X12169643Y-15569951D02*
X12179166Y-15560428D01*
X12179166Y-15560428D02*
X12198214Y-15550904D01*
X12350595Y-15731856D02*
X12360119Y-15741380D01*
X12360119Y-15741380D02*
X12350595Y-15750904D01*
X12350595Y-15750904D02*
X12341071Y-15741380D01*
X12341071Y-15741380D02*
X12350595Y-15731856D01*
X12350595Y-15731856D02*
X12350595Y-15750904D01*
X12483928Y-15550904D02*
X12502976Y-15550904D01*
X12502976Y-15550904D02*
X12522024Y-15560428D01*
X12522024Y-15560428D02*
X12531547Y-15569951D01*
X12531547Y-15569951D02*
X12541071Y-15588999D01*
X12541071Y-15588999D02*
X12550595Y-15627094D01*
X12550595Y-15627094D02*
X12550595Y-15674713D01*
X12550595Y-15674713D02*
X12541071Y-15712808D01*
X12541071Y-15712808D02*
X12531547Y-15731856D01*
X12531547Y-15731856D02*
X12522024Y-15741380D01*
X12522024Y-15741380D02*
X12502976Y-15750904D01*
X12502976Y-15750904D02*
X12483928Y-15750904D01*
X12483928Y-15750904D02*
X12464881Y-15741380D01*
X12464881Y-15741380D02*
X12455357Y-15731856D01*
X12455357Y-15731856D02*
X12445833Y-15712808D01*
X12445833Y-15712808D02*
X12436309Y-15674713D01*
X12436309Y-15674713D02*
X12436309Y-15627094D01*
X12436309Y-15627094D02*
X12445833Y-15588999D01*
X12445833Y-15588999D02*
X12455357Y-15569951D01*
X12455357Y-15569951D02*
X12464881Y-15560428D01*
X12464881Y-15560428D02*
X12483928Y-15550904D01*
X12617262Y-15550904D02*
X12741071Y-15550904D01*
X12741071Y-15550904D02*
X12674405Y-15627094D01*
X12674405Y-15627094D02*
X12702976Y-15627094D01*
X12702976Y-15627094D02*
X12722024Y-15636618D01*
X12722024Y-15636618D02*
X12731547Y-15646142D01*
X12731547Y-15646142D02*
X12741071Y-15665189D01*
X12741071Y-15665189D02*
X12741071Y-15712808D01*
X12741071Y-15712808D02*
X12731547Y-15731856D01*
X12731547Y-15731856D02*
X12722024Y-15741380D01*
X12722024Y-15741380D02*
X12702976Y-15750904D01*
X12702976Y-15750904D02*
X12645833Y-15750904D01*
X12645833Y-15750904D02*
X12626786Y-15741380D01*
X12626786Y-15741380D02*
X12617262Y-15731856D01*
X12931547Y-15750904D02*
X12817262Y-15750904D01*
X12874405Y-15750904D02*
X12874405Y-15550904D01*
X12874405Y-15550904D02*
X12855357Y-15579475D01*
X12855357Y-15579475D02*
X12836309Y-15598523D01*
X12836309Y-15598523D02*
X12817262Y-15608047D01*
X13112500Y-15550904D02*
X13017262Y-15550904D01*
X13017262Y-15550904D02*
X13007738Y-15646142D01*
X13007738Y-15646142D02*
X13017262Y-15636618D01*
X13017262Y-15636618D02*
X13036309Y-15627094D01*
X13036309Y-15627094D02*
X13083928Y-15627094D01*
X13083928Y-15627094D02*
X13102976Y-15636618D01*
X13102976Y-15636618D02*
X13112500Y-15646142D01*
X13112500Y-15646142D02*
X13122024Y-15665189D01*
X13122024Y-15665189D02*
X13122024Y-15712808D01*
X13122024Y-15712808D02*
X13112500Y-15731856D01*
X13112500Y-15731856D02*
X13102976Y-15741380D01*
X13102976Y-15741380D02*
X13083928Y-15750904D01*
X13083928Y-15750904D02*
X13036309Y-15750904D01*
X13036309Y-15750904D02*
X13017262Y-15741380D01*
X13017262Y-15741380D02*
X13007738Y-15731856D01*
X13198214Y-15550904D02*
X13198214Y-15588999D01*
X13274405Y-15550904D02*
X13274405Y-15588999D01*
X13569643Y-15827094D02*
X13560119Y-15817570D01*
X13560119Y-15817570D02*
X13541071Y-15788999D01*
X13541071Y-15788999D02*
X13531548Y-15769951D01*
X13531548Y-15769951D02*
X13522024Y-15741380D01*
X13522024Y-15741380D02*
X13512500Y-15693761D01*
X13512500Y-15693761D02*
X13512500Y-15655666D01*
X13512500Y-15655666D02*
X13522024Y-15608047D01*
X13522024Y-15608047D02*
X13531548Y-15579475D01*
X13531548Y-15579475D02*
X13541071Y-15560428D01*
X13541071Y-15560428D02*
X13560119Y-15531856D01*
X13560119Y-15531856D02*
X13569643Y-15522332D01*
X13750595Y-15750904D02*
X13636309Y-15750904D01*
X13693452Y-15750904D02*
X13693452Y-15550904D01*
X13693452Y-15550904D02*
X13674405Y-15579475D01*
X13674405Y-15579475D02*
X13655357Y-15598523D01*
X13655357Y-15598523D02*
X13636309Y-15608047D01*
X13922024Y-15617570D02*
X13922024Y-15750904D01*
X13874405Y-15541380D02*
X13826786Y-15684237D01*
X13826786Y-15684237D02*
X13950595Y-15684237D01*
X14179167Y-15750904D02*
X14179167Y-15550904D01*
X14264881Y-15750904D02*
X14264881Y-15646142D01*
X14264881Y-15646142D02*
X14255357Y-15627094D01*
X14255357Y-15627094D02*
X14236310Y-15617570D01*
X14236310Y-15617570D02*
X14207738Y-15617570D01*
X14207738Y-15617570D02*
X14188690Y-15627094D01*
X14188690Y-15627094D02*
X14179167Y-15636618D01*
X14388690Y-15750904D02*
X14369643Y-15741380D01*
X14369643Y-15741380D02*
X14360119Y-15731856D01*
X14360119Y-15731856D02*
X14350595Y-15712808D01*
X14350595Y-15712808D02*
X14350595Y-15655666D01*
X14350595Y-15655666D02*
X14360119Y-15636618D01*
X14360119Y-15636618D02*
X14369643Y-15627094D01*
X14369643Y-15627094D02*
X14388690Y-15617570D01*
X14388690Y-15617570D02*
X14417262Y-15617570D01*
X14417262Y-15617570D02*
X14436310Y-15627094D01*
X14436310Y-15627094D02*
X14445833Y-15636618D01*
X14445833Y-15636618D02*
X14455357Y-15655666D01*
X14455357Y-15655666D02*
X14455357Y-15712808D01*
X14455357Y-15712808D02*
X14445833Y-15731856D01*
X14445833Y-15731856D02*
X14436310Y-15741380D01*
X14436310Y-15741380D02*
X14417262Y-15750904D01*
X14417262Y-15750904D02*
X14388690Y-15750904D01*
X14569643Y-15750904D02*
X14550595Y-15741380D01*
X14550595Y-15741380D02*
X14541071Y-15722332D01*
X14541071Y-15722332D02*
X14541071Y-15550904D01*
X14722024Y-15741380D02*
X14702976Y-15750904D01*
X14702976Y-15750904D02*
X14664881Y-15750904D01*
X14664881Y-15750904D02*
X14645833Y-15741380D01*
X14645833Y-15741380D02*
X14636310Y-15722332D01*
X14636310Y-15722332D02*
X14636310Y-15646142D01*
X14636310Y-15646142D02*
X14645833Y-15627094D01*
X14645833Y-15627094D02*
X14664881Y-15617570D01*
X14664881Y-15617570D02*
X14702976Y-15617570D01*
X14702976Y-15617570D02*
X14722024Y-15627094D01*
X14722024Y-15627094D02*
X14731548Y-15646142D01*
X14731548Y-15646142D02*
X14731548Y-15665189D01*
X14731548Y-15665189D02*
X14636310Y-15684237D01*
X14807738Y-15741380D02*
X14826786Y-15750904D01*
X14826786Y-15750904D02*
X14864881Y-15750904D01*
X14864881Y-15750904D02*
X14883929Y-15741380D01*
X14883929Y-15741380D02*
X14893452Y-15722332D01*
X14893452Y-15722332D02*
X14893452Y-15712808D01*
X14893452Y-15712808D02*
X14883929Y-15693761D01*
X14883929Y-15693761D02*
X14864881Y-15684237D01*
X14864881Y-15684237D02*
X14836310Y-15684237D01*
X14836310Y-15684237D02*
X14817262Y-15674713D01*
X14817262Y-15674713D02*
X14807738Y-15655666D01*
X14807738Y-15655666D02*
X14807738Y-15646142D01*
X14807738Y-15646142D02*
X14817262Y-15627094D01*
X14817262Y-15627094D02*
X14836310Y-15617570D01*
X14836310Y-15617570D02*
X14864881Y-15617570D01*
X14864881Y-15617570D02*
X14883929Y-15627094D01*
X14960119Y-15827094D02*
X14969643Y-15817570D01*
X14969643Y-15817570D02*
X14988691Y-15788999D01*
X14988691Y-15788999D02*
X14998214Y-15769951D01*
X14998214Y-15769951D02*
X15007738Y-15741380D01*
X15007738Y-15741380D02*
X15017262Y-15693761D01*
X15017262Y-15693761D02*
X15017262Y-15655666D01*
X15017262Y-15655666D02*
X15007738Y-15608047D01*
X15007738Y-15608047D02*
X14998214Y-15579475D01*
X14998214Y-15579475D02*
X14988691Y-15560428D01*
X14988691Y-15560428D02*
X14969643Y-15531856D01*
X14969643Y-15531856D02*
X14960119Y-15522332D01*
D10*
X9944580Y-15873420D02*
X9944580Y-15973420D01*
X9894580Y-15923420D02*
X9994580Y-15923420D01*
D11*
X10360119Y-16014904D02*
X10245833Y-16014904D01*
X10302976Y-16014904D02*
X10302976Y-15814904D01*
X10302976Y-15814904D02*
X10283928Y-15843475D01*
X10283928Y-15843475D02*
X10264881Y-15862523D01*
X10264881Y-15862523D02*
X10245833Y-15872047D01*
X10445833Y-15995856D02*
X10455357Y-16005380D01*
X10455357Y-16005380D02*
X10445833Y-16014904D01*
X10445833Y-16014904D02*
X10436309Y-16005380D01*
X10436309Y-16005380D02*
X10445833Y-15995856D01*
X10445833Y-15995856D02*
X10445833Y-16014904D01*
X10579166Y-15814904D02*
X10598214Y-15814904D01*
X10598214Y-15814904D02*
X10617262Y-15824428D01*
X10617262Y-15824428D02*
X10626785Y-15833951D01*
X10626785Y-15833951D02*
X10636309Y-15852999D01*
X10636309Y-15852999D02*
X10645833Y-15891094D01*
X10645833Y-15891094D02*
X10645833Y-15938713D01*
X10645833Y-15938713D02*
X10636309Y-15976808D01*
X10636309Y-15976808D02*
X10626785Y-15995856D01*
X10626785Y-15995856D02*
X10617262Y-16005380D01*
X10617262Y-16005380D02*
X10598214Y-16014904D01*
X10598214Y-16014904D02*
X10579166Y-16014904D01*
X10579166Y-16014904D02*
X10560119Y-16005380D01*
X10560119Y-16005380D02*
X10550595Y-15995856D01*
X10550595Y-15995856D02*
X10541071Y-15976808D01*
X10541071Y-15976808D02*
X10531547Y-15938713D01*
X10531547Y-15938713D02*
X10531547Y-15891094D01*
X10531547Y-15891094D02*
X10541071Y-15852999D01*
X10541071Y-15852999D02*
X10550595Y-15833951D01*
X10550595Y-15833951D02*
X10560119Y-15824428D01*
X10560119Y-15824428D02*
X10579166Y-15814904D01*
X10769643Y-15814904D02*
X10788690Y-15814904D01*
X10788690Y-15814904D02*
X10807738Y-15824428D01*
X10807738Y-15824428D02*
X10817262Y-15833951D01*
X10817262Y-15833951D02*
X10826785Y-15852999D01*
X10826785Y-15852999D02*
X10836309Y-15891094D01*
X10836309Y-15891094D02*
X10836309Y-15938713D01*
X10836309Y-15938713D02*
X10826785Y-15976808D01*
X10826785Y-15976808D02*
X10817262Y-15995856D01*
X10817262Y-15995856D02*
X10807738Y-16005380D01*
X10807738Y-16005380D02*
X10788690Y-16014904D01*
X10788690Y-16014904D02*
X10769643Y-16014904D01*
X10769643Y-16014904D02*
X10750595Y-16005380D01*
X10750595Y-16005380D02*
X10741071Y-15995856D01*
X10741071Y-15995856D02*
X10731547Y-15976808D01*
X10731547Y-15976808D02*
X10722024Y-15938713D01*
X10722024Y-15938713D02*
X10722024Y-15891094D01*
X10722024Y-15891094D02*
X10731547Y-15852999D01*
X10731547Y-15852999D02*
X10741071Y-15833951D01*
X10741071Y-15833951D02*
X10750595Y-15824428D01*
X10750595Y-15824428D02*
X10769643Y-15814904D01*
X10960119Y-15814904D02*
X10979166Y-15814904D01*
X10979166Y-15814904D02*
X10998214Y-15824428D01*
X10998214Y-15824428D02*
X11007738Y-15833951D01*
X11007738Y-15833951D02*
X11017262Y-15852999D01*
X11017262Y-15852999D02*
X11026785Y-15891094D01*
X11026785Y-15891094D02*
X11026785Y-15938713D01*
X11026785Y-15938713D02*
X11017262Y-15976808D01*
X11017262Y-15976808D02*
X11007738Y-15995856D01*
X11007738Y-15995856D02*
X10998214Y-16005380D01*
X10998214Y-16005380D02*
X10979166Y-16014904D01*
X10979166Y-16014904D02*
X10960119Y-16014904D01*
X10960119Y-16014904D02*
X10941071Y-16005380D01*
X10941071Y-16005380D02*
X10931547Y-15995856D01*
X10931547Y-15995856D02*
X10922024Y-15976808D01*
X10922024Y-15976808D02*
X10912500Y-15938713D01*
X10912500Y-15938713D02*
X10912500Y-15891094D01*
X10912500Y-15891094D02*
X10922024Y-15852999D01*
X10922024Y-15852999D02*
X10931547Y-15833951D01*
X10931547Y-15833951D02*
X10941071Y-15824428D01*
X10941071Y-15824428D02*
X10960119Y-15814904D01*
X11112500Y-16014904D02*
X11112500Y-15881570D01*
X11112500Y-15900618D02*
X11122024Y-15891094D01*
X11122024Y-15891094D02*
X11141071Y-15881570D01*
X11141071Y-15881570D02*
X11169643Y-15881570D01*
X11169643Y-15881570D02*
X11188690Y-15891094D01*
X11188690Y-15891094D02*
X11198214Y-15910142D01*
X11198214Y-15910142D02*
X11198214Y-16014904D01*
X11198214Y-15910142D02*
X11207738Y-15891094D01*
X11207738Y-15891094D02*
X11226785Y-15881570D01*
X11226785Y-15881570D02*
X11255357Y-15881570D01*
X11255357Y-15881570D02*
X11274404Y-15891094D01*
X11274404Y-15891094D02*
X11283928Y-15910142D01*
X11283928Y-15910142D02*
X11283928Y-16014904D01*
X11379166Y-16014904D02*
X11379166Y-15881570D01*
X11379166Y-15900618D02*
X11388690Y-15891094D01*
X11388690Y-15891094D02*
X11407738Y-15881570D01*
X11407738Y-15881570D02*
X11436309Y-15881570D01*
X11436309Y-15881570D02*
X11455357Y-15891094D01*
X11455357Y-15891094D02*
X11464881Y-15910142D01*
X11464881Y-15910142D02*
X11464881Y-16014904D01*
X11464881Y-15910142D02*
X11474404Y-15891094D01*
X11474404Y-15891094D02*
X11493452Y-15881570D01*
X11493452Y-15881570D02*
X11522023Y-15881570D01*
X11522023Y-15881570D02*
X11541071Y-15891094D01*
X11541071Y-15891094D02*
X11550595Y-15910142D01*
X11550595Y-15910142D02*
X11550595Y-16014904D01*
X11941071Y-15805380D02*
X11769643Y-16062523D01*
X12198214Y-15814904D02*
X12217262Y-15814904D01*
X12217262Y-15814904D02*
X12236309Y-15824428D01*
X12236309Y-15824428D02*
X12245833Y-15833951D01*
X12245833Y-15833951D02*
X12255357Y-15852999D01*
X12255357Y-15852999D02*
X12264881Y-15891094D01*
X12264881Y-15891094D02*
X12264881Y-15938713D01*
X12264881Y-15938713D02*
X12255357Y-15976808D01*
X12255357Y-15976808D02*
X12245833Y-15995856D01*
X12245833Y-15995856D02*
X12236309Y-16005380D01*
X12236309Y-16005380D02*
X12217262Y-16014904D01*
X12217262Y-16014904D02*
X12198214Y-16014904D01*
X12198214Y-16014904D02*
X12179166Y-16005380D01*
X12179166Y-16005380D02*
X12169643Y-15995856D01*
X12169643Y-15995856D02*
X12160119Y-15976808D01*
X12160119Y-15976808D02*
X12150595Y-15938713D01*
X12150595Y-15938713D02*
X12150595Y-15891094D01*
X12150595Y-15891094D02*
X12160119Y-15852999D01*
X12160119Y-15852999D02*
X12169643Y-15833951D01*
X12169643Y-15833951D02*
X12179166Y-15824428D01*
X12179166Y-15824428D02*
X12198214Y-15814904D01*
X12350595Y-15995856D02*
X12360119Y-16005380D01*
X12360119Y-16005380D02*
X12350595Y-16014904D01*
X12350595Y-16014904D02*
X12341071Y-16005380D01*
X12341071Y-16005380D02*
X12350595Y-15995856D01*
X12350595Y-15995856D02*
X12350595Y-16014904D01*
X12483928Y-15814904D02*
X12502976Y-15814904D01*
X12502976Y-15814904D02*
X12522024Y-15824428D01*
X12522024Y-15824428D02*
X12531547Y-15833951D01*
X12531547Y-15833951D02*
X12541071Y-15852999D01*
X12541071Y-15852999D02*
X12550595Y-15891094D01*
X12550595Y-15891094D02*
X12550595Y-15938713D01*
X12550595Y-15938713D02*
X12541071Y-15976808D01*
X12541071Y-15976808D02*
X12531547Y-15995856D01*
X12531547Y-15995856D02*
X12522024Y-16005380D01*
X12522024Y-16005380D02*
X12502976Y-16014904D01*
X12502976Y-16014904D02*
X12483928Y-16014904D01*
X12483928Y-16014904D02*
X12464881Y-16005380D01*
X12464881Y-16005380D02*
X12455357Y-15995856D01*
X12455357Y-15995856D02*
X12445833Y-15976808D01*
X12445833Y-15976808D02*
X12436309Y-15938713D01*
X12436309Y-15938713D02*
X12436309Y-15891094D01*
X12436309Y-15891094D02*
X12445833Y-15852999D01*
X12445833Y-15852999D02*
X12455357Y-15833951D01*
X12455357Y-15833951D02*
X12464881Y-15824428D01*
X12464881Y-15824428D02*
X12483928Y-15814904D01*
X12617262Y-15814904D02*
X12741071Y-15814904D01*
X12741071Y-15814904D02*
X12674405Y-15891094D01*
X12674405Y-15891094D02*
X12702976Y-15891094D01*
X12702976Y-15891094D02*
X12722024Y-15900618D01*
X12722024Y-15900618D02*
X12731547Y-15910142D01*
X12731547Y-15910142D02*
X12741071Y-15929189D01*
X12741071Y-15929189D02*
X12741071Y-15976808D01*
X12741071Y-15976808D02*
X12731547Y-15995856D01*
X12731547Y-15995856D02*
X12722024Y-16005380D01*
X12722024Y-16005380D02*
X12702976Y-16014904D01*
X12702976Y-16014904D02*
X12645833Y-16014904D01*
X12645833Y-16014904D02*
X12626786Y-16005380D01*
X12626786Y-16005380D02*
X12617262Y-15995856D01*
X12836309Y-16014904D02*
X12874405Y-16014904D01*
X12874405Y-16014904D02*
X12893452Y-16005380D01*
X12893452Y-16005380D02*
X12902976Y-15995856D01*
X12902976Y-15995856D02*
X12922024Y-15967285D01*
X12922024Y-15967285D02*
X12931547Y-15929189D01*
X12931547Y-15929189D02*
X12931547Y-15852999D01*
X12931547Y-15852999D02*
X12922024Y-15833951D01*
X12922024Y-15833951D02*
X12912500Y-15824428D01*
X12912500Y-15824428D02*
X12893452Y-15814904D01*
X12893452Y-15814904D02*
X12855357Y-15814904D01*
X12855357Y-15814904D02*
X12836309Y-15824428D01*
X12836309Y-15824428D02*
X12826786Y-15833951D01*
X12826786Y-15833951D02*
X12817262Y-15852999D01*
X12817262Y-15852999D02*
X12817262Y-15900618D01*
X12817262Y-15900618D02*
X12826786Y-15919666D01*
X12826786Y-15919666D02*
X12836309Y-15929189D01*
X12836309Y-15929189D02*
X12855357Y-15938713D01*
X12855357Y-15938713D02*
X12893452Y-15938713D01*
X12893452Y-15938713D02*
X12912500Y-15929189D01*
X12912500Y-15929189D02*
X12922024Y-15919666D01*
X12922024Y-15919666D02*
X12931547Y-15900618D01*
X13102976Y-15881570D02*
X13102976Y-16014904D01*
X13055357Y-15805380D02*
X13007738Y-15948237D01*
X13007738Y-15948237D02*
X13131547Y-15948237D01*
X13198214Y-15814904D02*
X13198214Y-15852999D01*
X13274405Y-15814904D02*
X13274405Y-15852999D01*
X13569643Y-16091094D02*
X13560119Y-16081570D01*
X13560119Y-16081570D02*
X13541071Y-16052999D01*
X13541071Y-16052999D02*
X13531548Y-16033951D01*
X13531548Y-16033951D02*
X13522024Y-16005380D01*
X13522024Y-16005380D02*
X13512500Y-15957761D01*
X13512500Y-15957761D02*
X13512500Y-15919666D01*
X13512500Y-15919666D02*
X13522024Y-15872047D01*
X13522024Y-15872047D02*
X13531548Y-15843475D01*
X13531548Y-15843475D02*
X13541071Y-15824428D01*
X13541071Y-15824428D02*
X13560119Y-15795856D01*
X13560119Y-15795856D02*
X13569643Y-15786332D01*
X13750595Y-16014904D02*
X13636309Y-16014904D01*
X13693452Y-16014904D02*
X13693452Y-15814904D01*
X13693452Y-15814904D02*
X13674405Y-15843475D01*
X13674405Y-15843475D02*
X13655357Y-15862523D01*
X13655357Y-15862523D02*
X13636309Y-15872047D01*
X13845833Y-16014904D02*
X13883928Y-16014904D01*
X13883928Y-16014904D02*
X13902976Y-16005380D01*
X13902976Y-16005380D02*
X13912500Y-15995856D01*
X13912500Y-15995856D02*
X13931548Y-15967285D01*
X13931548Y-15967285D02*
X13941071Y-15929189D01*
X13941071Y-15929189D02*
X13941071Y-15852999D01*
X13941071Y-15852999D02*
X13931548Y-15833951D01*
X13931548Y-15833951D02*
X13922024Y-15824428D01*
X13922024Y-15824428D02*
X13902976Y-15814904D01*
X13902976Y-15814904D02*
X13864881Y-15814904D01*
X13864881Y-15814904D02*
X13845833Y-15824428D01*
X13845833Y-15824428D02*
X13836309Y-15833951D01*
X13836309Y-15833951D02*
X13826786Y-15852999D01*
X13826786Y-15852999D02*
X13826786Y-15900618D01*
X13826786Y-15900618D02*
X13836309Y-15919666D01*
X13836309Y-15919666D02*
X13845833Y-15929189D01*
X13845833Y-15929189D02*
X13864881Y-15938713D01*
X13864881Y-15938713D02*
X13902976Y-15938713D01*
X13902976Y-15938713D02*
X13922024Y-15929189D01*
X13922024Y-15929189D02*
X13931548Y-15919666D01*
X13931548Y-15919666D02*
X13941071Y-15900618D01*
X14179167Y-16014904D02*
X14179167Y-15814904D01*
X14264881Y-16014904D02*
X14264881Y-15910142D01*
X14264881Y-15910142D02*
X14255357Y-15891094D01*
X14255357Y-15891094D02*
X14236310Y-15881570D01*
X14236310Y-15881570D02*
X14207738Y-15881570D01*
X14207738Y-15881570D02*
X14188690Y-15891094D01*
X14188690Y-15891094D02*
X14179167Y-15900618D01*
X14388690Y-16014904D02*
X14369643Y-16005380D01*
X14369643Y-16005380D02*
X14360119Y-15995856D01*
X14360119Y-15995856D02*
X14350595Y-15976808D01*
X14350595Y-15976808D02*
X14350595Y-15919666D01*
X14350595Y-15919666D02*
X14360119Y-15900618D01*
X14360119Y-15900618D02*
X14369643Y-15891094D01*
X14369643Y-15891094D02*
X14388690Y-15881570D01*
X14388690Y-15881570D02*
X14417262Y-15881570D01*
X14417262Y-15881570D02*
X14436310Y-15891094D01*
X14436310Y-15891094D02*
X14445833Y-15900618D01*
X14445833Y-15900618D02*
X14455357Y-15919666D01*
X14455357Y-15919666D02*
X14455357Y-15976808D01*
X14455357Y-15976808D02*
X14445833Y-15995856D01*
X14445833Y-15995856D02*
X14436310Y-16005380D01*
X14436310Y-16005380D02*
X14417262Y-16014904D01*
X14417262Y-16014904D02*
X14388690Y-16014904D01*
X14569643Y-16014904D02*
X14550595Y-16005380D01*
X14550595Y-16005380D02*
X14541071Y-15986332D01*
X14541071Y-15986332D02*
X14541071Y-15814904D01*
X14722024Y-16005380D02*
X14702976Y-16014904D01*
X14702976Y-16014904D02*
X14664881Y-16014904D01*
X14664881Y-16014904D02*
X14645833Y-16005380D01*
X14645833Y-16005380D02*
X14636310Y-15986332D01*
X14636310Y-15986332D02*
X14636310Y-15910142D01*
X14636310Y-15910142D02*
X14645833Y-15891094D01*
X14645833Y-15891094D02*
X14664881Y-15881570D01*
X14664881Y-15881570D02*
X14702976Y-15881570D01*
X14702976Y-15881570D02*
X14722024Y-15891094D01*
X14722024Y-15891094D02*
X14731548Y-15910142D01*
X14731548Y-15910142D02*
X14731548Y-15929189D01*
X14731548Y-15929189D02*
X14636310Y-15948237D01*
X14807738Y-16005380D02*
X14826786Y-16014904D01*
X14826786Y-16014904D02*
X14864881Y-16014904D01*
X14864881Y-16014904D02*
X14883929Y-16005380D01*
X14883929Y-16005380D02*
X14893452Y-15986332D01*
X14893452Y-15986332D02*
X14893452Y-15976808D01*
X14893452Y-15976808D02*
X14883929Y-15957761D01*
X14883929Y-15957761D02*
X14864881Y-15948237D01*
X14864881Y-15948237D02*
X14836310Y-15948237D01*
X14836310Y-15948237D02*
X14817262Y-15938713D01*
X14817262Y-15938713D02*
X14807738Y-15919666D01*
X14807738Y-15919666D02*
X14807738Y-15910142D01*
X14807738Y-15910142D02*
X14817262Y-15891094D01*
X14817262Y-15891094D02*
X14836310Y-15881570D01*
X14836310Y-15881570D02*
X14864881Y-15881570D01*
X14864881Y-15881570D02*
X14883929Y-15891094D01*
X14960119Y-16091094D02*
X14969643Y-16081570D01*
X14969643Y-16081570D02*
X14988691Y-16052999D01*
X14988691Y-16052999D02*
X14998214Y-16033951D01*
X14998214Y-16033951D02*
X15007738Y-16005380D01*
X15007738Y-16005380D02*
X15017262Y-15957761D01*
X15017262Y-15957761D02*
X15017262Y-15919666D01*
X15017262Y-15919666D02*
X15007738Y-15872047D01*
X15007738Y-15872047D02*
X14998214Y-15843475D01*
X14998214Y-15843475D02*
X14988691Y-15824428D01*
X14988691Y-15824428D02*
X14969643Y-15795856D01*
X14969643Y-15795856D02*
X14960119Y-15786332D01*
D12*
X9972614Y-16240453D02*
X9972614Y-16134386D01*
X9866547Y-16134386D01*
X9866547Y-16240453D01*
X9972614Y-16240453D01*
D11*
X10360119Y-16278904D02*
X10245833Y-16278904D01*
X10302976Y-16278904D02*
X10302976Y-16078904D01*
X10302976Y-16078904D02*
X10283928Y-16107475D01*
X10283928Y-16107475D02*
X10264881Y-16126523D01*
X10264881Y-16126523D02*
X10245833Y-16136047D01*
X10445833Y-16259856D02*
X10455357Y-16269380D01*
X10455357Y-16269380D02*
X10445833Y-16278904D01*
X10445833Y-16278904D02*
X10436309Y-16269380D01*
X10436309Y-16269380D02*
X10445833Y-16259856D01*
X10445833Y-16259856D02*
X10445833Y-16278904D01*
X10636309Y-16078904D02*
X10541071Y-16078904D01*
X10541071Y-16078904D02*
X10531547Y-16174142D01*
X10531547Y-16174142D02*
X10541071Y-16164618D01*
X10541071Y-16164618D02*
X10560119Y-16155094D01*
X10560119Y-16155094D02*
X10607738Y-16155094D01*
X10607738Y-16155094D02*
X10626785Y-16164618D01*
X10626785Y-16164618D02*
X10636309Y-16174142D01*
X10636309Y-16174142D02*
X10645833Y-16193189D01*
X10645833Y-16193189D02*
X10645833Y-16240808D01*
X10645833Y-16240808D02*
X10636309Y-16259856D01*
X10636309Y-16259856D02*
X10626785Y-16269380D01*
X10626785Y-16269380D02*
X10607738Y-16278904D01*
X10607738Y-16278904D02*
X10560119Y-16278904D01*
X10560119Y-16278904D02*
X10541071Y-16269380D01*
X10541071Y-16269380D02*
X10531547Y-16259856D01*
X10769643Y-16078904D02*
X10788690Y-16078904D01*
X10788690Y-16078904D02*
X10807738Y-16088428D01*
X10807738Y-16088428D02*
X10817262Y-16097951D01*
X10817262Y-16097951D02*
X10826785Y-16116999D01*
X10826785Y-16116999D02*
X10836309Y-16155094D01*
X10836309Y-16155094D02*
X10836309Y-16202713D01*
X10836309Y-16202713D02*
X10826785Y-16240808D01*
X10826785Y-16240808D02*
X10817262Y-16259856D01*
X10817262Y-16259856D02*
X10807738Y-16269380D01*
X10807738Y-16269380D02*
X10788690Y-16278904D01*
X10788690Y-16278904D02*
X10769643Y-16278904D01*
X10769643Y-16278904D02*
X10750595Y-16269380D01*
X10750595Y-16269380D02*
X10741071Y-16259856D01*
X10741071Y-16259856D02*
X10731547Y-16240808D01*
X10731547Y-16240808D02*
X10722024Y-16202713D01*
X10722024Y-16202713D02*
X10722024Y-16155094D01*
X10722024Y-16155094D02*
X10731547Y-16116999D01*
X10731547Y-16116999D02*
X10741071Y-16097951D01*
X10741071Y-16097951D02*
X10750595Y-16088428D01*
X10750595Y-16088428D02*
X10769643Y-16078904D01*
X10960119Y-16078904D02*
X10979166Y-16078904D01*
X10979166Y-16078904D02*
X10998214Y-16088428D01*
X10998214Y-16088428D02*
X11007738Y-16097951D01*
X11007738Y-16097951D02*
X11017262Y-16116999D01*
X11017262Y-16116999D02*
X11026785Y-16155094D01*
X11026785Y-16155094D02*
X11026785Y-16202713D01*
X11026785Y-16202713D02*
X11017262Y-16240808D01*
X11017262Y-16240808D02*
X11007738Y-16259856D01*
X11007738Y-16259856D02*
X10998214Y-16269380D01*
X10998214Y-16269380D02*
X10979166Y-16278904D01*
X10979166Y-16278904D02*
X10960119Y-16278904D01*
X10960119Y-16278904D02*
X10941071Y-16269380D01*
X10941071Y-16269380D02*
X10931547Y-16259856D01*
X10931547Y-16259856D02*
X10922024Y-16240808D01*
X10922024Y-16240808D02*
X10912500Y-16202713D01*
X10912500Y-16202713D02*
X10912500Y-16155094D01*
X10912500Y-16155094D02*
X10922024Y-16116999D01*
X10922024Y-16116999D02*
X10931547Y-16097951D01*
X10931547Y-16097951D02*
X10941071Y-16088428D01*
X10941071Y-16088428D02*
X10960119Y-16078904D01*
X11112500Y-16278904D02*
X11112500Y-16145570D01*
X11112500Y-16164618D02*
X11122024Y-16155094D01*
X11122024Y-16155094D02*
X11141071Y-16145570D01*
X11141071Y-16145570D02*
X11169643Y-16145570D01*
X11169643Y-16145570D02*
X11188690Y-16155094D01*
X11188690Y-16155094D02*
X11198214Y-16174142D01*
X11198214Y-16174142D02*
X11198214Y-16278904D01*
X11198214Y-16174142D02*
X11207738Y-16155094D01*
X11207738Y-16155094D02*
X11226785Y-16145570D01*
X11226785Y-16145570D02*
X11255357Y-16145570D01*
X11255357Y-16145570D02*
X11274404Y-16155094D01*
X11274404Y-16155094D02*
X11283928Y-16174142D01*
X11283928Y-16174142D02*
X11283928Y-16278904D01*
X11379166Y-16278904D02*
X11379166Y-16145570D01*
X11379166Y-16164618D02*
X11388690Y-16155094D01*
X11388690Y-16155094D02*
X11407738Y-16145570D01*
X11407738Y-16145570D02*
X11436309Y-16145570D01*
X11436309Y-16145570D02*
X11455357Y-16155094D01*
X11455357Y-16155094D02*
X11464881Y-16174142D01*
X11464881Y-16174142D02*
X11464881Y-16278904D01*
X11464881Y-16174142D02*
X11474404Y-16155094D01*
X11474404Y-16155094D02*
X11493452Y-16145570D01*
X11493452Y-16145570D02*
X11522023Y-16145570D01*
X11522023Y-16145570D02*
X11541071Y-16155094D01*
X11541071Y-16155094D02*
X11550595Y-16174142D01*
X11550595Y-16174142D02*
X11550595Y-16278904D01*
X11941071Y-16069380D02*
X11769643Y-16326523D01*
X12198214Y-16078904D02*
X12217262Y-16078904D01*
X12217262Y-16078904D02*
X12236309Y-16088428D01*
X12236309Y-16088428D02*
X12245833Y-16097951D01*
X12245833Y-16097951D02*
X12255357Y-16116999D01*
X12255357Y-16116999D02*
X12264881Y-16155094D01*
X12264881Y-16155094D02*
X12264881Y-16202713D01*
X12264881Y-16202713D02*
X12255357Y-16240808D01*
X12255357Y-16240808D02*
X12245833Y-16259856D01*
X12245833Y-16259856D02*
X12236309Y-16269380D01*
X12236309Y-16269380D02*
X12217262Y-16278904D01*
X12217262Y-16278904D02*
X12198214Y-16278904D01*
X12198214Y-16278904D02*
X12179166Y-16269380D01*
X12179166Y-16269380D02*
X12169643Y-16259856D01*
X12169643Y-16259856D02*
X12160119Y-16240808D01*
X12160119Y-16240808D02*
X12150595Y-16202713D01*
X12150595Y-16202713D02*
X12150595Y-16155094D01*
X12150595Y-16155094D02*
X12160119Y-16116999D01*
X12160119Y-16116999D02*
X12169643Y-16097951D01*
X12169643Y-16097951D02*
X12179166Y-16088428D01*
X12179166Y-16088428D02*
X12198214Y-16078904D01*
X12350595Y-16259856D02*
X12360119Y-16269380D01*
X12360119Y-16269380D02*
X12350595Y-16278904D01*
X12350595Y-16278904D02*
X12341071Y-16269380D01*
X12341071Y-16269380D02*
X12350595Y-16259856D01*
X12350595Y-16259856D02*
X12350595Y-16278904D01*
X12483928Y-16078904D02*
X12502976Y-16078904D01*
X12502976Y-16078904D02*
X12522024Y-16088428D01*
X12522024Y-16088428D02*
X12531547Y-16097951D01*
X12531547Y-16097951D02*
X12541071Y-16116999D01*
X12541071Y-16116999D02*
X12550595Y-16155094D01*
X12550595Y-16155094D02*
X12550595Y-16202713D01*
X12550595Y-16202713D02*
X12541071Y-16240808D01*
X12541071Y-16240808D02*
X12531547Y-16259856D01*
X12531547Y-16259856D02*
X12522024Y-16269380D01*
X12522024Y-16269380D02*
X12502976Y-16278904D01*
X12502976Y-16278904D02*
X12483928Y-16278904D01*
X12483928Y-16278904D02*
X12464881Y-16269380D01*
X12464881Y-16269380D02*
X12455357Y-16259856D01*
X12455357Y-16259856D02*
X12445833Y-16240808D01*
X12445833Y-16240808D02*
X12436309Y-16202713D01*
X12436309Y-16202713D02*
X12436309Y-16155094D01*
X12436309Y-16155094D02*
X12445833Y-16116999D01*
X12445833Y-16116999D02*
X12455357Y-16097951D01*
X12455357Y-16097951D02*
X12464881Y-16088428D01*
X12464881Y-16088428D02*
X12483928Y-16078904D01*
X12731547Y-16078904D02*
X12636309Y-16078904D01*
X12636309Y-16078904D02*
X12626786Y-16174142D01*
X12626786Y-16174142D02*
X12636309Y-16164618D01*
X12636309Y-16164618D02*
X12655357Y-16155094D01*
X12655357Y-16155094D02*
X12702976Y-16155094D01*
X12702976Y-16155094D02*
X12722024Y-16164618D01*
X12722024Y-16164618D02*
X12731547Y-16174142D01*
X12731547Y-16174142D02*
X12741071Y-16193189D01*
X12741071Y-16193189D02*
X12741071Y-16240808D01*
X12741071Y-16240808D02*
X12731547Y-16259856D01*
X12731547Y-16259856D02*
X12722024Y-16269380D01*
X12722024Y-16269380D02*
X12702976Y-16278904D01*
X12702976Y-16278904D02*
X12655357Y-16278904D01*
X12655357Y-16278904D02*
X12636309Y-16269380D01*
X12636309Y-16269380D02*
X12626786Y-16259856D01*
X12836309Y-16278904D02*
X12874405Y-16278904D01*
X12874405Y-16278904D02*
X12893452Y-16269380D01*
X12893452Y-16269380D02*
X12902976Y-16259856D01*
X12902976Y-16259856D02*
X12922024Y-16231285D01*
X12922024Y-16231285D02*
X12931547Y-16193189D01*
X12931547Y-16193189D02*
X12931547Y-16116999D01*
X12931547Y-16116999D02*
X12922024Y-16097951D01*
X12922024Y-16097951D02*
X12912500Y-16088428D01*
X12912500Y-16088428D02*
X12893452Y-16078904D01*
X12893452Y-16078904D02*
X12855357Y-16078904D01*
X12855357Y-16078904D02*
X12836309Y-16088428D01*
X12836309Y-16088428D02*
X12826786Y-16097951D01*
X12826786Y-16097951D02*
X12817262Y-16116999D01*
X12817262Y-16116999D02*
X12817262Y-16164618D01*
X12817262Y-16164618D02*
X12826786Y-16183666D01*
X12826786Y-16183666D02*
X12836309Y-16193189D01*
X12836309Y-16193189D02*
X12855357Y-16202713D01*
X12855357Y-16202713D02*
X12893452Y-16202713D01*
X12893452Y-16202713D02*
X12912500Y-16193189D01*
X12912500Y-16193189D02*
X12922024Y-16183666D01*
X12922024Y-16183666D02*
X12931547Y-16164618D01*
X13122024Y-16278904D02*
X13007738Y-16278904D01*
X13064881Y-16278904D02*
X13064881Y-16078904D01*
X13064881Y-16078904D02*
X13045833Y-16107475D01*
X13045833Y-16107475D02*
X13026786Y-16126523D01*
X13026786Y-16126523D02*
X13007738Y-16136047D01*
X13198214Y-16078904D02*
X13198214Y-16116999D01*
X13274405Y-16078904D02*
X13274405Y-16116999D01*
X13569643Y-16355094D02*
X13560119Y-16345570D01*
X13560119Y-16345570D02*
X13541071Y-16316999D01*
X13541071Y-16316999D02*
X13531548Y-16297951D01*
X13531548Y-16297951D02*
X13522024Y-16269380D01*
X13522024Y-16269380D02*
X13512500Y-16221761D01*
X13512500Y-16221761D02*
X13512500Y-16183666D01*
X13512500Y-16183666D02*
X13522024Y-16136047D01*
X13522024Y-16136047D02*
X13531548Y-16107475D01*
X13531548Y-16107475D02*
X13541071Y-16088428D01*
X13541071Y-16088428D02*
X13560119Y-16059856D01*
X13560119Y-16059856D02*
X13569643Y-16050332D01*
X13636309Y-16097951D02*
X13645833Y-16088428D01*
X13645833Y-16088428D02*
X13664881Y-16078904D01*
X13664881Y-16078904D02*
X13712500Y-16078904D01*
X13712500Y-16078904D02*
X13731548Y-16088428D01*
X13731548Y-16088428D02*
X13741071Y-16097951D01*
X13741071Y-16097951D02*
X13750595Y-16116999D01*
X13750595Y-16116999D02*
X13750595Y-16136047D01*
X13750595Y-16136047D02*
X13741071Y-16164618D01*
X13741071Y-16164618D02*
X13626786Y-16278904D01*
X13626786Y-16278904D02*
X13750595Y-16278904D01*
X13988690Y-16278904D02*
X13988690Y-16078904D01*
X14074405Y-16278904D02*
X14074405Y-16174142D01*
X14074405Y-16174142D02*
X14064881Y-16155094D01*
X14064881Y-16155094D02*
X14045833Y-16145570D01*
X14045833Y-16145570D02*
X14017262Y-16145570D01*
X14017262Y-16145570D02*
X13998214Y-16155094D01*
X13998214Y-16155094D02*
X13988690Y-16164618D01*
X14198214Y-16278904D02*
X14179167Y-16269380D01*
X14179167Y-16269380D02*
X14169643Y-16259856D01*
X14169643Y-16259856D02*
X14160119Y-16240808D01*
X14160119Y-16240808D02*
X14160119Y-16183666D01*
X14160119Y-16183666D02*
X14169643Y-16164618D01*
X14169643Y-16164618D02*
X14179167Y-16155094D01*
X14179167Y-16155094D02*
X14198214Y-16145570D01*
X14198214Y-16145570D02*
X14226786Y-16145570D01*
X14226786Y-16145570D02*
X14245833Y-16155094D01*
X14245833Y-16155094D02*
X14255357Y-16164618D01*
X14255357Y-16164618D02*
X14264881Y-16183666D01*
X14264881Y-16183666D02*
X14264881Y-16240808D01*
X14264881Y-16240808D02*
X14255357Y-16259856D01*
X14255357Y-16259856D02*
X14245833Y-16269380D01*
X14245833Y-16269380D02*
X14226786Y-16278904D01*
X14226786Y-16278904D02*
X14198214Y-16278904D01*
X14379167Y-16278904D02*
X14360119Y-16269380D01*
X14360119Y-16269380D02*
X14350595Y-16250332D01*
X14350595Y-16250332D02*
X14350595Y-16078904D01*
X14531548Y-16269380D02*
X14512500Y-16278904D01*
X14512500Y-16278904D02*
X14474405Y-16278904D01*
X14474405Y-16278904D02*
X14455357Y-16269380D01*
X14455357Y-16269380D02*
X14445833Y-16250332D01*
X14445833Y-16250332D02*
X14445833Y-16174142D01*
X14445833Y-16174142D02*
X14455357Y-16155094D01*
X14455357Y-16155094D02*
X14474405Y-16145570D01*
X14474405Y-16145570D02*
X14512500Y-16145570D01*
X14512500Y-16145570D02*
X14531548Y-16155094D01*
X14531548Y-16155094D02*
X14541071Y-16174142D01*
X14541071Y-16174142D02*
X14541071Y-16193189D01*
X14541071Y-16193189D02*
X14445833Y-16212237D01*
X14617262Y-16269380D02*
X14636310Y-16278904D01*
X14636310Y-16278904D02*
X14674405Y-16278904D01*
X14674405Y-16278904D02*
X14693452Y-16269380D01*
X14693452Y-16269380D02*
X14702976Y-16250332D01*
X14702976Y-16250332D02*
X14702976Y-16240808D01*
X14702976Y-16240808D02*
X14693452Y-16221761D01*
X14693452Y-16221761D02*
X14674405Y-16212237D01*
X14674405Y-16212237D02*
X14645833Y-16212237D01*
X14645833Y-16212237D02*
X14626786Y-16202713D01*
X14626786Y-16202713D02*
X14617262Y-16183666D01*
X14617262Y-16183666D02*
X14617262Y-16174142D01*
X14617262Y-16174142D02*
X14626786Y-16155094D01*
X14626786Y-16155094D02*
X14645833Y-16145570D01*
X14645833Y-16145570D02*
X14674405Y-16145570D01*
X14674405Y-16145570D02*
X14693452Y-16155094D01*
X14769643Y-16355094D02*
X14779167Y-16345570D01*
X14779167Y-16345570D02*
X14798214Y-16316999D01*
X14798214Y-16316999D02*
X14807738Y-16297951D01*
X14807738Y-16297951D02*
X14817262Y-16269380D01*
X14817262Y-16269380D02*
X14826786Y-16221761D01*
X14826786Y-16221761D02*
X14826786Y-16183666D01*
X14826786Y-16183666D02*
X14817262Y-16136047D01*
X14817262Y-16136047D02*
X14807738Y-16107475D01*
X14807738Y-16107475D02*
X14798214Y-16088428D01*
X14798214Y-16088428D02*
X14779167Y-16059856D01*
X14779167Y-16059856D02*
X14769643Y-16050332D01*
D13*
X9909580Y-16542420D02*
X9994580Y-16457420D01*
X9909580Y-16372420D01*
X9824580Y-16457420D01*
X9909580Y-16542420D01*
D11*
X10360119Y-16548904D02*
X10245833Y-16548904D01*
X10302976Y-16548904D02*
X10302976Y-16348904D01*
X10302976Y-16348904D02*
X10283928Y-16377475D01*
X10283928Y-16377475D02*
X10264881Y-16396523D01*
X10264881Y-16396523D02*
X10245833Y-16406047D01*
X10445833Y-16529856D02*
X10455357Y-16539380D01*
X10455357Y-16539380D02*
X10445833Y-16548904D01*
X10445833Y-16548904D02*
X10436309Y-16539380D01*
X10436309Y-16539380D02*
X10445833Y-16529856D01*
X10445833Y-16529856D02*
X10445833Y-16548904D01*
X10522024Y-16348904D02*
X10655357Y-16348904D01*
X10655357Y-16348904D02*
X10569643Y-16548904D01*
X10769643Y-16348904D02*
X10788690Y-16348904D01*
X10788690Y-16348904D02*
X10807738Y-16358428D01*
X10807738Y-16358428D02*
X10817262Y-16367951D01*
X10817262Y-16367951D02*
X10826785Y-16386999D01*
X10826785Y-16386999D02*
X10836309Y-16425094D01*
X10836309Y-16425094D02*
X10836309Y-16472713D01*
X10836309Y-16472713D02*
X10826785Y-16510808D01*
X10826785Y-16510808D02*
X10817262Y-16529856D01*
X10817262Y-16529856D02*
X10807738Y-16539380D01*
X10807738Y-16539380D02*
X10788690Y-16548904D01*
X10788690Y-16548904D02*
X10769643Y-16548904D01*
X10769643Y-16548904D02*
X10750595Y-16539380D01*
X10750595Y-16539380D02*
X10741071Y-16529856D01*
X10741071Y-16529856D02*
X10731547Y-16510808D01*
X10731547Y-16510808D02*
X10722024Y-16472713D01*
X10722024Y-16472713D02*
X10722024Y-16425094D01*
X10722024Y-16425094D02*
X10731547Y-16386999D01*
X10731547Y-16386999D02*
X10741071Y-16367951D01*
X10741071Y-16367951D02*
X10750595Y-16358428D01*
X10750595Y-16358428D02*
X10769643Y-16348904D01*
X10960119Y-16348904D02*
X10979166Y-16348904D01*
X10979166Y-16348904D02*
X10998214Y-16358428D01*
X10998214Y-16358428D02*
X11007738Y-16367951D01*
X11007738Y-16367951D02*
X11017262Y-16386999D01*
X11017262Y-16386999D02*
X11026785Y-16425094D01*
X11026785Y-16425094D02*
X11026785Y-16472713D01*
X11026785Y-16472713D02*
X11017262Y-16510808D01*
X11017262Y-16510808D02*
X11007738Y-16529856D01*
X11007738Y-16529856D02*
X10998214Y-16539380D01*
X10998214Y-16539380D02*
X10979166Y-16548904D01*
X10979166Y-16548904D02*
X10960119Y-16548904D01*
X10960119Y-16548904D02*
X10941071Y-16539380D01*
X10941071Y-16539380D02*
X10931547Y-16529856D01*
X10931547Y-16529856D02*
X10922024Y-16510808D01*
X10922024Y-16510808D02*
X10912500Y-16472713D01*
X10912500Y-16472713D02*
X10912500Y-16425094D01*
X10912500Y-16425094D02*
X10922024Y-16386999D01*
X10922024Y-16386999D02*
X10931547Y-16367951D01*
X10931547Y-16367951D02*
X10941071Y-16358428D01*
X10941071Y-16358428D02*
X10960119Y-16348904D01*
X11112500Y-16548904D02*
X11112500Y-16415570D01*
X11112500Y-16434618D02*
X11122024Y-16425094D01*
X11122024Y-16425094D02*
X11141071Y-16415570D01*
X11141071Y-16415570D02*
X11169643Y-16415570D01*
X11169643Y-16415570D02*
X11188690Y-16425094D01*
X11188690Y-16425094D02*
X11198214Y-16444142D01*
X11198214Y-16444142D02*
X11198214Y-16548904D01*
X11198214Y-16444142D02*
X11207738Y-16425094D01*
X11207738Y-16425094D02*
X11226785Y-16415570D01*
X11226785Y-16415570D02*
X11255357Y-16415570D01*
X11255357Y-16415570D02*
X11274404Y-16425094D01*
X11274404Y-16425094D02*
X11283928Y-16444142D01*
X11283928Y-16444142D02*
X11283928Y-16548904D01*
X11379166Y-16548904D02*
X11379166Y-16415570D01*
X11379166Y-16434618D02*
X11388690Y-16425094D01*
X11388690Y-16425094D02*
X11407738Y-16415570D01*
X11407738Y-16415570D02*
X11436309Y-16415570D01*
X11436309Y-16415570D02*
X11455357Y-16425094D01*
X11455357Y-16425094D02*
X11464881Y-16444142D01*
X11464881Y-16444142D02*
X11464881Y-16548904D01*
X11464881Y-16444142D02*
X11474404Y-16425094D01*
X11474404Y-16425094D02*
X11493452Y-16415570D01*
X11493452Y-16415570D02*
X11522023Y-16415570D01*
X11522023Y-16415570D02*
X11541071Y-16425094D01*
X11541071Y-16425094D02*
X11550595Y-16444142D01*
X11550595Y-16444142D02*
X11550595Y-16548904D01*
X11941071Y-16339380D02*
X11769643Y-16596523D01*
X12198214Y-16348904D02*
X12217262Y-16348904D01*
X12217262Y-16348904D02*
X12236309Y-16358428D01*
X12236309Y-16358428D02*
X12245833Y-16367951D01*
X12245833Y-16367951D02*
X12255357Y-16386999D01*
X12255357Y-16386999D02*
X12264881Y-16425094D01*
X12264881Y-16425094D02*
X12264881Y-16472713D01*
X12264881Y-16472713D02*
X12255357Y-16510808D01*
X12255357Y-16510808D02*
X12245833Y-16529856D01*
X12245833Y-16529856D02*
X12236309Y-16539380D01*
X12236309Y-16539380D02*
X12217262Y-16548904D01*
X12217262Y-16548904D02*
X12198214Y-16548904D01*
X12198214Y-16548904D02*
X12179166Y-16539380D01*
X12179166Y-16539380D02*
X12169643Y-16529856D01*
X12169643Y-16529856D02*
X12160119Y-16510808D01*
X12160119Y-16510808D02*
X12150595Y-16472713D01*
X12150595Y-16472713D02*
X12150595Y-16425094D01*
X12150595Y-16425094D02*
X12160119Y-16386999D01*
X12160119Y-16386999D02*
X12169643Y-16367951D01*
X12169643Y-16367951D02*
X12179166Y-16358428D01*
X12179166Y-16358428D02*
X12198214Y-16348904D01*
X12350595Y-16529856D02*
X12360119Y-16539380D01*
X12360119Y-16539380D02*
X12350595Y-16548904D01*
X12350595Y-16548904D02*
X12341071Y-16539380D01*
X12341071Y-16539380D02*
X12350595Y-16529856D01*
X12350595Y-16529856D02*
X12350595Y-16548904D01*
X12483928Y-16348904D02*
X12502976Y-16348904D01*
X12502976Y-16348904D02*
X12522024Y-16358428D01*
X12522024Y-16358428D02*
X12531547Y-16367951D01*
X12531547Y-16367951D02*
X12541071Y-16386999D01*
X12541071Y-16386999D02*
X12550595Y-16425094D01*
X12550595Y-16425094D02*
X12550595Y-16472713D01*
X12550595Y-16472713D02*
X12541071Y-16510808D01*
X12541071Y-16510808D02*
X12531547Y-16529856D01*
X12531547Y-16529856D02*
X12522024Y-16539380D01*
X12522024Y-16539380D02*
X12502976Y-16548904D01*
X12502976Y-16548904D02*
X12483928Y-16548904D01*
X12483928Y-16548904D02*
X12464881Y-16539380D01*
X12464881Y-16539380D02*
X12455357Y-16529856D01*
X12455357Y-16529856D02*
X12445833Y-16510808D01*
X12445833Y-16510808D02*
X12436309Y-16472713D01*
X12436309Y-16472713D02*
X12436309Y-16425094D01*
X12436309Y-16425094D02*
X12445833Y-16386999D01*
X12445833Y-16386999D02*
X12455357Y-16367951D01*
X12455357Y-16367951D02*
X12464881Y-16358428D01*
X12464881Y-16358428D02*
X12483928Y-16348904D01*
X12722024Y-16348904D02*
X12683928Y-16348904D01*
X12683928Y-16348904D02*
X12664881Y-16358428D01*
X12664881Y-16358428D02*
X12655357Y-16367951D01*
X12655357Y-16367951D02*
X12636309Y-16396523D01*
X12636309Y-16396523D02*
X12626786Y-16434618D01*
X12626786Y-16434618D02*
X12626786Y-16510808D01*
X12626786Y-16510808D02*
X12636309Y-16529856D01*
X12636309Y-16529856D02*
X12645833Y-16539380D01*
X12645833Y-16539380D02*
X12664881Y-16548904D01*
X12664881Y-16548904D02*
X12702976Y-16548904D01*
X12702976Y-16548904D02*
X12722024Y-16539380D01*
X12722024Y-16539380D02*
X12731547Y-16529856D01*
X12731547Y-16529856D02*
X12741071Y-16510808D01*
X12741071Y-16510808D02*
X12741071Y-16463189D01*
X12741071Y-16463189D02*
X12731547Y-16444142D01*
X12731547Y-16444142D02*
X12722024Y-16434618D01*
X12722024Y-16434618D02*
X12702976Y-16425094D01*
X12702976Y-16425094D02*
X12664881Y-16425094D01*
X12664881Y-16425094D02*
X12645833Y-16434618D01*
X12645833Y-16434618D02*
X12636309Y-16444142D01*
X12636309Y-16444142D02*
X12626786Y-16463189D01*
X12912500Y-16348904D02*
X12874405Y-16348904D01*
X12874405Y-16348904D02*
X12855357Y-16358428D01*
X12855357Y-16358428D02*
X12845833Y-16367951D01*
X12845833Y-16367951D02*
X12826786Y-16396523D01*
X12826786Y-16396523D02*
X12817262Y-16434618D01*
X12817262Y-16434618D02*
X12817262Y-16510808D01*
X12817262Y-16510808D02*
X12826786Y-16529856D01*
X12826786Y-16529856D02*
X12836309Y-16539380D01*
X12836309Y-16539380D02*
X12855357Y-16548904D01*
X12855357Y-16548904D02*
X12893452Y-16548904D01*
X12893452Y-16548904D02*
X12912500Y-16539380D01*
X12912500Y-16539380D02*
X12922024Y-16529856D01*
X12922024Y-16529856D02*
X12931547Y-16510808D01*
X12931547Y-16510808D02*
X12931547Y-16463189D01*
X12931547Y-16463189D02*
X12922024Y-16444142D01*
X12922024Y-16444142D02*
X12912500Y-16434618D01*
X12912500Y-16434618D02*
X12893452Y-16425094D01*
X12893452Y-16425094D02*
X12855357Y-16425094D01*
X12855357Y-16425094D02*
X12836309Y-16434618D01*
X12836309Y-16434618D02*
X12826786Y-16444142D01*
X12826786Y-16444142D02*
X12817262Y-16463189D01*
X13026786Y-16548904D02*
X13064881Y-16548904D01*
X13064881Y-16548904D02*
X13083928Y-16539380D01*
X13083928Y-16539380D02*
X13093452Y-16529856D01*
X13093452Y-16529856D02*
X13112500Y-16501285D01*
X13112500Y-16501285D02*
X13122024Y-16463189D01*
X13122024Y-16463189D02*
X13122024Y-16386999D01*
X13122024Y-16386999D02*
X13112500Y-16367951D01*
X13112500Y-16367951D02*
X13102976Y-16358428D01*
X13102976Y-16358428D02*
X13083928Y-16348904D01*
X13083928Y-16348904D02*
X13045833Y-16348904D01*
X13045833Y-16348904D02*
X13026786Y-16358428D01*
X13026786Y-16358428D02*
X13017262Y-16367951D01*
X13017262Y-16367951D02*
X13007738Y-16386999D01*
X13007738Y-16386999D02*
X13007738Y-16434618D01*
X13007738Y-16434618D02*
X13017262Y-16453666D01*
X13017262Y-16453666D02*
X13026786Y-16463189D01*
X13026786Y-16463189D02*
X13045833Y-16472713D01*
X13045833Y-16472713D02*
X13083928Y-16472713D01*
X13083928Y-16472713D02*
X13102976Y-16463189D01*
X13102976Y-16463189D02*
X13112500Y-16453666D01*
X13112500Y-16453666D02*
X13122024Y-16434618D01*
X13198214Y-16348904D02*
X13198214Y-16386999D01*
X13274405Y-16348904D02*
X13274405Y-16386999D01*
X13569643Y-16625094D02*
X13560119Y-16615570D01*
X13560119Y-16615570D02*
X13541071Y-16586999D01*
X13541071Y-16586999D02*
X13531548Y-16567951D01*
X13531548Y-16567951D02*
X13522024Y-16539380D01*
X13522024Y-16539380D02*
X13512500Y-16491761D01*
X13512500Y-16491761D02*
X13512500Y-16453666D01*
X13512500Y-16453666D02*
X13522024Y-16406047D01*
X13522024Y-16406047D02*
X13531548Y-16377475D01*
X13531548Y-16377475D02*
X13541071Y-16358428D01*
X13541071Y-16358428D02*
X13560119Y-16329856D01*
X13560119Y-16329856D02*
X13569643Y-16320332D01*
X13626786Y-16348904D02*
X13760119Y-16348904D01*
X13760119Y-16348904D02*
X13674405Y-16548904D01*
X13988690Y-16548904D02*
X13988690Y-16348904D01*
X14074405Y-16548904D02*
X14074405Y-16444142D01*
X14074405Y-16444142D02*
X14064881Y-16425094D01*
X14064881Y-16425094D02*
X14045833Y-16415570D01*
X14045833Y-16415570D02*
X14017262Y-16415570D01*
X14017262Y-16415570D02*
X13998214Y-16425094D01*
X13998214Y-16425094D02*
X13988690Y-16434618D01*
X14198214Y-16548904D02*
X14179167Y-16539380D01*
X14179167Y-16539380D02*
X14169643Y-16529856D01*
X14169643Y-16529856D02*
X14160119Y-16510808D01*
X14160119Y-16510808D02*
X14160119Y-16453666D01*
X14160119Y-16453666D02*
X14169643Y-16434618D01*
X14169643Y-16434618D02*
X14179167Y-16425094D01*
X14179167Y-16425094D02*
X14198214Y-16415570D01*
X14198214Y-16415570D02*
X14226786Y-16415570D01*
X14226786Y-16415570D02*
X14245833Y-16425094D01*
X14245833Y-16425094D02*
X14255357Y-16434618D01*
X14255357Y-16434618D02*
X14264881Y-16453666D01*
X14264881Y-16453666D02*
X14264881Y-16510808D01*
X14264881Y-16510808D02*
X14255357Y-16529856D01*
X14255357Y-16529856D02*
X14245833Y-16539380D01*
X14245833Y-16539380D02*
X14226786Y-16548904D01*
X14226786Y-16548904D02*
X14198214Y-16548904D01*
X14379167Y-16548904D02*
X14360119Y-16539380D01*
X14360119Y-16539380D02*
X14350595Y-16520332D01*
X14350595Y-16520332D02*
X14350595Y-16348904D01*
X14531548Y-16539380D02*
X14512500Y-16548904D01*
X14512500Y-16548904D02*
X14474405Y-16548904D01*
X14474405Y-16548904D02*
X14455357Y-16539380D01*
X14455357Y-16539380D02*
X14445833Y-16520332D01*
X14445833Y-16520332D02*
X14445833Y-16444142D01*
X14445833Y-16444142D02*
X14455357Y-16425094D01*
X14455357Y-16425094D02*
X14474405Y-16415570D01*
X14474405Y-16415570D02*
X14512500Y-16415570D01*
X14512500Y-16415570D02*
X14531548Y-16425094D01*
X14531548Y-16425094D02*
X14541071Y-16444142D01*
X14541071Y-16444142D02*
X14541071Y-16463189D01*
X14541071Y-16463189D02*
X14445833Y-16482237D01*
X14617262Y-16539380D02*
X14636310Y-16548904D01*
X14636310Y-16548904D02*
X14674405Y-16548904D01*
X14674405Y-16548904D02*
X14693452Y-16539380D01*
X14693452Y-16539380D02*
X14702976Y-16520332D01*
X14702976Y-16520332D02*
X14702976Y-16510808D01*
X14702976Y-16510808D02*
X14693452Y-16491761D01*
X14693452Y-16491761D02*
X14674405Y-16482237D01*
X14674405Y-16482237D02*
X14645833Y-16482237D01*
X14645833Y-16482237D02*
X14626786Y-16472713D01*
X14626786Y-16472713D02*
X14617262Y-16453666D01*
X14617262Y-16453666D02*
X14617262Y-16444142D01*
X14617262Y-16444142D02*
X14626786Y-16425094D01*
X14626786Y-16425094D02*
X14645833Y-16415570D01*
X14645833Y-16415570D02*
X14674405Y-16415570D01*
X14674405Y-16415570D02*
X14693452Y-16425094D01*
X14769643Y-16625094D02*
X14779167Y-16615570D01*
X14779167Y-16615570D02*
X14798214Y-16586999D01*
X14798214Y-16586999D02*
X14807738Y-16567951D01*
X14807738Y-16567951D02*
X14817262Y-16539380D01*
X14817262Y-16539380D02*
X14826786Y-16491761D01*
X14826786Y-16491761D02*
X14826786Y-16453666D01*
X14826786Y-16453666D02*
X14817262Y-16406047D01*
X14817262Y-16406047D02*
X14807738Y-16377475D01*
X14807738Y-16377475D02*
X14798214Y-16358428D01*
X14798214Y-16358428D02*
X14779167Y-16329856D01*
X14779167Y-16329856D02*
X14769643Y-16320332D01*
D14*
X9809580Y-16654920D02*
X9994580Y-16839920D01*
X9994580Y-16654920D02*
X9809580Y-16839920D01*
X9994580Y-16747420D02*
G75*
G02*
X9809580Y-16747420I-92500J0D01*
G01*
X9809580Y-16747420D02*
G75*
G02*
X9994580Y-16747420I92500J0D01*
G01*
D11*
X10360119Y-16838904D02*
X10245833Y-16838904D01*
X10302976Y-16838904D02*
X10302976Y-16638904D01*
X10302976Y-16638904D02*
X10283928Y-16667475D01*
X10283928Y-16667475D02*
X10264881Y-16686523D01*
X10264881Y-16686523D02*
X10245833Y-16696047D01*
X10445833Y-16819856D02*
X10455357Y-16829380D01*
X10455357Y-16829380D02*
X10445833Y-16838904D01*
X10445833Y-16838904D02*
X10436309Y-16829380D01*
X10436309Y-16829380D02*
X10445833Y-16819856D01*
X10445833Y-16819856D02*
X10445833Y-16838904D01*
X10569643Y-16724618D02*
X10550595Y-16715094D01*
X10550595Y-16715094D02*
X10541071Y-16705570D01*
X10541071Y-16705570D02*
X10531547Y-16686523D01*
X10531547Y-16686523D02*
X10531547Y-16676999D01*
X10531547Y-16676999D02*
X10541071Y-16657951D01*
X10541071Y-16657951D02*
X10550595Y-16648428D01*
X10550595Y-16648428D02*
X10569643Y-16638904D01*
X10569643Y-16638904D02*
X10607738Y-16638904D01*
X10607738Y-16638904D02*
X10626785Y-16648428D01*
X10626785Y-16648428D02*
X10636309Y-16657951D01*
X10636309Y-16657951D02*
X10645833Y-16676999D01*
X10645833Y-16676999D02*
X10645833Y-16686523D01*
X10645833Y-16686523D02*
X10636309Y-16705570D01*
X10636309Y-16705570D02*
X10626785Y-16715094D01*
X10626785Y-16715094D02*
X10607738Y-16724618D01*
X10607738Y-16724618D02*
X10569643Y-16724618D01*
X10569643Y-16724618D02*
X10550595Y-16734142D01*
X10550595Y-16734142D02*
X10541071Y-16743666D01*
X10541071Y-16743666D02*
X10531547Y-16762713D01*
X10531547Y-16762713D02*
X10531547Y-16800809D01*
X10531547Y-16800809D02*
X10541071Y-16819856D01*
X10541071Y-16819856D02*
X10550595Y-16829380D01*
X10550595Y-16829380D02*
X10569643Y-16838904D01*
X10569643Y-16838904D02*
X10607738Y-16838904D01*
X10607738Y-16838904D02*
X10626785Y-16829380D01*
X10626785Y-16829380D02*
X10636309Y-16819856D01*
X10636309Y-16819856D02*
X10645833Y-16800809D01*
X10645833Y-16800809D02*
X10645833Y-16762713D01*
X10645833Y-16762713D02*
X10636309Y-16743666D01*
X10636309Y-16743666D02*
X10626785Y-16734142D01*
X10626785Y-16734142D02*
X10607738Y-16724618D01*
X10826785Y-16638904D02*
X10731547Y-16638904D01*
X10731547Y-16638904D02*
X10722024Y-16734142D01*
X10722024Y-16734142D02*
X10731547Y-16724618D01*
X10731547Y-16724618D02*
X10750595Y-16715094D01*
X10750595Y-16715094D02*
X10798214Y-16715094D01*
X10798214Y-16715094D02*
X10817262Y-16724618D01*
X10817262Y-16724618D02*
X10826785Y-16734142D01*
X10826785Y-16734142D02*
X10836309Y-16753189D01*
X10836309Y-16753189D02*
X10836309Y-16800809D01*
X10836309Y-16800809D02*
X10826785Y-16819856D01*
X10826785Y-16819856D02*
X10817262Y-16829380D01*
X10817262Y-16829380D02*
X10798214Y-16838904D01*
X10798214Y-16838904D02*
X10750595Y-16838904D01*
X10750595Y-16838904D02*
X10731547Y-16829380D01*
X10731547Y-16829380D02*
X10722024Y-16819856D01*
X10960119Y-16638904D02*
X10979166Y-16638904D01*
X10979166Y-16638904D02*
X10998214Y-16648428D01*
X10998214Y-16648428D02*
X11007738Y-16657951D01*
X11007738Y-16657951D02*
X11017262Y-16676999D01*
X11017262Y-16676999D02*
X11026785Y-16715094D01*
X11026785Y-16715094D02*
X11026785Y-16762713D01*
X11026785Y-16762713D02*
X11017262Y-16800809D01*
X11017262Y-16800809D02*
X11007738Y-16819856D01*
X11007738Y-16819856D02*
X10998214Y-16829380D01*
X10998214Y-16829380D02*
X10979166Y-16838904D01*
X10979166Y-16838904D02*
X10960119Y-16838904D01*
X10960119Y-16838904D02*
X10941071Y-16829380D01*
X10941071Y-16829380D02*
X10931547Y-16819856D01*
X10931547Y-16819856D02*
X10922024Y-16800809D01*
X10922024Y-16800809D02*
X10912500Y-16762713D01*
X10912500Y-16762713D02*
X10912500Y-16715094D01*
X10912500Y-16715094D02*
X10922024Y-16676999D01*
X10922024Y-16676999D02*
X10931547Y-16657951D01*
X10931547Y-16657951D02*
X10941071Y-16648428D01*
X10941071Y-16648428D02*
X10960119Y-16638904D01*
X11112500Y-16838904D02*
X11112500Y-16705570D01*
X11112500Y-16724618D02*
X11122024Y-16715094D01*
X11122024Y-16715094D02*
X11141071Y-16705570D01*
X11141071Y-16705570D02*
X11169643Y-16705570D01*
X11169643Y-16705570D02*
X11188690Y-16715094D01*
X11188690Y-16715094D02*
X11198214Y-16734142D01*
X11198214Y-16734142D02*
X11198214Y-16838904D01*
X11198214Y-16734142D02*
X11207738Y-16715094D01*
X11207738Y-16715094D02*
X11226785Y-16705570D01*
X11226785Y-16705570D02*
X11255357Y-16705570D01*
X11255357Y-16705570D02*
X11274404Y-16715094D01*
X11274404Y-16715094D02*
X11283928Y-16734142D01*
X11283928Y-16734142D02*
X11283928Y-16838904D01*
X11379166Y-16838904D02*
X11379166Y-16705570D01*
X11379166Y-16724618D02*
X11388690Y-16715094D01*
X11388690Y-16715094D02*
X11407738Y-16705570D01*
X11407738Y-16705570D02*
X11436309Y-16705570D01*
X11436309Y-16705570D02*
X11455357Y-16715094D01*
X11455357Y-16715094D02*
X11464881Y-16734142D01*
X11464881Y-16734142D02*
X11464881Y-16838904D01*
X11464881Y-16734142D02*
X11474404Y-16715094D01*
X11474404Y-16715094D02*
X11493452Y-16705570D01*
X11493452Y-16705570D02*
X11522023Y-16705570D01*
X11522023Y-16705570D02*
X11541071Y-16715094D01*
X11541071Y-16715094D02*
X11550595Y-16734142D01*
X11550595Y-16734142D02*
X11550595Y-16838904D01*
X11941071Y-16629380D02*
X11769643Y-16886523D01*
X12198214Y-16638904D02*
X12217262Y-16638904D01*
X12217262Y-16638904D02*
X12236309Y-16648428D01*
X12236309Y-16648428D02*
X12245833Y-16657951D01*
X12245833Y-16657951D02*
X12255357Y-16676999D01*
X12255357Y-16676999D02*
X12264881Y-16715094D01*
X12264881Y-16715094D02*
X12264881Y-16762713D01*
X12264881Y-16762713D02*
X12255357Y-16800809D01*
X12255357Y-16800809D02*
X12245833Y-16819856D01*
X12245833Y-16819856D02*
X12236309Y-16829380D01*
X12236309Y-16829380D02*
X12217262Y-16838904D01*
X12217262Y-16838904D02*
X12198214Y-16838904D01*
X12198214Y-16838904D02*
X12179166Y-16829380D01*
X12179166Y-16829380D02*
X12169643Y-16819856D01*
X12169643Y-16819856D02*
X12160119Y-16800809D01*
X12160119Y-16800809D02*
X12150595Y-16762713D01*
X12150595Y-16762713D02*
X12150595Y-16715094D01*
X12150595Y-16715094D02*
X12160119Y-16676999D01*
X12160119Y-16676999D02*
X12169643Y-16657951D01*
X12169643Y-16657951D02*
X12179166Y-16648428D01*
X12179166Y-16648428D02*
X12198214Y-16638904D01*
X12350595Y-16819856D02*
X12360119Y-16829380D01*
X12360119Y-16829380D02*
X12350595Y-16838904D01*
X12350595Y-16838904D02*
X12341071Y-16829380D01*
X12341071Y-16829380D02*
X12350595Y-16819856D01*
X12350595Y-16819856D02*
X12350595Y-16838904D01*
X12483928Y-16638904D02*
X12502976Y-16638904D01*
X12502976Y-16638904D02*
X12522024Y-16648428D01*
X12522024Y-16648428D02*
X12531547Y-16657951D01*
X12531547Y-16657951D02*
X12541071Y-16676999D01*
X12541071Y-16676999D02*
X12550595Y-16715094D01*
X12550595Y-16715094D02*
X12550595Y-16762713D01*
X12550595Y-16762713D02*
X12541071Y-16800809D01*
X12541071Y-16800809D02*
X12531547Y-16819856D01*
X12531547Y-16819856D02*
X12522024Y-16829380D01*
X12522024Y-16829380D02*
X12502976Y-16838904D01*
X12502976Y-16838904D02*
X12483928Y-16838904D01*
X12483928Y-16838904D02*
X12464881Y-16829380D01*
X12464881Y-16829380D02*
X12455357Y-16819856D01*
X12455357Y-16819856D02*
X12445833Y-16800809D01*
X12445833Y-16800809D02*
X12436309Y-16762713D01*
X12436309Y-16762713D02*
X12436309Y-16715094D01*
X12436309Y-16715094D02*
X12445833Y-16676999D01*
X12445833Y-16676999D02*
X12455357Y-16657951D01*
X12455357Y-16657951D02*
X12464881Y-16648428D01*
X12464881Y-16648428D02*
X12483928Y-16638904D01*
X12617262Y-16638904D02*
X12750595Y-16638904D01*
X12750595Y-16638904D02*
X12664881Y-16838904D01*
X12817262Y-16657951D02*
X12826786Y-16648428D01*
X12826786Y-16648428D02*
X12845833Y-16638904D01*
X12845833Y-16638904D02*
X12893452Y-16638904D01*
X12893452Y-16638904D02*
X12912500Y-16648428D01*
X12912500Y-16648428D02*
X12922024Y-16657951D01*
X12922024Y-16657951D02*
X12931547Y-16676999D01*
X12931547Y-16676999D02*
X12931547Y-16696047D01*
X12931547Y-16696047D02*
X12922024Y-16724618D01*
X12922024Y-16724618D02*
X12807738Y-16838904D01*
X12807738Y-16838904D02*
X12931547Y-16838904D01*
X13045833Y-16724618D02*
X13026786Y-16715094D01*
X13026786Y-16715094D02*
X13017262Y-16705570D01*
X13017262Y-16705570D02*
X13007738Y-16686523D01*
X13007738Y-16686523D02*
X13007738Y-16676999D01*
X13007738Y-16676999D02*
X13017262Y-16657951D01*
X13017262Y-16657951D02*
X13026786Y-16648428D01*
X13026786Y-16648428D02*
X13045833Y-16638904D01*
X13045833Y-16638904D02*
X13083928Y-16638904D01*
X13083928Y-16638904D02*
X13102976Y-16648428D01*
X13102976Y-16648428D02*
X13112500Y-16657951D01*
X13112500Y-16657951D02*
X13122024Y-16676999D01*
X13122024Y-16676999D02*
X13122024Y-16686523D01*
X13122024Y-16686523D02*
X13112500Y-16705570D01*
X13112500Y-16705570D02*
X13102976Y-16715094D01*
X13102976Y-16715094D02*
X13083928Y-16724618D01*
X13083928Y-16724618D02*
X13045833Y-16724618D01*
X13045833Y-16724618D02*
X13026786Y-16734142D01*
X13026786Y-16734142D02*
X13017262Y-16743666D01*
X13017262Y-16743666D02*
X13007738Y-16762713D01*
X13007738Y-16762713D02*
X13007738Y-16800809D01*
X13007738Y-16800809D02*
X13017262Y-16819856D01*
X13017262Y-16819856D02*
X13026786Y-16829380D01*
X13026786Y-16829380D02*
X13045833Y-16838904D01*
X13045833Y-16838904D02*
X13083928Y-16838904D01*
X13083928Y-16838904D02*
X13102976Y-16829380D01*
X13102976Y-16829380D02*
X13112500Y-16819856D01*
X13112500Y-16819856D02*
X13122024Y-16800809D01*
X13122024Y-16800809D02*
X13122024Y-16762713D01*
X13122024Y-16762713D02*
X13112500Y-16743666D01*
X13112500Y-16743666D02*
X13102976Y-16734142D01*
X13102976Y-16734142D02*
X13083928Y-16724618D01*
X13198214Y-16638904D02*
X13198214Y-16676999D01*
X13274405Y-16638904D02*
X13274405Y-16676999D01*
X13569643Y-16915094D02*
X13560119Y-16905570D01*
X13560119Y-16905570D02*
X13541071Y-16876999D01*
X13541071Y-16876999D02*
X13531548Y-16857951D01*
X13531548Y-16857951D02*
X13522024Y-16829380D01*
X13522024Y-16829380D02*
X13512500Y-16781761D01*
X13512500Y-16781761D02*
X13512500Y-16743666D01*
X13512500Y-16743666D02*
X13522024Y-16696047D01*
X13522024Y-16696047D02*
X13531548Y-16667475D01*
X13531548Y-16667475D02*
X13541071Y-16648428D01*
X13541071Y-16648428D02*
X13560119Y-16619856D01*
X13560119Y-16619856D02*
X13569643Y-16610332D01*
X13731548Y-16705570D02*
X13731548Y-16838904D01*
X13683928Y-16629380D02*
X13636309Y-16772237D01*
X13636309Y-16772237D02*
X13760119Y-16772237D01*
X13988690Y-16838904D02*
X13988690Y-16638904D01*
X14074405Y-16838904D02*
X14074405Y-16734142D01*
X14074405Y-16734142D02*
X14064881Y-16715094D01*
X14064881Y-16715094D02*
X14045833Y-16705570D01*
X14045833Y-16705570D02*
X14017262Y-16705570D01*
X14017262Y-16705570D02*
X13998214Y-16715094D01*
X13998214Y-16715094D02*
X13988690Y-16724618D01*
X14198214Y-16838904D02*
X14179167Y-16829380D01*
X14179167Y-16829380D02*
X14169643Y-16819856D01*
X14169643Y-16819856D02*
X14160119Y-16800809D01*
X14160119Y-16800809D02*
X14160119Y-16743666D01*
X14160119Y-16743666D02*
X14169643Y-16724618D01*
X14169643Y-16724618D02*
X14179167Y-16715094D01*
X14179167Y-16715094D02*
X14198214Y-16705570D01*
X14198214Y-16705570D02*
X14226786Y-16705570D01*
X14226786Y-16705570D02*
X14245833Y-16715094D01*
X14245833Y-16715094D02*
X14255357Y-16724618D01*
X14255357Y-16724618D02*
X14264881Y-16743666D01*
X14264881Y-16743666D02*
X14264881Y-16800809D01*
X14264881Y-16800809D02*
X14255357Y-16819856D01*
X14255357Y-16819856D02*
X14245833Y-16829380D01*
X14245833Y-16829380D02*
X14226786Y-16838904D01*
X14226786Y-16838904D02*
X14198214Y-16838904D01*
X14379167Y-16838904D02*
X14360119Y-16829380D01*
X14360119Y-16829380D02*
X14350595Y-16810332D01*
X14350595Y-16810332D02*
X14350595Y-16638904D01*
X14531548Y-16829380D02*
X14512500Y-16838904D01*
X14512500Y-16838904D02*
X14474405Y-16838904D01*
X14474405Y-16838904D02*
X14455357Y-16829380D01*
X14455357Y-16829380D02*
X14445833Y-16810332D01*
X14445833Y-16810332D02*
X14445833Y-16734142D01*
X14445833Y-16734142D02*
X14455357Y-16715094D01*
X14455357Y-16715094D02*
X14474405Y-16705570D01*
X14474405Y-16705570D02*
X14512500Y-16705570D01*
X14512500Y-16705570D02*
X14531548Y-16715094D01*
X14531548Y-16715094D02*
X14541071Y-16734142D01*
X14541071Y-16734142D02*
X14541071Y-16753189D01*
X14541071Y-16753189D02*
X14445833Y-16772237D01*
X14617262Y-16829380D02*
X14636310Y-16838904D01*
X14636310Y-16838904D02*
X14674405Y-16838904D01*
X14674405Y-16838904D02*
X14693452Y-16829380D01*
X14693452Y-16829380D02*
X14702976Y-16810332D01*
X14702976Y-16810332D02*
X14702976Y-16800809D01*
X14702976Y-16800809D02*
X14693452Y-16781761D01*
X14693452Y-16781761D02*
X14674405Y-16772237D01*
X14674405Y-16772237D02*
X14645833Y-16772237D01*
X14645833Y-16772237D02*
X14626786Y-16762713D01*
X14626786Y-16762713D02*
X14617262Y-16743666D01*
X14617262Y-16743666D02*
X14617262Y-16734142D01*
X14617262Y-16734142D02*
X14626786Y-16715094D01*
X14626786Y-16715094D02*
X14645833Y-16705570D01*
X14645833Y-16705570D02*
X14674405Y-16705570D01*
X14674405Y-16705570D02*
X14693452Y-16715094D01*
X14769643Y-16915094D02*
X14779167Y-16905570D01*
X14779167Y-16905570D02*
X14798214Y-16876999D01*
X14798214Y-16876999D02*
X14807738Y-16857951D01*
X14807738Y-16857951D02*
X14817262Y-16829380D01*
X14817262Y-16829380D02*
X14826786Y-16781761D01*
X14826786Y-16781761D02*
X14826786Y-16743666D01*
X14826786Y-16743666D02*
X14817262Y-16696047D01*
X14817262Y-16696047D02*
X14807738Y-16667475D01*
X14807738Y-16667475D02*
X14798214Y-16648428D01*
X14798214Y-16648428D02*
X14779167Y-16619856D01*
X14779167Y-16619856D02*
X14769643Y-16610332D01*
M02*
