G04 #@! TF.GenerationSoftware,KiCad,Pcbnew,8.0.4*
G04 #@! TF.CreationDate,2024-09-09T14:04:52-07:00*
G04 #@! TF.ProjectId,Bottom_Board,426f7474-6f6d-45f4-926f-6172642e6b69,0*
G04 #@! TF.SameCoordinates,Original*
G04 #@! TF.FileFunction,Paste,Bot*
G04 #@! TF.FilePolarity,Positive*
%FSLAX46Y46*%
G04 Gerber Fmt 4.6, Leading zero omitted, Abs format (unit mm)*
G04 Created by KiCad (PCBNEW 8.0.4) date 2024-09-09 14:04:52*
%MOMM*%
%LPD*%
G01*
G04 APERTURE LIST*
G04 Aperture macros list*
%AMRoundRect*
0 Rectangle with rounded corners*
0 $1 Rounding radius*
0 $2 $3 $4 $5 $6 $7 $8 $9 X,Y pos of 4 corners*
0 Add a 4 corners polygon primitive as box body*
4,1,4,$2,$3,$4,$5,$6,$7,$8,$9,$2,$3,0*
0 Add four circle primitives for the rounded corners*
1,1,$1+$1,$2,$3*
1,1,$1+$1,$4,$5*
1,1,$1+$1,$6,$7*
1,1,$1+$1,$8,$9*
0 Add four rect primitives between the rounded corners*
20,1,$1+$1,$2,$3,$4,$5,0*
20,1,$1+$1,$4,$5,$6,$7,0*
20,1,$1+$1,$6,$7,$8,$9,0*
20,1,$1+$1,$8,$9,$2,$3,0*%
G04 Aperture macros list end*
%ADD10RoundRect,0.200000X-0.275000X0.200000X-0.275000X-0.200000X0.275000X-0.200000X0.275000X0.200000X0*%
%ADD11RoundRect,0.225000X-0.225000X-0.250000X0.225000X-0.250000X0.225000X0.250000X-0.225000X0.250000X0*%
%ADD12RoundRect,0.200000X0.275000X-0.200000X0.275000X0.200000X-0.275000X0.200000X-0.275000X-0.200000X0*%
%ADD13RoundRect,0.200000X0.200000X0.275000X-0.200000X0.275000X-0.200000X-0.275000X0.200000X-0.275000X0*%
%ADD14RoundRect,0.150000X0.825000X0.150000X-0.825000X0.150000X-0.825000X-0.150000X0.825000X-0.150000X0*%
%ADD15RoundRect,0.225000X0.225000X0.250000X-0.225000X0.250000X-0.225000X-0.250000X0.225000X-0.250000X0*%
%ADD16O,1.350000X0.299999*%
%ADD17RoundRect,0.200000X-0.200000X-0.275000X0.200000X-0.275000X0.200000X0.275000X-0.200000X0.275000X0*%
%ADD18RoundRect,0.225000X0.250000X-0.225000X0.250000X0.225000X-0.250000X0.225000X-0.250000X-0.225000X0*%
%ADD19RoundRect,0.125000X-0.200000X-0.125000X0.200000X-0.125000X0.200000X0.125000X-0.200000X0.125000X0*%
G04 APERTURE END LIST*
D10*
X129616200Y-94679000D03*
X129616200Y-96329000D03*
X116332000Y-95504000D03*
X116332000Y-97154000D03*
D11*
X126466600Y-119076200D03*
X128016600Y-119076200D03*
D12*
X132397600Y-102774500D03*
X132397600Y-101124500D03*
D13*
X121920000Y-125360000D03*
X120270000Y-125360000D03*
D11*
X132334000Y-85648800D03*
X133884000Y-85648800D03*
D14*
X123633000Y-88138000D03*
X123633000Y-89408000D03*
X123633000Y-90678000D03*
X123633000Y-91948000D03*
X123633000Y-93218000D03*
X123633000Y-94488000D03*
X123633000Y-95758000D03*
X118683000Y-95758000D03*
X118683000Y-94488000D03*
X118683000Y-93218000D03*
X118683000Y-91948000D03*
X118683000Y-90678000D03*
X118683000Y-89408000D03*
X118683000Y-88138000D03*
X122617000Y-107442000D03*
X122617000Y-108712000D03*
X122617000Y-109982000D03*
X122617000Y-111252000D03*
X122617000Y-112522000D03*
X122617000Y-113792000D03*
X122617000Y-115062000D03*
X117667000Y-115062000D03*
X117667000Y-113792000D03*
X117667000Y-112522000D03*
X117667000Y-111252000D03*
X117667000Y-109982000D03*
X117667000Y-108712000D03*
X117667000Y-107442000D03*
D15*
X108725000Y-130070000D03*
X107175000Y-130070000D03*
D10*
X132308600Y-110122200D03*
X132308600Y-111772200D03*
X127762000Y-94679000D03*
X127762000Y-96329000D03*
D15*
X154839000Y-133400800D03*
X153289000Y-133400800D03*
D16*
X116778999Y-126253999D03*
X116778999Y-126753998D03*
X116778999Y-127254000D03*
X116778999Y-127753999D03*
X116778999Y-128254001D03*
X112328998Y-128254001D03*
X112328998Y-127753999D03*
X112328998Y-127254000D03*
X112328998Y-126753998D03*
X112328998Y-126253999D03*
D13*
X108838000Y-124714000D03*
X107188000Y-124714000D03*
X130148600Y-117094000D03*
X128498600Y-117094000D03*
D17*
X112890800Y-107467400D03*
X114540800Y-107467400D03*
X137607600Y-83953100D03*
X139257600Y-83953100D03*
D15*
X108725000Y-127392000D03*
X107175000Y-127392000D03*
D13*
X115633000Y-86868000D03*
X113983000Y-86868000D03*
X135762000Y-91694000D03*
X134112000Y-91694000D03*
X128065800Y-113792000D03*
X126415800Y-113792000D03*
D17*
X137605000Y-85810475D03*
X139255000Y-85810475D03*
X120270000Y-122682000D03*
X121920000Y-122682000D03*
D15*
X128003600Y-112218200D03*
X126453600Y-112218200D03*
D18*
X129590800Y-91237400D03*
X129590800Y-89687400D03*
D12*
X131140200Y-96329000D03*
X131140200Y-94679000D03*
D17*
X128498600Y-115520200D03*
X130148600Y-115520200D03*
D13*
X128053600Y-110694200D03*
X126403600Y-110694200D03*
X114502200Y-105740200D03*
X112852200Y-105740200D03*
D17*
X110579400Y-80543400D03*
X112229400Y-80543400D03*
X132271000Y-87426800D03*
X133921000Y-87426800D03*
D19*
X121707000Y-98698000D03*
X123957000Y-98698000D03*
D17*
X134112000Y-93472000D03*
X135762000Y-93472000D03*
D15*
X139157600Y-87763100D03*
X137607600Y-87763100D03*
D10*
X131368800Y-89637400D03*
X131368800Y-91287400D03*
D13*
X108838000Y-122036000D03*
X107188000Y-122036000D03*
D10*
X126492000Y-115469400D03*
X126492000Y-117119400D03*
D13*
X112293400Y-83286600D03*
X110643400Y-83286600D03*
D15*
X116345000Y-93726000D03*
X114795000Y-93726000D03*
D10*
X132308600Y-113932200D03*
X132308600Y-115582200D03*
D12*
X130048000Y-87298800D03*
X130048000Y-85648800D03*
X109982000Y-95758000D03*
X109982000Y-94108000D03*
D13*
X121920000Y-128038000D03*
X120270000Y-128038000D03*
D17*
X129540000Y-93014800D03*
X131190000Y-93014800D03*
M02*
