G04 #@! TF.GenerationSoftware,KiCad,Pcbnew,8.0.4*
G04 #@! TF.CreationDate,2024-09-09T14:04:52-07:00*
G04 #@! TF.ProjectId,Bottom_Board,426f7474-6f6d-45f4-926f-6172642e6b69,0*
G04 #@! TF.SameCoordinates,Original*
G04 #@! TF.FileFunction,Copper,L2,Bot*
G04 #@! TF.FilePolarity,Positive*
%FSLAX46Y46*%
G04 Gerber Fmt 4.6, Leading zero omitted, Abs format (unit mm)*
G04 Created by KiCad (PCBNEW 8.0.4) date 2024-09-09 14:04:52*
%MOMM*%
%LPD*%
G01*
G04 APERTURE LIST*
G04 Aperture macros list*
%AMRoundRect*
0 Rectangle with rounded corners*
0 $1 Rounding radius*
0 $2 $3 $4 $5 $6 $7 $8 $9 X,Y pos of 4 corners*
0 Add a 4 corners polygon primitive as box body*
4,1,4,$2,$3,$4,$5,$6,$7,$8,$9,$2,$3,0*
0 Add four circle primitives for the rounded corners*
1,1,$1+$1,$2,$3*
1,1,$1+$1,$4,$5*
1,1,$1+$1,$6,$7*
1,1,$1+$1,$8,$9*
0 Add four rect primitives between the rounded corners*
20,1,$1+$1,$2,$3,$4,$5,0*
20,1,$1+$1,$4,$5,$6,$7,0*
20,1,$1+$1,$6,$7,$8,$9,0*
20,1,$1+$1,$8,$9,$2,$3,0*%
G04 Aperture macros list end*
G04 #@! TA.AperFunction,ComponentPad*
%ADD10R,1.600000X1.600000*%
G04 #@! TD*
G04 #@! TA.AperFunction,ComponentPad*
%ADD11O,1.600000X1.600000*%
G04 #@! TD*
G04 #@! TA.AperFunction,ComponentPad*
%ADD12R,2.000000X2.000000*%
G04 #@! TD*
G04 #@! TA.AperFunction,ComponentPad*
%ADD13C,2.000000*%
G04 #@! TD*
G04 #@! TA.AperFunction,ComponentPad*
%ADD14C,3.000000*%
G04 #@! TD*
G04 #@! TA.AperFunction,ComponentPad*
%ADD15C,1.700000*%
G04 #@! TD*
G04 #@! TA.AperFunction,ComponentPad*
%ADD16O,1.700000X1.700000*%
G04 #@! TD*
G04 #@! TA.AperFunction,ComponentPad*
%ADD17C,1.440000*%
G04 #@! TD*
G04 #@! TA.AperFunction,ComponentPad*
%ADD18R,1.700000X1.700000*%
G04 #@! TD*
G04 #@! TA.AperFunction,ComponentPad*
%ADD19C,3.500000*%
G04 #@! TD*
G04 #@! TA.AperFunction,SMDPad,CuDef*
%ADD20RoundRect,0.200000X-0.275000X0.200000X-0.275000X-0.200000X0.275000X-0.200000X0.275000X0.200000X0*%
G04 #@! TD*
G04 #@! TA.AperFunction,SMDPad,CuDef*
%ADD21RoundRect,0.225000X-0.225000X-0.250000X0.225000X-0.250000X0.225000X0.250000X-0.225000X0.250000X0*%
G04 #@! TD*
G04 #@! TA.AperFunction,SMDPad,CuDef*
%ADD22RoundRect,0.200000X0.275000X-0.200000X0.275000X0.200000X-0.275000X0.200000X-0.275000X-0.200000X0*%
G04 #@! TD*
G04 #@! TA.AperFunction,SMDPad,CuDef*
%ADD23RoundRect,0.200000X0.200000X0.275000X-0.200000X0.275000X-0.200000X-0.275000X0.200000X-0.275000X0*%
G04 #@! TD*
G04 #@! TA.AperFunction,SMDPad,CuDef*
%ADD24RoundRect,0.150000X0.825000X0.150000X-0.825000X0.150000X-0.825000X-0.150000X0.825000X-0.150000X0*%
G04 #@! TD*
G04 #@! TA.AperFunction,SMDPad,CuDef*
%ADD25RoundRect,0.225000X0.225000X0.250000X-0.225000X0.250000X-0.225000X-0.250000X0.225000X-0.250000X0*%
G04 #@! TD*
G04 #@! TA.AperFunction,SMDPad,CuDef*
%ADD26O,1.350000X0.299999*%
G04 #@! TD*
G04 #@! TA.AperFunction,SMDPad,CuDef*
%ADD27RoundRect,0.200000X-0.200000X-0.275000X0.200000X-0.275000X0.200000X0.275000X-0.200000X0.275000X0*%
G04 #@! TD*
G04 #@! TA.AperFunction,SMDPad,CuDef*
%ADD28RoundRect,0.225000X0.250000X-0.225000X0.250000X0.225000X-0.250000X0.225000X-0.250000X-0.225000X0*%
G04 #@! TD*
G04 #@! TA.AperFunction,SMDPad,CuDef*
%ADD29RoundRect,0.125000X-0.200000X-0.125000X0.200000X-0.125000X0.200000X0.125000X-0.200000X0.125000X0*%
G04 #@! TD*
G04 #@! TA.AperFunction,ViaPad*
%ADD30C,0.800000*%
G04 #@! TD*
G04 #@! TA.AperFunction,Conductor*
%ADD31C,0.250000*%
G04 #@! TD*
G04 APERTURE END LIST*
D10*
X144780000Y-71882000D03*
D11*
X144780000Y-74422000D03*
X144780000Y-76962000D03*
X144780000Y-79502000D03*
X152400000Y-79502000D03*
X152400000Y-76962000D03*
X152400000Y-74422000D03*
X152400000Y-71882000D03*
D12*
X149270323Y-127508000D03*
D13*
X144270323Y-127508000D03*
D14*
X161950000Y-119246000D03*
X161950000Y-126746000D03*
X161950000Y-134246000D03*
X159450000Y-121746000D03*
X159450000Y-131746000D03*
X171450000Y-121746000D03*
X171450000Y-131746000D03*
D12*
X149352000Y-139446000D03*
D13*
X144352000Y-139446000D03*
D15*
X123698000Y-68326000D03*
D16*
X121158000Y-68326000D03*
X123698000Y-70866000D03*
X121158000Y-70866000D03*
X123698000Y-73406000D03*
X121158000Y-73406000D03*
D14*
X136398000Y-122682000D03*
D15*
X123698000Y-137160000D03*
D16*
X121158000Y-137160000D03*
X123698000Y-139700000D03*
X121158000Y-139700000D03*
X123698000Y-142240000D03*
X121158000Y-142240000D03*
D17*
X146573000Y-116586000D03*
X149113000Y-114046000D03*
X146573000Y-111506000D03*
D18*
X137399000Y-68580000D03*
D16*
X134859000Y-68580000D03*
X132319000Y-68580000D03*
D14*
X136144000Y-80010000D03*
D19*
X166082500Y-108195000D03*
X166082500Y-98665000D03*
X166082500Y-89135000D03*
X166082500Y-79605000D03*
D17*
X146558000Y-104140000D03*
X149098000Y-101600000D03*
X146558000Y-99060000D03*
D20*
X129616200Y-94679000D03*
X129616200Y-96329000D03*
X116332000Y-95504000D03*
X116332000Y-97154000D03*
D21*
X126466600Y-119076200D03*
X128016600Y-119076200D03*
D22*
X132397600Y-102774500D03*
X132397600Y-101124500D03*
D23*
X121920000Y-125360000D03*
X120270000Y-125360000D03*
D21*
X132334000Y-85648800D03*
X133884000Y-85648800D03*
D24*
X123633000Y-88138000D03*
X123633000Y-89408000D03*
X123633000Y-90678000D03*
X123633000Y-91948000D03*
X123633000Y-93218000D03*
X123633000Y-94488000D03*
X123633000Y-95758000D03*
X118683000Y-95758000D03*
X118683000Y-94488000D03*
X118683000Y-93218000D03*
X118683000Y-91948000D03*
X118683000Y-90678000D03*
X118683000Y-89408000D03*
X118683000Y-88138000D03*
X122617000Y-107442000D03*
X122617000Y-108712000D03*
X122617000Y-109982000D03*
X122617000Y-111252000D03*
X122617000Y-112522000D03*
X122617000Y-113792000D03*
X122617000Y-115062000D03*
X117667000Y-115062000D03*
X117667000Y-113792000D03*
X117667000Y-112522000D03*
X117667000Y-111252000D03*
X117667000Y-109982000D03*
X117667000Y-108712000D03*
X117667000Y-107442000D03*
D25*
X108725000Y-130070000D03*
X107175000Y-130070000D03*
D20*
X132308600Y-110122200D03*
X132308600Y-111772200D03*
X127762000Y-94679000D03*
X127762000Y-96329000D03*
D25*
X154839000Y-133400800D03*
X153289000Y-133400800D03*
D26*
X116778999Y-126253999D03*
X116778999Y-126753998D03*
X116778999Y-127254000D03*
X116778999Y-127753999D03*
X116778999Y-128254001D03*
X112328998Y-128254001D03*
X112328998Y-127753999D03*
X112328998Y-127254000D03*
X112328998Y-126753998D03*
X112328998Y-126253999D03*
D23*
X108838000Y-124714000D03*
X107188000Y-124714000D03*
X130148600Y-117094000D03*
X128498600Y-117094000D03*
D27*
X112890800Y-107467400D03*
X114540800Y-107467400D03*
X137607600Y-83953100D03*
X139257600Y-83953100D03*
D25*
X108725000Y-127392000D03*
X107175000Y-127392000D03*
D23*
X115633000Y-86868000D03*
X113983000Y-86868000D03*
X135762000Y-91694000D03*
X134112000Y-91694000D03*
X128065800Y-113792000D03*
X126415800Y-113792000D03*
D27*
X137605000Y-85810475D03*
X139255000Y-85810475D03*
X120270000Y-122682000D03*
X121920000Y-122682000D03*
D25*
X128003600Y-112218200D03*
X126453600Y-112218200D03*
D28*
X129590800Y-91237400D03*
X129590800Y-89687400D03*
D22*
X131140200Y-96329000D03*
X131140200Y-94679000D03*
D27*
X128498600Y-115520200D03*
X130148600Y-115520200D03*
D23*
X128053600Y-110694200D03*
X126403600Y-110694200D03*
X114502200Y-105740200D03*
X112852200Y-105740200D03*
D27*
X110579400Y-80543400D03*
X112229400Y-80543400D03*
X132271000Y-87426800D03*
X133921000Y-87426800D03*
D29*
X121707000Y-98698000D03*
X123957000Y-98698000D03*
D27*
X134112000Y-93472000D03*
X135762000Y-93472000D03*
D25*
X139157600Y-87763100D03*
X137607600Y-87763100D03*
D20*
X131368800Y-89637400D03*
X131368800Y-91287400D03*
D23*
X108838000Y-122036000D03*
X107188000Y-122036000D03*
D20*
X126492000Y-115469400D03*
X126492000Y-117119400D03*
D23*
X112293400Y-83286600D03*
X110643400Y-83286600D03*
D25*
X116345000Y-93726000D03*
X114795000Y-93726000D03*
D20*
X132308600Y-113932200D03*
X132308600Y-115582200D03*
D22*
X130048000Y-87298800D03*
X130048000Y-85648800D03*
X109982000Y-95758000D03*
X109982000Y-94108000D03*
D23*
X121920000Y-128038000D03*
X120270000Y-128038000D03*
D27*
X129540000Y-93014800D03*
X131190000Y-93014800D03*
D30*
X128524000Y-108204000D03*
X134061200Y-94691200D03*
X125501400Y-91922600D03*
X124561600Y-111328200D03*
X105156000Y-122428000D03*
X115925600Y-111302800D03*
X116789200Y-91948000D03*
X131318000Y-120396000D03*
X120319800Y-117602000D03*
X123698000Y-128016000D03*
X123698000Y-125476000D03*
X133096000Y-107188000D03*
X126111000Y-102438200D03*
X111302800Y-77546200D03*
X110693200Y-84810600D03*
X113538000Y-95250000D03*
X112268000Y-89331800D03*
X135382000Y-84074000D03*
X121158000Y-82550000D03*
X144272000Y-94996000D03*
X126111000Y-97663000D03*
X137160000Y-91694000D03*
X129286000Y-119126000D03*
X128016000Y-109474000D03*
X134620000Y-89662000D03*
X127254000Y-91694000D03*
X137160000Y-93472000D03*
X136753600Y-104749600D03*
X129336800Y-104698800D03*
X133223000Y-104673400D03*
D31*
X134112000Y-91744800D02*
X134112000Y-93522800D01*
X146304000Y-136398000D02*
X149352000Y-139446000D01*
X131064000Y-99568000D02*
X134061200Y-96570800D01*
X127000000Y-136398000D02*
X146304000Y-136398000D01*
X122758200Y-111328200D02*
X122682000Y-111252000D01*
X128524000Y-108204000D02*
X131064000Y-105664000D01*
X134112000Y-93522800D02*
X134112000Y-94640400D01*
X154839000Y-133959000D02*
X149352000Y-139446000D01*
X154839000Y-133400800D02*
X154839000Y-133959000D01*
X161950000Y-134246000D02*
X155684200Y-134246000D01*
X149352000Y-139446000D02*
X149352000Y-127589677D01*
X134112000Y-94640400D02*
X134061200Y-94691200D01*
X149352000Y-127589677D02*
X149270323Y-127508000D01*
X155684200Y-134246000D02*
X154839000Y-133400800D01*
X125501400Y-91922600D02*
X123658400Y-91922600D01*
X131064000Y-105664000D02*
X131064000Y-99568000D01*
X124561600Y-111328200D02*
X122758200Y-111328200D01*
X123698000Y-139700000D02*
X127000000Y-136398000D01*
X123658400Y-91922600D02*
X123633000Y-91948000D01*
X134061200Y-96570800D02*
X134061200Y-94691200D01*
X107950000Y-120904000D02*
X109452731Y-120904000D01*
X107188000Y-122036000D02*
X106796000Y-122428000D01*
X107188000Y-121666000D02*
X107950000Y-120904000D01*
X107188000Y-122036000D02*
X107188000Y-121666000D01*
X112303996Y-126779000D02*
X112328998Y-126753998D01*
X109452731Y-120904000D02*
X110236000Y-121687269D01*
X106796000Y-122428000D02*
X105156000Y-122428000D01*
X111410604Y-126779000D02*
X112303996Y-126779000D01*
X110236000Y-121687269D02*
X110236000Y-125604396D01*
X110236000Y-125604396D02*
X111410604Y-126779000D01*
X148463000Y-75819000D02*
X148463000Y-80543400D01*
X146710400Y-82296000D02*
X143840200Y-82296000D01*
X152400000Y-71882000D02*
X148463000Y-75819000D01*
X109880400Y-91667204D02*
X109182000Y-92365604D01*
X112293400Y-84428204D02*
X109880400Y-86841204D01*
X138912600Y-77368400D02*
X138861800Y-77419200D01*
X138861800Y-77419200D02*
X115353600Y-77419200D01*
X109880400Y-86841204D02*
X109880400Y-91667204D01*
X109182000Y-94958000D02*
X109982000Y-95758000D01*
X143840200Y-82296000D02*
X138912600Y-77368400D01*
X112293400Y-83286600D02*
X112293400Y-84428204D01*
X112229400Y-80543400D02*
X112229400Y-83222600D01*
X148463000Y-80543400D02*
X146710400Y-82296000D01*
X115353600Y-77419200D02*
X112229400Y-80543400D01*
X112229400Y-83222600D02*
X112293400Y-83286600D01*
X109182000Y-92365604D02*
X109182000Y-94958000D01*
X126149800Y-112522000D02*
X126453600Y-112218200D01*
X122682000Y-112522000D02*
X126149800Y-112522000D01*
X126453600Y-110744200D02*
X126403600Y-110694200D01*
X126453600Y-112218200D02*
X126453600Y-110744200D01*
X121132600Y-92750849D02*
X121132600Y-98123600D01*
X121132600Y-98123600D02*
X121707000Y-98698000D01*
X118683000Y-90678000D02*
X119059751Y-90678000D01*
X121707000Y-98847000D02*
X122358000Y-99498000D01*
X121707000Y-98698000D02*
X121707000Y-98847000D01*
X122358000Y-99498000D02*
X126447200Y-99498000D01*
X119059751Y-90678000D02*
X121132600Y-92750849D01*
X126447200Y-99498000D02*
X129616200Y-96329000D01*
X123633000Y-95758000D02*
X123952000Y-96077000D01*
X123952000Y-98693000D02*
X123957000Y-98698000D01*
X123952000Y-96077000D02*
X123952000Y-98693000D01*
X114540800Y-105778800D02*
X114502200Y-105740200D01*
X114540800Y-107467400D02*
X114540800Y-109918000D01*
X115925600Y-111302800D02*
X117681200Y-111302800D01*
X114540800Y-107467400D02*
X114540800Y-105778800D01*
X114540800Y-109918000D02*
X115925600Y-111302800D01*
X118683000Y-91948000D02*
X116789200Y-91948000D01*
X153924000Y-66040000D02*
X153619200Y-66040000D01*
X144780000Y-71882000D02*
X147777200Y-71882000D01*
X147777200Y-71882000D02*
X153619200Y-66040000D01*
X110579400Y-80543400D02*
X109359800Y-80543400D01*
X109359800Y-80543400D02*
X109182000Y-80365600D01*
X114554000Y-66040000D02*
X109182000Y-71412000D01*
X166082500Y-79605000D02*
X166082500Y-78198500D01*
X109182000Y-71412000D02*
X109182000Y-80365600D01*
X166082500Y-78198500D02*
X153924000Y-66040000D01*
X153619200Y-66040000D02*
X114554000Y-66040000D01*
X128447800Y-115469400D02*
X128498600Y-115520200D01*
X124736151Y-115469400D02*
X126492000Y-115469400D01*
X123058751Y-113792000D02*
X124736151Y-115469400D01*
X122682000Y-113792000D02*
X123058751Y-113792000D01*
X126492000Y-113868200D02*
X126415800Y-113792000D01*
X126492000Y-115469400D02*
X128447800Y-115469400D01*
X126492000Y-115469400D02*
X126492000Y-113868200D01*
X121642001Y-109982000D02*
X120345200Y-111278801D01*
X116778999Y-127753999D02*
X118355999Y-127753999D01*
X118355999Y-127753999D02*
X119888000Y-129286000D01*
X133604000Y-118110000D02*
X133604000Y-115227600D01*
X120319800Y-117602000D02*
X120345200Y-117500400D01*
X120345200Y-111278801D02*
X120319800Y-117602000D01*
X120672000Y-129286000D02*
X121920000Y-128038000D01*
X133604000Y-115227600D02*
X132308600Y-113932200D01*
X131318000Y-120396000D02*
X133604000Y-118110000D01*
X119888000Y-129286000D02*
X120672000Y-129286000D01*
X132308600Y-111772200D02*
X132308600Y-113932200D01*
X122617000Y-109982000D02*
X121642001Y-109982000D01*
X121920000Y-128038000D02*
X123698000Y-128016000D01*
X110490000Y-127254000D02*
X112328998Y-127254000D01*
X108838000Y-125729000D02*
X108139500Y-126427500D01*
X123582000Y-125360000D02*
X123698000Y-125476000D01*
X109474000Y-126238000D02*
X110490000Y-127254000D01*
X108838000Y-124714000D02*
X108838000Y-125729000D01*
X107175000Y-130070000D02*
X114265000Y-137160000D01*
X121920000Y-125360000D02*
X123582000Y-125360000D01*
X107175000Y-127392000D02*
X108139500Y-126427500D01*
X108838000Y-122036000D02*
X108838000Y-124714000D01*
X107175000Y-130070000D02*
X107175000Y-127392000D01*
X108329000Y-126238000D02*
X109474000Y-126238000D01*
X114265000Y-137160000D02*
X121158000Y-137160000D01*
X108139500Y-126427500D02*
X108329000Y-126238000D01*
X104394000Y-132334000D02*
X114300000Y-142240000D01*
X112328998Y-126253999D02*
X111521999Y-126253999D01*
X109982000Y-119634000D02*
X105918000Y-119634000D01*
X111252000Y-125984000D02*
X111252000Y-120904000D01*
X103886000Y-121666000D02*
X103886000Y-123698000D01*
X107188000Y-124714000D02*
X104394000Y-127508000D01*
X111521999Y-126253999D02*
X111252000Y-125984000D01*
X114300000Y-142240000D02*
X121158000Y-142240000D01*
X105918000Y-119634000D02*
X103886000Y-121666000D01*
X104902000Y-124714000D02*
X107188000Y-124714000D01*
X111252000Y-120904000D02*
X109982000Y-119634000D01*
X104394000Y-127508000D02*
X104394000Y-132334000D01*
X103886000Y-123698000D02*
X104902000Y-124714000D01*
X117732000Y-113792000D02*
X117732000Y-115062000D01*
X117732000Y-107442000D02*
X117732000Y-108712000D01*
X110693200Y-84683600D02*
X110693200Y-84785200D01*
X132727200Y-88620600D02*
X133921000Y-87426800D01*
X132168800Y-92036000D02*
X132168800Y-90792200D01*
X129667000Y-89687400D02*
X130733800Y-88620600D01*
X128003600Y-112218200D02*
X128003600Y-113729800D01*
X137607600Y-87763100D02*
X137607600Y-87945796D01*
X131940200Y-96912062D02*
X131940200Y-93765000D01*
X131940200Y-93765000D02*
X131190000Y-93014800D01*
X124714000Y-129794000D02*
X123792000Y-130716000D01*
X133096000Y-107328200D02*
X133096000Y-107188000D01*
X127328600Y-110201738D02*
X127328600Y-111543200D01*
X139257600Y-86113100D02*
X137607600Y-87763100D01*
X124460000Y-126746000D02*
X123952000Y-126746000D01*
X127328600Y-111543200D02*
X128003600Y-112218200D01*
X111760000Y-95821000D02*
X111760000Y-98298000D01*
X137607600Y-87945796D02*
X134761196Y-90792200D01*
X123952000Y-126746000D02*
X124714000Y-127508000D01*
X123698000Y-137160000D02*
X133350000Y-127508000D01*
X130302000Y-110122200D02*
X130099600Y-110122200D01*
X131851400Y-90474800D02*
X130378200Y-90474800D01*
X111760000Y-98298000D02*
X113919000Y-100457000D01*
X159943800Y-126746000D02*
X161950000Y-126746000D01*
X128523131Y-100329131D02*
X131940200Y-96912062D01*
X150876000Y-125476000D02*
X146302323Y-125476000D01*
X153289000Y-133400800D02*
X159943800Y-126746000D01*
X130733800Y-88620600D02*
X132727200Y-88620600D01*
X126111000Y-102438200D02*
X126085600Y-102412800D01*
X108725000Y-130070000D02*
X108747000Y-130048000D01*
X119486000Y-127254000D02*
X120270000Y-128038000D01*
X166082500Y-89135000D02*
X162287000Y-89135000D01*
X165481000Y-129047000D02*
X163180000Y-126746000D01*
X123190000Y-122936000D02*
X125222000Y-124968000D01*
X125222000Y-124968000D02*
X125222000Y-125984000D01*
X134761196Y-90792200D02*
X132168800Y-90792200D01*
X119103499Y-130578501D02*
X119240998Y-130716000D01*
X130378200Y-90474800D02*
X129590800Y-89687400D01*
X126085600Y-100457000D02*
X128651000Y-100457000D01*
X132168800Y-90792200D02*
X131851400Y-90474800D01*
X163180000Y-126746000D02*
X152146000Y-126746000D01*
X133096000Y-107188000D02*
X133236200Y-107188000D01*
X165481000Y-136547000D02*
X165481000Y-129047000D01*
X121929305Y-122682000D02*
X122183305Y-122936000D01*
X121920000Y-130716000D02*
X121920000Y-135382000D01*
X113919000Y-100457000D02*
X128651000Y-100457000D01*
X130302000Y-110122200D02*
X133096000Y-107328200D01*
X128003600Y-113729800D02*
X128065800Y-113792000D01*
X132308600Y-110122200D02*
X130302000Y-110122200D01*
X133350000Y-127508000D02*
X144270323Y-127508000D01*
X108747000Y-130048000D02*
X118572998Y-130048000D01*
X110591600Y-84785200D02*
X110617000Y-84759800D01*
X110643400Y-84733400D02*
X110693200Y-84683600D01*
X121562000Y-126746000D02*
X123952000Y-126746000D01*
X128651000Y-100457000D02*
X128523131Y-100329131D01*
X124714000Y-127508000D02*
X124714000Y-129794000D01*
X162287000Y-89135000D02*
X152664000Y-79512000D01*
X120270000Y-128038000D02*
X121562000Y-126746000D01*
X125222000Y-125984000D02*
X124460000Y-126746000D01*
X131190000Y-93014800D02*
X132168800Y-92036000D01*
X119240998Y-130716000D02*
X121920000Y-130716000D01*
X141558000Y-142240000D02*
X144352000Y-139446000D01*
X129590800Y-89687400D02*
X129667000Y-89687400D01*
X150194000Y-145288000D02*
X156740000Y-145288000D01*
X161950000Y-126746000D02*
X161950000Y-117802000D01*
X126085600Y-102412800D02*
X126085600Y-100457000D01*
X116778999Y-128254001D02*
X119103499Y-130578501D01*
X121920000Y-135382000D02*
X123698000Y-137160000D01*
X123792000Y-130716000D02*
X121920000Y-130716000D01*
X133236200Y-107188000D02*
X133197600Y-107226600D01*
X110693200Y-84810600D02*
X110591600Y-84785200D01*
X156740000Y-145288000D02*
X165481000Y-136547000D01*
X122183305Y-122936000D02*
X123190000Y-122936000D01*
X127021062Y-109894200D02*
X127328600Y-110201738D01*
X152146000Y-126746000D02*
X150876000Y-125476000D01*
X146302323Y-125476000D02*
X144270323Y-127508000D01*
X130099600Y-110122200D02*
X128003600Y-112218200D01*
X110693200Y-84785200D02*
X110693200Y-84810600D01*
X144352000Y-139446000D02*
X150194000Y-145288000D01*
X110643400Y-83286600D02*
X110643400Y-84733400D01*
X152664000Y-79512000D02*
X152442500Y-79512000D01*
X121920000Y-122682000D02*
X121929305Y-122682000D01*
X123698000Y-142240000D02*
X141558000Y-142240000D01*
X118572998Y-130048000D02*
X119103499Y-130578501D01*
X116778999Y-127254000D02*
X119486000Y-127254000D01*
X108725000Y-127392000D02*
X108725000Y-130070000D01*
X139257600Y-85810475D02*
X139257600Y-86113100D01*
X139257600Y-83953100D02*
X139982600Y-84678100D01*
X139982600Y-86938100D02*
X139157600Y-87763100D01*
X139982600Y-84678100D02*
X139982600Y-86938100D01*
X129640800Y-91287400D02*
X129590800Y-91237400D01*
X131368800Y-91287400D02*
X129640800Y-91287400D01*
X129031400Y-90678000D02*
X123633000Y-90678000D01*
X129590800Y-91237400D02*
X129031400Y-90678000D01*
X113538000Y-95250000D02*
X116078000Y-95250000D01*
X116332000Y-95504000D02*
X117348000Y-94488000D01*
X116078000Y-95250000D02*
X116332000Y-95504000D01*
X137486700Y-84074000D02*
X135382000Y-84074000D01*
X117348000Y-94488000D02*
X118683000Y-94488000D01*
X112268000Y-85090000D02*
X114808000Y-82550000D01*
X114808000Y-82550000D02*
X121158000Y-82550000D01*
X137607600Y-83953100D02*
X137486700Y-84074000D01*
X116345000Y-93726000D02*
X116345000Y-95491000D01*
X116345000Y-95491000D02*
X116332000Y-95504000D01*
X137607600Y-85810475D02*
X137607600Y-83953100D01*
X112268000Y-89331800D02*
X112268000Y-85090000D01*
X112636000Y-91567000D02*
X110617000Y-91567000D01*
X110617000Y-91567000D02*
X109982000Y-92202000D01*
X114795000Y-93726000D02*
X112636000Y-91567000D01*
X118391000Y-92926000D02*
X118683000Y-93218000D01*
X115595000Y-92926000D02*
X118391000Y-92926000D01*
X114795000Y-93726000D02*
X115595000Y-92926000D01*
X109982000Y-92202000D02*
X109982000Y-94108000D01*
X140499000Y-92673000D02*
X140499000Y-83349000D01*
X133858000Y-82804000D02*
X133109000Y-83553000D01*
X133109000Y-83553000D02*
X133109000Y-86588800D01*
X127938800Y-89408000D02*
X130048000Y-87298800D01*
X123633000Y-89408000D02*
X127938800Y-89408000D01*
X132397600Y-100774400D02*
X140499000Y-92673000D01*
X140499000Y-83349000D02*
X139954000Y-82804000D01*
X132397600Y-101124500D02*
X132397600Y-100774400D01*
X139954000Y-82804000D02*
X133858000Y-82804000D01*
X132143000Y-87298800D02*
X132271000Y-87426800D01*
X133109000Y-86588800D02*
X132271000Y-87426800D01*
X130048000Y-87298800D02*
X132143000Y-87298800D01*
X118683000Y-88138000D02*
X116903000Y-88138000D01*
X128778000Y-84836000D02*
X133604000Y-80010000D01*
X118683000Y-88138000D02*
X119888000Y-88138000D01*
X133604000Y-80010000D02*
X136144000Y-80010000D01*
X118683000Y-89408000D02*
X118683000Y-88138000D01*
X123190000Y-84836000D02*
X128778000Y-84836000D01*
X119888000Y-88138000D02*
X123190000Y-84836000D01*
X116903000Y-88138000D02*
X115633000Y-86868000D01*
X123836200Y-93014800D02*
X123633000Y-93218000D01*
X129540000Y-93014800D02*
X123836200Y-93014800D01*
X125921000Y-94679000D02*
X125984000Y-94742000D01*
X126047000Y-94679000D02*
X129616200Y-94679000D01*
X123824000Y-94679000D02*
X125921000Y-94679000D01*
X123633000Y-94488000D02*
X123824000Y-94679000D01*
X131140200Y-94679000D02*
X129616200Y-94679000D01*
X125984000Y-94742000D02*
X126047000Y-94679000D01*
X116778999Y-126173001D02*
X120270000Y-122682000D01*
X116778999Y-126253999D02*
X116778999Y-126173001D01*
X120270000Y-125360000D02*
X118884000Y-126746000D01*
X118610002Y-126753998D02*
X116778999Y-126753998D01*
X118884000Y-126746000D02*
X118618000Y-126746000D01*
X118618000Y-126746000D02*
X118610002Y-126753998D01*
X133096000Y-110998000D02*
X141224000Y-102870000D01*
X130148600Y-115520200D02*
X130148600Y-112167400D01*
X130148600Y-112167400D02*
X131318000Y-110998000D01*
X141224000Y-102870000D02*
X141224000Y-98044000D01*
X131318000Y-110998000D02*
X133096000Y-110998000D01*
X141224000Y-98044000D02*
X144272000Y-94996000D01*
X156718000Y-99060000D02*
X163322000Y-92456000D01*
X108458000Y-71120000D02*
X108458000Y-101346000D01*
X172466000Y-80010000D02*
X157734000Y-65278000D01*
X157734000Y-65278000D02*
X114300000Y-65278000D01*
X114300000Y-65278000D02*
X108458000Y-71120000D01*
X146558000Y-99060000D02*
X156718000Y-99060000D01*
X108458000Y-101346000D02*
X112852200Y-105740200D01*
X167640000Y-92456000D02*
X172466000Y-87630000D01*
X163322000Y-92456000D02*
X167640000Y-92456000D01*
X172466000Y-87630000D02*
X172466000Y-80010000D01*
X127558800Y-88138000D02*
X130048000Y-85648800D01*
X132334000Y-85648800D02*
X130048000Y-85648800D01*
X123633000Y-88138000D02*
X127558800Y-88138000D01*
X125984000Y-96774000D02*
X125984000Y-97536000D01*
X125984000Y-97536000D02*
X126111000Y-97663000D01*
X127762000Y-96329000D02*
X126429000Y-96329000D01*
X126429000Y-96329000D02*
X125984000Y-96774000D01*
X137160000Y-91694000D02*
X137109200Y-91744800D01*
X135762000Y-91744800D02*
X137109200Y-91744800D01*
X136144000Y-123190000D02*
X130580400Y-123190000D01*
X122682000Y-115062000D02*
X124739400Y-117119400D01*
X130580400Y-123190000D02*
X126466600Y-119076200D01*
X126492000Y-117119400D02*
X128473200Y-117119400D01*
X126492000Y-117119400D02*
X126492000Y-119050800D01*
X128473200Y-117119400D02*
X128498600Y-117094000D01*
X124739400Y-117119400D02*
X126492000Y-117119400D01*
X126492000Y-119050800D02*
X126466600Y-119076200D01*
X117287000Y-97154000D02*
X116332000Y-97154000D01*
X118683000Y-95758000D02*
X117287000Y-97154000D01*
X121792000Y-99948000D02*
X118683000Y-96839000D01*
X127521200Y-99948000D02*
X121792000Y-99948000D01*
X118683000Y-96839000D02*
X118683000Y-95758000D01*
X131140200Y-96329000D02*
X127521200Y-99948000D01*
X132397600Y-106350200D02*
X128053600Y-110694200D01*
X129286000Y-119126000D02*
X129236200Y-119076200D01*
X128016000Y-110656600D02*
X128016000Y-109474000D01*
X128053600Y-110694200D02*
X128016000Y-110656600D01*
X132397600Y-102774500D02*
X132397600Y-106350200D01*
X128016600Y-119076200D02*
X129236200Y-119076200D01*
X114300000Y-86868000D02*
X113983000Y-86868000D01*
X135128000Y-89154000D02*
X134620000Y-89662000D01*
X126757600Y-91197600D02*
X124780151Y-91197600D01*
X134595400Y-89637400D02*
X134620000Y-89662000D01*
X119704751Y-90053000D02*
X117485000Y-90053000D01*
X117485000Y-90053000D02*
X114300000Y-86868000D01*
X131368800Y-89637400D02*
X134595400Y-89637400D01*
X120974751Y-91323000D02*
X119704751Y-90053000D01*
X127254000Y-91694000D02*
X126757600Y-91197600D01*
X124780151Y-91197600D02*
X124654751Y-91323000D01*
X135128000Y-86892800D02*
X133884000Y-85648800D01*
X135128000Y-86892800D02*
X135128000Y-89154000D01*
X124654751Y-91323000D02*
X120974751Y-91323000D01*
X146573000Y-114031000D02*
X146573000Y-111506000D01*
X144780000Y-115824000D02*
X146573000Y-114031000D01*
X112890800Y-107467400D02*
X112890800Y-115989600D01*
X144780000Y-121158000D02*
X144780000Y-115824000D01*
X115697000Y-118795800D02*
X123875800Y-118795800D01*
X139954000Y-125984000D02*
X144780000Y-121158000D01*
X112890800Y-115989600D02*
X115697000Y-118795800D01*
X123875800Y-118795800D02*
X131064000Y-125984000D01*
X131064000Y-125984000D02*
X139954000Y-125984000D01*
X136906000Y-93472000D02*
X137160000Y-93472000D01*
X136956800Y-93522800D02*
X136906000Y-93472000D01*
X135762000Y-93522800D02*
X136956800Y-93522800D01*
X130796800Y-117094000D02*
X132308600Y-115582200D01*
X130148600Y-117094000D02*
X130796800Y-117094000D01*
X129336800Y-104622600D02*
X126517400Y-107442000D01*
X136753600Y-104749600D02*
X136753600Y-104775000D01*
X129260600Y-104698800D02*
X129336800Y-104698800D01*
X129286000Y-104673400D02*
X129260600Y-104698800D01*
X126517400Y-107442000D02*
X122617000Y-107442000D01*
X136728200Y-104749600D02*
X136753600Y-104749600D01*
X129336800Y-104698800D02*
X129336800Y-104622600D01*
X122682000Y-107442000D02*
X122682000Y-108712000D01*
X136652000Y-104673400D02*
X136728200Y-104749600D01*
X136753600Y-104775000D02*
X136728200Y-104749600D01*
X133223000Y-104673400D02*
X136652000Y-104673400D01*
G04 #@! TA.AperFunction,Conductor*
G36*
X123232075Y-137352993D02*
G01*
X123297901Y-137467007D01*
X123390993Y-137560099D01*
X123505007Y-137625925D01*
X123568590Y-137642962D01*
X122936625Y-138274925D01*
X123007801Y-138324763D01*
X123051426Y-138379340D01*
X123058620Y-138448838D01*
X123027097Y-138511193D01*
X122995697Y-138535392D01*
X122952427Y-138558809D01*
X122952422Y-138558812D01*
X122774761Y-138697092D01*
X122774756Y-138697097D01*
X122622284Y-138862723D01*
X122622276Y-138862734D01*
X122531808Y-139001206D01*
X122478662Y-139046562D01*
X122409431Y-139055986D01*
X122346095Y-139026484D01*
X122324192Y-139001206D01*
X122266286Y-138912576D01*
X122233722Y-138862732D01*
X122233719Y-138862729D01*
X122233715Y-138862723D01*
X122081243Y-138697097D01*
X122081238Y-138697092D01*
X121903577Y-138558812D01*
X121903578Y-138558812D01*
X121903576Y-138558811D01*
X121867070Y-138539055D01*
X121817479Y-138489836D01*
X121802371Y-138421619D01*
X121826541Y-138356064D01*
X121867070Y-138320945D01*
X121867084Y-138320936D01*
X121903576Y-138301189D01*
X122081240Y-138162906D01*
X122233722Y-137997268D01*
X122327749Y-137853347D01*
X122380894Y-137807994D01*
X122450125Y-137798570D01*
X122513461Y-137828072D01*
X122533131Y-137850049D01*
X122583072Y-137921373D01*
X122583073Y-137921373D01*
X123215037Y-137289409D01*
X123232075Y-137352993D01*
G37*
G04 #@! TD.AperFunction*
G04 #@! TA.AperFunction,Conductor*
G36*
X119421043Y-127222500D02*
G01*
X119472610Y-127269644D01*
X119490503Y-127337184D01*
X119472664Y-127398032D01*
X119426982Y-127473599D01*
X119426981Y-127473601D01*
X119379793Y-127625033D01*
X119341055Y-127683180D01*
X119277030Y-127711154D01*
X119208045Y-127700072D01*
X119173727Y-127675823D01*
X119047467Y-127549563D01*
X119013982Y-127488240D01*
X119018966Y-127418548D01*
X119060838Y-127362615D01*
X119087691Y-127347323D01*
X119184075Y-127307400D01*
X119287833Y-127238071D01*
X119287837Y-127238066D01*
X119287868Y-127238042D01*
X119287892Y-127238031D01*
X119292898Y-127234687D01*
X119293531Y-127235635D01*
X119352173Y-127210719D01*
X119421043Y-127222500D01*
G37*
G04 #@! TD.AperFunction*
G04 #@! TA.AperFunction,Conductor*
G36*
X133957580Y-90290585D02*
G01*
X133982690Y-90311927D01*
X134008747Y-90340866D01*
X134163248Y-90453118D01*
X134208402Y-90473221D01*
X134261637Y-90518470D01*
X134281959Y-90585319D01*
X134262914Y-90652543D01*
X134210548Y-90698799D01*
X134157965Y-90710500D01*
X133854727Y-90710500D01*
X133783354Y-90716985D01*
X133783344Y-90716988D01*
X133619090Y-90768171D01*
X133471841Y-90857186D01*
X133350186Y-90978841D01*
X133261173Y-91126086D01*
X133209986Y-91290354D01*
X133203500Y-91361737D01*
X133203500Y-92026272D01*
X133209985Y-92097645D01*
X133209988Y-92097655D01*
X133261171Y-92261909D01*
X133261172Y-92261911D01*
X133261173Y-92261913D01*
X133350184Y-92409155D01*
X133436348Y-92495319D01*
X133469832Y-92556640D01*
X133464848Y-92626332D01*
X133436348Y-92670680D01*
X133350185Y-92756843D01*
X133261173Y-92904086D01*
X133209986Y-93068354D01*
X133203500Y-93139737D01*
X133203500Y-93804272D01*
X133209985Y-93875645D01*
X133209988Y-93875655D01*
X133261171Y-94039910D01*
X133262837Y-94042666D01*
X133282020Y-94074399D01*
X133288231Y-94084672D01*
X133306067Y-94152227D01*
X133289501Y-94210821D01*
X133226675Y-94319638D01*
X133226670Y-94319650D01*
X133167659Y-94501268D01*
X133167658Y-94501272D01*
X133147696Y-94691200D01*
X133167658Y-94881128D01*
X133167659Y-94881131D01*
X133226670Y-95062749D01*
X133226673Y-95062756D01*
X133306599Y-95201193D01*
X133322160Y-95228144D01*
X133395849Y-95309984D01*
X133426080Y-95372975D01*
X133427700Y-95392956D01*
X133427700Y-96257034D01*
X133408015Y-96324073D01*
X133391381Y-96344715D01*
X130660167Y-99075929D01*
X130632944Y-99103152D01*
X130571927Y-99164168D01*
X130502603Y-99267918D01*
X130502598Y-99267927D01*
X130454845Y-99383214D01*
X130454843Y-99383222D01*
X130430500Y-99505601D01*
X130430500Y-104341990D01*
X130410815Y-104409029D01*
X130358011Y-104454784D01*
X130288853Y-104464728D01*
X130225297Y-104435703D01*
X130188569Y-104380308D01*
X130171329Y-104327250D01*
X130171328Y-104327249D01*
X130171327Y-104327244D01*
X130075840Y-104161856D01*
X129948053Y-104019934D01*
X129793552Y-103907682D01*
X129619088Y-103830006D01*
X129619086Y-103830005D01*
X129432287Y-103790300D01*
X129241313Y-103790300D01*
X129054514Y-103830005D01*
X128880046Y-103907683D01*
X128725545Y-104019935D01*
X128597759Y-104161857D01*
X128502273Y-104327243D01*
X128502270Y-104327250D01*
X128443259Y-104508867D01*
X128443259Y-104508868D01*
X128443258Y-104508872D01*
X128437697Y-104561778D01*
X128434768Y-104589647D01*
X128408183Y-104654261D01*
X128399128Y-104664365D01*
X126291315Y-106772181D01*
X126229992Y-106805666D01*
X126203634Y-106808500D01*
X123941123Y-106808500D01*
X123874084Y-106788815D01*
X123853442Y-106772181D01*
X123848812Y-106767551D01*
X123848803Y-106767544D01*
X123705601Y-106682855D01*
X123705596Y-106682853D01*
X123545835Y-106636438D01*
X123545829Y-106636437D01*
X123508507Y-106633500D01*
X123508502Y-106633500D01*
X121725498Y-106633500D01*
X121725492Y-106633500D01*
X121688170Y-106636437D01*
X121688164Y-106636438D01*
X121528403Y-106682853D01*
X121528398Y-106682855D01*
X121385196Y-106767544D01*
X121385187Y-106767551D01*
X121267551Y-106885187D01*
X121267544Y-106885196D01*
X121182855Y-107028398D01*
X121182853Y-107028403D01*
X121136438Y-107188164D01*
X121136437Y-107188170D01*
X121133500Y-107225492D01*
X121133500Y-107658507D01*
X121136437Y-107695829D01*
X121136438Y-107695835D01*
X121182853Y-107855596D01*
X121182855Y-107855601D01*
X121267547Y-107998808D01*
X121269249Y-108001002D01*
X121270047Y-108003034D01*
X121271518Y-108005522D01*
X121271116Y-108005759D01*
X121294783Y-108066039D01*
X121281101Y-108134556D01*
X121269249Y-108152998D01*
X121267547Y-108155191D01*
X121182855Y-108298398D01*
X121182853Y-108298403D01*
X121136438Y-108458164D01*
X121136437Y-108458170D01*
X121133500Y-108495492D01*
X121133500Y-108928507D01*
X121136437Y-108965829D01*
X121136438Y-108965835D01*
X121182853Y-109125596D01*
X121182855Y-109125601D01*
X121267547Y-109268808D01*
X121269249Y-109271002D01*
X121270047Y-109273034D01*
X121271518Y-109275522D01*
X121271116Y-109275759D01*
X121294783Y-109336039D01*
X121281101Y-109404556D01*
X121269251Y-109422996D01*
X121267547Y-109425192D01*
X121224344Y-109498242D01*
X121205294Y-109522800D01*
X119898335Y-110829760D01*
X119897984Y-110830110D01*
X119854716Y-110873032D01*
X119854128Y-110873750D01*
X119853781Y-110874170D01*
X119853165Y-110874913D01*
X119819325Y-110925556D01*
X119819052Y-110925963D01*
X119784973Y-110976527D01*
X119784538Y-110977342D01*
X119784297Y-110977792D01*
X119783824Y-110978666D01*
X119772316Y-111006448D01*
X119760472Y-111035041D01*
X119760411Y-111035189D01*
X119736769Y-111091624D01*
X119736457Y-111092655D01*
X119736306Y-111093150D01*
X119736053Y-111093971D01*
X119724212Y-111153502D01*
X119724115Y-111153989D01*
X119711943Y-111213923D01*
X119711848Y-111214898D01*
X119711793Y-111215437D01*
X119711700Y-111216342D01*
X119711700Y-111277341D01*
X119711699Y-111277839D01*
X119689123Y-116897602D01*
X119669169Y-116964562D01*
X119657275Y-116980075D01*
X119580761Y-117065054D01*
X119580757Y-117065059D01*
X119485273Y-117230443D01*
X119485270Y-117230450D01*
X119426259Y-117412068D01*
X119426258Y-117412072D01*
X119406296Y-117602000D01*
X119426258Y-117791928D01*
X119426259Y-117791931D01*
X119485270Y-117973549D01*
X119485271Y-117973552D01*
X119485272Y-117973554D01*
X119485273Y-117973556D01*
X119486856Y-117976299D01*
X119487290Y-117978084D01*
X119487914Y-117979486D01*
X119487657Y-117979600D01*
X119503331Y-118044195D01*
X119480481Y-118110223D01*
X119425562Y-118153416D01*
X119379471Y-118162300D01*
X116010766Y-118162300D01*
X115943727Y-118142615D01*
X115923085Y-118125981D01*
X113560619Y-115763515D01*
X113527134Y-115702192D01*
X113524300Y-115675834D01*
X113524300Y-113575492D01*
X116183500Y-113575492D01*
X116183500Y-114008507D01*
X116186437Y-114045829D01*
X116186438Y-114045835D01*
X116232853Y-114205596D01*
X116232855Y-114205601D01*
X116317547Y-114348808D01*
X116319249Y-114351002D01*
X116320047Y-114353034D01*
X116321518Y-114355522D01*
X116321116Y-114355759D01*
X116344783Y-114416039D01*
X116331101Y-114484556D01*
X116319249Y-114502998D01*
X116317547Y-114505191D01*
X116232855Y-114648398D01*
X116232853Y-114648403D01*
X116186438Y-114808164D01*
X116186437Y-114808170D01*
X116183500Y-114845492D01*
X116183500Y-115278507D01*
X116186437Y-115315829D01*
X116186438Y-115315835D01*
X116232853Y-115475596D01*
X116232855Y-115475601D01*
X116317544Y-115618803D01*
X116317551Y-115618812D01*
X116435187Y-115736448D01*
X116435191Y-115736451D01*
X116435193Y-115736453D01*
X116578399Y-115821145D01*
X116620530Y-115833385D01*
X116738164Y-115867561D01*
X116738167Y-115867561D01*
X116738169Y-115867562D01*
X116775498Y-115870500D01*
X116775504Y-115870500D01*
X118558496Y-115870500D01*
X118558502Y-115870500D01*
X118595831Y-115867562D01*
X118595833Y-115867561D01*
X118595835Y-115867561D01*
X118647796Y-115852465D01*
X118755601Y-115821145D01*
X118898807Y-115736453D01*
X119016453Y-115618807D01*
X119101145Y-115475601D01*
X119142885Y-115331929D01*
X119147561Y-115315835D01*
X119147562Y-115315829D01*
X119150500Y-115278502D01*
X119150500Y-114845498D01*
X119147562Y-114808169D01*
X119146654Y-114805045D01*
X119104311Y-114659296D01*
X119101145Y-114648399D01*
X119061909Y-114582054D01*
X119016456Y-114505197D01*
X119014755Y-114503005D01*
X119013956Y-114500970D01*
X119012482Y-114498478D01*
X119012883Y-114498240D01*
X118989217Y-114437970D01*
X119002894Y-114369452D01*
X119014755Y-114350995D01*
X119016449Y-114348810D01*
X119016453Y-114348807D01*
X119101145Y-114205601D01*
X119147513Y-114046000D01*
X119147561Y-114045835D01*
X119147562Y-114045829D01*
X119150500Y-114008502D01*
X119150500Y-113575498D01*
X119147562Y-113538169D01*
X119101145Y-113378399D01*
X119016453Y-113235193D01*
X119016451Y-113235191D01*
X119011670Y-113229027D01*
X119013583Y-113227542D01*
X118985848Y-113176749D01*
X118990832Y-113107057D01*
X119005748Y-113080292D01*
X119005712Y-113080271D01*
X119006545Y-113078862D01*
X119009042Y-113074382D01*
X119009684Y-113073553D01*
X119093281Y-112932198D01*
X119139100Y-112774486D01*
X119139295Y-112772001D01*
X119139295Y-112772000D01*
X116194705Y-112772000D01*
X116194704Y-112772001D01*
X116194899Y-112774486D01*
X116240718Y-112932198D01*
X116324319Y-113073560D01*
X116324969Y-113074398D01*
X116325273Y-113075173D01*
X116328288Y-113080271D01*
X116327465Y-113080757D01*
X116350500Y-113139436D01*
X116336816Y-113207953D01*
X116321684Y-113228533D01*
X116322327Y-113229032D01*
X116317543Y-113235198D01*
X116232855Y-113378398D01*
X116232853Y-113378403D01*
X116186438Y-113538164D01*
X116186437Y-113538170D01*
X116183500Y-113575492D01*
X113524300Y-113575492D01*
X113524300Y-108362233D01*
X113543985Y-108295194D01*
X113560619Y-108274552D01*
X113628119Y-108207052D01*
X113689442Y-108173567D01*
X113759134Y-108178551D01*
X113803481Y-108207052D01*
X113870981Y-108274552D01*
X113904466Y-108335875D01*
X113907300Y-108362233D01*
X113907300Y-109980398D01*
X113931643Y-110102777D01*
X113931645Y-110102785D01*
X113979398Y-110218072D01*
X113979403Y-110218081D01*
X114048728Y-110321832D01*
X114048731Y-110321836D01*
X114978978Y-111252082D01*
X115012463Y-111313405D01*
X115014618Y-111326801D01*
X115020883Y-111386405D01*
X115032058Y-111492728D01*
X115032059Y-111492731D01*
X115091070Y-111674349D01*
X115091073Y-111674356D01*
X115186560Y-111839744D01*
X115314347Y-111981666D01*
X115468848Y-112093918D01*
X115643312Y-112171594D01*
X115830113Y-112211300D01*
X116021085Y-112211300D01*
X116021087Y-112211300D01*
X116050325Y-112205085D01*
X116119990Y-112210400D01*
X116167161Y-112242203D01*
X116194705Y-112272000D01*
X119139295Y-112272000D01*
X119139295Y-112271998D01*
X119139100Y-112269513D01*
X119093281Y-112111801D01*
X119009683Y-111970443D01*
X119009031Y-111969603D01*
X119008725Y-111968824D01*
X119005712Y-111963729D01*
X119006534Y-111963242D01*
X118983499Y-111904565D01*
X118997182Y-111836048D01*
X119012318Y-111815468D01*
X119011673Y-111814968D01*
X119016445Y-111808814D01*
X119016453Y-111808807D01*
X119101145Y-111665601D01*
X119140245Y-111531016D01*
X119147561Y-111505835D01*
X119147562Y-111505829D01*
X119148802Y-111490071D01*
X119150500Y-111468502D01*
X119150500Y-111035498D01*
X119147562Y-110998169D01*
X119141913Y-110978726D01*
X119101146Y-110838403D01*
X119101145Y-110838399D01*
X119016453Y-110695193D01*
X119016451Y-110695191D01*
X119011670Y-110689027D01*
X119013583Y-110687542D01*
X118985848Y-110636749D01*
X118990832Y-110567057D01*
X119005748Y-110540292D01*
X119005712Y-110540271D01*
X119006545Y-110538862D01*
X119009042Y-110534382D01*
X119009684Y-110533553D01*
X119093281Y-110392198D01*
X119139100Y-110234486D01*
X119139295Y-110232001D01*
X119139295Y-110232000D01*
X116194705Y-110232000D01*
X116194704Y-110232001D01*
X116194899Y-110234488D01*
X116194900Y-110234491D01*
X116198022Y-110245238D01*
X116197820Y-110315107D01*
X116159875Y-110373776D01*
X116096236Y-110402616D01*
X116053163Y-110401118D01*
X116021087Y-110394300D01*
X115964366Y-110394300D01*
X115897327Y-110374615D01*
X115876685Y-110357981D01*
X115210619Y-109691915D01*
X115177134Y-109630592D01*
X115174300Y-109604234D01*
X115174300Y-108362233D01*
X115193985Y-108295194D01*
X115210614Y-108274556D01*
X115302616Y-108182555D01*
X115391627Y-108035313D01*
X115442813Y-107871049D01*
X115449300Y-107799665D01*
X115449299Y-107225492D01*
X116183500Y-107225492D01*
X116183500Y-107658507D01*
X116186437Y-107695829D01*
X116186438Y-107695835D01*
X116232853Y-107855596D01*
X116232855Y-107855601D01*
X116317547Y-107998808D01*
X116319249Y-108001002D01*
X116320047Y-108003034D01*
X116321518Y-108005522D01*
X116321116Y-108005759D01*
X116344783Y-108066039D01*
X116331101Y-108134556D01*
X116319249Y-108152998D01*
X116317547Y-108155191D01*
X116232855Y-108298398D01*
X116232853Y-108298403D01*
X116186438Y-108458164D01*
X116186437Y-108458170D01*
X116183500Y-108495492D01*
X116183500Y-108928507D01*
X116186437Y-108965829D01*
X116186438Y-108965835D01*
X116232853Y-109125596D01*
X116232855Y-109125601D01*
X116317544Y-109268803D01*
X116322330Y-109274973D01*
X116320416Y-109276457D01*
X116348151Y-109327250D01*
X116343167Y-109396942D01*
X116328252Y-109423708D01*
X116328288Y-109423729D01*
X116327482Y-109425091D01*
X116324969Y-109429602D01*
X116324319Y-109430439D01*
X116240718Y-109571801D01*
X116194899Y-109729513D01*
X116194704Y-109731998D01*
X116194705Y-109732000D01*
X119139295Y-109732000D01*
X119139295Y-109731998D01*
X119139100Y-109729513D01*
X119093281Y-109571801D01*
X119009683Y-109430443D01*
X119009031Y-109429603D01*
X119008725Y-109428824D01*
X119005712Y-109423729D01*
X119006534Y-109423242D01*
X118983499Y-109364565D01*
X118997182Y-109296048D01*
X119012318Y-109275468D01*
X119011673Y-109274968D01*
X119016445Y-109268814D01*
X119016453Y-109268807D01*
X119101145Y-109125601D01*
X119147562Y-108965831D01*
X119150500Y-108928502D01*
X119150500Y-108495498D01*
X119147562Y-108458169D01*
X119128899Y-108393931D01*
X119101146Y-108298403D01*
X119101145Y-108298399D01*
X119067967Y-108242298D01*
X119016456Y-108155197D01*
X119014755Y-108153005D01*
X119013956Y-108150970D01*
X119012482Y-108148478D01*
X119012883Y-108148240D01*
X118989217Y-108087970D01*
X119002894Y-108019452D01*
X119014755Y-108000995D01*
X119016449Y-107998810D01*
X119016453Y-107998807D01*
X119101145Y-107855601D01*
X119147562Y-107695831D01*
X119150500Y-107658502D01*
X119150500Y-107225498D01*
X119147562Y-107188169D01*
X119132154Y-107135135D01*
X119101146Y-107028403D01*
X119101145Y-107028399D01*
X119024908Y-106899490D01*
X119016455Y-106885196D01*
X119016448Y-106885187D01*
X118898812Y-106767551D01*
X118898803Y-106767544D01*
X118755601Y-106682855D01*
X118755596Y-106682853D01*
X118595835Y-106636438D01*
X118595829Y-106636437D01*
X118558507Y-106633500D01*
X118558502Y-106633500D01*
X116775498Y-106633500D01*
X116775492Y-106633500D01*
X116738170Y-106636437D01*
X116738164Y-106636438D01*
X116578403Y-106682853D01*
X116578398Y-106682855D01*
X116435196Y-106767544D01*
X116435187Y-106767551D01*
X116317551Y-106885187D01*
X116317544Y-106885196D01*
X116232855Y-107028398D01*
X116232853Y-107028403D01*
X116186438Y-107188164D01*
X116186437Y-107188170D01*
X116183500Y-107225492D01*
X115449299Y-107225492D01*
X115449299Y-107135136D01*
X115449299Y-107135135D01*
X115449299Y-107135127D01*
X115442814Y-107063754D01*
X115442811Y-107063744D01*
X115391628Y-106899490D01*
X115391627Y-106899489D01*
X115391627Y-106899487D01*
X115302616Y-106752245D01*
X115302614Y-106752243D01*
X115302613Y-106752241D01*
X115222552Y-106672180D01*
X115189067Y-106610857D01*
X115194051Y-106541165D01*
X115222552Y-106496818D01*
X115264016Y-106455355D01*
X115353027Y-106308113D01*
X115404213Y-106143849D01*
X115410700Y-106072465D01*
X115410699Y-105407936D01*
X115410699Y-105407927D01*
X115404214Y-105336554D01*
X115404211Y-105336544D01*
X115353028Y-105172290D01*
X115353027Y-105172289D01*
X115353027Y-105172287D01*
X115264016Y-105025045D01*
X115264014Y-105025043D01*
X115264013Y-105025041D01*
X115142358Y-104903386D01*
X114995113Y-104814373D01*
X114995107Y-104814371D01*
X114830849Y-104763187D01*
X114830847Y-104763186D01*
X114830845Y-104763186D01*
X114780867Y-104758644D01*
X114759465Y-104756700D01*
X114759462Y-104756700D01*
X114244927Y-104756700D01*
X114173554Y-104763185D01*
X114173544Y-104763188D01*
X114009290Y-104814371D01*
X113862041Y-104903386D01*
X113862040Y-104903387D01*
X113764881Y-105000547D01*
X113703558Y-105034032D01*
X113633866Y-105029048D01*
X113589519Y-105000547D01*
X113492358Y-104903386D01*
X113345113Y-104814373D01*
X113345107Y-104814371D01*
X113180849Y-104763187D01*
X113180847Y-104763186D01*
X113180845Y-104763186D01*
X113130867Y-104758644D01*
X113109465Y-104756700D01*
X113109462Y-104756700D01*
X112815966Y-104756700D01*
X112748927Y-104737015D01*
X112728285Y-104720381D01*
X109127819Y-101119915D01*
X109094334Y-101058592D01*
X109091500Y-101032234D01*
X109091500Y-96633673D01*
X109111185Y-96566634D01*
X109163989Y-96520879D01*
X109233147Y-96510935D01*
X109279646Y-96527554D01*
X109414087Y-96608827D01*
X109578351Y-96660013D01*
X109649735Y-96666500D01*
X110314264Y-96666499D01*
X110314272Y-96666499D01*
X110385645Y-96660014D01*
X110385648Y-96660013D01*
X110385649Y-96660013D01*
X110549913Y-96608827D01*
X110697155Y-96519816D01*
X110818816Y-96398155D01*
X110907827Y-96250913D01*
X110959013Y-96086649D01*
X110965500Y-96015265D01*
X110965499Y-95500736D01*
X110965499Y-95500727D01*
X110959014Y-95429354D01*
X110959011Y-95429344D01*
X110907828Y-95265090D01*
X110907827Y-95265089D01*
X110907827Y-95265087D01*
X110818816Y-95117845D01*
X110818814Y-95117843D01*
X110818813Y-95117841D01*
X110721653Y-95020681D01*
X110688168Y-94959358D01*
X110693152Y-94889666D01*
X110721653Y-94845319D01*
X110818812Y-94748159D01*
X110818813Y-94748158D01*
X110818816Y-94748155D01*
X110907827Y-94600913D01*
X110959013Y-94436649D01*
X110965500Y-94365265D01*
X110965499Y-93850736D01*
X110965499Y-93850727D01*
X110959014Y-93779354D01*
X110959011Y-93779344D01*
X110907828Y-93615090D01*
X110907827Y-93615089D01*
X110907827Y-93615087D01*
X110818816Y-93467845D01*
X110818814Y-93467843D01*
X110818813Y-93467841D01*
X110697156Y-93346184D01*
X110675347Y-93333000D01*
X110628161Y-93281471D01*
X110615500Y-93226885D01*
X110615500Y-92515766D01*
X110635185Y-92448727D01*
X110651819Y-92428085D01*
X110843086Y-92236819D01*
X110904409Y-92203334D01*
X110930767Y-92200500D01*
X112322234Y-92200500D01*
X112389273Y-92220185D01*
X112409915Y-92236819D01*
X113800181Y-93627085D01*
X113833666Y-93688408D01*
X113836500Y-93714766D01*
X113836500Y-94024879D01*
X113846764Y-94125338D01*
X113846764Y-94125339D01*
X113871967Y-94201398D01*
X113874368Y-94271227D01*
X113838636Y-94331268D01*
X113776115Y-94362460D01*
X113728480Y-94361691D01*
X113633487Y-94341500D01*
X113442513Y-94341500D01*
X113255714Y-94381205D01*
X113255712Y-94381206D01*
X113088847Y-94455499D01*
X113081246Y-94458883D01*
X112926745Y-94571135D01*
X112798959Y-94713057D01*
X112703473Y-94878443D01*
X112703470Y-94878450D01*
X112648044Y-95049034D01*
X112644458Y-95060072D01*
X112624496Y-95250000D01*
X112644458Y-95439928D01*
X112644459Y-95439931D01*
X112703470Y-95621549D01*
X112703473Y-95621556D01*
X112798960Y-95786944D01*
X112885899Y-95883500D01*
X112907359Y-95907334D01*
X112926747Y-95928866D01*
X113081248Y-96041118D01*
X113255712Y-96118794D01*
X113442513Y-96158500D01*
X113633487Y-96158500D01*
X113820288Y-96118794D01*
X113994752Y-96041118D01*
X114149253Y-95928866D01*
X114153160Y-95924527D01*
X114212646Y-95887879D01*
X114245309Y-95883500D01*
X115279591Y-95883500D01*
X115346630Y-95903185D01*
X115392385Y-95955989D01*
X115397976Y-95970609D01*
X115399191Y-95974507D01*
X115406173Y-95996913D01*
X115479853Y-96118794D01*
X115495186Y-96144158D01*
X115592347Y-96241319D01*
X115625832Y-96302642D01*
X115620848Y-96372334D01*
X115592347Y-96416681D01*
X115495187Y-96513840D01*
X115495186Y-96513841D01*
X115406173Y-96661086D01*
X115354986Y-96825354D01*
X115348500Y-96896737D01*
X115348500Y-97411272D01*
X115354985Y-97482645D01*
X115354988Y-97482655D01*
X115406171Y-97646909D01*
X115406172Y-97646911D01*
X115406173Y-97646913D01*
X115483935Y-97775547D01*
X115495186Y-97794158D01*
X115616841Y-97915813D01*
X115616843Y-97915814D01*
X115616845Y-97915816D01*
X115764087Y-98004827D01*
X115928351Y-98056013D01*
X115999735Y-98062500D01*
X116664264Y-98062499D01*
X116664272Y-98062499D01*
X116735645Y-98056014D01*
X116735648Y-98056013D01*
X116735649Y-98056013D01*
X116899913Y-98004827D01*
X117047155Y-97915816D01*
X117139153Y-97823817D01*
X117200474Y-97790334D01*
X117226833Y-97787500D01*
X117349395Y-97787500D01*
X117349396Y-97787499D01*
X117471785Y-97763155D01*
X117587075Y-97715400D01*
X117690833Y-97646071D01*
X118054818Y-97282084D01*
X118116141Y-97248600D01*
X118185832Y-97253584D01*
X118230180Y-97282085D01*
X121299929Y-100351833D01*
X121372689Y-100424593D01*
X121388168Y-100440072D01*
X121491918Y-100509396D01*
X121491924Y-100509399D01*
X121491925Y-100509400D01*
X121607215Y-100557155D01*
X121729601Y-100581499D01*
X121729605Y-100581500D01*
X121729606Y-100581500D01*
X127583595Y-100581500D01*
X127583596Y-100581499D01*
X127705985Y-100557155D01*
X127821275Y-100509400D01*
X127925033Y-100440071D01*
X131091285Y-97273817D01*
X131152608Y-97240333D01*
X131178966Y-97237499D01*
X131472471Y-97237499D01*
X131543844Y-97231014D01*
X131543847Y-97231013D01*
X131543849Y-97231013D01*
X131708113Y-97179827D01*
X131855355Y-97090816D01*
X131977016Y-96969155D01*
X132066027Y-96821913D01*
X132117213Y-96657649D01*
X132123700Y-96586265D01*
X132123699Y-96071736D01*
X132123699Y-96071727D01*
X132117214Y-96000354D01*
X132117211Y-96000344D01*
X132066028Y-95836090D01*
X132066027Y-95836089D01*
X132066027Y-95836087D01*
X131977016Y-95688845D01*
X131977014Y-95688843D01*
X131977013Y-95688841D01*
X131879853Y-95591681D01*
X131846368Y-95530358D01*
X131851352Y-95460666D01*
X131879853Y-95416319D01*
X131977012Y-95319159D01*
X131977013Y-95319158D01*
X131977016Y-95319155D01*
X132066027Y-95171913D01*
X132117213Y-95007649D01*
X132123700Y-94936265D01*
X132123699Y-94421736D01*
X132123699Y-94421727D01*
X132117214Y-94350354D01*
X132117211Y-94350344D01*
X132066028Y-94186090D01*
X132066027Y-94186089D01*
X132066027Y-94186087D01*
X131977016Y-94038845D01*
X131891639Y-93953468D01*
X131858156Y-93892148D01*
X131863140Y-93822456D01*
X131891642Y-93778107D01*
X131945072Y-93724677D01*
X132033019Y-93579195D01*
X132083590Y-93416906D01*
X132090000Y-93346372D01*
X132090000Y-93264800D01*
X131064000Y-93264800D01*
X130996961Y-93245115D01*
X130951206Y-93192311D01*
X130940000Y-93140800D01*
X130940000Y-92888800D01*
X130959685Y-92821761D01*
X131012489Y-92776006D01*
X131064000Y-92764800D01*
X132089999Y-92764800D01*
X132089999Y-92683217D01*
X132083591Y-92612697D01*
X132083590Y-92612692D01*
X132033018Y-92450403D01*
X131945072Y-92304922D01*
X131940446Y-92299017D01*
X131942978Y-92297033D01*
X131916463Y-92248475D01*
X131921447Y-92178783D01*
X131963319Y-92122850D01*
X131973462Y-92116011D01*
X132083955Y-92049216D01*
X132205616Y-91927555D01*
X132294627Y-91780313D01*
X132345813Y-91616049D01*
X132352300Y-91544665D01*
X132352299Y-91030136D01*
X132352299Y-91030127D01*
X132345814Y-90958754D01*
X132345811Y-90958744D01*
X132294628Y-90794490D01*
X132294627Y-90794489D01*
X132294627Y-90794487D01*
X132205616Y-90647245D01*
X132205614Y-90647243D01*
X132205613Y-90647241D01*
X132108452Y-90550080D01*
X132074967Y-90488757D01*
X132079951Y-90419065D01*
X132108448Y-90374722D01*
X132175954Y-90307216D01*
X132237276Y-90273734D01*
X132263633Y-90270900D01*
X133890541Y-90270900D01*
X133957580Y-90290585D01*
G37*
G04 #@! TD.AperFunction*
G04 #@! TA.AperFunction,Conductor*
G36*
X130361211Y-104944331D02*
G01*
X130412687Y-104991575D01*
X130430500Y-105055609D01*
X130430500Y-105350234D01*
X130410815Y-105417273D01*
X130394181Y-105437915D01*
X128572915Y-107259181D01*
X128511592Y-107292666D01*
X128485234Y-107295500D01*
X128428513Y-107295500D01*
X128241714Y-107335205D01*
X128067246Y-107412883D01*
X127912745Y-107525135D01*
X127784959Y-107667057D01*
X127689473Y-107832443D01*
X127689470Y-107832450D01*
X127633925Y-108003401D01*
X127630458Y-108014072D01*
X127610496Y-108204000D01*
X127630458Y-108393928D01*
X127630459Y-108393931D01*
X127668978Y-108512480D01*
X127670973Y-108582321D01*
X127634893Y-108642154D01*
X127601484Y-108664077D01*
X127559247Y-108682882D01*
X127404745Y-108795135D01*
X127276959Y-108937057D01*
X127181473Y-109102443D01*
X127181470Y-109102450D01*
X127124047Y-109279181D01*
X127122458Y-109284072D01*
X127102496Y-109474000D01*
X127122458Y-109663928D01*
X127122459Y-109663931D01*
X127123138Y-109670390D01*
X127120969Y-109670617D01*
X127116409Y-109730217D01*
X127074259Y-109785941D01*
X127008674Y-109810032D01*
X126940476Y-109794840D01*
X126936313Y-109792433D01*
X126896513Y-109768373D01*
X126732249Y-109717187D01*
X126732247Y-109717186D01*
X126732245Y-109717186D01*
X126682267Y-109712644D01*
X126660865Y-109710700D01*
X126660862Y-109710700D01*
X126146327Y-109710700D01*
X126074954Y-109717185D01*
X126074944Y-109717188D01*
X125910690Y-109768371D01*
X125763441Y-109857386D01*
X125641786Y-109979041D01*
X125552773Y-110126286D01*
X125501586Y-110290554D01*
X125495100Y-110361937D01*
X125495100Y-110684195D01*
X125475415Y-110751234D01*
X125422611Y-110796989D01*
X125353453Y-110806933D01*
X125289897Y-110777908D01*
X125278950Y-110767167D01*
X125248154Y-110732965D01*
X125201909Y-110681604D01*
X125172854Y-110649335D01*
X125167279Y-110645284D01*
X125018352Y-110537082D01*
X124843888Y-110459406D01*
X124843886Y-110459405D01*
X124657087Y-110419700D01*
X124466113Y-110419700D01*
X124279313Y-110459405D01*
X124279310Y-110459406D01*
X124239993Y-110476911D01*
X124170742Y-110486195D01*
X124107466Y-110456565D01*
X124070254Y-110397430D01*
X124070482Y-110329038D01*
X124097562Y-110235831D01*
X124100500Y-110198502D01*
X124100500Y-109765498D01*
X124097562Y-109728169D01*
X124094371Y-109717187D01*
X124052435Y-109572839D01*
X124051145Y-109568399D01*
X124003196Y-109487322D01*
X123966456Y-109425197D01*
X123964755Y-109423005D01*
X123963956Y-109420970D01*
X123962482Y-109418478D01*
X123962883Y-109418240D01*
X123939217Y-109357970D01*
X123952894Y-109289452D01*
X123964755Y-109270995D01*
X123966449Y-109268810D01*
X123966453Y-109268807D01*
X124051145Y-109125601D01*
X124097562Y-108965831D01*
X124100500Y-108928502D01*
X124100500Y-108495498D01*
X124097562Y-108458169D01*
X124078899Y-108393931D01*
X124051146Y-108298403D01*
X124051144Y-108298397D01*
X124029986Y-108262621D01*
X124012803Y-108194897D01*
X124034963Y-108128634D01*
X124089429Y-108084871D01*
X124136718Y-108075500D01*
X126579795Y-108075500D01*
X126579796Y-108075499D01*
X126702185Y-108051155D01*
X126817475Y-108003400D01*
X126921233Y-107934071D01*
X128049638Y-106805666D01*
X129211686Y-105643619D01*
X129273009Y-105610134D01*
X129299367Y-105607300D01*
X129432287Y-105607300D01*
X129619088Y-105567594D01*
X129793552Y-105489918D01*
X129948053Y-105377666D01*
X130075840Y-105235744D01*
X130171327Y-105070356D01*
X130188569Y-105017290D01*
X130228006Y-104959616D01*
X130292365Y-104932417D01*
X130361211Y-104944331D01*
G37*
G04 #@! TD.AperFunction*
G04 #@! TA.AperFunction,Conductor*
G36*
X136900706Y-84727185D02*
G01*
X136921348Y-84743819D01*
X136937781Y-84760252D01*
X136971266Y-84821575D01*
X136974100Y-84847933D01*
X136974100Y-84913041D01*
X136954415Y-84980080D01*
X136937781Y-85000722D01*
X136843187Y-85095315D01*
X136843186Y-85095316D01*
X136754173Y-85242561D01*
X136702986Y-85406829D01*
X136696500Y-85478212D01*
X136696500Y-86142747D01*
X136702985Y-86214120D01*
X136702988Y-86214130D01*
X136754171Y-86378384D01*
X136754172Y-86378386D01*
X136754173Y-86378388D01*
X136826250Y-86497618D01*
X136843186Y-86525633D01*
X136964841Y-86647288D01*
X136964843Y-86647289D01*
X136964845Y-86647291D01*
X137013499Y-86676703D01*
X137060685Y-86728230D01*
X137072524Y-86797089D01*
X137045255Y-86861418D01*
X137014446Y-86888357D01*
X136929868Y-86940526D01*
X136810027Y-87060367D01*
X136810024Y-87060371D01*
X136721057Y-87204607D01*
X136721052Y-87204618D01*
X136667744Y-87365493D01*
X136657600Y-87464777D01*
X136657600Y-87513100D01*
X137733600Y-87513100D01*
X137800639Y-87532785D01*
X137846394Y-87585589D01*
X137857600Y-87637100D01*
X137857600Y-88738099D01*
X137880908Y-88738099D01*
X137880922Y-88738098D01*
X137980207Y-88727955D01*
X138141081Y-88674647D01*
X138141092Y-88674642D01*
X138285328Y-88585675D01*
X138285332Y-88585672D01*
X138288909Y-88582096D01*
X138350232Y-88548611D01*
X138419924Y-88553595D01*
X138464271Y-88582096D01*
X138474559Y-88592384D01*
X138474563Y-88592387D01*
X138620490Y-88682397D01*
X138620493Y-88682398D01*
X138620499Y-88682402D01*
X138783264Y-88736336D01*
X138883728Y-88746600D01*
X138883733Y-88746600D01*
X139431467Y-88746600D01*
X139431472Y-88746600D01*
X139531936Y-88736336D01*
X139694701Y-88682402D01*
X139694702Y-88682400D01*
X139701556Y-88680130D01*
X139702504Y-88682991D01*
X139758101Y-88674513D01*
X139821901Y-88702996D01*
X139860175Y-88761450D01*
X139865500Y-88797397D01*
X139865500Y-92359233D01*
X139845815Y-92426272D01*
X139829181Y-92446914D01*
X132091317Y-100184777D01*
X132029994Y-100218262D01*
X132014860Y-100220586D01*
X131993951Y-100222487D01*
X131914947Y-100247105D01*
X131858389Y-100264729D01*
X131788529Y-100265879D01*
X131729137Y-100229078D01*
X131699069Y-100166009D01*
X131697500Y-100146343D01*
X131697500Y-99881766D01*
X131717185Y-99814727D01*
X131733819Y-99794085D01*
X134553268Y-96974636D01*
X134553271Y-96974633D01*
X134622600Y-96870875D01*
X134670355Y-96755585D01*
X134694700Y-96633194D01*
X134694700Y-96508406D01*
X134694700Y-95392956D01*
X134714385Y-95325917D01*
X134726546Y-95309988D01*
X134800240Y-95228144D01*
X134895727Y-95062756D01*
X134954742Y-94881128D01*
X134974704Y-94691200D01*
X134954742Y-94501272D01*
X134938985Y-94452780D01*
X134936989Y-94382941D01*
X134973069Y-94323107D01*
X135035769Y-94292278D01*
X135105184Y-94300242D01*
X135121066Y-94308345D01*
X135121844Y-94308815D01*
X135121845Y-94308816D01*
X135269087Y-94397827D01*
X135433351Y-94449013D01*
X135504735Y-94455500D01*
X136019264Y-94455499D01*
X136019272Y-94455499D01*
X136090645Y-94449014D01*
X136090648Y-94449013D01*
X136090649Y-94449013D01*
X136254913Y-94397827D01*
X136402155Y-94308816D01*
X136480439Y-94230531D01*
X136541760Y-94197048D01*
X136611452Y-94202032D01*
X136641004Y-94217896D01*
X136703243Y-94263115D01*
X136703245Y-94263116D01*
X136703248Y-94263118D01*
X136877712Y-94340794D01*
X137064513Y-94380500D01*
X137255487Y-94380500D01*
X137442288Y-94340794D01*
X137616752Y-94263118D01*
X137771253Y-94150866D01*
X137899040Y-94008944D01*
X137994527Y-93843556D01*
X138053542Y-93661928D01*
X138073504Y-93472000D01*
X138053542Y-93282072D01*
X137994527Y-93100444D01*
X137899040Y-92935056D01*
X137771253Y-92793134D01*
X137620102Y-92683316D01*
X137577439Y-92627988D01*
X137571460Y-92558375D01*
X137604066Y-92496580D01*
X137620099Y-92482685D01*
X137771253Y-92372866D01*
X137899040Y-92230944D01*
X137994527Y-92065556D01*
X138053542Y-91883928D01*
X138073504Y-91694000D01*
X138053542Y-91504072D01*
X137994527Y-91322444D01*
X137899040Y-91157056D01*
X137771253Y-91015134D01*
X137616752Y-90902882D01*
X137442288Y-90825206D01*
X137442286Y-90825205D01*
X137255487Y-90785500D01*
X137064513Y-90785500D01*
X136877714Y-90825205D01*
X136703243Y-90902884D01*
X136641004Y-90948104D01*
X136575198Y-90971584D01*
X136507144Y-90955758D01*
X136480441Y-90935470D01*
X136402155Y-90857184D01*
X136254913Y-90768173D01*
X136090649Y-90716987D01*
X136090647Y-90716986D01*
X136090645Y-90716986D01*
X136040667Y-90712444D01*
X136019265Y-90710500D01*
X136019262Y-90710500D01*
X135504727Y-90710500D01*
X135433354Y-90716985D01*
X135433344Y-90716988D01*
X135269090Y-90768171D01*
X135121841Y-90857186D01*
X135121840Y-90857187D01*
X135024681Y-90954347D01*
X134963358Y-90987832D01*
X134893666Y-90982848D01*
X134849319Y-90954347D01*
X134752158Y-90857186D01*
X134752155Y-90857184D01*
X134658468Y-90800548D01*
X134611283Y-90749022D01*
X134599444Y-90680163D01*
X134626713Y-90615834D01*
X134684431Y-90576460D01*
X134709658Y-90571112D01*
X134715474Y-90570500D01*
X134715487Y-90570500D01*
X134902288Y-90530794D01*
X135076752Y-90453118D01*
X135231253Y-90340866D01*
X135359040Y-90198944D01*
X135454527Y-90033556D01*
X135513542Y-89851928D01*
X135530981Y-89685999D01*
X135557564Y-89621388D01*
X135566621Y-89611282D01*
X135620071Y-89557833D01*
X135689400Y-89454075D01*
X135693637Y-89443845D01*
X135737155Y-89338785D01*
X135761500Y-89216394D01*
X135761500Y-88061422D01*
X136657601Y-88061422D01*
X136667744Y-88160707D01*
X136721052Y-88321581D01*
X136721057Y-88321592D01*
X136810024Y-88465828D01*
X136810027Y-88465832D01*
X136929867Y-88585672D01*
X136929871Y-88585675D01*
X137074107Y-88674642D01*
X137074118Y-88674647D01*
X137234993Y-88727955D01*
X137334283Y-88738099D01*
X137357600Y-88738098D01*
X137357600Y-88013100D01*
X136657601Y-88013100D01*
X136657601Y-88061422D01*
X135761500Y-88061422D01*
X135761500Y-86830406D01*
X135737155Y-86708015D01*
X135705793Y-86632300D01*
X135689401Y-86592725D01*
X135670929Y-86565080D01*
X135620072Y-86488966D01*
X134878819Y-85747713D01*
X134845334Y-85686390D01*
X134842500Y-85660032D01*
X134842500Y-85349933D01*
X134842499Y-85349920D01*
X134839042Y-85316085D01*
X134832236Y-85249464D01*
X134778302Y-85086699D01*
X134741086Y-85026363D01*
X134722646Y-84958974D01*
X134743568Y-84892310D01*
X134797209Y-84847540D01*
X134866540Y-84838878D01*
X134919508Y-84860948D01*
X134924086Y-84864273D01*
X134925248Y-84865118D01*
X135099712Y-84942794D01*
X135286513Y-84982500D01*
X135477487Y-84982500D01*
X135664288Y-84942794D01*
X135838752Y-84865118D01*
X135993253Y-84752866D01*
X135997160Y-84748527D01*
X136056646Y-84711879D01*
X136089309Y-84707500D01*
X136833667Y-84707500D01*
X136900706Y-84727185D01*
G37*
G04 #@! TD.AperFunction*
G04 #@! TA.AperFunction,Conductor*
G36*
X134114039Y-87196485D02*
G01*
X134159794Y-87249289D01*
X134171000Y-87300800D01*
X134171000Y-88401799D01*
X134177581Y-88401799D01*
X134248102Y-88395391D01*
X134248107Y-88395390D01*
X134333609Y-88368747D01*
X134403469Y-88367595D01*
X134462862Y-88404396D01*
X134492930Y-88467464D01*
X134494500Y-88487132D01*
X134494500Y-88659466D01*
X134474815Y-88726505D01*
X134422011Y-88772260D01*
X134396282Y-88780756D01*
X134337713Y-88793205D01*
X134253822Y-88830556D01*
X134176040Y-88865187D01*
X134163244Y-88870884D01*
X134117607Y-88904042D01*
X134019833Y-88975080D01*
X134012761Y-88980218D01*
X133946954Y-89003698D01*
X133939875Y-89003900D01*
X132263633Y-89003900D01*
X132196594Y-88984215D01*
X132175956Y-88967585D01*
X132083955Y-88875584D01*
X131936713Y-88786573D01*
X131772449Y-88735387D01*
X131772447Y-88735386D01*
X131772445Y-88735386D01*
X131722467Y-88730844D01*
X131701065Y-88728900D01*
X131701062Y-88728900D01*
X131036527Y-88728900D01*
X130965154Y-88735385D01*
X130965144Y-88735388D01*
X130800890Y-88786571D01*
X130653643Y-88875585D01*
X130554147Y-88975081D01*
X130492824Y-89008565D01*
X130423132Y-89003581D01*
X130378785Y-88975080D01*
X130293532Y-88889827D01*
X130293528Y-88889824D01*
X130149292Y-88800857D01*
X130149281Y-88800852D01*
X129988406Y-88747544D01*
X129889122Y-88737400D01*
X129804664Y-88737400D01*
X129737625Y-88717715D01*
X129691870Y-88664911D01*
X129681926Y-88595753D01*
X129710951Y-88532197D01*
X129716966Y-88525736D01*
X129999085Y-88243617D01*
X130060408Y-88210133D01*
X130086766Y-88207299D01*
X130380271Y-88207299D01*
X130451644Y-88200814D01*
X130451647Y-88200813D01*
X130451649Y-88200813D01*
X130615913Y-88149627D01*
X130763155Y-88060616D01*
X130855153Y-87968617D01*
X130916474Y-87935134D01*
X130942833Y-87932300D01*
X131312507Y-87932300D01*
X131379546Y-87951985D01*
X131418624Y-87992150D01*
X131420172Y-87994711D01*
X131420173Y-87994713D01*
X131443822Y-88033833D01*
X131509186Y-88141958D01*
X131630841Y-88263613D01*
X131630843Y-88263614D01*
X131630845Y-88263616D01*
X131778087Y-88352627D01*
X131942351Y-88403813D01*
X132013735Y-88410300D01*
X132528264Y-88410299D01*
X132528272Y-88410299D01*
X132599645Y-88403814D01*
X132599648Y-88403813D01*
X132599649Y-88403813D01*
X132763913Y-88352627D01*
X132911155Y-88263616D01*
X133014330Y-88160440D01*
X133075651Y-88126956D01*
X133145342Y-88131940D01*
X133189691Y-88160441D01*
X133286122Y-88256872D01*
X133431604Y-88344819D01*
X133431603Y-88344819D01*
X133593894Y-88395390D01*
X133593893Y-88395390D01*
X133664408Y-88401798D01*
X133664426Y-88401799D01*
X133670999Y-88401798D01*
X133671000Y-88401798D01*
X133671000Y-87300800D01*
X133690685Y-87233761D01*
X133743489Y-87188006D01*
X133795000Y-87176800D01*
X134047000Y-87176800D01*
X134114039Y-87196485D01*
G37*
G04 #@! TD.AperFunction*
G04 #@! TA.AperFunction,Conductor*
G36*
X138479342Y-86515615D02*
G01*
X138523691Y-86544116D01*
X138620121Y-86640546D01*
X138625365Y-86644654D01*
X138666002Y-86701491D01*
X138669459Y-86771275D01*
X138634639Y-86831850D01*
X138613997Y-86847808D01*
X138474560Y-86933814D01*
X138474559Y-86933815D01*
X138464271Y-86944104D01*
X138402948Y-86977589D01*
X138333256Y-86972605D01*
X138288909Y-86944104D01*
X138285332Y-86940527D01*
X138285328Y-86940524D01*
X138198180Y-86886770D01*
X138151455Y-86834822D01*
X138140234Y-86765860D01*
X138168077Y-86701778D01*
X138199126Y-86675116D01*
X138245155Y-86647291D01*
X138348330Y-86544115D01*
X138409651Y-86510631D01*
X138479342Y-86515615D01*
G37*
G04 #@! TD.AperFunction*
G04 #@! TA.AperFunction,Conductor*
G36*
X109239691Y-81165419D02*
G01*
X109297404Y-81176899D01*
X109297405Y-81176900D01*
X109297406Y-81176900D01*
X109422194Y-81176900D01*
X109698285Y-81176900D01*
X109765324Y-81196585D01*
X109804402Y-81236750D01*
X109817581Y-81258551D01*
X109817582Y-81258552D01*
X109817584Y-81258555D01*
X109939245Y-81380216D01*
X110086487Y-81469227D01*
X110250751Y-81520413D01*
X110322135Y-81526900D01*
X110836664Y-81526899D01*
X110836672Y-81526899D01*
X110908045Y-81520414D01*
X110908048Y-81520413D01*
X110908049Y-81520413D01*
X111072313Y-81469227D01*
X111219555Y-81380216D01*
X111316720Y-81283050D01*
X111378041Y-81249567D01*
X111447733Y-81254551D01*
X111492081Y-81283052D01*
X111559581Y-81350552D01*
X111593066Y-81411875D01*
X111595900Y-81438233D01*
X111595900Y-82455766D01*
X111576215Y-82522805D01*
X111559581Y-82543447D01*
X111550070Y-82552958D01*
X111488747Y-82586443D01*
X111419055Y-82581459D01*
X111374708Y-82552958D01*
X111278277Y-82456527D01*
X111132795Y-82368580D01*
X111132796Y-82368580D01*
X110970505Y-82318009D01*
X110970506Y-82318009D01*
X110899972Y-82311600D01*
X110893400Y-82311600D01*
X110893400Y-84261599D01*
X110899981Y-84261599D01*
X110970502Y-84255191D01*
X110970507Y-84255190D01*
X111132796Y-84204618D01*
X111278277Y-84116672D01*
X111278278Y-84116671D01*
X111374706Y-84020242D01*
X111436029Y-83986756D01*
X111505720Y-83991740D01*
X111550068Y-84020240D01*
X111590082Y-84060253D01*
X111623568Y-84121575D01*
X111618584Y-84191267D01*
X111590083Y-84235616D01*
X110509615Y-85316085D01*
X109476567Y-86349133D01*
X109447316Y-86378384D01*
X109388327Y-86437372D01*
X109318602Y-86541723D01*
X109264989Y-86586528D01*
X109195664Y-86595235D01*
X109132637Y-86565080D01*
X109095918Y-86505637D01*
X109091500Y-86472832D01*
X109091500Y-83618182D01*
X109743401Y-83618182D01*
X109749808Y-83688702D01*
X109749809Y-83688707D01*
X109800381Y-83850996D01*
X109888327Y-83996477D01*
X110008522Y-84116672D01*
X110154004Y-84204619D01*
X110154003Y-84204619D01*
X110316294Y-84255190D01*
X110316293Y-84255190D01*
X110386808Y-84261598D01*
X110386826Y-84261599D01*
X110393399Y-84261598D01*
X110393400Y-84261598D01*
X110393400Y-83536600D01*
X109743401Y-83536600D01*
X109743401Y-83618182D01*
X109091500Y-83618182D01*
X109091500Y-82955027D01*
X109743400Y-82955027D01*
X109743400Y-83036600D01*
X110393400Y-83036600D01*
X110393400Y-82311600D01*
X110393399Y-82311599D01*
X110386836Y-82311600D01*
X110386817Y-82311601D01*
X110316297Y-82318008D01*
X110316292Y-82318009D01*
X110154003Y-82368581D01*
X110008522Y-82456527D01*
X109888327Y-82576722D01*
X109800380Y-82722204D01*
X109749809Y-82884493D01*
X109743400Y-82955027D01*
X109091500Y-82955027D01*
X109091500Y-81287037D01*
X109111185Y-81219998D01*
X109163989Y-81174243D01*
X109233147Y-81164299D01*
X109239691Y-81165419D01*
G37*
G04 #@! TD.AperFunction*
G04 #@! TA.AperFunction,Conductor*
G36*
X152650000Y-79186314D02*
G01*
X152645606Y-79181920D01*
X152554394Y-79129259D01*
X152452661Y-79102000D01*
X152347339Y-79102000D01*
X152245606Y-79129259D01*
X152154394Y-79181920D01*
X152150000Y-79186314D01*
X152150000Y-77277686D01*
X152154394Y-77282080D01*
X152245606Y-77334741D01*
X152347339Y-77362000D01*
X152452661Y-77362000D01*
X152554394Y-77334741D01*
X152645606Y-77282080D01*
X152650000Y-77277686D01*
X152650000Y-79186314D01*
G37*
G04 #@! TD.AperFunction*
G04 #@! TA.AperFunction,Conductor*
G36*
X152650000Y-76646314D02*
G01*
X152645606Y-76641920D01*
X152554394Y-76589259D01*
X152452661Y-76562000D01*
X152347339Y-76562000D01*
X152245606Y-76589259D01*
X152154394Y-76641920D01*
X152150000Y-76646314D01*
X152150000Y-74737686D01*
X152154394Y-74742080D01*
X152245606Y-74794741D01*
X152347339Y-74822000D01*
X152452661Y-74822000D01*
X152554394Y-74794741D01*
X152645606Y-74742080D01*
X152650000Y-74737686D01*
X152650000Y-76646314D01*
G37*
G04 #@! TD.AperFunction*
G04 #@! TA.AperFunction,Conductor*
G36*
X172843918Y-62995819D02*
G01*
X172971280Y-62998091D01*
X172986699Y-62999332D01*
X173239946Y-63035743D01*
X173257232Y-63039503D01*
X173501641Y-63111269D01*
X173518214Y-63117450D01*
X173749930Y-63223271D01*
X173765452Y-63231747D01*
X173979744Y-63369465D01*
X173993899Y-63380061D01*
X174186420Y-63546880D01*
X174198919Y-63559379D01*
X174202564Y-63563585D01*
X174365735Y-63751896D01*
X174376337Y-63766059D01*
X174514050Y-63980345D01*
X174522529Y-63995872D01*
X174628348Y-64227583D01*
X174634531Y-64244160D01*
X174706295Y-64488566D01*
X174710056Y-64505854D01*
X174746466Y-64759092D01*
X174747708Y-64774527D01*
X174749980Y-64901877D01*
X174750000Y-64904089D01*
X174750000Y-145591710D01*
X174749980Y-145593921D01*
X174747714Y-145720971D01*
X174746472Y-145736408D01*
X174710146Y-145989054D01*
X174706385Y-146006340D01*
X174634792Y-146250168D01*
X174628609Y-146266746D01*
X174523040Y-146497907D01*
X174514562Y-146513434D01*
X174377171Y-146727220D01*
X174366568Y-146741384D01*
X174200150Y-146933440D01*
X174187640Y-146945950D01*
X173995584Y-147112368D01*
X173981420Y-147122971D01*
X173767634Y-147260362D01*
X173752107Y-147268840D01*
X173520946Y-147374409D01*
X173504368Y-147380592D01*
X173260540Y-147452185D01*
X173243254Y-147455946D01*
X172990608Y-147492272D01*
X172975171Y-147493514D01*
X172848114Y-147495780D01*
X172845918Y-147495800D01*
X101908297Y-147504199D01*
X101906071Y-147504179D01*
X101778728Y-147501908D01*
X101763292Y-147500666D01*
X101510054Y-147464256D01*
X101492766Y-147460495D01*
X101248360Y-147388731D01*
X101231783Y-147382548D01*
X101000072Y-147276729D01*
X100984545Y-147268250D01*
X100770259Y-147130537D01*
X100756096Y-147119935D01*
X100747363Y-147112368D01*
X100563579Y-146953119D01*
X100551080Y-146940620D01*
X100384261Y-146748099D01*
X100373662Y-146733940D01*
X100369343Y-146727220D01*
X100235947Y-146519652D01*
X100227470Y-146504127D01*
X100224629Y-146497907D01*
X100121650Y-146272414D01*
X100115468Y-146255839D01*
X100043704Y-146011433D01*
X100039943Y-145994145D01*
X100003533Y-145740907D01*
X100002291Y-145725481D01*
X100000018Y-145598009D01*
X99999999Y-145596017D01*
X99998750Y-121603601D01*
X103252500Y-121603601D01*
X103252500Y-123760398D01*
X103276843Y-123882777D01*
X103276845Y-123882785D01*
X103324598Y-123998072D01*
X103324603Y-123998081D01*
X103393928Y-124101832D01*
X103393931Y-124101836D01*
X104498163Y-125206068D01*
X104498167Y-125206071D01*
X104601918Y-125275396D01*
X104601924Y-125275399D01*
X104601925Y-125275400D01*
X104717215Y-125323155D01*
X104839601Y-125347499D01*
X104839605Y-125347500D01*
X104839606Y-125347500D01*
X104964394Y-125347500D01*
X105359233Y-125347500D01*
X105426272Y-125367185D01*
X105472027Y-125419989D01*
X105481971Y-125489147D01*
X105452946Y-125552703D01*
X105446914Y-125559181D01*
X104708313Y-126297783D01*
X103990167Y-127015929D01*
X103964021Y-127042075D01*
X103901927Y-127104168D01*
X103832603Y-127207918D01*
X103832598Y-127207927D01*
X103784845Y-127323214D01*
X103784843Y-127323222D01*
X103760500Y-127445601D01*
X103760500Y-132396398D01*
X103784843Y-132518777D01*
X103784845Y-132518785D01*
X103832598Y-132634072D01*
X103832603Y-132634081D01*
X103901928Y-132737832D01*
X103901931Y-132737836D01*
X113896163Y-142732069D01*
X113896167Y-142732072D01*
X113999921Y-142801399D01*
X113999923Y-142801399D01*
X113999925Y-142801401D01*
X114081447Y-142835168D01*
X114115215Y-142849155D01*
X114115217Y-142849155D01*
X114115222Y-142849157D01*
X114237601Y-142873499D01*
X114237605Y-142873500D01*
X114237606Y-142873500D01*
X114237607Y-142873500D01*
X114362394Y-142873500D01*
X119882044Y-142873500D01*
X119949083Y-142893185D01*
X119985852Y-142929678D01*
X120082276Y-143077265D01*
X120082284Y-143077276D01*
X120234756Y-143242902D01*
X120234760Y-143242906D01*
X120412424Y-143381189D01*
X120412425Y-143381189D01*
X120412427Y-143381191D01*
X120472314Y-143413600D01*
X120610426Y-143488342D01*
X120823365Y-143561444D01*
X121045431Y-143598500D01*
X121270569Y-143598500D01*
X121492635Y-143561444D01*
X121705574Y-143488342D01*
X121903576Y-143381189D01*
X122081240Y-143242906D01*
X122202594Y-143111082D01*
X122233715Y-143077276D01*
X122233715Y-143077275D01*
X122233722Y-143077268D01*
X122327749Y-142933347D01*
X122380894Y-142887994D01*
X122450125Y-142878570D01*
X122513461Y-142908072D01*
X122533130Y-142930048D01*
X122659890Y-143111078D01*
X122826917Y-143278105D01*
X123020421Y-143413600D01*
X123234507Y-143513429D01*
X123234516Y-143513433D01*
X123448000Y-143570634D01*
X123448000Y-142673012D01*
X123505007Y-142705925D01*
X123632174Y-142740000D01*
X123763826Y-142740000D01*
X123890993Y-142705925D01*
X123948000Y-142673012D01*
X123948000Y-143570633D01*
X124161483Y-143513433D01*
X124161492Y-143513429D01*
X124375578Y-143413600D01*
X124569082Y-143278105D01*
X124736105Y-143111082D01*
X124871600Y-142917578D01*
X124971429Y-142703492D01*
X124971432Y-142703486D01*
X125028636Y-142490000D01*
X124131012Y-142490000D01*
X124163925Y-142432993D01*
X124198000Y-142305826D01*
X124198000Y-142174174D01*
X124163925Y-142047007D01*
X124131012Y-141990000D01*
X125028636Y-141990000D01*
X125028635Y-141989999D01*
X124971432Y-141776513D01*
X124971429Y-141776507D01*
X124871600Y-141562422D01*
X124871599Y-141562420D01*
X124736113Y-141368926D01*
X124736108Y-141368920D01*
X124569082Y-141201894D01*
X124388197Y-141075236D01*
X124344572Y-141020659D01*
X124337380Y-140951160D01*
X124368902Y-140888806D01*
X124400300Y-140864608D01*
X124443576Y-140841189D01*
X124621240Y-140702906D01*
X124757211Y-140555204D01*
X124773715Y-140537276D01*
X124773717Y-140537273D01*
X124773722Y-140537268D01*
X124896860Y-140348791D01*
X124987296Y-140142616D01*
X125042564Y-139924368D01*
X125061156Y-139700000D01*
X125060637Y-139693738D01*
X125042565Y-139475640D01*
X125042563Y-139475628D01*
X125035059Y-139445994D01*
X142846859Y-139445994D01*
X142846859Y-139446005D01*
X142867385Y-139693729D01*
X142867387Y-139693738D01*
X142928412Y-139934717D01*
X143028266Y-140162364D01*
X143128564Y-140315882D01*
X143869037Y-139575409D01*
X143886075Y-139638993D01*
X143951901Y-139753007D01*
X144044993Y-139846099D01*
X144159007Y-139911925D01*
X144222590Y-139928962D01*
X143481942Y-140669609D01*
X143528768Y-140706055D01*
X143528770Y-140706056D01*
X143747385Y-140824364D01*
X143747396Y-140824369D01*
X143982506Y-140905083D01*
X144227707Y-140946000D01*
X144476293Y-140946000D01*
X144721493Y-140905083D01*
X144956603Y-140824369D01*
X144956614Y-140824364D01*
X145175228Y-140706057D01*
X145175231Y-140706055D01*
X145222056Y-140669609D01*
X144481409Y-139928962D01*
X144544993Y-139911925D01*
X144659007Y-139846099D01*
X144752099Y-139753007D01*
X144817925Y-139638993D01*
X144834962Y-139575410D01*
X145575434Y-140315882D01*
X145675731Y-140162369D01*
X145775587Y-139934717D01*
X145836612Y-139693738D01*
X145836614Y-139693729D01*
X145857141Y-139446005D01*
X145857141Y-139445994D01*
X145836614Y-139198270D01*
X145836612Y-139198261D01*
X145775587Y-138957282D01*
X145675731Y-138729630D01*
X145575434Y-138576116D01*
X144834962Y-139316589D01*
X144817925Y-139253007D01*
X144752099Y-139138993D01*
X144659007Y-139045901D01*
X144544993Y-138980075D01*
X144481410Y-138963037D01*
X145222057Y-138222390D01*
X145222056Y-138222389D01*
X145175229Y-138185943D01*
X144956614Y-138067635D01*
X144956603Y-138067630D01*
X144721493Y-137986916D01*
X144476293Y-137946000D01*
X144227707Y-137946000D01*
X143982506Y-137986916D01*
X143747396Y-138067630D01*
X143747390Y-138067632D01*
X143528761Y-138185949D01*
X143481942Y-138222388D01*
X143481942Y-138222390D01*
X144222590Y-138963037D01*
X144159007Y-138980075D01*
X144044993Y-139045901D01*
X143951901Y-139138993D01*
X143886075Y-139253007D01*
X143869037Y-139316589D01*
X143128564Y-138576116D01*
X143028267Y-138729632D01*
X142928412Y-138957282D01*
X142867387Y-139198261D01*
X142867385Y-139198270D01*
X142846859Y-139445994D01*
X125035059Y-139445994D01*
X125014538Y-139364960D01*
X125017163Y-139295140D01*
X125047061Y-139246841D01*
X127226085Y-137067819D01*
X127287408Y-137034334D01*
X127313766Y-137031500D01*
X145990234Y-137031500D01*
X146057273Y-137051185D01*
X146077915Y-137067819D01*
X147807181Y-138797085D01*
X147840666Y-138858408D01*
X147843500Y-138884766D01*
X147843500Y-140494654D01*
X147850011Y-140555202D01*
X147850011Y-140555204D01*
X147892683Y-140669609D01*
X147901111Y-140692204D01*
X147988739Y-140809261D01*
X148105796Y-140896889D01*
X148242799Y-140947989D01*
X148270050Y-140950918D01*
X148303345Y-140954499D01*
X148303362Y-140954500D01*
X150400638Y-140954500D01*
X150400654Y-140954499D01*
X150427692Y-140951591D01*
X150461201Y-140947989D01*
X150598204Y-140896889D01*
X150715261Y-140809261D01*
X150802889Y-140692204D01*
X150853989Y-140555201D01*
X150857591Y-140521692D01*
X150860499Y-140494654D01*
X150860500Y-140494637D01*
X150860500Y-138884766D01*
X150880185Y-138817727D01*
X150896819Y-138797085D01*
X152934003Y-136759901D01*
X155030420Y-134663483D01*
X155091741Y-134630000D01*
X155161433Y-134634984D01*
X155205780Y-134663485D01*
X155280363Y-134738068D01*
X155280367Y-134738071D01*
X155384118Y-134807396D01*
X155384124Y-134807399D01*
X155384125Y-134807400D01*
X155499415Y-134855155D01*
X155621801Y-134879499D01*
X155621805Y-134879500D01*
X155621806Y-134879500D01*
X155746593Y-134879500D01*
X159956042Y-134879500D01*
X160023081Y-134899185D01*
X160068836Y-134951989D01*
X160072882Y-134961975D01*
X160103475Y-135048054D01*
X160103474Y-135048054D01*
X160229889Y-135292024D01*
X160229893Y-135292030D01*
X160388340Y-135516499D01*
X160388343Y-135516502D01*
X160575889Y-135717314D01*
X160789031Y-135890718D01*
X160789033Y-135890719D01*
X160789034Y-135890720D01*
X161023801Y-136033485D01*
X161228348Y-136122331D01*
X161275823Y-136142953D01*
X161540404Y-136217085D01*
X161779720Y-136249978D01*
X161812614Y-136254500D01*
X161812615Y-136254500D01*
X162087386Y-136254500D01*
X162116733Y-136250466D01*
X162359596Y-136217085D01*
X162624177Y-136142953D01*
X162828725Y-136054105D01*
X162876198Y-136033485D01*
X162900327Y-136018812D01*
X163110969Y-135890718D01*
X163324111Y-135717314D01*
X163511657Y-135516502D01*
X163670111Y-135292023D01*
X163796523Y-135048058D01*
X163888538Y-134789153D01*
X163888539Y-134789146D01*
X163888541Y-134789141D01*
X163920575Y-134634984D01*
X163944442Y-134520130D01*
X163963193Y-134246000D01*
X163944442Y-133971870D01*
X163891497Y-133717084D01*
X163888541Y-133702858D01*
X163888536Y-133702841D01*
X163855764Y-133610631D01*
X163796523Y-133443942D01*
X163670111Y-133199977D01*
X163670110Y-133199975D01*
X163670106Y-133199969D01*
X163511659Y-132975500D01*
X163493031Y-132955555D01*
X163324111Y-132774686D01*
X163110969Y-132601282D01*
X163110967Y-132601281D01*
X163110965Y-132601279D01*
X162876198Y-132458514D01*
X162624178Y-132349047D01*
X162359602Y-132274916D01*
X162359597Y-132274915D01*
X162359596Y-132274915D01*
X162223490Y-132256207D01*
X162087386Y-132237500D01*
X162087385Y-132237500D01*
X161812615Y-132237500D01*
X161812614Y-132237500D01*
X161561150Y-132272063D01*
X161492054Y-132261690D01*
X161439535Y-132215609D01*
X161420267Y-132148448D01*
X161422858Y-132123996D01*
X161444442Y-132020130D01*
X161463193Y-131746000D01*
X169436807Y-131746000D01*
X169455557Y-132020130D01*
X169455558Y-132020132D01*
X169511458Y-132289141D01*
X169511463Y-132289158D01*
X169603476Y-132548056D01*
X169729889Y-132792024D01*
X169729893Y-132792030D01*
X169888340Y-133016499D01*
X169888343Y-133016502D01*
X170075889Y-133217314D01*
X170289031Y-133390718D01*
X170289033Y-133390719D01*
X170289034Y-133390720D01*
X170523801Y-133533485D01*
X170701410Y-133610631D01*
X170775823Y-133642953D01*
X171040404Y-133717085D01*
X171279720Y-133749978D01*
X171312614Y-133754500D01*
X171312615Y-133754500D01*
X171587386Y-133754500D01*
X171616733Y-133750466D01*
X171859596Y-133717085D01*
X172124177Y-133642953D01*
X172376200Y-133533484D01*
X172610969Y-133390718D01*
X172824111Y-133217314D01*
X173011657Y-133016502D01*
X173170111Y-132792023D01*
X173296523Y-132548058D01*
X173388538Y-132289153D01*
X173388539Y-132289146D01*
X173388541Y-132289141D01*
X173438943Y-132046591D01*
X173444442Y-132020130D01*
X173463193Y-131746000D01*
X173444442Y-131471870D01*
X173425141Y-131378989D01*
X173388541Y-131202858D01*
X173388536Y-131202841D01*
X173335460Y-131053500D01*
X173296523Y-130943942D01*
X173170111Y-130699977D01*
X173170110Y-130699975D01*
X173170106Y-130699969D01*
X173011659Y-130475500D01*
X172912081Y-130368879D01*
X172824111Y-130274686D01*
X172610969Y-130101282D01*
X172610967Y-130101281D01*
X172610965Y-130101279D01*
X172376198Y-129958514D01*
X172124178Y-129849047D01*
X171859602Y-129774916D01*
X171859597Y-129774915D01*
X171859596Y-129774915D01*
X171723490Y-129756207D01*
X171587386Y-129737500D01*
X171587385Y-129737500D01*
X171312615Y-129737500D01*
X171312614Y-129737500D01*
X171040404Y-129774915D01*
X171040397Y-129774916D01*
X170775821Y-129849047D01*
X170523801Y-129958514D01*
X170289034Y-130101279D01*
X170075892Y-130274683D01*
X169888340Y-130475500D01*
X169729893Y-130699969D01*
X169729889Y-130699975D01*
X169603476Y-130943943D01*
X169511463Y-131202841D01*
X169511458Y-131202858D01*
X169455558Y-131471867D01*
X169455557Y-131471869D01*
X169436807Y-131746000D01*
X161463193Y-131746000D01*
X161444442Y-131471870D01*
X161425141Y-131378989D01*
X161388541Y-131202858D01*
X161388536Y-131202841D01*
X161335460Y-131053500D01*
X161296523Y-130943942D01*
X161170111Y-130699977D01*
X161170110Y-130699975D01*
X161170106Y-130699969D01*
X161011659Y-130475500D01*
X160912081Y-130368879D01*
X160824111Y-130274686D01*
X160610969Y-130101282D01*
X160610967Y-130101281D01*
X160610965Y-130101279D01*
X160376198Y-129958514D01*
X160124178Y-129849047D01*
X159859602Y-129774916D01*
X159859597Y-129774915D01*
X159859596Y-129774915D01*
X159723490Y-129756207D01*
X159587386Y-129737500D01*
X159587385Y-129737500D01*
X159312615Y-129737500D01*
X159312614Y-129737500D01*
X159040404Y-129774915D01*
X159040397Y-129774916D01*
X158775821Y-129849047D01*
X158523801Y-129958514D01*
X158289034Y-130101279D01*
X158075892Y-130274683D01*
X157888340Y-130475500D01*
X157729893Y-130699969D01*
X157729889Y-130699975D01*
X157603476Y-130943943D01*
X157511463Y-131202841D01*
X157511458Y-131202858D01*
X157455558Y-131471867D01*
X157455557Y-131471869D01*
X157436807Y-131746000D01*
X157455557Y-132020130D01*
X157455558Y-132020132D01*
X157511458Y-132289141D01*
X157511463Y-132289158D01*
X157603476Y-132548056D01*
X157729889Y-132792024D01*
X157729893Y-132792030D01*
X157888340Y-133016499D01*
X157888343Y-133016502D01*
X158075889Y-133217314D01*
X158289031Y-133390718D01*
X158289033Y-133390719D01*
X158290991Y-133392312D01*
X158330571Y-133449889D01*
X158332740Y-133519725D01*
X158296809Y-133579647D01*
X158234184Y-133610631D01*
X158212736Y-133612500D01*
X155997966Y-133612500D01*
X155930927Y-133592815D01*
X155910285Y-133576181D01*
X155833819Y-133499715D01*
X155800334Y-133438392D01*
X155797500Y-133412034D01*
X155797500Y-133101933D01*
X155797499Y-133101920D01*
X155788772Y-133016502D01*
X155787236Y-133001464D01*
X155733302Y-132838699D01*
X155733298Y-132838693D01*
X155733297Y-132838690D01*
X155643287Y-132692763D01*
X155643284Y-132692759D01*
X155522040Y-132571515D01*
X155522036Y-132571512D01*
X155376109Y-132481502D01*
X155376103Y-132481499D01*
X155376101Y-132481498D01*
X155213336Y-132427564D01*
X155112879Y-132417300D01*
X155112872Y-132417300D01*
X154565128Y-132417300D01*
X154565120Y-132417300D01*
X154464663Y-132427564D01*
X154301901Y-132481497D01*
X154301890Y-132481502D01*
X154155963Y-132571512D01*
X154155959Y-132571515D01*
X154145671Y-132581804D01*
X154084348Y-132615289D01*
X154014656Y-132610305D01*
X153970309Y-132581804D01*
X153966732Y-132578227D01*
X153966728Y-132578224D01*
X153822492Y-132489257D01*
X153822481Y-132489252D01*
X153661606Y-132435944D01*
X153562322Y-132425800D01*
X153539000Y-132425800D01*
X153539000Y-134311733D01*
X153519315Y-134378772D01*
X153502681Y-134399414D01*
X150197181Y-137704914D01*
X150135858Y-137738399D01*
X150066166Y-137733415D01*
X150010233Y-137691543D01*
X149985816Y-137626079D01*
X149985500Y-137617233D01*
X149985500Y-133699122D01*
X152339001Y-133699122D01*
X152349144Y-133798407D01*
X152402452Y-133959281D01*
X152402457Y-133959292D01*
X152491424Y-134103528D01*
X152491427Y-134103532D01*
X152611267Y-134223372D01*
X152611271Y-134223375D01*
X152755507Y-134312342D01*
X152755518Y-134312347D01*
X152916393Y-134365655D01*
X153015683Y-134375799D01*
X153039000Y-134375798D01*
X153039000Y-133650800D01*
X152339001Y-133650800D01*
X152339001Y-133699122D01*
X149985500Y-133699122D01*
X149985500Y-133102477D01*
X152339000Y-133102477D01*
X152339000Y-133150800D01*
X153039000Y-133150800D01*
X153039000Y-132425799D01*
X153015693Y-132425800D01*
X153015674Y-132425801D01*
X152916392Y-132435944D01*
X152755518Y-132489252D01*
X152755507Y-132489257D01*
X152611271Y-132578224D01*
X152611267Y-132578227D01*
X152491427Y-132698067D01*
X152491424Y-132698071D01*
X152402457Y-132842307D01*
X152402452Y-132842318D01*
X152349144Y-133003193D01*
X152339000Y-133102477D01*
X149985500Y-133102477D01*
X149985500Y-129140500D01*
X150005185Y-129073461D01*
X150057989Y-129027706D01*
X150109500Y-129016500D01*
X150318961Y-129016500D01*
X150318977Y-129016499D01*
X150346015Y-129013591D01*
X150379524Y-129009989D01*
X150516527Y-128958889D01*
X150633584Y-128871261D01*
X150721212Y-128754204D01*
X150772312Y-128617201D01*
X150775914Y-128583692D01*
X150778822Y-128556654D01*
X150778823Y-128556637D01*
X150778823Y-126745998D01*
X159944891Y-126745998D01*
X159944891Y-126746001D01*
X159965300Y-127031362D01*
X160026109Y-127310895D01*
X160126091Y-127578958D01*
X160263191Y-127830038D01*
X160263196Y-127830046D01*
X160369882Y-127972561D01*
X160369883Y-127972562D01*
X161195884Y-127146561D01*
X161196740Y-127148626D01*
X161289762Y-127287844D01*
X161408156Y-127406238D01*
X161547374Y-127499260D01*
X161549437Y-127500114D01*
X160723436Y-128326115D01*
X160865960Y-128432807D01*
X160865961Y-128432808D01*
X161117042Y-128569908D01*
X161117041Y-128569908D01*
X161385104Y-128669890D01*
X161664637Y-128730699D01*
X161949999Y-128751109D01*
X161950001Y-128751109D01*
X162235362Y-128730699D01*
X162514895Y-128669890D01*
X162782958Y-128569908D01*
X163034047Y-128432803D01*
X163176561Y-128326116D01*
X163176562Y-128326115D01*
X162350562Y-127500114D01*
X162352626Y-127499260D01*
X162491844Y-127406238D01*
X162610238Y-127287844D01*
X162703260Y-127148626D01*
X162704114Y-127146561D01*
X163530115Y-127972562D01*
X163530116Y-127972561D01*
X163636803Y-127830047D01*
X163773908Y-127578958D01*
X163873890Y-127310895D01*
X163934699Y-127031362D01*
X163955109Y-126746001D01*
X163955109Y-126745998D01*
X163934699Y-126460637D01*
X163873890Y-126181104D01*
X163773908Y-125913041D01*
X163636808Y-125661961D01*
X163636807Y-125661960D01*
X163530115Y-125519436D01*
X162704114Y-126345437D01*
X162703260Y-126343374D01*
X162610238Y-126204156D01*
X162491844Y-126085762D01*
X162352626Y-125992740D01*
X162350561Y-125991884D01*
X163176562Y-125165883D01*
X163176561Y-125165882D01*
X163034046Y-125059196D01*
X163034038Y-125059191D01*
X162782957Y-124922091D01*
X162782958Y-124922091D01*
X162514895Y-124822109D01*
X162235362Y-124761300D01*
X161950001Y-124740891D01*
X161949999Y-124740891D01*
X161664637Y-124761300D01*
X161385104Y-124822109D01*
X161117041Y-124922091D01*
X160865961Y-125059191D01*
X160865953Y-125059196D01*
X160723437Y-125165882D01*
X160723436Y-125165883D01*
X161549438Y-125991884D01*
X161547374Y-125992740D01*
X161408156Y-126085762D01*
X161289762Y-126204156D01*
X161196740Y-126343374D01*
X161195885Y-126345438D01*
X160369883Y-125519436D01*
X160369882Y-125519437D01*
X160263196Y-125661953D01*
X160263191Y-125661961D01*
X160126091Y-125913041D01*
X160026109Y-126181104D01*
X159965300Y-126460637D01*
X159944891Y-126745998D01*
X150778823Y-126745998D01*
X150778823Y-126459362D01*
X150778822Y-126459345D01*
X150774458Y-126418764D01*
X150772312Y-126398799D01*
X150769942Y-126392446D01*
X150742494Y-126318855D01*
X150721212Y-126261796D01*
X150633584Y-126144739D01*
X150516527Y-126057111D01*
X150379526Y-126006011D01*
X150318977Y-125999500D01*
X150318961Y-125999500D01*
X148221685Y-125999500D01*
X148221668Y-125999500D01*
X148161120Y-126006011D01*
X148161118Y-126006011D01*
X148024118Y-126057111D01*
X147907062Y-126144739D01*
X147819434Y-126261795D01*
X147768334Y-126398795D01*
X147768334Y-126398797D01*
X147761823Y-126459345D01*
X147761823Y-128556654D01*
X147768334Y-128617202D01*
X147768334Y-128617204D01*
X147806835Y-128720426D01*
X147819434Y-128754204D01*
X147907062Y-128871261D01*
X148024119Y-128958889D01*
X148161122Y-129009989D01*
X148188373Y-129012918D01*
X148221668Y-129016499D01*
X148221685Y-129016500D01*
X148594500Y-129016500D01*
X148661539Y-129036185D01*
X148707294Y-129088989D01*
X148718500Y-129140500D01*
X148718500Y-137617233D01*
X148698815Y-137684272D01*
X148646011Y-137730027D01*
X148576853Y-137739971D01*
X148513297Y-137710946D01*
X148506819Y-137704914D01*
X146707836Y-135905931D01*
X146707832Y-135905928D01*
X146604081Y-135836603D01*
X146604072Y-135836598D01*
X146488785Y-135788845D01*
X146488777Y-135788843D01*
X146366398Y-135764500D01*
X146366394Y-135764500D01*
X127062394Y-135764500D01*
X126937606Y-135764500D01*
X126937601Y-135764500D01*
X126815222Y-135788843D01*
X126815214Y-135788845D01*
X126699927Y-135836598D01*
X126699918Y-135836603D01*
X126596167Y-135905928D01*
X126596163Y-135905931D01*
X125264434Y-137237659D01*
X125203111Y-137271144D01*
X125133419Y-137266160D01*
X125077486Y-137224288D01*
X125053225Y-137160785D01*
X125032569Y-136924684D01*
X125032567Y-136924673D01*
X124971433Y-136696516D01*
X124971429Y-136696507D01*
X124871600Y-136482423D01*
X124871599Y-136482421D01*
X124812925Y-136398626D01*
X124812925Y-136398625D01*
X124180962Y-137030589D01*
X124163925Y-136967007D01*
X124098099Y-136852993D01*
X124005007Y-136759901D01*
X123890993Y-136694075D01*
X123827410Y-136677037D01*
X124459373Y-136045073D01*
X124459373Y-136045072D01*
X124375583Y-135986402D01*
X124375579Y-135986400D01*
X124161492Y-135886570D01*
X124161483Y-135886566D01*
X123933326Y-135825432D01*
X123933315Y-135825430D01*
X123698002Y-135804843D01*
X123697998Y-135804843D01*
X123462684Y-135825430D01*
X123462673Y-135825432D01*
X123234516Y-135886566D01*
X123234507Y-135886570D01*
X123020419Y-135986401D01*
X122936625Y-136045072D01*
X123568590Y-136677037D01*
X123505007Y-136694075D01*
X123390993Y-136759901D01*
X123297901Y-136852993D01*
X123232075Y-136967007D01*
X123215037Y-137030590D01*
X122583072Y-136398625D01*
X122583072Y-136398626D01*
X122533131Y-136469950D01*
X122478555Y-136513575D01*
X122409056Y-136520769D01*
X122346701Y-136489246D01*
X122327748Y-136466649D01*
X122233723Y-136322734D01*
X122233715Y-136322723D01*
X122081243Y-136157097D01*
X122081238Y-136157092D01*
X121922429Y-136033485D01*
X121903576Y-136018811D01*
X121903575Y-136018810D01*
X121903572Y-136018808D01*
X121705580Y-135911661D01*
X121705577Y-135911659D01*
X121705574Y-135911658D01*
X121705571Y-135911657D01*
X121705569Y-135911656D01*
X121492637Y-135838556D01*
X121270569Y-135801500D01*
X121045431Y-135801500D01*
X120823362Y-135838556D01*
X120610430Y-135911656D01*
X120610419Y-135911661D01*
X120412427Y-136018808D01*
X120412422Y-136018812D01*
X120234761Y-136157092D01*
X120234756Y-136157097D01*
X120082284Y-136322723D01*
X120082276Y-136322734D01*
X119985852Y-136470322D01*
X119932706Y-136515679D01*
X119882044Y-136526500D01*
X114578766Y-136526500D01*
X114511727Y-136506815D01*
X114491085Y-136490181D01*
X109193305Y-131192401D01*
X109159820Y-131131078D01*
X109164804Y-131061386D01*
X109206676Y-131005453D01*
X109241985Y-130987013D01*
X109258483Y-130981546D01*
X109258492Y-130981542D01*
X109402728Y-130892575D01*
X109402732Y-130892572D01*
X109522572Y-130772732D01*
X109522575Y-130772728D01*
X109611542Y-130628492D01*
X109611547Y-130628481D01*
X109664855Y-130467606D01*
X109674999Y-130368322D01*
X109675000Y-130368309D01*
X109675000Y-130320000D01*
X108599000Y-130320000D01*
X108531961Y-130300315D01*
X108486206Y-130247511D01*
X108475000Y-130196000D01*
X108475000Y-129820000D01*
X108975000Y-129820000D01*
X109674999Y-129820000D01*
X109674999Y-129771692D01*
X109674998Y-129771677D01*
X109664855Y-129672392D01*
X109611547Y-129511518D01*
X109611542Y-129511507D01*
X109522575Y-129367271D01*
X109522572Y-129367267D01*
X109402732Y-129247427D01*
X109402728Y-129247424D01*
X109258492Y-129158457D01*
X109258481Y-129158452D01*
X109097606Y-129105144D01*
X108998322Y-129095000D01*
X108975000Y-129095000D01*
X108975000Y-129820000D01*
X108475000Y-129820000D01*
X108475000Y-129094999D01*
X108451693Y-129095000D01*
X108451674Y-129095001D01*
X108352392Y-129105144D01*
X108191518Y-129158452D01*
X108191507Y-129158457D01*
X108047271Y-129247424D01*
X108047267Y-129247427D01*
X108043691Y-129251004D01*
X107982368Y-129284489D01*
X107912676Y-129279505D01*
X107868329Y-129251004D01*
X107858038Y-129240713D01*
X107855581Y-129238770D01*
X107854334Y-129237009D01*
X107852933Y-129235608D01*
X107853172Y-129235368D01*
X107815209Y-129181745D01*
X107808500Y-129141510D01*
X107808500Y-128320489D01*
X107828185Y-128253450D01*
X107855589Y-128223223D01*
X107858034Y-128221288D01*
X107858040Y-128221285D01*
X107868329Y-128210996D01*
X107929652Y-128177511D01*
X107999344Y-128182495D01*
X108043691Y-128210996D01*
X108047267Y-128214572D01*
X108047271Y-128214575D01*
X108191507Y-128303542D01*
X108191518Y-128303547D01*
X108352393Y-128356855D01*
X108451683Y-128366999D01*
X108475000Y-128366998D01*
X108475000Y-127266000D01*
X108494685Y-127198961D01*
X108547489Y-127153206D01*
X108599000Y-127142000D01*
X108851000Y-127142000D01*
X108918039Y-127161685D01*
X108963794Y-127214489D01*
X108975000Y-127266000D01*
X108975000Y-128366999D01*
X108998308Y-128366999D01*
X108998322Y-128366998D01*
X109097607Y-128356855D01*
X109258481Y-128303547D01*
X109258492Y-128303542D01*
X109402728Y-128214575D01*
X109402732Y-128214572D01*
X109522572Y-128094732D01*
X109522575Y-128094728D01*
X109611542Y-127950492D01*
X109611547Y-127950481D01*
X109664855Y-127789606D01*
X109674999Y-127690322D01*
X109674999Y-127634268D01*
X109694682Y-127567228D01*
X109747486Y-127521473D01*
X109816644Y-127511528D01*
X109880200Y-127540552D01*
X109886680Y-127546585D01*
X110086163Y-127746068D01*
X110086167Y-127746071D01*
X110189918Y-127815396D01*
X110189924Y-127815399D01*
X110189925Y-127815400D01*
X110305215Y-127863155D01*
X110427601Y-127887499D01*
X110427605Y-127887500D01*
X110427606Y-127887500D01*
X110552394Y-127887500D01*
X111057473Y-127887500D01*
X111124512Y-127907185D01*
X111170267Y-127959989D01*
X111180211Y-128029147D01*
X111172035Y-128058950D01*
X111170805Y-128061918D01*
X111170803Y-128061925D01*
X111145498Y-128189142D01*
X111145498Y-128189145D01*
X111145498Y-128318857D01*
X111145498Y-128318859D01*
X111145497Y-128318859D01*
X111170802Y-128446072D01*
X111170804Y-128446078D01*
X111220441Y-128565914D01*
X111220446Y-128565923D01*
X111292507Y-128673769D01*
X111292510Y-128673773D01*
X111384224Y-128765487D01*
X111384228Y-128765490D01*
X111492074Y-128837551D01*
X111492080Y-128837554D01*
X111492081Y-128837555D01*
X111611920Y-128887194D01*
X111611924Y-128887194D01*
X111611925Y-128887195D01*
X111739138Y-128912500D01*
X111739141Y-128912500D01*
X112918857Y-128912500D01*
X113004444Y-128895475D01*
X113046076Y-128887194D01*
X113165915Y-128837555D01*
X113273768Y-128765490D01*
X113365488Y-128673770D01*
X113437553Y-128565917D01*
X113487192Y-128446078D01*
X113495625Y-128403684D01*
X113512498Y-128318859D01*
X113512498Y-128189142D01*
X113487193Y-128061929D01*
X113487192Y-128061928D01*
X113487192Y-128061924D01*
X113482854Y-128051452D01*
X113475385Y-127981987D01*
X113482852Y-127956552D01*
X113487192Y-127946076D01*
X113503686Y-127863155D01*
X113512498Y-127818857D01*
X113512498Y-127689140D01*
X113487193Y-127561927D01*
X113487192Y-127561926D01*
X113487192Y-127561922D01*
X113482854Y-127551451D01*
X113475386Y-127481982D01*
X113482855Y-127456545D01*
X113487192Y-127446077D01*
X113497454Y-127394489D01*
X113512498Y-127318858D01*
X113512498Y-127189141D01*
X113487193Y-127061928D01*
X113487192Y-127061927D01*
X113487192Y-127061923D01*
X113482854Y-127051451D01*
X113475385Y-126981986D01*
X113482852Y-126956551D01*
X113487192Y-126946075D01*
X113512498Y-126818854D01*
X113512498Y-126689142D01*
X113512498Y-126689139D01*
X113487193Y-126561926D01*
X113487192Y-126561925D01*
X113487192Y-126561921D01*
X113482854Y-126551450D01*
X113475386Y-126481981D01*
X113482855Y-126456544D01*
X113487192Y-126446076D01*
X113492625Y-126418764D01*
X113512498Y-126318857D01*
X115595498Y-126318857D01*
X115620803Y-126446070D01*
X115620805Y-126446075D01*
X115625143Y-126456549D01*
X115632609Y-126526018D01*
X115625145Y-126551442D01*
X115620805Y-126561921D01*
X115620803Y-126561927D01*
X115595499Y-126689139D01*
X115595499Y-126689142D01*
X115595499Y-126818854D01*
X115595499Y-126818856D01*
X115595498Y-126818856D01*
X115620804Y-126946073D01*
X115620806Y-126946080D01*
X115629742Y-126967654D01*
X115637209Y-127037123D01*
X115629746Y-127062546D01*
X115628978Y-127064398D01*
X115628977Y-127064403D01*
X115621100Y-127104000D01*
X115621101Y-127104001D01*
X115629613Y-127104001D01*
X115696652Y-127123686D01*
X115732715Y-127159110D01*
X115742509Y-127173768D01*
X115743792Y-127175331D01*
X115744207Y-127176309D01*
X115745893Y-127178832D01*
X115745414Y-127179151D01*
X115771107Y-127239640D01*
X115759317Y-127308508D01*
X115743799Y-127332657D01*
X115742510Y-127334227D01*
X115732713Y-127348890D01*
X115679100Y-127393695D01*
X115629611Y-127403999D01*
X115621101Y-127403999D01*
X115628976Y-127443592D01*
X115628980Y-127443605D01*
X115629744Y-127445449D01*
X115629855Y-127446491D01*
X115630746Y-127449425D01*
X115630189Y-127449593D01*
X115637208Y-127514919D01*
X115629743Y-127540342D01*
X115620805Y-127561921D01*
X115620803Y-127561928D01*
X115595499Y-127689140D01*
X115595499Y-127689143D01*
X115595499Y-127818855D01*
X115595499Y-127818857D01*
X115595498Y-127818857D01*
X115620804Y-127946074D01*
X115620806Y-127946081D01*
X115629742Y-127967655D01*
X115637209Y-128037124D01*
X115629746Y-128062547D01*
X115628978Y-128064399D01*
X115628977Y-128064404D01*
X115621100Y-128104001D01*
X115621101Y-128104002D01*
X115629613Y-128104002D01*
X115696652Y-128123687D01*
X115732715Y-128159111D01*
X115742508Y-128173767D01*
X115742511Y-128173771D01*
X115761059Y-128192319D01*
X115794544Y-128253642D01*
X115789560Y-128323334D01*
X115747688Y-128379267D01*
X115682224Y-128403684D01*
X115673378Y-128404000D01*
X115621101Y-128404000D01*
X115628976Y-128443593D01*
X115628979Y-128443603D01*
X115677973Y-128561886D01*
X115677974Y-128561888D01*
X115749110Y-128668350D01*
X115749113Y-128668354D01*
X115839644Y-128758885D01*
X115839648Y-128758888D01*
X115946110Y-128830024D01*
X115946112Y-128830025D01*
X116064395Y-128879019D01*
X116064407Y-128879022D01*
X116189974Y-128903999D01*
X116189978Y-128904000D01*
X116629000Y-128904000D01*
X116629000Y-128536498D01*
X116648685Y-128469459D01*
X116701489Y-128423704D01*
X116753000Y-128412498D01*
X116804998Y-128412498D01*
X116872037Y-128432183D01*
X116917792Y-128484987D01*
X116928998Y-128536498D01*
X116928998Y-128904000D01*
X117368020Y-128904000D01*
X117368023Y-128903999D01*
X117493590Y-128879022D01*
X117493602Y-128879019D01*
X117611885Y-128830025D01*
X117611887Y-128830024D01*
X117718349Y-128758888D01*
X117718353Y-128758885D01*
X117808884Y-128668354D01*
X117808887Y-128668350D01*
X117880023Y-128561888D01*
X117880024Y-128561886D01*
X117920550Y-128464047D01*
X117964390Y-128409643D01*
X118030684Y-128387578D01*
X118035111Y-128387499D01*
X118042233Y-128387499D01*
X118109272Y-128407184D01*
X118129914Y-128423818D01*
X119484163Y-129778069D01*
X119484167Y-129778072D01*
X119587921Y-129847399D01*
X119587923Y-129847399D01*
X119587925Y-129847401D01*
X119669447Y-129881168D01*
X119703215Y-129895155D01*
X119703217Y-129895155D01*
X119703222Y-129895157D01*
X119825601Y-129919499D01*
X119825605Y-129919500D01*
X119825606Y-129919500D01*
X120734395Y-129919500D01*
X120734396Y-129919499D01*
X120856785Y-129895155D01*
X120972075Y-129847400D01*
X121075833Y-129778071D01*
X121796085Y-129057817D01*
X121857408Y-129024333D01*
X121883766Y-129021499D01*
X122177271Y-129021499D01*
X122248644Y-129015014D01*
X122248647Y-129015013D01*
X122248649Y-129015013D01*
X122412913Y-128963827D01*
X122560155Y-128874816D01*
X122681816Y-128753155D01*
X122701601Y-128720425D01*
X122753128Y-128673238D01*
X122806183Y-128660583D01*
X122997002Y-128658221D01*
X123064278Y-128677075D01*
X123081220Y-128691290D01*
X123081917Y-128690517D01*
X123086744Y-128694863D01*
X123086747Y-128694866D01*
X123241248Y-128807118D01*
X123415712Y-128884794D01*
X123602513Y-128924500D01*
X123793487Y-128924500D01*
X123980288Y-128884794D01*
X124154752Y-128807118D01*
X124309253Y-128694866D01*
X124437040Y-128552944D01*
X124532527Y-128387556D01*
X124591542Y-128205928D01*
X124611504Y-128016000D01*
X124591542Y-127826072D01*
X124532527Y-127644444D01*
X124453747Y-127507994D01*
X142765182Y-127507994D01*
X142765182Y-127508005D01*
X142785708Y-127755729D01*
X142785710Y-127755738D01*
X142846735Y-127996717D01*
X142946589Y-128224364D01*
X143046887Y-128377882D01*
X143787360Y-127637409D01*
X143804398Y-127700993D01*
X143870224Y-127815007D01*
X143963316Y-127908099D01*
X144077330Y-127973925D01*
X144140913Y-127990962D01*
X143400265Y-128731609D01*
X143447091Y-128768055D01*
X143447093Y-128768056D01*
X143665708Y-128886364D01*
X143665719Y-128886369D01*
X143900829Y-128967083D01*
X144146030Y-129008000D01*
X144394616Y-129008000D01*
X144639816Y-128967083D01*
X144874926Y-128886369D01*
X144874937Y-128886364D01*
X145093551Y-128768057D01*
X145093554Y-128768055D01*
X145140379Y-128731609D01*
X144399732Y-127990962D01*
X144463316Y-127973925D01*
X144577330Y-127908099D01*
X144670422Y-127815007D01*
X144736248Y-127700993D01*
X144753285Y-127637410D01*
X145493757Y-128377882D01*
X145594054Y-128224369D01*
X145693910Y-127996717D01*
X145754935Y-127755738D01*
X145754937Y-127755729D01*
X145775464Y-127508005D01*
X145775464Y-127507994D01*
X145754937Y-127260270D01*
X145754935Y-127260261D01*
X145693910Y-127019282D01*
X145594054Y-126791630D01*
X145493757Y-126638116D01*
X144753285Y-127378589D01*
X144736248Y-127315007D01*
X144670422Y-127200993D01*
X144577330Y-127107901D01*
X144463316Y-127042075D01*
X144399733Y-127025037D01*
X145140380Y-126284390D01*
X145140379Y-126284389D01*
X145093552Y-126247943D01*
X144874937Y-126129635D01*
X144874926Y-126129630D01*
X144639816Y-126048916D01*
X144394616Y-126008000D01*
X144146030Y-126008000D01*
X143900829Y-126048916D01*
X143665719Y-126129630D01*
X143665713Y-126129632D01*
X143447084Y-126247949D01*
X143400265Y-126284388D01*
X143400265Y-126284390D01*
X144140913Y-127025037D01*
X144077330Y-127042075D01*
X143963316Y-127107901D01*
X143870224Y-127200993D01*
X143804398Y-127315007D01*
X143787360Y-127378589D01*
X143046887Y-126638116D01*
X142946590Y-126791632D01*
X142846735Y-127019282D01*
X142785710Y-127260261D01*
X142785708Y-127260270D01*
X142765182Y-127507994D01*
X124453747Y-127507994D01*
X124437040Y-127479056D01*
X124309253Y-127337134D01*
X124154752Y-127224882D01*
X123980288Y-127147206D01*
X123980286Y-127147205D01*
X123793487Y-127107500D01*
X123602513Y-127107500D01*
X123415714Y-127147205D01*
X123241246Y-127224883D01*
X123086745Y-127337135D01*
X123074921Y-127350267D01*
X123015433Y-127386912D01*
X122984310Y-127391281D01*
X122796072Y-127393611D01*
X122728794Y-127374757D01*
X122688418Y-127333766D01*
X122681818Y-127322848D01*
X122681817Y-127322847D01*
X122681816Y-127322845D01*
X122560155Y-127201184D01*
X122412913Y-127112173D01*
X122248649Y-127060987D01*
X122248647Y-127060986D01*
X122248645Y-127060986D01*
X122198667Y-127056444D01*
X122177265Y-127054500D01*
X122177262Y-127054500D01*
X121662727Y-127054500D01*
X121591354Y-127060985D01*
X121591344Y-127060988D01*
X121427090Y-127112171D01*
X121279841Y-127201186D01*
X121279840Y-127201187D01*
X121176670Y-127304358D01*
X121115347Y-127337843D01*
X121045655Y-127332859D01*
X121001308Y-127304358D01*
X120904877Y-127207927D01*
X120759395Y-127119980D01*
X120759396Y-127119980D01*
X120597105Y-127069409D01*
X120597106Y-127069409D01*
X120526572Y-127063000D01*
X120520000Y-127063000D01*
X120520000Y-128164000D01*
X120500315Y-128231039D01*
X120447511Y-128276794D01*
X120396000Y-128288000D01*
X120144000Y-128288000D01*
X120076961Y-128268315D01*
X120031206Y-128215511D01*
X120020000Y-128164000D01*
X120020000Y-127063000D01*
X120019999Y-127062999D01*
X120013436Y-127063000D01*
X120013417Y-127063001D01*
X119942897Y-127069408D01*
X119942892Y-127069409D01*
X119780603Y-127119981D01*
X119707145Y-127164388D01*
X119639590Y-127182224D01*
X119573116Y-127160706D01*
X119528829Y-127106666D01*
X119520788Y-127037260D01*
X119551547Y-126974526D01*
X119555314Y-126970590D01*
X120146085Y-126379818D01*
X120207408Y-126346333D01*
X120233766Y-126343499D01*
X120527271Y-126343499D01*
X120598644Y-126337014D01*
X120598647Y-126337013D01*
X120598649Y-126337013D01*
X120762913Y-126285827D01*
X120910155Y-126196816D01*
X120952107Y-126154864D01*
X121007319Y-126099653D01*
X121068642Y-126066168D01*
X121138334Y-126071152D01*
X121182681Y-126099653D01*
X121279841Y-126196813D01*
X121279843Y-126196814D01*
X121279845Y-126196816D01*
X121427087Y-126285827D01*
X121591351Y-126337013D01*
X121662735Y-126343500D01*
X122177264Y-126343499D01*
X122177272Y-126343499D01*
X122248645Y-126337014D01*
X122248648Y-126337013D01*
X122248649Y-126337013D01*
X122412913Y-126285827D01*
X122560155Y-126196816D01*
X122681816Y-126075155D01*
X122694998Y-126053350D01*
X122746526Y-126006163D01*
X122801115Y-125993500D01*
X122886244Y-125993500D01*
X122953283Y-126013185D01*
X122978394Y-126034528D01*
X123086745Y-126154864D01*
X123086747Y-126154866D01*
X123241248Y-126267118D01*
X123415712Y-126344794D01*
X123602513Y-126384500D01*
X123793487Y-126384500D01*
X123980288Y-126344794D01*
X124154752Y-126267118D01*
X124309253Y-126154866D01*
X124437040Y-126012944D01*
X124532527Y-125847556D01*
X124591542Y-125665928D01*
X124611504Y-125476000D01*
X124591542Y-125286072D01*
X124532527Y-125104444D01*
X124437040Y-124939056D01*
X124309253Y-124797134D01*
X124154752Y-124684882D01*
X123980288Y-124607206D01*
X123980286Y-124607205D01*
X123793487Y-124567500D01*
X123602513Y-124567500D01*
X123415714Y-124607205D01*
X123241246Y-124684883D01*
X123216560Y-124702819D01*
X123150753Y-124726298D01*
X123143675Y-124726500D01*
X122801115Y-124726500D01*
X122734076Y-124706815D01*
X122694998Y-124666650D01*
X122681818Y-124644848D01*
X122681817Y-124644847D01*
X122681816Y-124644845D01*
X122560155Y-124523184D01*
X122412913Y-124434173D01*
X122248649Y-124382987D01*
X122248647Y-124382986D01*
X122248645Y-124382986D01*
X122198667Y-124378444D01*
X122177265Y-124376500D01*
X122177262Y-124376500D01*
X121662727Y-124376500D01*
X121591354Y-124382985D01*
X121591344Y-124382988D01*
X121427090Y-124434171D01*
X121279841Y-124523186D01*
X121279840Y-124523187D01*
X121182681Y-124620347D01*
X121121358Y-124653832D01*
X121051666Y-124648848D01*
X121007319Y-124620347D01*
X120910158Y-124523186D01*
X120762913Y-124434173D01*
X120762907Y-124434171D01*
X120598649Y-124382987D01*
X120598647Y-124382986D01*
X120598645Y-124382986D01*
X120548667Y-124378444D01*
X120527265Y-124376500D01*
X120527262Y-124376500D01*
X120012727Y-124376500D01*
X119941354Y-124382985D01*
X119941344Y-124382988D01*
X119777090Y-124434171D01*
X119732258Y-124461273D01*
X119664703Y-124479108D01*
X119598229Y-124457589D01*
X119553942Y-124403548D01*
X119545902Y-124334143D01*
X119576662Y-124271409D01*
X119580405Y-124267497D01*
X120146085Y-123701818D01*
X120207408Y-123668333D01*
X120233766Y-123665499D01*
X120527271Y-123665499D01*
X120598644Y-123659014D01*
X120598647Y-123659013D01*
X120598649Y-123659013D01*
X120762913Y-123607827D01*
X120910155Y-123518816D01*
X121013330Y-123415640D01*
X121074651Y-123382156D01*
X121144342Y-123387140D01*
X121188691Y-123415641D01*
X121285122Y-123512072D01*
X121430604Y-123600019D01*
X121430603Y-123600019D01*
X121592894Y-123650590D01*
X121592893Y-123650590D01*
X121663408Y-123656998D01*
X121663426Y-123656999D01*
X122170000Y-123656999D01*
X122176581Y-123656999D01*
X122247102Y-123650591D01*
X122247107Y-123650590D01*
X122409396Y-123600018D01*
X122554877Y-123512072D01*
X122675072Y-123391877D01*
X122763019Y-123246395D01*
X122813590Y-123084106D01*
X122820000Y-123013572D01*
X122820000Y-122932000D01*
X122170000Y-122932000D01*
X122170000Y-123656999D01*
X121663426Y-123656999D01*
X121669999Y-123656998D01*
X121670000Y-123656998D01*
X121670000Y-122432000D01*
X122170000Y-122432000D01*
X122819999Y-122432000D01*
X122819999Y-122350417D01*
X122813591Y-122279897D01*
X122813590Y-122279892D01*
X122763018Y-122117603D01*
X122675072Y-121972122D01*
X122554877Y-121851927D01*
X122409395Y-121763980D01*
X122409396Y-121763980D01*
X122247105Y-121713409D01*
X122247106Y-121713409D01*
X122176572Y-121707000D01*
X122170000Y-121707000D01*
X122170000Y-122432000D01*
X121670000Y-122432000D01*
X121670000Y-121707000D01*
X121669999Y-121706999D01*
X121663436Y-121707000D01*
X121663417Y-121707001D01*
X121592897Y-121713408D01*
X121592892Y-121713409D01*
X121430603Y-121763981D01*
X121285124Y-121851926D01*
X121188691Y-121948359D01*
X121127368Y-121981843D01*
X121057676Y-121976859D01*
X121013330Y-121948359D01*
X120910155Y-121845184D01*
X120762913Y-121756173D01*
X120598649Y-121704987D01*
X120598647Y-121704986D01*
X120598645Y-121704986D01*
X120548667Y-121700444D01*
X120527265Y-121698500D01*
X120527262Y-121698500D01*
X120012727Y-121698500D01*
X119941354Y-121704985D01*
X119941344Y-121704988D01*
X119777090Y-121756171D01*
X119629841Y-121845186D01*
X119508186Y-121966841D01*
X119419173Y-122114086D01*
X119367986Y-122278354D01*
X119361500Y-122349737D01*
X119361500Y-122643233D01*
X119341815Y-122710272D01*
X119325181Y-122730914D01*
X116496915Y-125559181D01*
X116435592Y-125592666D01*
X116409234Y-125595500D01*
X116189140Y-125595500D01*
X116061926Y-125620804D01*
X116061920Y-125620806D01*
X115942084Y-125670443D01*
X115942075Y-125670448D01*
X115834229Y-125742509D01*
X115834225Y-125742512D01*
X115742511Y-125834226D01*
X115742508Y-125834230D01*
X115670447Y-125942076D01*
X115670442Y-125942085D01*
X115620805Y-126061921D01*
X115620803Y-126061927D01*
X115595499Y-126189140D01*
X115595499Y-126189143D01*
X115595499Y-126318855D01*
X115595499Y-126318857D01*
X115595498Y-126318857D01*
X113512498Y-126318857D01*
X113512498Y-126189140D01*
X113487193Y-126061927D01*
X113487192Y-126061926D01*
X113487192Y-126061922D01*
X113437553Y-125942083D01*
X113437552Y-125942082D01*
X113437549Y-125942076D01*
X113365488Y-125834230D01*
X113365485Y-125834226D01*
X113273771Y-125742512D01*
X113273767Y-125742509D01*
X113165921Y-125670448D01*
X113165912Y-125670443D01*
X113046076Y-125620806D01*
X113046070Y-125620804D01*
X112918857Y-125595500D01*
X112918855Y-125595500D01*
X112009500Y-125595500D01*
X111942461Y-125575815D01*
X111896706Y-125523011D01*
X111885500Y-125471500D01*
X111885500Y-120841605D01*
X111885499Y-120841601D01*
X111874250Y-120785047D01*
X111861155Y-120719215D01*
X111813400Y-120603925D01*
X111813399Y-120603924D01*
X111813396Y-120603918D01*
X111744072Y-120500168D01*
X111716465Y-120472561D01*
X111655833Y-120411929D01*
X111655832Y-120411928D01*
X111031748Y-119787844D01*
X110385836Y-119141931D01*
X110385832Y-119141928D01*
X110282081Y-119072603D01*
X110282072Y-119072598D01*
X110166785Y-119024845D01*
X110166777Y-119024843D01*
X110044398Y-119000500D01*
X110044394Y-119000500D01*
X105980394Y-119000500D01*
X105855606Y-119000500D01*
X105855601Y-119000500D01*
X105733222Y-119024843D01*
X105733214Y-119024845D01*
X105617927Y-119072598D01*
X105617918Y-119072603D01*
X105514167Y-119141928D01*
X105514163Y-119141931D01*
X103982596Y-120673500D01*
X103482167Y-121173929D01*
X103456912Y-121199184D01*
X103393927Y-121262168D01*
X103324603Y-121365918D01*
X103324598Y-121365927D01*
X103276845Y-121481214D01*
X103276843Y-121481222D01*
X103252500Y-121603601D01*
X99998750Y-121603601D01*
X99996120Y-71057601D01*
X107824500Y-71057601D01*
X107824500Y-101408398D01*
X107848843Y-101530777D01*
X107848845Y-101530785D01*
X107896598Y-101646072D01*
X107896603Y-101646081D01*
X107965928Y-101749832D01*
X107965931Y-101749836D01*
X111907381Y-105691285D01*
X111940866Y-105752608D01*
X111943700Y-105778966D01*
X111943700Y-106072472D01*
X111950185Y-106143845D01*
X111950188Y-106143855D01*
X112001371Y-106308109D01*
X112001372Y-106308111D01*
X112001373Y-106308113D01*
X112090384Y-106455355D01*
X112170448Y-106535419D01*
X112203932Y-106596740D01*
X112198948Y-106666432D01*
X112170448Y-106710779D01*
X112128987Y-106752239D01*
X112128986Y-106752241D01*
X112039973Y-106899486D01*
X111988786Y-107063754D01*
X111982300Y-107135137D01*
X111982300Y-107799672D01*
X111988785Y-107871045D01*
X111988788Y-107871055D01*
X112039971Y-108035309D01*
X112039972Y-108035311D01*
X112039973Y-108035313D01*
X112128984Y-108182555D01*
X112220982Y-108274553D01*
X112254466Y-108335874D01*
X112257300Y-108362233D01*
X112257300Y-116051998D01*
X112281643Y-116174377D01*
X112281645Y-116174385D01*
X112329398Y-116289672D01*
X112329403Y-116289681D01*
X112398728Y-116393432D01*
X112398731Y-116393436D01*
X115293163Y-119287868D01*
X115293167Y-119287871D01*
X115396918Y-119357196D01*
X115396924Y-119357199D01*
X115396925Y-119357200D01*
X115512215Y-119404955D01*
X115634601Y-119429299D01*
X115634605Y-119429300D01*
X115634606Y-119429300D01*
X115759394Y-119429300D01*
X123562034Y-119429300D01*
X123629073Y-119448985D01*
X123649715Y-119465619D01*
X130571929Y-126387833D01*
X130630166Y-126446070D01*
X130660168Y-126476072D01*
X130763918Y-126545396D01*
X130763927Y-126545401D01*
X130778533Y-126551451D01*
X130879215Y-126593155D01*
X131001601Y-126617499D01*
X131001605Y-126617500D01*
X131001606Y-126617500D01*
X140016395Y-126617500D01*
X140016396Y-126617499D01*
X140138785Y-126593155D01*
X140254075Y-126545400D01*
X140357833Y-126476071D01*
X145087905Y-121746000D01*
X157436807Y-121746000D01*
X157455557Y-122020130D01*
X157455558Y-122020132D01*
X157511458Y-122289141D01*
X157511463Y-122289158D01*
X157603476Y-122548056D01*
X157729889Y-122792024D01*
X157729893Y-122792030D01*
X157888340Y-123016499D01*
X157916280Y-123046416D01*
X158075889Y-123217314D01*
X158289031Y-123390718D01*
X158289033Y-123390719D01*
X158289034Y-123390720D01*
X158523801Y-123533485D01*
X158676979Y-123600019D01*
X158775823Y-123642953D01*
X159040404Y-123717085D01*
X159279720Y-123749978D01*
X159312614Y-123754500D01*
X159312615Y-123754500D01*
X159587386Y-123754500D01*
X159616733Y-123750466D01*
X159859596Y-123717085D01*
X160124177Y-123642953D01*
X160376200Y-123533484D01*
X160610969Y-123390718D01*
X160824111Y-123217314D01*
X161011657Y-123016502D01*
X161170111Y-122792023D01*
X161296523Y-122548058D01*
X161388538Y-122289153D01*
X161388539Y-122289146D01*
X161388541Y-122289141D01*
X161424917Y-122114087D01*
X161444442Y-122020130D01*
X161463193Y-121746000D01*
X169436807Y-121746000D01*
X169455557Y-122020130D01*
X169455558Y-122020132D01*
X169511458Y-122289141D01*
X169511463Y-122289158D01*
X169603476Y-122548056D01*
X169729889Y-122792024D01*
X169729893Y-122792030D01*
X169888340Y-123016499D01*
X169916280Y-123046416D01*
X170075889Y-123217314D01*
X170289031Y-123390718D01*
X170289033Y-123390719D01*
X170289034Y-123390720D01*
X170523801Y-123533485D01*
X170676979Y-123600019D01*
X170775823Y-123642953D01*
X171040404Y-123717085D01*
X171279720Y-123749978D01*
X171312614Y-123754500D01*
X171312615Y-123754500D01*
X171587386Y-123754500D01*
X171616733Y-123750466D01*
X171859596Y-123717085D01*
X172124177Y-123642953D01*
X172376200Y-123533484D01*
X172610969Y-123390718D01*
X172824111Y-123217314D01*
X173011657Y-123016502D01*
X173170111Y-122792023D01*
X173296523Y-122548058D01*
X173388538Y-122289153D01*
X173388539Y-122289146D01*
X173388541Y-122289141D01*
X173424917Y-122114087D01*
X173444442Y-122020130D01*
X173463193Y-121746000D01*
X173444442Y-121471870D01*
X173420385Y-121356104D01*
X173388541Y-121202858D01*
X173388536Y-121202841D01*
X173296523Y-120943943D01*
X173296523Y-120943942D01*
X173170111Y-120699977D01*
X173170110Y-120699975D01*
X173170106Y-120699969D01*
X173011659Y-120475500D01*
X172952287Y-120411929D01*
X172824111Y-120274686D01*
X172610969Y-120101282D01*
X172610967Y-120101281D01*
X172610965Y-120101279D01*
X172376198Y-119958514D01*
X172124178Y-119849047D01*
X171859602Y-119774916D01*
X171859597Y-119774915D01*
X171859596Y-119774915D01*
X171723490Y-119756207D01*
X171587386Y-119737500D01*
X171587385Y-119737500D01*
X171312615Y-119737500D01*
X171312614Y-119737500D01*
X171040404Y-119774915D01*
X171040397Y-119774916D01*
X170775821Y-119849047D01*
X170523801Y-119958514D01*
X170289034Y-120101279D01*
X170075892Y-120274683D01*
X169888340Y-120475500D01*
X169729893Y-120699969D01*
X169729889Y-120699975D01*
X169603476Y-120943943D01*
X169511463Y-121202841D01*
X169511458Y-121202858D01*
X169455558Y-121471867D01*
X169455557Y-121471869D01*
X169436807Y-121746000D01*
X161463193Y-121746000D01*
X161444442Y-121471870D01*
X161420385Y-121356102D01*
X161426018Y-121286462D01*
X161468408Y-121230920D01*
X161534097Y-121207114D01*
X161568150Y-121209709D01*
X161664640Y-121230699D01*
X161664637Y-121230699D01*
X161949999Y-121251109D01*
X161950001Y-121251109D01*
X162235362Y-121230699D01*
X162514895Y-121169890D01*
X162782958Y-121069908D01*
X163034047Y-120932803D01*
X163176561Y-120826116D01*
X163176562Y-120826115D01*
X162350561Y-120000114D01*
X162352626Y-119999260D01*
X162491844Y-119906238D01*
X162610238Y-119787844D01*
X162703260Y-119648626D01*
X162704114Y-119646561D01*
X163530115Y-120472562D01*
X163530116Y-120472561D01*
X163636803Y-120330047D01*
X163773908Y-120078958D01*
X163873890Y-119810895D01*
X163934699Y-119531362D01*
X163955109Y-119246001D01*
X163955109Y-119245998D01*
X163934699Y-118960637D01*
X163873890Y-118681104D01*
X163773908Y-118413041D01*
X163636808Y-118161961D01*
X163636807Y-118161960D01*
X163530115Y-118019436D01*
X162704114Y-118845437D01*
X162703260Y-118843374D01*
X162610238Y-118704156D01*
X162491844Y-118585762D01*
X162352626Y-118492740D01*
X162350561Y-118491884D01*
X163176562Y-117665883D01*
X163176561Y-117665882D01*
X163034046Y-117559196D01*
X163034038Y-117559191D01*
X162782957Y-117422091D01*
X162782958Y-117422091D01*
X162514895Y-117322109D01*
X162235362Y-117261300D01*
X161950001Y-117240891D01*
X161949999Y-117240891D01*
X161664637Y-117261300D01*
X161385104Y-117322109D01*
X161117041Y-117422091D01*
X160865961Y-117559191D01*
X160865953Y-117559196D01*
X160723437Y-117665882D01*
X160723436Y-117665883D01*
X161549438Y-118491884D01*
X161547374Y-118492740D01*
X161408156Y-118585762D01*
X161289762Y-118704156D01*
X161196740Y-118843374D01*
X161195884Y-118845438D01*
X160369882Y-118019436D01*
X160263196Y-118161953D01*
X160263191Y-118161961D01*
X160126091Y-118413041D01*
X160026109Y-118681104D01*
X159965300Y-118960637D01*
X159944891Y-119245998D01*
X159944891Y-119246001D01*
X159965300Y-119531362D01*
X159965301Y-119531366D01*
X159985460Y-119624038D01*
X159980476Y-119693729D01*
X159938604Y-119749663D01*
X159873139Y-119774079D01*
X159847409Y-119773240D01*
X159747939Y-119759568D01*
X159587386Y-119737500D01*
X159587385Y-119737500D01*
X159312615Y-119737500D01*
X159312614Y-119737500D01*
X159040404Y-119774915D01*
X159040397Y-119774916D01*
X158775821Y-119849047D01*
X158523801Y-119958514D01*
X158289034Y-120101279D01*
X158075892Y-120274683D01*
X157888340Y-120475500D01*
X157729893Y-120699969D01*
X157729889Y-120699975D01*
X157603476Y-120943943D01*
X157511463Y-121202841D01*
X157511458Y-121202858D01*
X157455558Y-121471867D01*
X157455557Y-121471869D01*
X157436807Y-121746000D01*
X145087905Y-121746000D01*
X145272072Y-121561833D01*
X145341401Y-121458075D01*
X145389155Y-121342784D01*
X145394822Y-121314297D01*
X145413499Y-121220397D01*
X145413500Y-121220394D01*
X145413500Y-117463225D01*
X145433185Y-117396186D01*
X145485989Y-117350431D01*
X145555147Y-117340487D01*
X145618703Y-117369512D01*
X145625181Y-117375544D01*
X145780317Y-117530680D01*
X145956398Y-117653973D01*
X145956400Y-117653974D01*
X145956403Y-117653976D01*
X146151223Y-117744822D01*
X146358858Y-117800458D01*
X146511816Y-117813840D01*
X146572998Y-117819193D01*
X146573000Y-117819193D01*
X146573002Y-117819193D01*
X146626535Y-117814509D01*
X146787142Y-117800458D01*
X146994777Y-117744822D01*
X147189597Y-117653976D01*
X147365681Y-117530681D01*
X147517681Y-117378681D01*
X147640976Y-117202597D01*
X147731822Y-117007777D01*
X147787458Y-116800142D01*
X147806193Y-116586000D01*
X147787458Y-116371858D01*
X147731822Y-116164223D01*
X147640976Y-115969404D01*
X147517681Y-115793319D01*
X147517679Y-115793316D01*
X147365682Y-115641319D01*
X147189601Y-115518026D01*
X147189597Y-115518024D01*
X147123428Y-115487169D01*
X146994777Y-115427178D01*
X146994774Y-115427177D01*
X146994772Y-115427176D01*
X146787144Y-115371542D01*
X146787136Y-115371541D01*
X146573002Y-115352807D01*
X146572998Y-115352807D01*
X146445652Y-115363948D01*
X146377152Y-115350181D01*
X146326969Y-115301566D01*
X146311036Y-115233537D01*
X146334412Y-115167694D01*
X146347164Y-115152739D01*
X146547614Y-114952290D01*
X147065071Y-114434833D01*
X147134400Y-114331075D01*
X147182155Y-114215785D01*
X147206500Y-114093394D01*
X147206500Y-114045998D01*
X147879807Y-114045998D01*
X147879807Y-114046001D01*
X147898541Y-114260136D01*
X147898542Y-114260144D01*
X147954176Y-114467772D01*
X147954177Y-114467774D01*
X147954178Y-114467777D01*
X148002945Y-114572358D01*
X148045024Y-114662597D01*
X148045026Y-114662601D01*
X148168319Y-114838682D01*
X148320317Y-114990680D01*
X148496398Y-115113973D01*
X148496400Y-115113974D01*
X148496403Y-115113976D01*
X148691223Y-115204822D01*
X148898858Y-115260458D01*
X149051816Y-115273840D01*
X149112998Y-115279193D01*
X149113000Y-115279193D01*
X149113002Y-115279193D01*
X149166535Y-115274509D01*
X149327142Y-115260458D01*
X149534777Y-115204822D01*
X149729597Y-115113976D01*
X149905681Y-114990681D01*
X150057681Y-114838681D01*
X150180976Y-114662597D01*
X150271822Y-114467777D01*
X150327458Y-114260142D01*
X150346193Y-114046000D01*
X150327458Y-113831858D01*
X150271822Y-113624223D01*
X150180976Y-113429404D01*
X150057681Y-113253319D01*
X150057679Y-113253316D01*
X149905682Y-113101319D01*
X149729601Y-112978026D01*
X149729597Y-112978024D01*
X149709479Y-112968643D01*
X149534777Y-112887178D01*
X149534774Y-112887177D01*
X149534772Y-112887176D01*
X149327144Y-112831542D01*
X149327136Y-112831541D01*
X149113002Y-112812807D01*
X149112998Y-112812807D01*
X148898863Y-112831541D01*
X148898855Y-112831542D01*
X148691227Y-112887176D01*
X148691221Y-112887179D01*
X148496405Y-112978023D01*
X148496403Y-112978024D01*
X148320316Y-113101320D01*
X148168320Y-113253316D01*
X148045024Y-113429403D01*
X148045023Y-113429405D01*
X147954179Y-113624221D01*
X147954176Y-113624227D01*
X147898542Y-113831855D01*
X147898541Y-113831863D01*
X147879807Y-114045998D01*
X147206500Y-114045998D01*
X147206500Y-113968606D01*
X147206500Y-112626690D01*
X147226185Y-112559651D01*
X147259375Y-112525116D01*
X147365681Y-112450681D01*
X147517681Y-112298681D01*
X147640976Y-112122597D01*
X147731822Y-111927777D01*
X147787458Y-111720142D01*
X147806193Y-111506000D01*
X147804799Y-111490071D01*
X147795730Y-111386405D01*
X147787458Y-111291858D01*
X147731822Y-111084223D01*
X147640976Y-110889404D01*
X147517681Y-110713319D01*
X147517679Y-110713316D01*
X147365682Y-110561319D01*
X147189601Y-110438026D01*
X147189597Y-110438024D01*
X147113664Y-110402616D01*
X146994777Y-110347178D01*
X146994774Y-110347177D01*
X146994772Y-110347176D01*
X146787144Y-110291542D01*
X146787136Y-110291541D01*
X146573002Y-110272807D01*
X146572998Y-110272807D01*
X146358863Y-110291541D01*
X146358855Y-110291542D01*
X146151227Y-110347176D01*
X146151221Y-110347179D01*
X145956405Y-110438023D01*
X145956403Y-110438024D01*
X145780316Y-110561320D01*
X145628320Y-110713316D01*
X145505024Y-110889403D01*
X145505023Y-110889405D01*
X145414179Y-111084221D01*
X145414176Y-111084227D01*
X145358542Y-111291855D01*
X145358541Y-111291863D01*
X145339807Y-111505998D01*
X145339807Y-111506001D01*
X145358541Y-111720136D01*
X145358542Y-111720144D01*
X145414176Y-111927772D01*
X145414177Y-111927774D01*
X145414178Y-111927777D01*
X145461596Y-112029465D01*
X145505024Y-112122597D01*
X145505026Y-112122601D01*
X145628319Y-112298682D01*
X145780316Y-112450679D01*
X145780319Y-112450681D01*
X145886623Y-112525115D01*
X145930248Y-112579691D01*
X145939500Y-112626690D01*
X145939500Y-113717234D01*
X145919815Y-113784273D01*
X145903181Y-113804915D01*
X144376167Y-115331929D01*
X144344148Y-115363948D01*
X144287927Y-115420168D01*
X144218603Y-115523918D01*
X144218598Y-115523927D01*
X144170845Y-115639214D01*
X144170843Y-115639222D01*
X144146500Y-115761601D01*
X144146500Y-120844233D01*
X144126815Y-120911272D01*
X144110181Y-120931914D01*
X139727915Y-125314181D01*
X139666592Y-125347666D01*
X139640234Y-125350500D01*
X131377766Y-125350500D01*
X131310727Y-125330815D01*
X131290085Y-125314181D01*
X126247285Y-120271381D01*
X126213800Y-120210058D01*
X126218784Y-120140366D01*
X126260656Y-120084433D01*
X126326120Y-120060016D01*
X126334966Y-120059700D01*
X126502834Y-120059700D01*
X126569873Y-120079385D01*
X126590515Y-120096019D01*
X130176563Y-123682069D01*
X130176567Y-123682072D01*
X130280321Y-123751399D01*
X130280323Y-123751399D01*
X130280325Y-123751401D01*
X130395615Y-123799155D01*
X130395617Y-123799155D01*
X130395622Y-123799157D01*
X130518001Y-123823499D01*
X130518005Y-123823500D01*
X130518006Y-123823500D01*
X130642794Y-123823500D01*
X134681032Y-123823500D01*
X134748071Y-123843185D01*
X134782335Y-123875991D01*
X134787126Y-123882777D01*
X134836344Y-123952504D01*
X134899989Y-124020650D01*
X135023889Y-124153314D01*
X135237031Y-124326718D01*
X135237033Y-124326719D01*
X135237034Y-124326720D01*
X135471801Y-124469485D01*
X135676348Y-124558331D01*
X135723823Y-124578953D01*
X135988404Y-124653085D01*
X136219742Y-124684882D01*
X136260614Y-124690500D01*
X136260615Y-124690500D01*
X136535386Y-124690500D01*
X136576258Y-124684882D01*
X136807596Y-124653085D01*
X137072177Y-124578953D01*
X137324200Y-124469484D01*
X137558969Y-124326718D01*
X137772111Y-124153314D01*
X137959657Y-123952502D01*
X138118111Y-123728023D01*
X138244523Y-123484058D01*
X138336538Y-123225153D01*
X138336539Y-123225146D01*
X138336541Y-123225141D01*
X138375604Y-123037156D01*
X138392442Y-122956130D01*
X138411193Y-122682000D01*
X138392442Y-122407870D01*
X138365528Y-122278354D01*
X138336541Y-122138858D01*
X138336536Y-122138841D01*
X138244523Y-121879943D01*
X138244523Y-121879942D01*
X138118111Y-121635977D01*
X138118110Y-121635975D01*
X138118106Y-121635969D01*
X137959659Y-121411500D01*
X137928235Y-121377853D01*
X137772111Y-121210686D01*
X137558969Y-121037282D01*
X137558967Y-121037281D01*
X137558965Y-121037279D01*
X137324198Y-120894514D01*
X137072178Y-120785047D01*
X136807602Y-120710916D01*
X136807597Y-120710915D01*
X136807596Y-120710915D01*
X136671490Y-120692207D01*
X136535386Y-120673500D01*
X136535385Y-120673500D01*
X136260615Y-120673500D01*
X136260614Y-120673500D01*
X135988404Y-120710915D01*
X135988397Y-120710916D01*
X135723821Y-120785047D01*
X135471801Y-120894514D01*
X135237034Y-121037279D01*
X135023892Y-121210683D01*
X134836340Y-121411500D01*
X134677893Y-121635969D01*
X134677889Y-121635975D01*
X134551476Y-121879943D01*
X134459463Y-122138841D01*
X134459458Y-122138858D01*
X134403558Y-122407867D01*
X134403558Y-122407869D01*
X134401294Y-122440963D01*
X134377080Y-122506503D01*
X134321276Y-122548547D01*
X134277583Y-122556500D01*
X130894167Y-122556500D01*
X130827128Y-122536815D01*
X130806486Y-122520181D01*
X129652223Y-121365918D01*
X128491629Y-120205325D01*
X128458145Y-120144003D01*
X128463129Y-120074311D01*
X128505001Y-120018378D01*
X128540308Y-119999939D01*
X128553701Y-119995502D01*
X128690338Y-119911222D01*
X128757729Y-119892782D01*
X128824392Y-119913704D01*
X128828321Y-119916445D01*
X128829248Y-119917118D01*
X129003712Y-119994794D01*
X129190513Y-120034500D01*
X129381487Y-120034500D01*
X129568288Y-119994794D01*
X129742752Y-119917118D01*
X129897253Y-119804866D01*
X130025040Y-119662944D01*
X130120527Y-119497556D01*
X130179542Y-119315928D01*
X130199504Y-119126000D01*
X130179542Y-118936072D01*
X130120527Y-118754444D01*
X130025040Y-118589056D01*
X129897253Y-118447134D01*
X129742752Y-118334882D01*
X129568288Y-118257206D01*
X129568286Y-118257205D01*
X129381487Y-118217500D01*
X129190513Y-118217500D01*
X129098155Y-118237131D01*
X129028488Y-118231815D01*
X128972754Y-118189678D01*
X128948649Y-118124098D01*
X128963826Y-118055896D01*
X129008222Y-118009725D01*
X129138755Y-117930816D01*
X129187121Y-117882450D01*
X129235919Y-117833653D01*
X129297242Y-117800168D01*
X129366934Y-117805152D01*
X129411281Y-117833653D01*
X129508441Y-117930813D01*
X129508443Y-117930814D01*
X129508445Y-117930816D01*
X129655687Y-118019827D01*
X129819951Y-118071013D01*
X129891335Y-118077500D01*
X130405864Y-118077499D01*
X130405872Y-118077499D01*
X130477245Y-118071014D01*
X130477248Y-118071013D01*
X130477249Y-118071013D01*
X130641513Y-118019827D01*
X130788755Y-117930816D01*
X130910416Y-117809155D01*
X130951068Y-117741906D01*
X131002593Y-117694720D01*
X131009732Y-117691496D01*
X131096868Y-117655403D01*
X131096868Y-117655402D01*
X131096875Y-117655400D01*
X131200633Y-117586071D01*
X132259685Y-116527017D01*
X132321008Y-116493533D01*
X132347366Y-116490699D01*
X132640871Y-116490699D01*
X132712244Y-116484214D01*
X132712247Y-116484213D01*
X132712249Y-116484213D01*
X132747470Y-116473238D01*
X132809609Y-116453875D01*
X132879470Y-116452723D01*
X132938862Y-116489524D01*
X132968930Y-116552593D01*
X132970500Y-116572260D01*
X132970500Y-117796234D01*
X132950815Y-117863273D01*
X132934181Y-117883915D01*
X131366915Y-119451181D01*
X131305592Y-119484666D01*
X131279234Y-119487500D01*
X131222513Y-119487500D01*
X131035714Y-119527205D01*
X130861246Y-119604883D01*
X130706745Y-119717135D01*
X130578959Y-119859057D01*
X130483473Y-120024443D01*
X130483470Y-120024450D01*
X130424700Y-120205326D01*
X130424458Y-120206072D01*
X130404496Y-120396000D01*
X130424458Y-120585928D01*
X130424459Y-120585931D01*
X130483470Y-120767549D01*
X130483473Y-120767556D01*
X130578960Y-120932944D01*
X130588863Y-120943942D01*
X130692449Y-121058987D01*
X130706747Y-121074866D01*
X130861248Y-121187118D01*
X131035712Y-121264794D01*
X131222513Y-121304500D01*
X131413487Y-121304500D01*
X131600288Y-121264794D01*
X131774752Y-121187118D01*
X131929253Y-121074866D01*
X132057040Y-120932944D01*
X132152527Y-120767556D01*
X132211542Y-120585928D01*
X132228981Y-120419997D01*
X132255564Y-120355387D01*
X132264611Y-120345291D01*
X134096071Y-118513833D01*
X134165400Y-118410075D01*
X134213155Y-118294785D01*
X134237500Y-118172394D01*
X134237500Y-118047606D01*
X134237500Y-115165206D01*
X134213155Y-115042815D01*
X134165400Y-114927525D01*
X134165399Y-114927524D01*
X134165396Y-114927518D01*
X134096072Y-114823768D01*
X134052851Y-114780547D01*
X134007833Y-114735529D01*
X133328418Y-114056114D01*
X133294933Y-113994791D01*
X133292099Y-113968433D01*
X133292099Y-113674927D01*
X133285614Y-113603555D01*
X133285611Y-113603544D01*
X133234428Y-113439290D01*
X133234427Y-113439289D01*
X133234427Y-113439287D01*
X133145416Y-113292045D01*
X133145414Y-113292043D01*
X133145413Y-113292041D01*
X133023756Y-113170384D01*
X133001947Y-113157200D01*
X132954761Y-113105671D01*
X132942100Y-113051085D01*
X132942100Y-112653314D01*
X132961785Y-112586275D01*
X133001951Y-112547196D01*
X133023755Y-112534016D01*
X133145416Y-112412355D01*
X133234427Y-112265113D01*
X133285613Y-112100849D01*
X133292100Y-112029465D01*
X133292099Y-111685321D01*
X133311783Y-111618283D01*
X133364587Y-111572528D01*
X133368621Y-111570771D01*
X133396075Y-111559400D01*
X133499833Y-111490071D01*
X136794904Y-108195000D01*
X163819154Y-108195000D01*
X163836402Y-108458164D01*
X163838517Y-108490424D01*
X163838518Y-108490436D01*
X163896274Y-108780789D01*
X163896279Y-108780809D01*
X163991437Y-109061137D01*
X163991441Y-109061147D01*
X164122379Y-109326663D01*
X164122388Y-109326678D01*
X164191719Y-109430439D01*
X164283900Y-109568398D01*
X164286868Y-109572839D01*
X164482072Y-109795427D01*
X164655893Y-109947864D01*
X164704662Y-109990633D01*
X164950827Y-110155115D01*
X164950830Y-110155116D01*
X164950836Y-110155120D01*
X165216352Y-110286058D01*
X165216362Y-110286062D01*
X165496690Y-110381220D01*
X165496694Y-110381221D01*
X165496703Y-110381224D01*
X165690133Y-110419700D01*
X165787063Y-110438981D01*
X165787064Y-110438981D01*
X165787074Y-110438983D01*
X166082500Y-110458346D01*
X166377926Y-110438983D01*
X166668297Y-110381224D01*
X166690238Y-110373776D01*
X166948637Y-110286062D01*
X166948647Y-110286058D01*
X167214163Y-110155120D01*
X167214163Y-110155119D01*
X167214173Y-110155115D01*
X167460338Y-109990633D01*
X167682927Y-109795427D01*
X167878133Y-109572838D01*
X168042615Y-109326673D01*
X168063626Y-109284068D01*
X168173558Y-109061147D01*
X168173562Y-109061137D01*
X168268720Y-108780809D01*
X168268720Y-108780808D01*
X168268724Y-108780797D01*
X168326483Y-108490426D01*
X168345846Y-108195000D01*
X168326483Y-107899574D01*
X168268724Y-107609203D01*
X168202083Y-107412883D01*
X168173562Y-107328862D01*
X168173558Y-107328852D01*
X168042620Y-107063336D01*
X168042611Y-107063321D01*
X168040394Y-107060003D01*
X167878133Y-106817162D01*
X167821197Y-106752239D01*
X167682927Y-106594572D01*
X167460339Y-106399368D01*
X167214178Y-106234888D01*
X167214163Y-106234879D01*
X166948647Y-106103941D01*
X166948637Y-106103937D01*
X166668309Y-106008779D01*
X166668289Y-106008774D01*
X166377936Y-105951018D01*
X166377927Y-105951017D01*
X166377926Y-105951017D01*
X166082500Y-105931654D01*
X165787074Y-105951017D01*
X165787073Y-105951017D01*
X165787063Y-105951018D01*
X165496710Y-106008774D01*
X165496690Y-106008779D01*
X165216362Y-106103937D01*
X165216352Y-106103941D01*
X164950836Y-106234879D01*
X164950821Y-106234888D01*
X164704660Y-106399368D01*
X164482072Y-106594572D01*
X164286868Y-106817160D01*
X164122388Y-107063321D01*
X164122379Y-107063336D01*
X163991441Y-107328852D01*
X163991437Y-107328862D01*
X163896279Y-107609190D01*
X163896274Y-107609210D01*
X163838518Y-107899563D01*
X163838517Y-107899573D01*
X163838517Y-107899574D01*
X163819154Y-108195000D01*
X136794904Y-108195000D01*
X140849906Y-104139998D01*
X145324807Y-104139998D01*
X145324807Y-104140001D01*
X145343541Y-104354136D01*
X145343542Y-104354144D01*
X145399176Y-104561772D01*
X145399177Y-104561774D01*
X145399178Y-104561777D01*
X145412174Y-104589647D01*
X145490024Y-104756597D01*
X145490026Y-104756601D01*
X145613319Y-104932682D01*
X145765317Y-105084680D01*
X145941398Y-105207973D01*
X145941400Y-105207974D01*
X145941403Y-105207976D01*
X146136223Y-105298822D01*
X146343858Y-105354458D01*
X146496816Y-105367840D01*
X146557998Y-105373193D01*
X146558000Y-105373193D01*
X146558002Y-105373193D01*
X146611535Y-105368509D01*
X146772142Y-105354458D01*
X146979777Y-105298822D01*
X147174597Y-105207976D01*
X147350681Y-105084681D01*
X147502681Y-104932681D01*
X147625976Y-104756597D01*
X147716822Y-104561777D01*
X147772458Y-104354142D01*
X147791193Y-104140000D01*
X147772458Y-103925858D01*
X147716822Y-103718223D01*
X147625976Y-103523404D01*
X147502681Y-103347319D01*
X147502679Y-103347316D01*
X147350682Y-103195319D01*
X147174601Y-103072026D01*
X147174597Y-103072024D01*
X147137628Y-103054785D01*
X146979777Y-102981178D01*
X146979774Y-102981177D01*
X146979772Y-102981176D01*
X146772144Y-102925542D01*
X146772136Y-102925541D01*
X146558002Y-102906807D01*
X146557998Y-102906807D01*
X146343863Y-102925541D01*
X146343855Y-102925542D01*
X146136227Y-102981176D01*
X146136221Y-102981179D01*
X145941405Y-103072023D01*
X145941403Y-103072024D01*
X145765316Y-103195320D01*
X145613320Y-103347316D01*
X145490024Y-103523403D01*
X145490023Y-103523405D01*
X145399179Y-103718221D01*
X145399176Y-103718227D01*
X145343542Y-103925855D01*
X145343541Y-103925863D01*
X145324807Y-104139998D01*
X140849906Y-104139998D01*
X141716071Y-103273833D01*
X141785400Y-103170075D01*
X141833155Y-103054785D01*
X141857500Y-102932394D01*
X141857500Y-102807606D01*
X141857500Y-101599998D01*
X147864807Y-101599998D01*
X147864807Y-101600001D01*
X147883541Y-101814136D01*
X147883542Y-101814144D01*
X147939176Y-102021772D01*
X147939177Y-102021774D01*
X147939178Y-102021777D01*
X148030024Y-102216597D01*
X148030026Y-102216601D01*
X148153319Y-102392682D01*
X148305317Y-102544680D01*
X148481398Y-102667973D01*
X148481400Y-102667974D01*
X148481403Y-102667976D01*
X148676223Y-102758822D01*
X148883858Y-102814458D01*
X149036816Y-102827840D01*
X149097998Y-102833193D01*
X149098000Y-102833193D01*
X149098002Y-102833193D01*
X149151535Y-102828509D01*
X149312142Y-102814458D01*
X149519777Y-102758822D01*
X149714597Y-102667976D01*
X149890681Y-102544681D01*
X150042681Y-102392681D01*
X150165976Y-102216597D01*
X150256822Y-102021777D01*
X150312458Y-101814142D01*
X150331193Y-101600000D01*
X150312458Y-101385858D01*
X150256822Y-101178223D01*
X150165976Y-100983404D01*
X150073658Y-100851559D01*
X150042679Y-100807316D01*
X149890682Y-100655319D01*
X149714601Y-100532026D01*
X149714597Y-100532024D01*
X149666082Y-100509401D01*
X149519777Y-100441178D01*
X149519774Y-100441177D01*
X149519772Y-100441176D01*
X149312144Y-100385542D01*
X149312136Y-100385541D01*
X149098002Y-100366807D01*
X149097998Y-100366807D01*
X148883863Y-100385541D01*
X148883855Y-100385542D01*
X148676227Y-100441176D01*
X148676221Y-100441179D01*
X148481405Y-100532023D01*
X148481403Y-100532024D01*
X148305316Y-100655320D01*
X148153320Y-100807316D01*
X148030024Y-100983403D01*
X148030023Y-100983405D01*
X147939179Y-101178221D01*
X147939176Y-101178227D01*
X147883542Y-101385855D01*
X147883541Y-101385863D01*
X147864807Y-101599998D01*
X141857500Y-101599998D01*
X141857500Y-98357766D01*
X141877185Y-98290727D01*
X141893819Y-98270085D01*
X144223085Y-95940819D01*
X144284408Y-95907334D01*
X144310766Y-95904500D01*
X144367487Y-95904500D01*
X144554288Y-95864794D01*
X144728752Y-95787118D01*
X144883253Y-95674866D01*
X145011040Y-95532944D01*
X145106527Y-95367556D01*
X145165542Y-95185928D01*
X145185504Y-94996000D01*
X145165542Y-94806072D01*
X145106527Y-94624444D01*
X145011040Y-94459056D01*
X144883253Y-94317134D01*
X144728752Y-94204882D01*
X144554288Y-94127206D01*
X144554286Y-94127205D01*
X144367487Y-94087500D01*
X144176513Y-94087500D01*
X143989714Y-94127205D01*
X143933514Y-94152227D01*
X143857463Y-94186087D01*
X143815246Y-94204883D01*
X143660745Y-94317135D01*
X143532959Y-94459057D01*
X143437473Y-94624443D01*
X143437470Y-94624450D01*
X143397275Y-94748159D01*
X143378458Y-94806072D01*
X143362347Y-94959358D01*
X143361019Y-94971996D01*
X143334434Y-95036610D01*
X143325379Y-95046715D01*
X141409596Y-96962500D01*
X140820167Y-97551929D01*
X140789524Y-97582572D01*
X140731927Y-97640168D01*
X140662603Y-97743918D01*
X140662598Y-97743927D01*
X140614845Y-97859214D01*
X140614843Y-97859222D01*
X140590500Y-97981601D01*
X140590500Y-102556233D01*
X140570815Y-102623272D01*
X140554181Y-102643914D01*
X133452123Y-109745971D01*
X133390800Y-109779456D01*
X133321108Y-109774472D01*
X133265175Y-109732600D01*
X133246057Y-109695181D01*
X133226618Y-109632803D01*
X133138672Y-109487322D01*
X133018477Y-109367127D01*
X132872995Y-109279180D01*
X132872996Y-109279180D01*
X132710705Y-109228609D01*
X132710706Y-109228609D01*
X132640172Y-109222200D01*
X132558600Y-109222200D01*
X132558600Y-110240500D01*
X132538915Y-110307539D01*
X132486111Y-110353294D01*
X132434600Y-110364500D01*
X131255601Y-110364500D01*
X131133222Y-110388843D01*
X131133214Y-110388845D01*
X131017927Y-110436598D01*
X131017918Y-110436603D01*
X130914167Y-110505928D01*
X130914163Y-110505931D01*
X130033691Y-111386405D01*
X129744767Y-111675329D01*
X129720340Y-111699756D01*
X129656527Y-111763568D01*
X129587203Y-111867318D01*
X129587198Y-111867327D01*
X129539445Y-111982614D01*
X129539443Y-111982622D01*
X129515100Y-112105001D01*
X129515100Y-114625366D01*
X129495415Y-114692405D01*
X129478781Y-114713047D01*
X129411281Y-114780547D01*
X129349958Y-114814032D01*
X129280266Y-114809048D01*
X129235919Y-114780547D01*
X129138758Y-114683386D01*
X129115819Y-114669519D01*
X128991513Y-114594373D01*
X128951974Y-114582052D01*
X128893829Y-114543316D01*
X128865855Y-114479291D01*
X128876936Y-114410306D01*
X128882751Y-114399516D01*
X128908819Y-114356394D01*
X128959390Y-114194106D01*
X128965800Y-114123572D01*
X128965800Y-114042000D01*
X127939800Y-114042000D01*
X127872761Y-114022315D01*
X127827006Y-113969511D01*
X127815800Y-113918000D01*
X127815800Y-113236200D01*
X127789919Y-113210319D01*
X127756434Y-113148996D01*
X127753600Y-113122638D01*
X127753600Y-112774000D01*
X128253600Y-112774000D01*
X128279481Y-112799881D01*
X128312966Y-112861204D01*
X128315800Y-112887562D01*
X128315800Y-113542000D01*
X128965799Y-113542000D01*
X128965799Y-113460417D01*
X128959391Y-113389897D01*
X128959390Y-113389892D01*
X128908818Y-113227603D01*
X128820872Y-113082122D01*
X128816523Y-113077773D01*
X128783038Y-113016450D01*
X128788022Y-112946758D01*
X128798666Y-112924994D01*
X128890144Y-112776688D01*
X128890147Y-112776681D01*
X128943455Y-112615806D01*
X128953599Y-112516522D01*
X128953600Y-112516509D01*
X128953600Y-112468200D01*
X128253600Y-112468200D01*
X128253600Y-112774000D01*
X127753600Y-112774000D01*
X127753600Y-112092200D01*
X127773285Y-112025161D01*
X127826089Y-111979406D01*
X127877600Y-111968200D01*
X128953599Y-111968200D01*
X128953599Y-111919892D01*
X128953598Y-111919877D01*
X128943455Y-111820592D01*
X128890147Y-111659718D01*
X128890142Y-111659707D01*
X128815721Y-111539053D01*
X128797280Y-111471661D01*
X128815142Y-111409806D01*
X128815412Y-111409358D01*
X128815416Y-111409355D01*
X128904427Y-111262113D01*
X128955613Y-111097849D01*
X128962100Y-111026465D01*
X128962099Y-110732964D01*
X128981783Y-110665926D01*
X128998413Y-110645289D01*
X129778076Y-109865627D01*
X131333600Y-109865627D01*
X131333600Y-109872200D01*
X132058600Y-109872200D01*
X132058600Y-109222200D01*
X132058599Y-109222199D01*
X131977017Y-109222200D01*
X131906497Y-109228608D01*
X131906492Y-109228609D01*
X131744203Y-109279181D01*
X131598722Y-109367127D01*
X131478527Y-109487322D01*
X131390580Y-109632804D01*
X131340009Y-109795093D01*
X131333600Y-109865627D01*
X129778076Y-109865627D01*
X132889672Y-106754033D01*
X132959001Y-106650275D01*
X133006755Y-106534984D01*
X133031100Y-106412593D01*
X133031100Y-106287806D01*
X133031100Y-105705900D01*
X133050785Y-105638861D01*
X133103589Y-105593106D01*
X133155100Y-105581900D01*
X133318487Y-105581900D01*
X133505288Y-105542194D01*
X133679752Y-105464518D01*
X133834253Y-105352266D01*
X133838160Y-105347927D01*
X133897646Y-105311279D01*
X133930309Y-105306900D01*
X135977681Y-105306900D01*
X136044720Y-105326585D01*
X136069829Y-105347926D01*
X136142347Y-105428466D01*
X136296848Y-105540718D01*
X136471312Y-105618394D01*
X136658113Y-105658100D01*
X136849087Y-105658100D01*
X137035888Y-105618394D01*
X137210352Y-105540718D01*
X137364853Y-105428466D01*
X137492640Y-105286544D01*
X137588127Y-105121156D01*
X137647142Y-104939528D01*
X137667104Y-104749600D01*
X137647142Y-104559672D01*
X137588127Y-104378044D01*
X137492640Y-104212656D01*
X137364853Y-104070734D01*
X137210352Y-103958482D01*
X137035888Y-103880806D01*
X137035886Y-103880805D01*
X136849087Y-103841100D01*
X136658113Y-103841100D01*
X136471314Y-103880805D01*
X136296846Y-103958483D01*
X136256344Y-103987909D01*
X136217380Y-104016218D01*
X136151575Y-104039698D01*
X136144496Y-104039900D01*
X133930309Y-104039900D01*
X133863270Y-104020215D01*
X133838160Y-103998873D01*
X133834254Y-103994535D01*
X133739736Y-103925863D01*
X133679752Y-103882282D01*
X133505288Y-103804606D01*
X133505286Y-103804605D01*
X133318487Y-103764900D01*
X133179442Y-103764900D01*
X133112403Y-103745215D01*
X133066648Y-103692411D01*
X133056704Y-103623253D01*
X133085729Y-103559697D01*
X133107296Y-103541520D01*
X133106846Y-103540946D01*
X133112750Y-103536319D01*
X133112749Y-103536319D01*
X133112755Y-103536316D01*
X133234416Y-103414655D01*
X133323427Y-103267413D01*
X133374613Y-103103149D01*
X133381100Y-103031765D01*
X133381099Y-102517236D01*
X133381099Y-102517227D01*
X133374614Y-102445854D01*
X133374611Y-102445844D01*
X133323428Y-102281590D01*
X133323427Y-102281589D01*
X133323427Y-102281587D01*
X133234416Y-102134345D01*
X133234414Y-102134343D01*
X133234413Y-102134341D01*
X133137253Y-102037181D01*
X133103768Y-101975858D01*
X133108752Y-101906166D01*
X133137253Y-101861819D01*
X133234412Y-101764659D01*
X133234413Y-101764658D01*
X133234416Y-101764655D01*
X133323427Y-101617413D01*
X133374613Y-101453149D01*
X133381100Y-101381765D01*
X133381099Y-100867236D01*
X133381099Y-100867227D01*
X133374613Y-100795851D01*
X133372547Y-100789219D01*
X133371397Y-100719359D01*
X133403250Y-100664652D01*
X140991072Y-93076833D01*
X141060401Y-92973075D01*
X141108155Y-92857785D01*
X141108739Y-92854852D01*
X141128233Y-92756845D01*
X141132500Y-92735394D01*
X141132500Y-92610606D01*
X141132500Y-89135000D01*
X163827672Y-89135000D01*
X163846962Y-89429312D01*
X163846964Y-89429324D01*
X163904501Y-89718584D01*
X163904505Y-89718599D01*
X163999312Y-89997888D01*
X164129758Y-90262406D01*
X164129765Y-90262419D01*
X164293623Y-90507649D01*
X164322905Y-90541040D01*
X165273997Y-89589947D01*
X165364005Y-89724653D01*
X165492847Y-89853495D01*
X165627550Y-89943501D01*
X164676458Y-90894593D01*
X164709850Y-90923876D01*
X164955080Y-91087734D01*
X164955093Y-91087741D01*
X165219611Y-91218187D01*
X165498900Y-91312994D01*
X165498915Y-91312998D01*
X165788175Y-91370535D01*
X165788187Y-91370537D01*
X166082500Y-91389827D01*
X166376812Y-91370537D01*
X166376824Y-91370535D01*
X166666084Y-91312998D01*
X166666099Y-91312994D01*
X166945388Y-91218187D01*
X167209906Y-91087741D01*
X167209919Y-91087734D01*
X167455148Y-90923877D01*
X167488539Y-90894593D01*
X166537448Y-89943501D01*
X166672153Y-89853495D01*
X166800995Y-89724653D01*
X166891001Y-89589948D01*
X167842093Y-90541039D01*
X167871377Y-90507648D01*
X168035234Y-90262419D01*
X168035241Y-90262406D01*
X168165687Y-89997888D01*
X168260494Y-89718599D01*
X168260498Y-89718584D01*
X168318035Y-89429324D01*
X168318037Y-89429312D01*
X168337327Y-89135000D01*
X168318037Y-88840687D01*
X168318035Y-88840675D01*
X168260498Y-88551415D01*
X168260494Y-88551400D01*
X168165687Y-88272111D01*
X168035241Y-88007593D01*
X168035234Y-88007580D01*
X167871376Y-87762350D01*
X167842093Y-87728958D01*
X166891001Y-88680050D01*
X166800995Y-88545347D01*
X166672153Y-88416505D01*
X166537448Y-88326497D01*
X167488540Y-87375405D01*
X167455149Y-87346123D01*
X167209919Y-87182265D01*
X167209906Y-87182258D01*
X166945388Y-87051812D01*
X166666099Y-86957005D01*
X166666084Y-86957001D01*
X166376824Y-86899464D01*
X166376812Y-86899462D01*
X166082500Y-86880172D01*
X165788187Y-86899462D01*
X165788175Y-86899464D01*
X165498915Y-86957001D01*
X165498900Y-86957005D01*
X165219611Y-87051812D01*
X164955093Y-87182258D01*
X164955080Y-87182265D01*
X164709846Y-87346126D01*
X164709839Y-87346131D01*
X164676459Y-87375403D01*
X164676459Y-87375405D01*
X165627551Y-88326497D01*
X165492847Y-88416505D01*
X165364005Y-88545347D01*
X165273997Y-88680051D01*
X164322905Y-87728959D01*
X164322903Y-87728959D01*
X164293631Y-87762339D01*
X164293626Y-87762346D01*
X164129765Y-88007580D01*
X164129758Y-88007593D01*
X163999312Y-88272111D01*
X163904505Y-88551400D01*
X163904501Y-88551415D01*
X163846964Y-88840675D01*
X163846962Y-88840687D01*
X163827672Y-89135000D01*
X141132500Y-89135000D01*
X141132500Y-83286606D01*
X141108155Y-83164215D01*
X141060400Y-83048925D01*
X141060399Y-83048924D01*
X141060396Y-83048918D01*
X140991072Y-82945168D01*
X140951058Y-82905154D01*
X140902833Y-82856929D01*
X140632347Y-82586443D01*
X140357836Y-82311931D01*
X140357832Y-82311928D01*
X140254081Y-82242603D01*
X140254072Y-82242598D01*
X140138785Y-82194845D01*
X140138777Y-82194843D01*
X140016398Y-82170500D01*
X140016394Y-82170500D01*
X136779733Y-82170500D01*
X136712694Y-82150815D01*
X136666939Y-82098011D01*
X136656995Y-82028853D01*
X136686020Y-81965297D01*
X136744798Y-81927523D01*
X136746278Y-81927098D01*
X136818177Y-81906953D01*
X137070200Y-81797484D01*
X137304969Y-81654718D01*
X137518111Y-81481314D01*
X137705657Y-81280502D01*
X137864111Y-81056023D01*
X137990523Y-80812058D01*
X138082538Y-80553153D01*
X138082539Y-80553146D01*
X138082541Y-80553141D01*
X138125523Y-80346300D01*
X138138442Y-80284130D01*
X138157193Y-80010000D01*
X138138442Y-79735870D01*
X138119141Y-79642989D01*
X138082541Y-79466858D01*
X138082536Y-79466841D01*
X137990523Y-79207943D01*
X137990523Y-79207942D01*
X137864111Y-78963977D01*
X137864110Y-78963975D01*
X137864106Y-78963969D01*
X137705659Y-78739500D01*
X137687031Y-78719555D01*
X137518111Y-78538686D01*
X137304969Y-78365282D01*
X137304967Y-78365281D01*
X137304965Y-78365279D01*
X137169083Y-78282648D01*
X137122031Y-78230997D01*
X137110373Y-78162107D01*
X137137810Y-78097850D01*
X137195632Y-78058627D01*
X137233511Y-78052700D01*
X138649634Y-78052700D01*
X138716673Y-78072385D01*
X138737315Y-78089019D01*
X143436363Y-82788069D01*
X143436367Y-82788072D01*
X143540121Y-82857399D01*
X143540123Y-82857399D01*
X143540125Y-82857401D01*
X143655415Y-82905155D01*
X143655417Y-82905155D01*
X143655422Y-82905157D01*
X143777801Y-82929499D01*
X143777805Y-82929500D01*
X143777806Y-82929500D01*
X146772795Y-82929500D01*
X146772796Y-82929499D01*
X146895185Y-82905155D01*
X147010475Y-82857400D01*
X147114233Y-82788071D01*
X148955072Y-80947233D01*
X149024401Y-80843475D01*
X149072155Y-80728184D01*
X149072595Y-80725975D01*
X149083809Y-80669598D01*
X149096499Y-80605797D01*
X149096500Y-80605795D01*
X149096500Y-76132765D01*
X149116185Y-76065726D01*
X149132814Y-76045089D01*
X150971123Y-74206780D01*
X151032442Y-74173298D01*
X151059978Y-74175267D01*
X151059978Y-74172000D01*
X152084314Y-74172000D01*
X152079920Y-74176394D01*
X152027259Y-74267606D01*
X152000000Y-74369339D01*
X152000000Y-74474661D01*
X152027259Y-74576394D01*
X152079920Y-74667606D01*
X152084314Y-74672000D01*
X151121128Y-74672000D01*
X151173730Y-74868317D01*
X151173734Y-74868326D01*
X151269865Y-75074482D01*
X151400342Y-75260820D01*
X151561179Y-75421657D01*
X151747517Y-75552134D01*
X151806457Y-75579618D01*
X151858896Y-75625790D01*
X151878048Y-75692984D01*
X151857832Y-75759865D01*
X151806457Y-75804382D01*
X151747517Y-75831865D01*
X151561179Y-75962342D01*
X151400342Y-76123179D01*
X151269865Y-76309517D01*
X151173734Y-76515673D01*
X151173730Y-76515682D01*
X151121127Y-76711999D01*
X151121128Y-76712000D01*
X152084314Y-76712000D01*
X152079920Y-76716394D01*
X152027259Y-76807606D01*
X152000000Y-76909339D01*
X152000000Y-77014661D01*
X152027259Y-77116394D01*
X152079920Y-77207606D01*
X152084314Y-77212000D01*
X151121128Y-77212000D01*
X151173730Y-77408317D01*
X151173734Y-77408326D01*
X151269865Y-77614482D01*
X151400342Y-77800820D01*
X151561179Y-77961657D01*
X151747517Y-78092134D01*
X151806457Y-78119618D01*
X151858896Y-78165790D01*
X151878048Y-78232984D01*
X151857832Y-78299865D01*
X151806457Y-78344382D01*
X151747517Y-78371865D01*
X151561179Y-78502342D01*
X151400342Y-78663179D01*
X151269865Y-78849517D01*
X151173734Y-79055673D01*
X151173730Y-79055682D01*
X151121127Y-79251999D01*
X151121128Y-79252000D01*
X152084314Y-79252000D01*
X152079920Y-79256394D01*
X152027259Y-79347606D01*
X152000000Y-79449339D01*
X152000000Y-79554661D01*
X152027259Y-79656394D01*
X152079920Y-79747606D01*
X152084314Y-79752000D01*
X151121128Y-79752000D01*
X151173730Y-79948317D01*
X151173734Y-79948326D01*
X151269865Y-80154482D01*
X151400342Y-80340820D01*
X151561179Y-80501657D01*
X151747517Y-80632134D01*
X151953673Y-80728265D01*
X151953682Y-80728269D01*
X152149999Y-80780872D01*
X152150000Y-80780871D01*
X152150000Y-79817686D01*
X152154394Y-79822080D01*
X152245606Y-79874741D01*
X152347339Y-79902000D01*
X152452661Y-79902000D01*
X152554394Y-79874741D01*
X152645606Y-79822080D01*
X152650000Y-79817686D01*
X152650000Y-80780872D01*
X152846317Y-80728269D01*
X152846326Y-80728265D01*
X153052482Y-80632134D01*
X153238820Y-80501657D01*
X153399657Y-80340820D01*
X153530134Y-80154482D01*
X153626265Y-79948326D01*
X153626269Y-79948317D01*
X153678872Y-79752000D01*
X152715686Y-79752000D01*
X152720080Y-79747606D01*
X152772741Y-79656394D01*
X152800000Y-79554661D01*
X152800000Y-79449339D01*
X152772741Y-79347606D01*
X152720080Y-79256394D01*
X152715686Y-79252000D01*
X153678872Y-79252000D01*
X153678872Y-79251999D01*
X153626269Y-79055682D01*
X153626265Y-79055673D01*
X153530134Y-78849517D01*
X153399657Y-78663179D01*
X153238820Y-78502342D01*
X153052481Y-78371865D01*
X153052479Y-78371864D01*
X152993543Y-78344382D01*
X152941103Y-78298210D01*
X152921951Y-78231017D01*
X152942166Y-78164136D01*
X152993543Y-78119618D01*
X153052479Y-78092135D01*
X153052481Y-78092134D01*
X153238820Y-77961657D01*
X153399657Y-77800820D01*
X153530134Y-77614482D01*
X153626265Y-77408326D01*
X153626269Y-77408317D01*
X153678872Y-77212000D01*
X152715686Y-77212000D01*
X152720080Y-77207606D01*
X152772741Y-77116394D01*
X152800000Y-77014661D01*
X152800000Y-76909339D01*
X152772741Y-76807606D01*
X152720080Y-76716394D01*
X152715686Y-76712000D01*
X153678872Y-76712000D01*
X153678872Y-76711999D01*
X153626269Y-76515682D01*
X153626265Y-76515673D01*
X153530134Y-76309517D01*
X153399657Y-76123179D01*
X153238820Y-75962342D01*
X153052481Y-75831865D01*
X153052479Y-75831864D01*
X152993543Y-75804382D01*
X152941103Y-75758210D01*
X152921951Y-75691017D01*
X152942166Y-75624136D01*
X152993543Y-75579618D01*
X153052479Y-75552135D01*
X153052481Y-75552134D01*
X153238820Y-75421657D01*
X153399657Y-75260820D01*
X153530134Y-75074482D01*
X153626265Y-74868326D01*
X153626269Y-74868317D01*
X153678872Y-74672000D01*
X152715686Y-74672000D01*
X152720080Y-74667606D01*
X152772741Y-74576394D01*
X152800000Y-74474661D01*
X152800000Y-74369339D01*
X152772741Y-74267606D01*
X152720080Y-74176394D01*
X152715686Y-74172000D01*
X153678872Y-74172000D01*
X153678872Y-74171999D01*
X153626269Y-73975682D01*
X153626265Y-73975673D01*
X153530134Y-73769517D01*
X153399657Y-73583179D01*
X153238820Y-73422342D01*
X153052481Y-73291865D01*
X153052479Y-73291864D01*
X153003599Y-73269071D01*
X152951159Y-73222899D01*
X152932007Y-73155706D01*
X152952223Y-73088824D01*
X153003599Y-73044307D01*
X153056749Y-73019523D01*
X153244300Y-72888198D01*
X153406198Y-72726300D01*
X153537523Y-72538749D01*
X153634284Y-72331243D01*
X153693543Y-72110087D01*
X153713498Y-71882000D01*
X153712352Y-71868906D01*
X153699829Y-71725766D01*
X153693543Y-71653913D01*
X153634284Y-71432757D01*
X153537523Y-71225251D01*
X153406198Y-71037700D01*
X153244300Y-70875802D01*
X153056749Y-70744477D01*
X153056745Y-70744475D01*
X152849249Y-70647718D01*
X152849238Y-70647714D01*
X152628089Y-70588457D01*
X152628081Y-70588456D01*
X152400002Y-70568502D01*
X152399998Y-70568502D01*
X152171918Y-70588456D01*
X152171910Y-70588457D01*
X151950761Y-70647714D01*
X151950750Y-70647718D01*
X151743254Y-70744475D01*
X151743252Y-70744476D01*
X151743251Y-70744477D01*
X151555700Y-70875802D01*
X151555698Y-70875803D01*
X151555695Y-70875806D01*
X151393806Y-71037695D01*
X151393803Y-71037698D01*
X151393802Y-71037700D01*
X151333024Y-71124500D01*
X151262476Y-71225252D01*
X151262475Y-71225254D01*
X151165718Y-71432750D01*
X151165714Y-71432761D01*
X151106457Y-71653910D01*
X151106456Y-71653918D01*
X151086502Y-71881998D01*
X151086502Y-71882001D01*
X151106456Y-72110081D01*
X151106458Y-72110091D01*
X151123758Y-72174655D01*
X151122095Y-72244504D01*
X151091664Y-72294429D01*
X148564096Y-74822000D01*
X148059167Y-75326929D01*
X148015047Y-75371049D01*
X147970927Y-75415168D01*
X147901603Y-75518918D01*
X147901598Y-75518927D01*
X147853845Y-75634214D01*
X147853843Y-75634222D01*
X147829500Y-75756601D01*
X147829500Y-80229633D01*
X147809815Y-80296672D01*
X147793181Y-80317314D01*
X146484315Y-81626181D01*
X146422992Y-81659666D01*
X146396634Y-81662500D01*
X144153967Y-81662500D01*
X144086928Y-81642815D01*
X144066286Y-81626181D01*
X139316436Y-76876331D01*
X139316432Y-76876328D01*
X139212681Y-76807003D01*
X139212672Y-76806998D01*
X139097385Y-76759245D01*
X139097377Y-76759243D01*
X138974998Y-76734900D01*
X138974994Y-76734900D01*
X138850206Y-76734900D01*
X138850201Y-76734900D01*
X138727822Y-76759243D01*
X138727814Y-76759245D01*
X138686735Y-76776261D01*
X138639282Y-76785700D01*
X115291201Y-76785700D01*
X115168822Y-76810043D01*
X115168814Y-76810045D01*
X115053527Y-76857798D01*
X115053518Y-76857803D01*
X114949767Y-76927128D01*
X114949763Y-76927131D01*
X112353313Y-79523581D01*
X112291990Y-79557066D01*
X112265632Y-79559900D01*
X111972127Y-79559900D01*
X111900754Y-79566385D01*
X111900744Y-79566388D01*
X111736490Y-79617571D01*
X111589241Y-79706586D01*
X111589240Y-79706587D01*
X111492081Y-79803747D01*
X111430758Y-79837232D01*
X111361066Y-79832248D01*
X111316719Y-79803747D01*
X111219558Y-79706586D01*
X111184654Y-79685486D01*
X111072313Y-79617573D01*
X110908049Y-79566387D01*
X110908047Y-79566386D01*
X110908045Y-79566386D01*
X110858067Y-79561844D01*
X110836665Y-79559900D01*
X110836662Y-79559900D01*
X110322127Y-79559900D01*
X110250754Y-79566385D01*
X110250744Y-79566388D01*
X110086489Y-79617571D01*
X110022269Y-79656394D01*
X110009741Y-79663968D01*
X110003650Y-79667650D01*
X109936095Y-79685486D01*
X109869621Y-79663968D01*
X109825334Y-79609928D01*
X109815500Y-79561533D01*
X109815500Y-71725766D01*
X109835185Y-71658727D01*
X109851819Y-71638085D01*
X113163910Y-68325994D01*
X119794844Y-68325994D01*
X119794844Y-68326005D01*
X119813434Y-68550359D01*
X119813436Y-68550371D01*
X119868703Y-68768614D01*
X119959140Y-68974792D01*
X120082276Y-69163265D01*
X120082284Y-69163276D01*
X120188627Y-69278793D01*
X120234760Y-69328906D01*
X120412424Y-69467189D01*
X120412429Y-69467191D01*
X120412431Y-69467193D01*
X120448930Y-69486946D01*
X120498520Y-69536165D01*
X120513628Y-69604382D01*
X120489457Y-69669937D01*
X120448930Y-69705054D01*
X120412431Y-69724806D01*
X120412422Y-69724812D01*
X120234761Y-69863092D01*
X120234756Y-69863097D01*
X120082284Y-70028723D01*
X120082276Y-70028734D01*
X119959140Y-70217207D01*
X119868703Y-70423385D01*
X119813436Y-70641628D01*
X119813434Y-70641640D01*
X119794844Y-70865994D01*
X119794844Y-70866005D01*
X119813434Y-71090359D01*
X119813436Y-71090371D01*
X119868703Y-71308614D01*
X119959140Y-71514792D01*
X120082276Y-71703265D01*
X120082284Y-71703276D01*
X120234756Y-71868902D01*
X120234760Y-71868906D01*
X120412424Y-72007189D01*
X120412429Y-72007191D01*
X120412431Y-72007193D01*
X120448930Y-72026946D01*
X120498520Y-72076165D01*
X120513628Y-72144382D01*
X120489457Y-72209937D01*
X120448930Y-72245054D01*
X120412431Y-72264806D01*
X120412422Y-72264812D01*
X120234761Y-72403092D01*
X120234756Y-72403097D01*
X120082284Y-72568723D01*
X120082276Y-72568734D01*
X119959140Y-72757207D01*
X119868703Y-72963385D01*
X119813436Y-73181628D01*
X119813434Y-73181640D01*
X119794844Y-73405994D01*
X119794844Y-73406005D01*
X119813434Y-73630359D01*
X119813436Y-73630371D01*
X119868703Y-73848614D01*
X119959140Y-74054792D01*
X120082276Y-74243265D01*
X120082284Y-74243276D01*
X120234756Y-74408902D01*
X120234760Y-74408906D01*
X120412424Y-74547189D01*
X120412425Y-74547189D01*
X120412427Y-74547191D01*
X120466390Y-74576394D01*
X120610426Y-74654342D01*
X120823365Y-74727444D01*
X121045431Y-74764500D01*
X121270569Y-74764500D01*
X121492635Y-74727444D01*
X121705574Y-74654342D01*
X121903576Y-74547189D01*
X122081240Y-74408906D01*
X122233722Y-74243268D01*
X122324193Y-74104790D01*
X122377338Y-74059437D01*
X122446569Y-74050013D01*
X122509905Y-74079515D01*
X122531804Y-74104787D01*
X122622278Y-74243268D01*
X122622283Y-74243273D01*
X122622284Y-74243276D01*
X122774756Y-74408902D01*
X122774760Y-74408906D01*
X122952424Y-74547189D01*
X122952425Y-74547189D01*
X122952427Y-74547191D01*
X123006390Y-74576394D01*
X123150426Y-74654342D01*
X123363365Y-74727444D01*
X123585431Y-74764500D01*
X123810569Y-74764500D01*
X124032635Y-74727444D01*
X124245574Y-74654342D01*
X124443576Y-74547189D01*
X124621240Y-74408906D01*
X124773722Y-74243268D01*
X124896860Y-74054791D01*
X124987296Y-73848616D01*
X125042564Y-73630368D01*
X125042565Y-73630359D01*
X125061156Y-73406005D01*
X125061156Y-73405994D01*
X125042565Y-73181640D01*
X125042563Y-73181628D01*
X125008030Y-73045260D01*
X124987296Y-72963384D01*
X124896860Y-72757209D01*
X124880706Y-72732484D01*
X124773723Y-72568734D01*
X124773715Y-72568723D01*
X124621243Y-72403097D01*
X124621238Y-72403092D01*
X124443577Y-72264812D01*
X124443578Y-72264812D01*
X124443576Y-72264811D01*
X124407070Y-72245055D01*
X124357479Y-72195836D01*
X124342371Y-72127619D01*
X124366541Y-72062064D01*
X124407070Y-72026945D01*
X124407084Y-72026936D01*
X124443576Y-72007189D01*
X124621240Y-71868906D01*
X124773722Y-71703268D01*
X124896860Y-71514791D01*
X124987296Y-71308616D01*
X125042564Y-71090368D01*
X125045279Y-71057601D01*
X125061156Y-70866005D01*
X125061156Y-70865994D01*
X125042565Y-70641640D01*
X125042563Y-70641628D01*
X124987296Y-70423385D01*
X124896859Y-70217207D01*
X124773723Y-70028734D01*
X124773715Y-70028723D01*
X124621243Y-69863097D01*
X124621238Y-69863092D01*
X124443577Y-69724812D01*
X124443578Y-69724812D01*
X124443576Y-69724811D01*
X124407070Y-69705055D01*
X124357479Y-69655836D01*
X124342371Y-69587619D01*
X124366541Y-69522064D01*
X124407070Y-69486945D01*
X124407084Y-69486936D01*
X124443576Y-69467189D01*
X124621240Y-69328906D01*
X124773722Y-69163268D01*
X124896860Y-68974791D01*
X124987296Y-68768616D01*
X125035062Y-68579994D01*
X130955844Y-68579994D01*
X130955844Y-68580005D01*
X130974434Y-68804359D01*
X130974436Y-68804371D01*
X131029703Y-69022614D01*
X131120140Y-69228792D01*
X131243276Y-69417265D01*
X131243284Y-69417276D01*
X131363513Y-69547877D01*
X131395760Y-69582906D01*
X131573424Y-69721189D01*
X131573425Y-69721189D01*
X131573427Y-69721191D01*
X131695378Y-69787187D01*
X131771426Y-69828342D01*
X131984365Y-69901444D01*
X132206431Y-69938500D01*
X132431569Y-69938500D01*
X132653635Y-69901444D01*
X132866574Y-69828342D01*
X133064576Y-69721189D01*
X133242240Y-69582906D01*
X133394722Y-69417268D01*
X133485193Y-69278790D01*
X133538338Y-69233437D01*
X133607569Y-69224013D01*
X133670905Y-69253515D01*
X133692804Y-69278787D01*
X133783278Y-69417268D01*
X133783283Y-69417273D01*
X133783284Y-69417276D01*
X133903513Y-69547877D01*
X133935760Y-69582906D01*
X134113424Y-69721189D01*
X134113425Y-69721189D01*
X134113427Y-69721191D01*
X134235378Y-69787187D01*
X134311426Y-69828342D01*
X134524365Y-69901444D01*
X134746431Y-69938500D01*
X134971569Y-69938500D01*
X135193635Y-69901444D01*
X135406574Y-69828342D01*
X135604576Y-69721189D01*
X135782240Y-69582906D01*
X135851908Y-69507226D01*
X135911793Y-69471237D01*
X135981631Y-69473337D01*
X136039247Y-69512860D01*
X136059318Y-69547877D01*
X136105645Y-69672086D01*
X136105649Y-69672093D01*
X136191809Y-69787187D01*
X136191812Y-69787190D01*
X136306906Y-69873350D01*
X136306913Y-69873354D01*
X136441620Y-69923596D01*
X136441627Y-69923598D01*
X136501155Y-69929999D01*
X136501172Y-69930000D01*
X137149000Y-69930000D01*
X137149000Y-69013012D01*
X137206007Y-69045925D01*
X137333174Y-69080000D01*
X137464826Y-69080000D01*
X137591993Y-69045925D01*
X137649000Y-69013012D01*
X137649000Y-69930000D01*
X138296828Y-69930000D01*
X138296844Y-69929999D01*
X138356372Y-69923598D01*
X138356379Y-69923596D01*
X138491086Y-69873354D01*
X138491093Y-69873350D01*
X138606187Y-69787190D01*
X138606190Y-69787187D01*
X138692350Y-69672093D01*
X138692354Y-69672086D01*
X138742596Y-69537379D01*
X138742598Y-69537372D01*
X138748999Y-69477844D01*
X138749000Y-69477827D01*
X138749000Y-68830000D01*
X137832012Y-68830000D01*
X137864925Y-68772993D01*
X137899000Y-68645826D01*
X137899000Y-68514174D01*
X137864925Y-68387007D01*
X137832012Y-68330000D01*
X138749000Y-68330000D01*
X138749000Y-67682172D01*
X138748999Y-67682155D01*
X138742598Y-67622627D01*
X138742596Y-67622620D01*
X138692354Y-67487913D01*
X138692350Y-67487906D01*
X138606190Y-67372812D01*
X138606187Y-67372809D01*
X138491093Y-67286649D01*
X138491086Y-67286645D01*
X138356379Y-67236403D01*
X138356372Y-67236401D01*
X138296844Y-67230000D01*
X137649000Y-67230000D01*
X137649000Y-68146988D01*
X137591993Y-68114075D01*
X137464826Y-68080000D01*
X137333174Y-68080000D01*
X137206007Y-68114075D01*
X137149000Y-68146988D01*
X137149000Y-67230000D01*
X136501155Y-67230000D01*
X136441627Y-67236401D01*
X136441620Y-67236403D01*
X136306913Y-67286645D01*
X136306906Y-67286649D01*
X136191812Y-67372809D01*
X136191809Y-67372812D01*
X136105649Y-67487906D01*
X136105646Y-67487911D01*
X136059318Y-67612123D01*
X136017446Y-67668056D01*
X135951982Y-67692473D01*
X135883709Y-67677621D01*
X135851910Y-67652775D01*
X135782240Y-67577094D01*
X135604576Y-67438811D01*
X135604575Y-67438810D01*
X135604572Y-67438808D01*
X135406580Y-67331661D01*
X135406577Y-67331659D01*
X135406574Y-67331658D01*
X135406571Y-67331657D01*
X135406569Y-67331656D01*
X135193637Y-67258556D01*
X134971569Y-67221500D01*
X134746431Y-67221500D01*
X134524362Y-67258556D01*
X134311430Y-67331656D01*
X134311419Y-67331661D01*
X134113427Y-67438808D01*
X134113422Y-67438812D01*
X133935761Y-67577092D01*
X133935756Y-67577097D01*
X133783284Y-67742723D01*
X133783276Y-67742734D01*
X133692808Y-67881206D01*
X133639662Y-67926562D01*
X133570431Y-67935986D01*
X133507095Y-67906484D01*
X133485192Y-67881206D01*
X133394723Y-67742734D01*
X133394715Y-67742723D01*
X133242243Y-67577097D01*
X133242238Y-67577092D01*
X133064577Y-67438812D01*
X133064572Y-67438808D01*
X132866580Y-67331661D01*
X132866577Y-67331659D01*
X132866574Y-67331658D01*
X132866571Y-67331657D01*
X132866569Y-67331656D01*
X132653637Y-67258556D01*
X132431569Y-67221500D01*
X132206431Y-67221500D01*
X131984362Y-67258556D01*
X131771430Y-67331656D01*
X131771419Y-67331661D01*
X131573427Y-67438808D01*
X131573422Y-67438812D01*
X131395761Y-67577092D01*
X131395756Y-67577097D01*
X131243284Y-67742723D01*
X131243276Y-67742734D01*
X131120140Y-67931207D01*
X131029703Y-68137385D01*
X130974436Y-68355628D01*
X130974434Y-68355640D01*
X130955844Y-68579994D01*
X125035062Y-68579994D01*
X125042564Y-68550368D01*
X125061156Y-68326000D01*
X125042564Y-68101632D01*
X124987296Y-67883384D01*
X124896860Y-67677209D01*
X124880706Y-67652484D01*
X124773723Y-67488734D01*
X124773715Y-67488723D01*
X124621243Y-67323097D01*
X124621238Y-67323092D01*
X124443577Y-67184812D01*
X124443572Y-67184808D01*
X124245580Y-67077661D01*
X124245577Y-67077659D01*
X124245574Y-67077658D01*
X124245571Y-67077657D01*
X124245569Y-67077656D01*
X124032637Y-67004556D01*
X123810569Y-66967500D01*
X123585431Y-66967500D01*
X123363362Y-67004556D01*
X123150430Y-67077656D01*
X123150419Y-67077661D01*
X122952427Y-67184808D01*
X122952422Y-67184812D01*
X122774761Y-67323092D01*
X122774756Y-67323097D01*
X122622284Y-67488723D01*
X122622276Y-67488734D01*
X122531808Y-67627206D01*
X122478662Y-67672562D01*
X122409431Y-67681986D01*
X122346095Y-67652484D01*
X122324192Y-67627206D01*
X122233723Y-67488734D01*
X122233715Y-67488723D01*
X122081243Y-67323097D01*
X122081238Y-67323092D01*
X121903577Y-67184812D01*
X121903572Y-67184808D01*
X121705580Y-67077661D01*
X121705577Y-67077659D01*
X121705574Y-67077658D01*
X121705571Y-67077657D01*
X121705569Y-67077656D01*
X121492637Y-67004556D01*
X121270569Y-66967500D01*
X121045431Y-66967500D01*
X120823362Y-67004556D01*
X120610430Y-67077656D01*
X120610419Y-67077661D01*
X120412427Y-67184808D01*
X120412422Y-67184812D01*
X120234761Y-67323092D01*
X120234756Y-67323097D01*
X120082284Y-67488723D01*
X120082276Y-67488734D01*
X119959140Y-67677207D01*
X119868703Y-67883385D01*
X119813436Y-68101628D01*
X119813434Y-68101640D01*
X119794844Y-68325994D01*
X113163910Y-68325994D01*
X114780085Y-66709819D01*
X114841408Y-66676334D01*
X114867766Y-66673500D01*
X151790433Y-66673500D01*
X151857472Y-66693185D01*
X151903227Y-66745989D01*
X151913171Y-66815147D01*
X151884146Y-66878703D01*
X151878114Y-66885181D01*
X147551115Y-71212181D01*
X147489792Y-71245666D01*
X147463434Y-71248500D01*
X146212500Y-71248500D01*
X146145461Y-71228815D01*
X146099706Y-71176011D01*
X146088500Y-71124500D01*
X146088500Y-71033362D01*
X146088499Y-71033345D01*
X146085157Y-71002270D01*
X146081989Y-70972799D01*
X146067973Y-70935222D01*
X146045812Y-70875806D01*
X146030889Y-70835796D01*
X145943261Y-70718739D01*
X145826204Y-70631111D01*
X145689203Y-70580011D01*
X145628654Y-70573500D01*
X145628638Y-70573500D01*
X143931362Y-70573500D01*
X143931345Y-70573500D01*
X143870797Y-70580011D01*
X143870795Y-70580011D01*
X143733795Y-70631111D01*
X143616739Y-70718739D01*
X143529111Y-70835795D01*
X143478011Y-70972795D01*
X143478011Y-70972797D01*
X143471500Y-71033345D01*
X143471500Y-72730654D01*
X143478011Y-72791202D01*
X143478011Y-72791204D01*
X143514189Y-72888198D01*
X143529111Y-72928204D01*
X143616739Y-73045261D01*
X143733796Y-73132889D01*
X143833110Y-73169931D01*
X143870793Y-73183987D01*
X143870799Y-73183989D01*
X143885499Y-73185569D01*
X143950048Y-73212305D01*
X143989897Y-73269696D01*
X143992393Y-73339521D01*
X143956742Y-73399611D01*
X143943377Y-73410425D01*
X143943371Y-73410431D01*
X143935696Y-73415805D01*
X143773806Y-73577695D01*
X143773803Y-73577698D01*
X143773802Y-73577700D01*
X143691767Y-73694856D01*
X143642476Y-73765252D01*
X143642475Y-73765254D01*
X143545718Y-73972750D01*
X143545714Y-73972761D01*
X143486457Y-74193910D01*
X143486456Y-74193918D01*
X143466502Y-74421998D01*
X143466502Y-74422001D01*
X143486456Y-74650081D01*
X143486457Y-74650089D01*
X143545714Y-74871238D01*
X143545718Y-74871249D01*
X143640487Y-75074482D01*
X143642477Y-75078749D01*
X143773802Y-75266300D01*
X143935700Y-75428198D01*
X144112700Y-75552135D01*
X144123251Y-75559523D01*
X144166345Y-75579618D01*
X144218784Y-75625791D01*
X144237936Y-75692984D01*
X144217720Y-75759865D01*
X144166345Y-75804382D01*
X144123251Y-75824476D01*
X143998126Y-75912090D01*
X143935700Y-75955802D01*
X143935698Y-75955803D01*
X143935695Y-75955806D01*
X143773806Y-76117695D01*
X143773803Y-76117698D01*
X143773802Y-76117700D01*
X143691767Y-76234856D01*
X143642476Y-76305252D01*
X143642475Y-76305254D01*
X143545718Y-76512750D01*
X143545714Y-76512761D01*
X143486457Y-76733910D01*
X143486456Y-76733918D01*
X143466502Y-76961998D01*
X143466502Y-76962001D01*
X143486456Y-77190081D01*
X143486457Y-77190089D01*
X143545714Y-77411238D01*
X143545718Y-77411249D01*
X143640487Y-77614482D01*
X143642477Y-77618749D01*
X143773802Y-77806300D01*
X143935700Y-77968198D01*
X144112700Y-78092135D01*
X144123251Y-78099523D01*
X144166345Y-78119618D01*
X144218784Y-78165791D01*
X144237936Y-78232984D01*
X144217720Y-78299865D01*
X144166345Y-78344382D01*
X144123251Y-78364476D01*
X143998126Y-78452090D01*
X143935700Y-78495802D01*
X143935698Y-78495803D01*
X143935695Y-78495806D01*
X143773806Y-78657695D01*
X143773803Y-78657698D01*
X143773802Y-78657700D01*
X143716972Y-78738862D01*
X143642476Y-78845252D01*
X143642475Y-78845254D01*
X143545718Y-79052750D01*
X143545714Y-79052761D01*
X143486457Y-79273910D01*
X143486456Y-79273918D01*
X143466502Y-79501998D01*
X143466502Y-79502001D01*
X143486456Y-79730081D01*
X143486457Y-79730089D01*
X143545714Y-79951238D01*
X143545718Y-79951249D01*
X143640487Y-80154482D01*
X143642477Y-80158749D01*
X143773802Y-80346300D01*
X143935700Y-80508198D01*
X144123251Y-80639523D01*
X144209667Y-80679819D01*
X144330750Y-80736281D01*
X144330752Y-80736281D01*
X144330757Y-80736284D01*
X144551913Y-80795543D01*
X144714832Y-80809796D01*
X144779998Y-80815498D01*
X144780000Y-80815498D01*
X144780002Y-80815498D01*
X144837021Y-80810509D01*
X145008087Y-80795543D01*
X145229243Y-80736284D01*
X145436749Y-80639523D01*
X145624300Y-80508198D01*
X145786198Y-80346300D01*
X145917523Y-80158749D01*
X146014284Y-79951243D01*
X146073543Y-79730087D01*
X146092104Y-79517929D01*
X146093498Y-79502001D01*
X146093498Y-79501998D01*
X146076662Y-79309563D01*
X146073543Y-79273913D01*
X146014284Y-79052757D01*
X145917523Y-78845251D01*
X145786198Y-78657700D01*
X145624300Y-78495802D01*
X145436749Y-78364477D01*
X145393655Y-78344382D01*
X145341215Y-78298210D01*
X145322063Y-78231017D01*
X145342278Y-78164136D01*
X145393655Y-78119618D01*
X145407746Y-78113047D01*
X145436749Y-78099523D01*
X145624300Y-77968198D01*
X145786198Y-77806300D01*
X145917523Y-77618749D01*
X146014284Y-77411243D01*
X146073543Y-77190087D01*
X146093498Y-76962000D01*
X146073543Y-76733913D01*
X146014284Y-76512757D01*
X145917523Y-76305251D01*
X145786198Y-76117700D01*
X145624300Y-75955802D01*
X145436749Y-75824477D01*
X145393655Y-75804382D01*
X145341215Y-75758210D01*
X145322063Y-75691017D01*
X145342278Y-75624136D01*
X145393655Y-75579618D01*
X145396882Y-75578112D01*
X145436749Y-75559523D01*
X145624300Y-75428198D01*
X145786198Y-75266300D01*
X145917523Y-75078749D01*
X146014284Y-74871243D01*
X146073543Y-74650087D01*
X146093498Y-74422000D01*
X146092352Y-74408906D01*
X146079990Y-74267606D01*
X146073543Y-74193913D01*
X146014284Y-73972757D01*
X145917523Y-73765251D01*
X145786198Y-73577700D01*
X145624300Y-73415802D01*
X145616627Y-73410429D01*
X145573006Y-73355853D01*
X145565814Y-73286355D01*
X145597338Y-73224001D01*
X145657568Y-73188588D01*
X145674489Y-73185570D01*
X145689201Y-73183989D01*
X145826204Y-73132889D01*
X145943261Y-73045261D01*
X146030889Y-72928204D01*
X146081989Y-72791201D01*
X146088302Y-72732484D01*
X146088499Y-72730654D01*
X146088500Y-72730637D01*
X146088500Y-72639500D01*
X146108185Y-72572461D01*
X146160989Y-72526706D01*
X146212500Y-72515500D01*
X147839595Y-72515500D01*
X147839596Y-72515499D01*
X147961985Y-72491155D01*
X148077275Y-72443400D01*
X148181033Y-72374071D01*
X153683919Y-66871185D01*
X153745242Y-66837700D01*
X153814934Y-66842684D01*
X153859281Y-66871185D01*
X164660487Y-77672392D01*
X164693972Y-77733715D01*
X164688988Y-77803407D01*
X164654565Y-77853301D01*
X164482072Y-78004572D01*
X164286868Y-78227160D01*
X164122388Y-78473321D01*
X164122379Y-78473336D01*
X163991441Y-78738852D01*
X163991437Y-78738862D01*
X163896279Y-79019190D01*
X163896274Y-79019210D01*
X163838518Y-79309563D01*
X163838517Y-79309573D01*
X163838517Y-79309574D01*
X163819154Y-79605000D01*
X163834048Y-79832248D01*
X163838517Y-79900424D01*
X163838518Y-79900436D01*
X163896274Y-80190789D01*
X163896279Y-80190809D01*
X163991437Y-80471137D01*
X163991441Y-80471147D01*
X164122379Y-80736663D01*
X164122388Y-80736678D01*
X164286868Y-80982839D01*
X164482072Y-81205427D01*
X164567679Y-81280502D01*
X164704662Y-81400633D01*
X164950827Y-81565115D01*
X164950830Y-81565116D01*
X164950836Y-81565120D01*
X165216352Y-81696058D01*
X165216362Y-81696062D01*
X165496690Y-81791220D01*
X165496694Y-81791221D01*
X165496703Y-81791224D01*
X165692993Y-81830269D01*
X165787063Y-81848981D01*
X165787064Y-81848981D01*
X165787074Y-81848983D01*
X166082500Y-81868346D01*
X166377926Y-81848983D01*
X166668297Y-81791224D01*
X166763574Y-81758882D01*
X166948637Y-81696062D01*
X166948647Y-81696058D01*
X167214163Y-81565120D01*
X167214163Y-81565119D01*
X167214173Y-81565115D01*
X167460338Y-81400633D01*
X167682927Y-81205427D01*
X167878133Y-80982838D01*
X168042615Y-80736673D01*
X168173559Y-80471145D01*
X168225778Y-80317314D01*
X168268720Y-80190809D01*
X168268720Y-80190808D01*
X168268724Y-80190797D01*
X168326483Y-79900426D01*
X168345846Y-79605000D01*
X168326483Y-79309574D01*
X168315030Y-79251999D01*
X168290616Y-79129259D01*
X168268724Y-79019203D01*
X168268720Y-79019190D01*
X168173562Y-78738862D01*
X168173558Y-78738852D01*
X168042620Y-78473336D01*
X168042611Y-78473321D01*
X167974820Y-78371865D01*
X167878133Y-78227162D01*
X167824311Y-78165790D01*
X167682927Y-78004572D01*
X167460339Y-77809368D01*
X167455753Y-77806304D01*
X167338917Y-77728236D01*
X167214178Y-77644888D01*
X167214163Y-77644879D01*
X166948647Y-77513941D01*
X166948637Y-77513937D01*
X166668309Y-77418779D01*
X166668289Y-77418774D01*
X166377936Y-77361018D01*
X166377909Y-77361015D01*
X166170868Y-77347445D01*
X166105259Y-77323418D01*
X166091297Y-77311392D01*
X160505671Y-71725766D01*
X154903084Y-66123180D01*
X154869600Y-66061858D01*
X154874584Y-65992166D01*
X154916456Y-65936233D01*
X154981920Y-65911816D01*
X154990766Y-65911500D01*
X157420234Y-65911500D01*
X157487273Y-65931185D01*
X157507915Y-65947819D01*
X171796181Y-80236085D01*
X171829666Y-80297408D01*
X171832500Y-80323766D01*
X171832500Y-87316233D01*
X171812815Y-87383272D01*
X171796181Y-87403914D01*
X167413915Y-91786181D01*
X167352592Y-91819666D01*
X167326234Y-91822500D01*
X163259601Y-91822500D01*
X163137222Y-91846843D01*
X163137214Y-91846845D01*
X163021927Y-91894598D01*
X163021918Y-91894603D01*
X162918167Y-91963928D01*
X162918163Y-91963931D01*
X156491915Y-98390181D01*
X156430592Y-98423666D01*
X156404234Y-98426500D01*
X147678690Y-98426500D01*
X147611651Y-98406815D01*
X147577115Y-98373623D01*
X147575059Y-98370687D01*
X147502681Y-98267319D01*
X147502679Y-98267316D01*
X147350682Y-98115319D01*
X147174601Y-97992026D01*
X147174597Y-97992024D01*
X147174595Y-97992023D01*
X146979777Y-97901178D01*
X146979774Y-97901177D01*
X146979772Y-97901176D01*
X146772144Y-97845542D01*
X146772136Y-97845541D01*
X146558002Y-97826807D01*
X146557998Y-97826807D01*
X146343863Y-97845541D01*
X146343855Y-97845542D01*
X146136227Y-97901176D01*
X146136221Y-97901179D01*
X145941405Y-97992023D01*
X145941403Y-97992024D01*
X145765316Y-98115320D01*
X145613320Y-98267316D01*
X145490024Y-98443403D01*
X145490023Y-98443405D01*
X145399179Y-98638221D01*
X145399176Y-98638227D01*
X145343542Y-98845855D01*
X145343541Y-98845863D01*
X145324807Y-99059998D01*
X145324807Y-99060001D01*
X145343541Y-99274136D01*
X145343542Y-99274144D01*
X145399176Y-99481772D01*
X145399177Y-99481774D01*
X145399178Y-99481777D01*
X145464285Y-99621400D01*
X145490024Y-99676597D01*
X145490026Y-99676601D01*
X145613319Y-99852682D01*
X145765317Y-100004680D01*
X145941398Y-100127973D01*
X145941400Y-100127974D01*
X145941403Y-100127976D01*
X146136223Y-100218822D01*
X146343858Y-100274458D01*
X146496816Y-100287840D01*
X146557998Y-100293193D01*
X146558000Y-100293193D01*
X146558002Y-100293193D01*
X146611535Y-100288509D01*
X146772142Y-100274458D01*
X146979777Y-100218822D01*
X147174597Y-100127976D01*
X147350681Y-100004681D01*
X147502681Y-99852681D01*
X147577115Y-99746376D01*
X147631691Y-99702752D01*
X147678690Y-99693500D01*
X156780395Y-99693500D01*
X156780396Y-99693499D01*
X156902785Y-99669155D01*
X157018075Y-99621400D01*
X157121833Y-99552071D01*
X158008904Y-98665000D01*
X163827672Y-98665000D01*
X163846962Y-98959312D01*
X163846964Y-98959324D01*
X163904501Y-99248584D01*
X163904505Y-99248599D01*
X163999312Y-99527888D01*
X164129758Y-99792406D01*
X164129765Y-99792419D01*
X164293623Y-100037649D01*
X164322905Y-100071040D01*
X165273997Y-99119947D01*
X165364005Y-99254653D01*
X165492847Y-99383495D01*
X165627550Y-99473501D01*
X164676458Y-100424593D01*
X164709850Y-100453876D01*
X164955080Y-100617734D01*
X164955093Y-100617741D01*
X165219611Y-100748187D01*
X165498900Y-100842994D01*
X165498915Y-100842998D01*
X165788175Y-100900535D01*
X165788187Y-100900537D01*
X166082500Y-100919827D01*
X166376812Y-100900537D01*
X166376824Y-100900535D01*
X166666084Y-100842998D01*
X166666099Y-100842994D01*
X166945388Y-100748187D01*
X167209906Y-100617741D01*
X167209919Y-100617734D01*
X167455148Y-100453877D01*
X167488539Y-100424593D01*
X166537448Y-99473501D01*
X166672153Y-99383495D01*
X166800995Y-99254653D01*
X166891001Y-99119948D01*
X167842093Y-100071039D01*
X167871377Y-100037648D01*
X168035234Y-99792419D01*
X168035241Y-99792406D01*
X168165687Y-99527888D01*
X168260494Y-99248599D01*
X168260498Y-99248584D01*
X168318035Y-98959324D01*
X168318037Y-98959312D01*
X168337327Y-98665000D01*
X168318037Y-98370687D01*
X168318035Y-98370675D01*
X168260498Y-98081415D01*
X168260494Y-98081400D01*
X168165687Y-97802111D01*
X168035241Y-97537593D01*
X168035234Y-97537580D01*
X167871376Y-97292350D01*
X167842093Y-97258958D01*
X166891001Y-98210050D01*
X166800995Y-98075347D01*
X166672153Y-97946505D01*
X166537448Y-97856497D01*
X167488540Y-96905405D01*
X167455149Y-96876123D01*
X167209919Y-96712265D01*
X167209906Y-96712258D01*
X166945388Y-96581812D01*
X166666099Y-96487005D01*
X166666084Y-96487001D01*
X166376824Y-96429464D01*
X166376812Y-96429462D01*
X166082500Y-96410172D01*
X165788187Y-96429462D01*
X165788175Y-96429464D01*
X165498915Y-96487001D01*
X165498900Y-96487005D01*
X165219611Y-96581812D01*
X164955093Y-96712258D01*
X164955080Y-96712265D01*
X164709846Y-96876126D01*
X164709839Y-96876131D01*
X164676459Y-96905403D01*
X164676459Y-96905405D01*
X165627551Y-97856497D01*
X165492847Y-97946505D01*
X165364005Y-98075347D01*
X165273997Y-98210051D01*
X164322905Y-97258959D01*
X164322903Y-97258959D01*
X164293631Y-97292339D01*
X164293626Y-97292346D01*
X164129765Y-97537580D01*
X164129758Y-97537593D01*
X163999312Y-97802111D01*
X163904505Y-98081400D01*
X163904501Y-98081415D01*
X163846964Y-98370675D01*
X163846962Y-98370687D01*
X163827672Y-98665000D01*
X158008904Y-98665000D01*
X163548085Y-93125819D01*
X163609408Y-93092334D01*
X163635766Y-93089500D01*
X167702395Y-93089500D01*
X167702396Y-93089499D01*
X167824785Y-93065155D01*
X167940075Y-93017400D01*
X168043833Y-92948071D01*
X172958072Y-88033833D01*
X173027401Y-87930075D01*
X173062634Y-87845013D01*
X173068563Y-87830699D01*
X173068592Y-87830627D01*
X173069469Y-87828510D01*
X173075155Y-87814785D01*
X173099500Y-87692394D01*
X173099500Y-79947606D01*
X173075155Y-79825215D01*
X173027400Y-79709925D01*
X173027399Y-79709924D01*
X173027396Y-79709918D01*
X172958072Y-79606168D01*
X172918289Y-79566385D01*
X172869833Y-79517929D01*
X172869832Y-79517928D01*
X165509562Y-72157658D01*
X158137836Y-64785931D01*
X158137832Y-64785928D01*
X158034081Y-64716603D01*
X158034072Y-64716598D01*
X157918785Y-64668845D01*
X157918777Y-64668843D01*
X157796398Y-64644500D01*
X157796394Y-64644500D01*
X114237606Y-64644500D01*
X114237602Y-64644500D01*
X114115219Y-64668843D01*
X114115214Y-64668845D01*
X114081448Y-64682829D01*
X114081449Y-64682830D01*
X113999926Y-64716598D01*
X113999922Y-64716600D01*
X113896171Y-64785924D01*
X113896163Y-64785930D01*
X109026260Y-69655836D01*
X108054167Y-70627929D01*
X108010047Y-70672049D01*
X107965927Y-70716168D01*
X107896603Y-70819918D01*
X107896598Y-70819927D01*
X107848845Y-70935214D01*
X107848843Y-70935222D01*
X107824500Y-71057601D01*
X99996120Y-71057601D01*
X99995800Y-64908285D01*
X99995820Y-64906075D01*
X99997963Y-64785924D01*
X99998091Y-64778718D01*
X99999332Y-64763301D01*
X100035743Y-64510051D01*
X100039504Y-64492766D01*
X100111270Y-64248353D01*
X100117448Y-64231789D01*
X100223274Y-64000063D01*
X100231744Y-63984553D01*
X100369469Y-63770248D01*
X100380055Y-63756106D01*
X100546886Y-63563572D01*
X100559372Y-63551086D01*
X100751906Y-63384255D01*
X100766048Y-63373669D01*
X100980353Y-63235944D01*
X100995863Y-63227474D01*
X101227589Y-63121648D01*
X101244153Y-63115470D01*
X101488570Y-63043702D01*
X101505851Y-63039943D01*
X101759101Y-63003532D01*
X101774517Y-63002291D01*
X101901990Y-63000018D01*
X101903982Y-62999999D01*
X172841713Y-62995800D01*
X172843918Y-62995819D01*
G37*
G04 #@! TD.AperFunction*
M02*
