G04 #@! TF.GenerationSoftware,KiCad,Pcbnew,8.0.4*
G04 #@! TF.CreationDate,2024-09-09T14:04:52-07:00*
G04 #@! TF.ProjectId,Bottom_Board,426f7474-6f6d-45f4-926f-6172642e6b69,0*
G04 #@! TF.SameCoordinates,Original*
G04 #@! TF.FileFunction,Soldermask,Top*
G04 #@! TF.FilePolarity,Negative*
%FSLAX46Y46*%
G04 Gerber Fmt 4.6, Leading zero omitted, Abs format (unit mm)*
G04 Created by KiCad (PCBNEW 8.0.4) date 2024-09-09 14:04:52*
%MOMM*%
%LPD*%
G01*
G04 APERTURE LIST*
%ADD10R,1.600000X1.600000*%
%ADD11O,1.600000X1.600000*%
%ADD12R,2.000000X2.000000*%
%ADD13C,2.000000*%
%ADD14C,3.000000*%
%ADD15C,1.700000*%
%ADD16O,1.700000X1.700000*%
%ADD17C,1.440000*%
%ADD18R,1.700000X1.700000*%
%ADD19C,3.500000*%
G04 APERTURE END LIST*
D10*
X144780000Y-71882000D03*
D11*
X144780000Y-74422000D03*
X144780000Y-76962000D03*
X144780000Y-79502000D03*
X152400000Y-79502000D03*
X152400000Y-76962000D03*
X152400000Y-74422000D03*
X152400000Y-71882000D03*
D12*
X149270323Y-127508000D03*
D13*
X144270323Y-127508000D03*
D14*
X161950000Y-119246000D03*
X161950000Y-126746000D03*
X161950000Y-134246000D03*
X159450000Y-121746000D03*
X159450000Y-131746000D03*
X171450000Y-121746000D03*
X171450000Y-131746000D03*
D12*
X149352000Y-139446000D03*
D13*
X144352000Y-139446000D03*
D15*
X123698000Y-68326000D03*
D16*
X121158000Y-68326000D03*
X123698000Y-70866000D03*
X121158000Y-70866000D03*
X123698000Y-73406000D03*
X121158000Y-73406000D03*
D14*
X136398000Y-122682000D03*
D15*
X123698000Y-137160000D03*
D16*
X121158000Y-137160000D03*
X123698000Y-139700000D03*
X121158000Y-139700000D03*
X123698000Y-142240000D03*
X121158000Y-142240000D03*
D17*
X146573000Y-116586000D03*
X149113000Y-114046000D03*
X146573000Y-111506000D03*
D18*
X137399000Y-68580000D03*
D16*
X134859000Y-68580000D03*
X132319000Y-68580000D03*
D14*
X136144000Y-80010000D03*
D19*
X166082500Y-108195000D03*
X166082500Y-98665000D03*
X166082500Y-89135000D03*
X166082500Y-79605000D03*
D17*
X146558000Y-104140000D03*
X149098000Y-101600000D03*
X146558000Y-99060000D03*
M02*
