M48
; DRILL file {KiCad 8.0.4} date 2024-09-09T14:33:11-0700
; FORMAT={-:-/ absolute / inch / decimal}
; #@! TF.CreationDate,2024-09-09T14:33:11-07:00
; #@! TF.GenerationSoftware,Kicad,Pcbnew,8.0.4
; #@! TF.FileFunction,Plated,1,2,PTH
FMAT,2
INCH
; #@! TA.AperFunction,Plated,PTH,ViaDrill
T1C0.0157
; #@! TA.AperFunction,Plated,PTH,ComponentDrill
T2C0.0394
%
G90
G05
T1
X6.25Y-4.08
X6.35Y-4.06
X7.15Y-4.01
T2
X4.5506Y-3.7876
X4.5506Y-3.8876
X4.6506Y-3.7876
X4.6506Y-3.8876
X4.7506Y-3.7876
X4.7506Y-3.8876
X5.65Y-3.3499
X5.65Y-4.25
X5.75Y-3.3499
X5.75Y-4.25
X5.85Y-3.3499
X5.85Y-4.25
X5.95Y-3.3499
X5.95Y-4.25
X6.05Y-3.3499
X6.05Y-4.25
X6.15Y-3.3499
X6.15Y-4.25
X6.25Y-3.3499
X6.25Y-4.25
X6.35Y-3.3499
X6.35Y-4.25
X6.45Y-3.3499
X6.45Y-4.25
X6.55Y-3.3499
X6.55Y-4.25
X6.65Y-3.3499
X6.65Y-4.25
X6.75Y-3.3499
X6.75Y-4.25
X7.26Y-3.78
X7.26Y-3.88
X7.36Y-3.78
X7.36Y-3.88
X7.46Y-3.78
X7.46Y-3.88
M30
