%TF.GenerationSoftware,KiCad,Pcbnew,(7.0.0)*%
%TF.CreationDate,2024-02-23T19:06:02-08:00*%
%TF.ProjectId,Bottom_Board,426f7474-6f6d-45f4-926f-6172642e6b69,0*%
%TF.SameCoordinates,Original*%
%TF.FileFunction,Soldermask,Top*%
%TF.FilePolarity,Negative*%
%FSLAX46Y46*%
G04 Gerber Fmt 4.6, Leading zero omitted, Abs format (unit mm)*
G04 Created by KiCad (PCBNEW (7.0.0)) date 2024-02-23 19:06:02*
%MOMM*%
%LPD*%
G01*
G04 APERTURE LIST*
%ADD10C,1.700000*%
%ADD11O,1.700000X1.700000*%
%ADD12C,1.440000*%
%ADD13C,3.500000*%
%ADD14C,3.000000*%
%ADD15R,1.600000X1.600000*%
%ADD16O,1.600000X1.600000*%
%ADD17R,2.000000X2.000000*%
%ADD18C,2.000000*%
%ADD19R,1.700000X1.700000*%
G04 APERTURE END LIST*
D10*
%TO.C,J1*%
X123698000Y-68326000D03*
D11*
X121157999Y-68325999D03*
X123697999Y-70865999D03*
X121157999Y-70865999D03*
X123697999Y-73405999D03*
X121157999Y-73405999D03*
%TD*%
D10*
%TO.C,J5*%
X123698000Y-137160000D03*
D11*
X121157999Y-137159999D03*
X123697999Y-139699999D03*
X121157999Y-139699999D03*
X123697999Y-142239999D03*
X121157999Y-142239999D03*
%TD*%
D12*
%TO.C,RV1*%
X146558000Y-104140000D03*
X149098000Y-101600000D03*
X146558000Y-99060000D03*
%TD*%
%TO.C,RV2*%
X146573000Y-116586000D03*
X149113000Y-114046000D03*
X146573000Y-111506000D03*
%TD*%
D13*
%TO.C,J3*%
X166082500Y-108195000D03*
X166082500Y-98665000D03*
X166082500Y-89135000D03*
X166082500Y-79605000D03*
%TD*%
D14*
%TO.C,TP2*%
X136398000Y-122682000D03*
%TD*%
%TO.C,TP1*%
X136144000Y-80010000D03*
%TD*%
D15*
%TO.C,SW1*%
X144779999Y-71881999D03*
D16*
X144779999Y-74421999D03*
X144779999Y-76961999D03*
X144779999Y-79501999D03*
X152399999Y-79501999D03*
X152399999Y-76961999D03*
X152399999Y-74421999D03*
X152399999Y-71881999D03*
%TD*%
D17*
%TO.C,C1*%
X149270322Y-127507999D03*
D18*
X144270323Y-127508000D03*
%TD*%
D14*
%TO.C,J4*%
X161950000Y-119246000D03*
X161950000Y-126746000D03*
X161950000Y-134246000D03*
X159450000Y-121746000D03*
X159450000Y-131746000D03*
X171450000Y-121746000D03*
X171450000Y-131746000D03*
%TD*%
D17*
%TO.C,C2*%
X149351999Y-139445999D03*
D18*
X144352000Y-139446000D03*
%TD*%
D19*
%TO.C,J2*%
X137398999Y-68579999D03*
D11*
X134858999Y-68579999D03*
X132318999Y-68579999D03*
%TD*%
M02*
