M48
; DRILL file {KiCad (7.0.0)} date Fri Feb 23 19:05:56 2024
; FORMAT={-:-/ absolute / inch / decimal}
; #@! TF.CreationDate,2024-02-23T19:05:56-08:00
; #@! TF.GenerationSoftware,Kicad,Pcbnew,(7.0.0)
; #@! TF.FileFunction,Plated,1,2,PTH
FMAT,2
INCH
; #@! TA.AperFunction,Plated,PTH,ViaDrill
T1C0.0157
; #@! TA.AperFunction,Plated,PTH,ComponentDrill
T2C0.0315
; #@! TA.AperFunction,Plated,PTH,ComponentDrill
T3C0.0394
; #@! TA.AperFunction,Plated,PTH,ComponentDrill
T4C0.0591
; #@! TA.AperFunction,Plated,PTH,ComponentDrill
T5C0.0669
; #@! TA.AperFunction,Plated,PTH,ComponentDrill
T6C0.0728
%
G90
G05
T1
X4.14Y-4.82
X4.46Y-3.6
X4.47Y-3.75
X4.564Y-4.382
X4.598Y-3.62
X4.77Y-3.25
X4.87Y-4.94
X4.87Y-5.04
X4.904Y-4.383
X4.941Y-3.619
X4.965Y-3.845
X5.01Y-3.61
X5.04Y-4.31
X5.06Y-4.26
X5.09Y-4.69
X5.12Y-4.01
X5.17Y-4.74
X5.24Y-4.22
X5.278Y-3.728
X5.3Y-3.53
X5.33Y-3.31
X5.4Y-3.61
X5.4Y-3.68
X5.68Y-3.74
T2
X5.7Y-2.83
X5.7Y-2.93
X5.7Y-3.03
X5.7Y-3.13
X5.77Y-3.9
X5.77Y-4.1
X5.7706Y-4.39
X5.7706Y-4.59
X5.87Y-4.0
X5.8706Y-4.49
X6.0Y-2.83
X6.0Y-2.93
X6.0Y-3.03
X6.0Y-3.13
T3
X4.77Y-2.69
X4.77Y-2.79
X4.77Y-2.89
X4.77Y-5.4
X4.77Y-5.5
X4.77Y-5.6
X4.87Y-2.69
X4.87Y-2.79
X4.87Y-2.89
X4.87Y-5.4
X4.87Y-5.5
X4.87Y-5.6
X5.2094Y-2.7
X5.3094Y-2.7
X5.4094Y-2.7
X5.6799Y-5.02
X5.6831Y-5.49
X5.8768Y-5.02
X5.88Y-5.49
T4
X5.36Y-3.15
X5.37Y-4.83
T5
X6.2776Y-4.7931
X6.2776Y-5.1869
X6.376Y-4.6947
X6.376Y-4.99
X6.376Y-5.2853
X6.75Y-4.7931
X6.75Y-5.1869
T6
X6.5387Y-3.1341
X6.5387Y-3.5093
X6.5387Y-3.8844
X6.5387Y-4.2596
T0
M30
