%TF.GenerationSoftware,KiCad,Pcbnew,(7.0.0)*%
%TF.CreationDate,2024-02-24T11:01:10-08:00*%
%TF.ProjectId,Bottom_Board,426f7474-6f6d-45f4-926f-6172642e6b69,0*%
%TF.SameCoordinates,Original*%
%TF.FileFunction,Copper,L1,Top*%
%TF.FilePolarity,Positive*%
%FSLAX46Y46*%
G04 Gerber Fmt 4.6, Leading zero omitted, Abs format (unit mm)*
G04 Created by KiCad (PCBNEW (7.0.0)) date 2024-02-24 11:01:10*
%MOMM*%
%LPD*%
G01*
G04 APERTURE LIST*
%ADD10C,0.300000*%
%TA.AperFunction,NonConductor*%
%ADD11C,0.300000*%
%TD*%
%TA.AperFunction,NonConductor*%
%ADD12C,0.200000*%
%TD*%
%TA.AperFunction,ComponentPad*%
%ADD13O,1.700000X1.700000*%
%TD*%
%TA.AperFunction,ComponentPad*%
%ADD14C,1.700000*%
%TD*%
%TA.AperFunction,ComponentPad*%
%ADD15C,2.000000*%
%TD*%
%TA.AperFunction,ComponentPad*%
%ADD16R,2.000000X2.000000*%
%TD*%
%TA.AperFunction,ComponentPad*%
%ADD17C,3.000000*%
%TD*%
%TA.AperFunction,ComponentPad*%
%ADD18C,1.440000*%
%TD*%
%TA.AperFunction,ComponentPad*%
%ADD19R,1.700000X1.700000*%
%TD*%
%TA.AperFunction,ComponentPad*%
%ADD20R,1.600000X1.600000*%
%TD*%
%TA.AperFunction,ComponentPad*%
%ADD21O,1.600000X1.600000*%
%TD*%
%TA.AperFunction,ComponentPad*%
%ADD22C,3.500000*%
%TD*%
%TA.AperFunction,ViaPad*%
%ADD23C,0.800000*%
%TD*%
%TA.AperFunction,Conductor*%
%ADD24C,0.250000*%
%TD*%
G04 APERTURE END LIST*
D10*
D11*
X207197928Y-110284570D02*
X207126500Y-110213142D01*
X207126500Y-110213142D02*
X207055071Y-110070285D01*
X207055071Y-110070285D02*
X207055071Y-109713142D01*
X207055071Y-109713142D02*
X207126500Y-109570285D01*
X207126500Y-109570285D02*
X207197928Y-109498856D01*
X207197928Y-109498856D02*
X207340785Y-109427427D01*
X207340785Y-109427427D02*
X207483642Y-109427427D01*
X207483642Y-109427427D02*
X207697928Y-109498856D01*
X207697928Y-109498856D02*
X208555071Y-110355999D01*
X208555071Y-110355999D02*
X208555071Y-109427427D01*
X208412214Y-108784571D02*
X208483642Y-108713142D01*
X208483642Y-108713142D02*
X208555071Y-108784571D01*
X208555071Y-108784571D02*
X208483642Y-108855999D01*
X208483642Y-108855999D02*
X208412214Y-108784571D01*
X208412214Y-108784571D02*
X208555071Y-108784571D01*
X207055071Y-108213142D02*
X207055071Y-107213142D01*
X207055071Y-107213142D02*
X208555071Y-107855999D01*
X207055071Y-106355999D02*
X207055071Y-106213142D01*
X207055071Y-106213142D02*
X207126500Y-106070285D01*
X207126500Y-106070285D02*
X207197928Y-105998857D01*
X207197928Y-105998857D02*
X207340785Y-105927428D01*
X207340785Y-105927428D02*
X207626500Y-105855999D01*
X207626500Y-105855999D02*
X207983642Y-105855999D01*
X207983642Y-105855999D02*
X208269357Y-105927428D01*
X208269357Y-105927428D02*
X208412214Y-105998857D01*
X208412214Y-105998857D02*
X208483642Y-106070285D01*
X208483642Y-106070285D02*
X208555071Y-106213142D01*
X208555071Y-106213142D02*
X208555071Y-106355999D01*
X208555071Y-106355999D02*
X208483642Y-106498857D01*
X208483642Y-106498857D02*
X208412214Y-106570285D01*
X208412214Y-106570285D02*
X208269357Y-106641714D01*
X208269357Y-106641714D02*
X207983642Y-106713142D01*
X207983642Y-106713142D02*
X207626500Y-106713142D01*
X207626500Y-106713142D02*
X207340785Y-106641714D01*
X207340785Y-106641714D02*
X207197928Y-106570285D01*
X207197928Y-106570285D02*
X207126500Y-106498857D01*
X207126500Y-106498857D02*
X207055071Y-106355999D01*
X207055071Y-104927428D02*
X207055071Y-104784571D01*
X207055071Y-104784571D02*
X207126500Y-104641714D01*
X207126500Y-104641714D02*
X207197928Y-104570286D01*
X207197928Y-104570286D02*
X207340785Y-104498857D01*
X207340785Y-104498857D02*
X207626500Y-104427428D01*
X207626500Y-104427428D02*
X207983642Y-104427428D01*
X207983642Y-104427428D02*
X208269357Y-104498857D01*
X208269357Y-104498857D02*
X208412214Y-104570286D01*
X208412214Y-104570286D02*
X208483642Y-104641714D01*
X208483642Y-104641714D02*
X208555071Y-104784571D01*
X208555071Y-104784571D02*
X208555071Y-104927428D01*
X208555071Y-104927428D02*
X208483642Y-105070286D01*
X208483642Y-105070286D02*
X208412214Y-105141714D01*
X208412214Y-105141714D02*
X208269357Y-105213143D01*
X208269357Y-105213143D02*
X207983642Y-105284571D01*
X207983642Y-105284571D02*
X207626500Y-105284571D01*
X207626500Y-105284571D02*
X207340785Y-105213143D01*
X207340785Y-105213143D02*
X207197928Y-105141714D01*
X207197928Y-105141714D02*
X207126500Y-105070286D01*
X207126500Y-105070286D02*
X207055071Y-104927428D01*
X207055071Y-103498857D02*
X207055071Y-103356000D01*
X207055071Y-103356000D02*
X207126500Y-103213143D01*
X207126500Y-103213143D02*
X207197928Y-103141715D01*
X207197928Y-103141715D02*
X207340785Y-103070286D01*
X207340785Y-103070286D02*
X207626500Y-102998857D01*
X207626500Y-102998857D02*
X207983642Y-102998857D01*
X207983642Y-102998857D02*
X208269357Y-103070286D01*
X208269357Y-103070286D02*
X208412214Y-103141715D01*
X208412214Y-103141715D02*
X208483642Y-103213143D01*
X208483642Y-103213143D02*
X208555071Y-103356000D01*
X208555071Y-103356000D02*
X208555071Y-103498857D01*
X208555071Y-103498857D02*
X208483642Y-103641715D01*
X208483642Y-103641715D02*
X208412214Y-103713143D01*
X208412214Y-103713143D02*
X208269357Y-103784572D01*
X208269357Y-103784572D02*
X207983642Y-103856000D01*
X207983642Y-103856000D02*
X207626500Y-103856000D01*
X207626500Y-103856000D02*
X207340785Y-103784572D01*
X207340785Y-103784572D02*
X207197928Y-103713143D01*
X207197928Y-103713143D02*
X207126500Y-103641715D01*
X207126500Y-103641715D02*
X207055071Y-103498857D01*
X208555071Y-101456001D02*
X207555071Y-101456001D01*
X207055071Y-101456001D02*
X207126500Y-101527429D01*
X207126500Y-101527429D02*
X207197928Y-101456001D01*
X207197928Y-101456001D02*
X207126500Y-101384572D01*
X207126500Y-101384572D02*
X207055071Y-101456001D01*
X207055071Y-101456001D02*
X207197928Y-101456001D01*
X207555071Y-100741715D02*
X208555071Y-100741715D01*
X207697928Y-100741715D02*
X207626500Y-100670286D01*
X207626500Y-100670286D02*
X207555071Y-100527429D01*
X207555071Y-100527429D02*
X207555071Y-100313143D01*
X207555071Y-100313143D02*
X207626500Y-100170286D01*
X207626500Y-100170286D02*
X207769357Y-100098858D01*
X207769357Y-100098858D02*
X208555071Y-100098858D01*
D12*
X179824000Y-70866000D02*
X210390420Y-70866000D01*
X179824000Y-139446000D02*
X210390420Y-139446000D01*
X209804000Y-70866000D02*
X209804000Y-139446000D01*
X209804000Y-70866000D02*
X209804000Y-139446000D01*
X209804000Y-70866000D02*
X210390421Y-71992504D01*
X209804000Y-70866000D02*
X209217579Y-71992504D01*
X209804000Y-139446000D02*
X209217579Y-138319496D01*
X209804000Y-139446000D02*
X210390421Y-138319496D01*
D13*
%TO.P,J8,4,Pin_4*%
%TO.N,AN3*%
X139064999Y-76209999D03*
%TO.P,J8,3,Pin_3*%
%TO.N,AN2*%
X139064999Y-73669999D03*
%TO.P,J8,2,Pin_2*%
%TO.N,AN1*%
X139064999Y-71129999D03*
D14*
%TO.P,J8,1,Pin_1*%
%TO.N,AN0*%
X139065000Y-68590000D03*
%TD*%
D15*
%TO.P,C2,2*%
%TO.N,AN1*%
X144270323Y-127508000D03*
D16*
%TO.P,C2,1*%
%TO.N,5V*%
X149270322Y-127507999D03*
%TD*%
D17*
%TO.P,J5,1*%
%TO.N,AN1*%
X162142948Y-119288289D03*
%TO.P,J5,2*%
X162142948Y-126788289D03*
%TO.P,J5,3*%
%TO.N,5V*%
X162142948Y-134288289D03*
%TO.P,J5,4*%
%TO.N,-5V*%
X159642948Y-121788289D03*
%TO.P,J5,5*%
%TO.N,12V*%
X159642948Y-131788289D03*
%TO.P,J5,6*%
%TO.N,N/C*%
X171642948Y-121788289D03*
%TO.P,J5,7*%
X171642948Y-131788289D03*
%TD*%
D16*
%TO.P,C3,1*%
%TO.N,5V*%
X149351999Y-139445999D03*
D15*
%TO.P,C3,2*%
%TO.N,AN1*%
X144352000Y-139446000D03*
%TD*%
D14*
%TO.P,J2,1,Pin_1*%
%TO.N,AN0*%
X123698000Y-68326000D03*
D13*
%TO.P,J2,2,Pin_2*%
%TO.N,AN1*%
X121157999Y-68325999D03*
%TO.P,J2,3,Pin_3*%
X123697999Y-70865999D03*
%TO.P,J2,4,Pin_4*%
%TO.N,5V*%
X121157999Y-70865999D03*
%TO.P,J2,5,Pin_5*%
%TO.N,AN2*%
X123697999Y-73405999D03*
%TO.P,J2,6,Pin_6*%
%TO.N,AN3*%
X121157999Y-73405999D03*
%TD*%
D17*
%TO.P,TP2,1,1*%
%TO.N,Net-(C4-Pad1)*%
X136398000Y-122682000D03*
%TD*%
D14*
%TO.P,J1,1,Pin_1*%
%TO.N,D17*%
X123698000Y-137160000D03*
D13*
%TO.P,J1,2,Pin_2*%
%TO.N,D43*%
X121157999Y-137159999D03*
%TO.P,J1,3,Pin_3*%
%TO.N,D11*%
X123697999Y-139699999D03*
%TO.P,J1,4,Pin_4*%
%TO.N,D44*%
X121157999Y-139699999D03*
%TO.P,J1,5,Pin_5*%
%TO.N,D10*%
X123697999Y-142239999D03*
%TO.P,J1,6,Pin_6*%
%TO.N,D18*%
X121157999Y-142239999D03*
%TD*%
D18*
%TO.P,RV2,1,1*%
%TO.N,Net-(R15-Pad2)*%
X146573000Y-116586000D03*
%TO.P,RV2,2,2*%
%TO.N,Net-(R25-Pad2)*%
X149113000Y-114046000D03*
%TO.P,RV2,3,3*%
%TO.N,Net-(R18-Pad1)*%
X146573000Y-111506000D03*
%TD*%
D19*
%TO.P,J6,1,Pin_1*%
%TO.N,AN1*%
X135381999Y-133603999D03*
D13*
%TO.P,J6,2,Pin_2*%
%TO.N,D11*%
X132841999Y-133603999D03*
%TD*%
D20*
%TO.P,SW2,1*%
%TO.N,D43*%
X144822499Y-71891999D03*
D21*
%TO.P,SW2,2*%
%TO.N,D44*%
X144822499Y-74431999D03*
%TO.P,SW2,3*%
%TO.N,D18*%
X144822499Y-76971999D03*
%TO.P,SW2,4*%
%TO.N,D10*%
X144822499Y-79511999D03*
%TO.P,SW2,5*%
%TO.N,AN1*%
X152442499Y-79511999D03*
%TO.P,SW2,6*%
X152442499Y-76971999D03*
%TO.P,SW2,7*%
X152442499Y-74431999D03*
%TO.P,SW2,8*%
X152442499Y-71891999D03*
%TD*%
D19*
%TO.P,J3,1,Pin_1*%
%TO.N,AN1*%
X135381999Y-138351999D03*
D13*
%TO.P,J3,2,Pin_2*%
%TO.N,D10*%
X132841999Y-138351999D03*
%TD*%
D17*
%TO.P,TP1,1,1*%
%TO.N,Net-(U1D--)*%
X136144000Y-80010000D03*
%TD*%
D22*
%TO.P,J9,1,Pin_1*%
%TO.N,AN1*%
X166082500Y-106934000D03*
%TO.P,J9,2,Pin_2*%
X166082500Y-97404000D03*
%TO.P,J9,3,Pin_3*%
X166082500Y-87874000D03*
%TO.P,J9,4,Pin_4*%
%TO.N,E23_INPUT*%
X166082500Y-78344000D03*
%TD*%
D18*
%TO.P,RV1,1,1*%
%TO.N,Net-(R2-Pad1)*%
X146558000Y-104140000D03*
%TO.P,RV1,2,2*%
%TO.N,Net-(R6-Pad2)*%
X149098000Y-101600000D03*
%TO.P,RV1,3,3*%
%TO.N,Net-(R3-Pad2)*%
X146558000Y-99060000D03*
%TD*%
D19*
%TO.P,JP1,1,A*%
%TO.N,2x_OUTPUT*%
X135381999Y-110743999D03*
D13*
%TO.P,JP1,2,C*%
%TO.N,AN0*%
X135381999Y-113283999D03*
%TO.P,JP1,3,B*%
%TO.N,4x_OUTPUT*%
X135381999Y-115823999D03*
%TD*%
D19*
%TO.P,J7,1,Pin_1*%
%TO.N,AN1*%
X135381999Y-129031999D03*
D13*
%TO.P,J7,2,Pin_2*%
%TO.N,D17*%
X132841999Y-129031999D03*
%TD*%
D23*
%TO.N,AN1*%
X106426000Y-99060000D03*
X109982000Y-99060000D03*
X145034000Y-89662000D03*
X139192000Y-89662000D03*
X133096000Y-107188000D03*
X130048000Y-101854000D03*
%TO.N,Net-(C4-Pad2)*%
X129286000Y-119126000D03*
X128016000Y-109474000D03*
%TO.N,Net-(U1C--)*%
X113538000Y-95250000D03*
X113284000Y-91440000D03*
X135382000Y-84074000D03*
X121158000Y-82550000D03*
%TO.N,Net-(C8-Pad2)*%
X134620000Y-89662000D03*
X127254000Y-91694000D03*
%TO.N,Net-(R2-Pad1)*%
X137160000Y-91694000D03*
%TO.N,-5V*%
X115925600Y-111302800D03*
X116789200Y-91948000D03*
%TO.N,Net-(R6-Pad2)*%
X141224000Y-93980000D03*
%TO.N,Net-(R25-Pad2)*%
X126111000Y-97663000D03*
%TO.N,Net-(R15-Pad2)*%
X137160000Y-93472000D03*
%TO.N,5V*%
X134061200Y-94691200D03*
X125501400Y-91922600D03*
X124561600Y-111328200D03*
%TD*%
D24*
%TO.N,AN1*%
X109982000Y-99060000D02*
X106426000Y-99060000D01*
X139192000Y-89662000D02*
X145034000Y-89662000D01*
X166082500Y-97404000D02*
X166082500Y-87874000D01*
%TO.N,-5V*%
X157800659Y-119946000D02*
X159642948Y-121788289D01*
X134932000Y-119946000D02*
X157800659Y-119946000D01*
X131064000Y-106222800D02*
X131064000Y-116078000D01*
X131064000Y-116078000D02*
X134932000Y-119946000D01*
X126974600Y-102133400D02*
X131064000Y-106222800D01*
%TO.N,AN3*%
X121158000Y-74168000D02*
X124206000Y-77216000D01*
X136408000Y-76210000D02*
X139065000Y-76210000D01*
X133350000Y-77216000D02*
X134366000Y-76200000D01*
X136398000Y-76200000D02*
X136408000Y-76210000D01*
X124206000Y-77216000D02*
X133350000Y-77216000D01*
X134366000Y-76200000D02*
X136398000Y-76200000D01*
X121158000Y-73406000D02*
X121158000Y-74168000D01*
%TO.N,AN2*%
X136408000Y-73670000D02*
X139065000Y-73670000D01*
X123952000Y-73660000D02*
X136398000Y-73660000D01*
X123698000Y-73406000D02*
X123952000Y-73660000D01*
X136398000Y-73660000D02*
X136408000Y-73670000D01*
%TO.N,AN1*%
X123952000Y-71120000D02*
X140208000Y-71120000D01*
X152442500Y-79512000D02*
X152442500Y-76972000D01*
X150908500Y-70358000D02*
X140970000Y-70358000D01*
X123952000Y-71120000D02*
X123698000Y-70866000D01*
X152442500Y-74432000D02*
X152442500Y-71892000D01*
X133096000Y-106680000D02*
X133096000Y-107188000D01*
X152442500Y-76972000D02*
X152442500Y-74432000D01*
X130048000Y-103632000D02*
X133096000Y-106680000D01*
X140970000Y-70358000D02*
X140208000Y-71120000D01*
X152442500Y-71892000D02*
X150908500Y-70358000D01*
X130048000Y-101854000D02*
X130048000Y-103632000D01*
%TO.N,D43*%
X156972000Y-87804000D02*
X159316000Y-85460000D01*
X170862000Y-72818000D02*
X172488000Y-74444000D01*
X168148000Y-144782792D02*
X166430792Y-146500000D01*
X151558000Y-87804000D02*
X156972000Y-87804000D01*
X168148000Y-119634000D02*
X168148000Y-144782792D01*
X162003604Y-72818000D02*
X170862000Y-72818000D01*
X144822500Y-71892000D02*
X148082000Y-75151500D01*
X121608000Y-146500000D02*
X118676000Y-143568000D01*
X172488000Y-115294000D02*
X168148000Y-119634000D01*
X118676000Y-139642000D02*
X121158000Y-137160000D01*
X159316000Y-85460000D02*
X159316000Y-75505604D01*
X118676000Y-143568000D02*
X118676000Y-139642000D01*
X148082000Y-75151500D02*
X148082000Y-84328000D01*
X148082000Y-84328000D02*
X151558000Y-87804000D01*
X159316000Y-75505604D02*
X162003604Y-72818000D01*
X166430792Y-146500000D02*
X121608000Y-146500000D01*
X172488000Y-74444000D02*
X172488000Y-115294000D01*
%TO.N,D44*%
X172038000Y-114982000D02*
X167640000Y-119380000D01*
X159766000Y-75692000D02*
X162190000Y-73268000D01*
X121920000Y-146050000D02*
X119126000Y-143256000D01*
X147355198Y-76964698D02*
X147355198Y-84292802D01*
X144822500Y-74432000D02*
X147355198Y-76964698D01*
X151316396Y-88254000D02*
X157235604Y-88254000D01*
X159766000Y-85723604D02*
X159766000Y-75692000D01*
X162190000Y-73268000D02*
X170552792Y-73268000D01*
X157235604Y-88254000D02*
X159766000Y-85723604D01*
X167640000Y-119380000D02*
X167640000Y-144654396D01*
X167640000Y-144654396D02*
X166244396Y-146050000D01*
X147355198Y-84292802D02*
X151316396Y-88254000D01*
X119126000Y-141732000D02*
X121158000Y-139700000D01*
X170552792Y-73268000D02*
X172038000Y-74753208D01*
X166244396Y-146050000D02*
X121920000Y-146050000D01*
X172038000Y-74753208D02*
X172038000Y-114982000D01*
X119126000Y-143256000D02*
X119126000Y-141732000D01*
%TO.N,D18*%
X171588000Y-114670000D02*
X167074000Y-119184000D01*
X171588000Y-74939604D02*
X171588000Y-114670000D01*
X157422000Y-88704000D02*
X160274000Y-85852000D01*
X162627604Y-73718000D02*
X170366396Y-73718000D01*
X146812000Y-84386000D02*
X151130000Y-88704000D01*
X166116000Y-145542000D02*
X123257919Y-145542000D01*
X144822500Y-76972000D02*
X146812000Y-78961500D01*
X151130000Y-88704000D02*
X157422000Y-88704000D01*
X121158000Y-143442081D02*
X121158000Y-142240000D01*
X170366396Y-73718000D02*
X171588000Y-74939604D01*
X160274000Y-76071604D02*
X162627604Y-73718000D01*
X167074000Y-144584000D02*
X166116000Y-145542000D01*
X160274000Y-85852000D02*
X160274000Y-76071604D01*
X146812000Y-78961500D02*
X146812000Y-84386000D01*
X123257919Y-145542000D02*
X121158000Y-143442081D01*
X167074000Y-119184000D02*
X167074000Y-144584000D01*
%TO.N,D10*%
X144822500Y-79512000D02*
X144822500Y-79544500D01*
X166624000Y-144018000D02*
X165862000Y-144780000D01*
X160782000Y-76200000D02*
X162814000Y-74168000D01*
X170180000Y-74168000D02*
X171138000Y-75126000D01*
X162814000Y-74168000D02*
X170180000Y-74168000D01*
X165862000Y-144780000D02*
X124206000Y-144780000D01*
X123698000Y-144272000D02*
X123698000Y-142240000D01*
X146050000Y-84582000D02*
X150622000Y-89154000D01*
X171138000Y-75126000D02*
X171138000Y-114358000D01*
X124206000Y-144780000D02*
X123698000Y-144272000D01*
X160782000Y-86106000D02*
X160782000Y-76200000D01*
X146050000Y-80772000D02*
X146050000Y-84582000D01*
X157734000Y-89154000D02*
X160782000Y-86106000D01*
X144822500Y-79544500D02*
X146050000Y-80772000D01*
X150622000Y-89154000D02*
X157734000Y-89154000D01*
X171138000Y-114358000D02*
X166624000Y-118872000D01*
X166624000Y-118872000D02*
X166624000Y-144018000D01*
%TO.N,Net-(C4-Pad2)*%
X129286000Y-119126000D02*
X128016000Y-117856000D01*
X128016000Y-117856000D02*
X128016000Y-109474000D01*
%TO.N,Net-(U1C--)*%
X113284000Y-94996000D02*
X113538000Y-95250000D01*
X113284000Y-91440000D02*
X113284000Y-94996000D01*
X135382000Y-84074000D02*
X122682000Y-84074000D01*
X122682000Y-84074000D02*
X121158000Y-82550000D01*
%TO.N,Net-(C8-Pad2)*%
X132588000Y-91694000D02*
X134620000Y-89662000D01*
X127254000Y-91694000D02*
X132588000Y-91694000D01*
%TO.N,Net-(R2-Pad1)*%
X137160000Y-91694000D02*
X137668000Y-91694000D01*
X137668000Y-91694000D02*
X139192000Y-93218000D01*
X139192000Y-93218000D02*
X139192000Y-94234000D01*
X143256000Y-98298000D02*
X143256000Y-100838000D01*
X139192000Y-94234000D02*
X143256000Y-98298000D01*
X143256000Y-100838000D02*
X146558000Y-104140000D01*
%TO.N,-5V*%
X118110000Y-102108000D02*
X126949200Y-102108000D01*
X115925600Y-111302800D02*
X115824000Y-111201200D01*
X126974600Y-102133400D02*
X122707400Y-102133400D01*
X122707400Y-102133400D02*
X116789200Y-96215200D01*
X126949200Y-102108000D02*
X126974600Y-102133400D01*
X115824000Y-104394000D02*
X118110000Y-102108000D01*
X115824000Y-111201200D02*
X115824000Y-104394000D01*
X116789200Y-96215200D02*
X116789200Y-91948000D01*
%TO.N,Net-(R6-Pad2)*%
X148336000Y-93980000D02*
X141224000Y-93980000D01*
X149098000Y-101600000D02*
X149098000Y-94742000D01*
X149098000Y-94742000D02*
X148336000Y-93980000D01*
%TO.N,Net-(R25-Pad2)*%
X148336000Y-118364000D02*
X149113000Y-117587000D01*
X128778000Y-100330000D02*
X134874000Y-100330000D01*
X137668000Y-103124000D02*
X137668000Y-110744000D01*
X145288000Y-118364000D02*
X148336000Y-118364000D01*
X134874000Y-100330000D02*
X137668000Y-103124000D01*
X126111000Y-97663000D02*
X128778000Y-100330000D01*
X149113000Y-117587000D02*
X149113000Y-114046000D01*
X137668000Y-110744000D02*
X145288000Y-118364000D01*
%TO.N,Net-(R15-Pad2)*%
X137160000Y-93472000D02*
X138684000Y-94996000D01*
X138684000Y-94996000D02*
X138684000Y-108697000D01*
X138684000Y-108697000D02*
X146573000Y-116586000D01*
%TO.N,AN0*%
X132090000Y-68590000D02*
X139065000Y-68590000D01*
X131826000Y-68326000D02*
X132090000Y-68590000D01*
X123698000Y-68326000D02*
X131826000Y-68326000D01*
%TO.N,5V*%
X122986800Y-89408000D02*
X112522000Y-89408000D01*
X110998000Y-90932000D02*
X110998000Y-109778800D01*
X122605800Y-113284000D02*
X124561600Y-111328200D01*
X129794000Y-115824000D02*
X134366000Y-120396000D01*
X114503200Y-113284000D02*
X122605800Y-113284000D01*
X125501400Y-91922600D02*
X122986800Y-89408000D01*
X129794000Y-109474000D02*
X129794000Y-115824000D01*
X144485161Y-122641161D02*
X144485161Y-122722838D01*
X134061200Y-94691200D02*
X128270000Y-94691200D01*
X110998000Y-109778800D02*
X114503200Y-113284000D01*
X128270000Y-94691200D02*
X125501400Y-91922600D01*
X134366000Y-120396000D02*
X142240000Y-120396000D01*
X128524000Y-108204000D02*
X129794000Y-109474000D01*
X142240000Y-120396000D02*
X144485161Y-122641161D01*
X119151400Y-72872600D02*
X119151400Y-85572600D01*
X121158000Y-70866000D02*
X119151400Y-72872600D01*
X144485161Y-122722838D02*
X149270323Y-127508000D01*
X119151400Y-85572600D02*
X125501400Y-91922600D01*
X124561600Y-109372400D02*
X125730000Y-108204000D01*
X112522000Y-89408000D02*
X110998000Y-90932000D01*
X125730000Y-108204000D02*
X128524000Y-108204000D01*
X124561600Y-111328200D02*
X124561600Y-109372400D01*
%TD*%
M02*
