M48
; DRILL file {KiCad (7.0.0)} date Sat Feb 24 11:01:39 2024
; FORMAT={-:-/ absolute / inch / decimal}
; #@! TF.CreationDate,2024-02-24T11:01:39-08:00
; #@! TF.GenerationSoftware,Kicad,Pcbnew,(7.0.0)
; #@! TF.FileFunction,Plated,1,2,PTH
FMAT,2
INCH
; #@! TA.AperFunction,Plated,PTH,ViaDrill
T1C0.0157
; #@! TA.AperFunction,Plated,PTH,ComponentDrill
T2C0.0315
; #@! TA.AperFunction,Plated,PTH,ComponentDrill
T3C0.0394
; #@! TA.AperFunction,Plated,PTH,ComponentDrill
T4C0.0591
; #@! TA.AperFunction,Plated,PTH,ComponentDrill
T5C0.0669
; #@! TA.AperFunction,Plated,PTH,ComponentDrill
T6C0.0728
%
G90
G05
T1
X4.19Y-3.9
X4.33Y-3.9
X4.46Y-3.6
X4.47Y-3.75
X4.564Y-4.382
X4.598Y-3.62
X4.77Y-3.25
X4.904Y-4.383
X4.941Y-3.619
X4.965Y-3.845
X5.01Y-3.61
X5.04Y-4.31
X5.09Y-4.69
X5.12Y-4.01
X5.24Y-4.22
X5.278Y-3.728
X5.3Y-3.53
X5.33Y-3.31
X5.4Y-3.61
X5.4Y-3.68
X5.48Y-3.53
X5.56Y-3.7
X5.71Y-3.53
T2
X5.7017Y-2.8304
X5.7017Y-2.9304
X5.7017Y-3.0304
X5.7017Y-3.1304
X5.77Y-3.9
X5.77Y-4.1
X5.7706Y-4.39
X5.7706Y-4.59
X5.87Y-4.0
X5.8706Y-4.49
X6.0017Y-2.8304
X6.0017Y-2.9304
X6.0017Y-3.0304
X6.0017Y-3.1304
T3
X4.77Y-2.69
X4.77Y-2.79
X4.77Y-2.89
X4.77Y-5.4
X4.77Y-5.5
X4.77Y-5.6
X4.87Y-2.69
X4.87Y-2.79
X4.87Y-2.89
X4.87Y-5.4
X4.87Y-5.5
X4.87Y-5.6
X5.23Y-5.08
X5.23Y-5.26
X5.23Y-5.4469
X5.33Y-4.36
X5.33Y-4.46
X5.33Y-4.56
X5.33Y-5.08
X5.33Y-5.26
X5.33Y-5.4469
X5.475Y-2.7004
X5.475Y-2.8004
X5.475Y-2.9004
X5.475Y-3.0004
X5.6799Y-5.02
X5.6831Y-5.49
X5.8768Y-5.02
X5.88Y-5.49
T4
X5.36Y-3.15
X5.37Y-4.83
T5
X6.2852Y-4.7948
X6.2852Y-5.1885
X6.3836Y-4.6964
X6.3836Y-4.9917
X6.3836Y-5.2869
X6.7576Y-4.7948
X6.7576Y-5.1885
T6
X6.5387Y-3.0844
X6.5387Y-3.4596
X6.5387Y-3.8348
X6.5387Y-4.21
T0
M30
